<svg width="689" height="346" viewBox="0 0 689 346" fill="none" xmlns="http://www.w3.org/2000/svg">
    <g filter="url(#filter0_d_1611_7664)">
        <rect x="102.105" y="10.373" width="465.032" height="279.019" rx="10" fill="white" />
    </g>
    <circle cx="383.917" cy="168.213" r="46.5032" fill="#A1E2D6" />
    <mask id="mask0_1611_7664" style="mask-type:alpha" maskUnits="userSpaceOnUse" x="337" y="121" width="94"
        height="94">
        <circle cx="383.917" cy="168.212" r="46.5032" fill="#99A6ED" />
    </mask>
    <g mask="url(#mask0_1611_7664)">
        <path
            d="M370.122 142.234C373.236 139.828 377.034 138.227 380.988 138.037C381.784 138.348 382.693 138.322 383.489 138.037C383.921 138.019 384.362 138.019 384.795 138.037C385.591 138.348 386.499 138.331 387.295 138.037C390.384 138.227 393.412 139.231 396.042 140.858C396.968 141.429 397.972 141.87 398.897 142.441C402.263 144.466 405.161 147.348 406.978 150.844C408.423 153.587 408.951 156.797 408.492 159.861C408.371 160.726 407.999 161.522 407.774 162.361C407.731 163.365 407.869 164.369 407.791 165.373C407.61 171.517 405.784 177.695 402.099 182.671C402.834 183.813 403.241 185.198 403.007 186.565C402.799 188.123 401.761 189.412 400.593 190.399C399.693 190.658 398.802 190.035 397.911 190.347C397.193 190.606 396.752 191.29 396.561 192C396.233 193.159 395.558 194.215 394.615 194.968C393.81 195.617 393.049 196.326 392.504 197.209C390.946 195.461 390.194 193.055 390.375 190.728C390.401 190.329 390.427 189.931 390.436 189.533C390.6 188.4 390.626 187.232 390.419 186.107C391.206 185.76 391.985 185.406 392.737 184.999C393.516 184.592 394.139 183.943 394.918 183.536C396.639 182.654 398.067 181.226 399.053 179.573C400.135 177.765 400.489 175.662 401.078 173.672C401.138 173.239 401.657 173.265 401.969 173.092C403.119 172.581 403.95 171.577 404.659 170.574C405.827 168.869 406.667 166.775 406.243 164.681C404.876 166.048 403.396 167.406 401.545 168.09C401.017 168.272 400.394 168.393 399.884 168.107C399.633 167.493 399.737 166.801 399.607 166.16C399.278 164.343 398.854 162.439 397.669 160.968C396.345 159.315 394.321 158.372 392.279 157.983C389.891 157.49 387.443 158.087 385.046 157.715C381.248 157.169 377.666 155.698 374.249 154.011C372.596 155.162 371.099 156.555 369.949 158.216C369.222 159.246 368.729 160.432 367.846 161.349C367.137 162.085 366.315 162.716 365.424 163.227C364.818 163.547 364.161 163.841 363.46 163.824C362.958 163.807 362.56 163.469 362.188 163.175C361.6 164.109 361.357 165.234 361.461 166.333C361.608 168.159 362.525 169.821 363.616 171.249C364.351 172.244 365.355 173.048 366.566 173.386C366.825 173.767 366.851 174.269 366.998 174.71C367.414 176.146 367.725 177.635 368.409 178.976C368.867 179.902 369.473 180.75 370.182 181.494C372.215 183.571 374.794 184.982 377.424 186.158C377.441 187.82 377.441 189.481 377.225 191.126C372.042 189.222 367.656 185.414 364.775 180.724C362.188 176.458 360.76 171.525 360.475 166.558C360.596 166.065 360.631 165.563 360.605 165.061C360.544 164.144 360.726 163.201 360.475 162.301C360.613 159.61 361.167 156.944 361.972 154.374C362.37 152.799 362.802 151.224 363.538 149.771C364.983 146.707 367.353 144.146 370.139 142.242L370.122 142.234Z"
            fill="#2D1F1F" />
        <path
            d="M380.988 138.037C381.819 137.993 382.658 138.002 383.489 138.037C382.693 138.322 381.784 138.348 380.988 138.037Z"
            fill="#070000" />
        <path
            d="M384.786 138.037C385.617 137.993 386.456 137.993 387.287 138.037C386.491 138.331 385.582 138.348 384.786 138.037Z"
            fill="#070000" />
        <path
            d="M369.931 158.208C371.082 156.555 372.587 155.153 374.231 154.002C377.649 155.69 381.231 157.161 385.029 157.706C387.425 158.078 389.874 157.481 392.262 157.974C394.303 158.364 396.328 159.315 397.652 160.96C398.828 162.439 399.261 164.334 399.59 166.152C399.719 166.792 399.616 167.484 399.866 168.099C400.377 168.384 401 168.263 401.528 168.081C403.379 167.406 404.858 166.048 406.225 164.672C406.649 166.766 405.81 168.86 404.642 170.565C403.933 171.569 403.102 172.573 401.951 173.083C401.64 173.248 401.121 173.23 401.06 173.663C400.472 175.653 400.117 177.756 399.036 179.565C398.05 181.226 396.622 182.645 394.9 183.528C394.122 183.935 393.507 184.584 392.72 184.99C391.967 185.388 391.189 185.752 390.401 186.098C388.628 186.868 386.768 187.448 384.899 187.95C384.319 188.114 383.705 188.201 383.125 188.028C381.231 187.526 379.344 186.963 377.545 186.176C377.519 186.851 377.528 187.517 377.545 188.192C380.997 189.378 384.795 189.525 388.351 188.711C389.026 188.59 389.666 188.227 390.367 188.287C390.367 188.694 390.384 189.109 390.41 189.516C390.393 189.914 390.367 190.312 390.349 190.71C390.168 193.038 390.921 195.444 392.478 197.192C391.768 198.291 391.665 199.71 392.123 200.921C392.296 201.484 392.253 202.089 392.435 202.661C392.634 203.379 392.893 204.158 392.625 204.893C392.322 205.914 391.492 206.607 390.661 207.195C391.267 207.333 391.89 207.437 392.504 207.515C386.101 209.281 379.145 208.831 372.985 206.399C369.629 205.049 366.687 202.366 365.605 198.853C366.626 198.42 367.717 198.169 368.763 197.815C370.9 197.148 373.037 196.473 375.183 195.816C375.849 195.625 376.394 195.115 376.697 194.492C377.138 193.427 377.147 192.242 377.182 191.108C377.398 189.455 377.398 187.803 377.381 186.141C374.75 184.964 372.172 183.554 370.139 181.477C369.43 180.733 368.833 179.876 368.365 178.959C367.682 177.618 367.37 176.129 366.955 174.693C366.817 174.251 366.782 173.758 366.523 173.369C365.32 173.031 364.316 172.226 363.572 171.231C362.482 169.803 361.574 168.133 361.418 166.316C361.314 165.217 361.556 164.092 362.145 163.158C362.517 163.443 362.915 163.781 363.417 163.807C364.117 163.824 364.775 163.538 365.381 163.21C366.272 162.699 367.085 162.067 367.803 161.332C368.677 160.414 369.179 159.229 369.897 158.199L369.931 158.208Z"
            fill="#F9DAC5" />
        <path
            d="M360.449 162.284C360.691 163.192 360.51 164.127 360.579 165.044C360.613 165.546 360.579 166.056 360.449 166.541C360.363 165.122 360.363 163.694 360.449 162.275V162.284Z"
            fill="#0F0101" />
        <path
            d="M377.562 186.184C379.362 186.963 381.248 187.534 383.143 188.036C383.731 188.218 384.345 188.123 384.916 187.958C386.785 187.456 388.645 186.877 390.419 186.107C390.375 186.842 390.401 187.569 390.393 188.305C389.692 188.244 389.052 188.607 388.377 188.729C384.821 189.533 381.023 189.386 377.571 188.209C377.545 187.534 377.545 186.868 377.571 186.193L377.562 186.184Z"
            fill="#F2BC9E" />
        <path
            d="M390.419 186.107C390.626 187.232 390.592 188.408 390.436 189.533C390.401 189.127 390.393 188.711 390.393 188.305C390.393 187.569 390.375 186.842 390.419 186.107Z"
            fill="#020000" />
        <path
            d="M397.911 190.338C398.802 190.027 399.693 190.65 400.593 190.39C400.437 190.52 400.282 190.65 400.126 190.779C400.446 191.437 400.853 192.069 401.06 192.778C401.631 194.587 401.484 196.621 400.628 198.317C400.394 198.758 400.109 199.165 399.832 199.571C398.69 198.966 397.409 198.55 396.103 198.689C395.177 198.775 394.251 199.018 393.473 199.545C392.945 199.926 392.582 200.48 392.14 200.939C391.682 199.727 391.786 198.299 392.495 197.209C393.04 196.326 393.81 195.608 394.606 194.968C395.549 194.215 396.224 193.159 396.553 192C396.743 191.29 397.193 190.606 397.902 190.347L397.911 190.338Z"
            fill="#262020" />
        <path
            d="M364.636 199.147C364.957 199.035 365.277 198.94 365.605 198.853C365.709 199.191 365.51 198.524 365.623 198.862C366.704 202.384 369.646 205.066 373.003 206.408C379.171 208.839 386.127 209.289 392.521 207.524C394.745 207.662 397.089 207.256 398.941 205.949C400.074 205.153 400.982 203.95 401.121 202.531C401.389 202.609 401.536 202.34 401.683 202.176C402.358 201.267 402.92 200.264 403.293 199.191C403.007 200.099 403.145 199.649 403.293 199.199C404.85 199.744 407.047 200.125 408.492 200.939C410.101 201.847 415.776 203.137 416.503 204.893C417.065 208.848 415.465 212.854 408.587 214.698H377.675C377.32 214.628 376.974 214.542 376.619 214.542C373.34 214.559 370.061 214.559 366.773 214.542C366.419 214.542 366.064 214.628 365.718 214.698L353.737 215.753C351.687 213.252 350.657 209.93 351.003 206.71C351.116 205.516 351.6 204.409 352.128 203.353C353.045 202.115 359.627 200.965 361.055 200.324C362.171 199.718 363.468 199.606 364.636 199.147Z"
            fill="#993399" />
        <path
            d="M399.84 199.571C400.117 199.165 400.403 198.758 400.636 198.317C401.519 198.619 402.41 198.888 403.293 199.199C402.92 200.272 402.358 201.276 401.683 202.185C401.536 202.349 401.389 202.617 401.121 202.539C401.277 201.406 400.732 200.264 399.84 199.571Z"
            fill="#F9DAC5" />
        <path
            d="M393.481 199.537C394.26 199.018 395.186 198.767 396.112 198.68C397.418 198.542 398.698 198.966 399.84 199.563C400.74 200.255 401.277 201.397 401.121 202.531C400.982 203.95 400.074 205.144 398.941 205.949C397.089 207.256 394.745 207.662 392.521 207.524C391.907 207.446 391.284 207.342 390.678 207.204C391.509 206.615 392.348 205.914 392.642 204.902C392.919 204.158 392.66 203.388 392.452 202.669C392.279 202.107 392.313 201.501 392.149 200.93C392.59 200.463 392.954 199.917 393.481 199.537Z"
            fill="#2D1F1F" />
        <path
            d="M349.87 205.421C350.553 204.66 351.219 203.846 352.128 203.353C351.591 204.409 351.116 205.516 351.003 206.71C350.657 209.93 351.687 213.252 353.737 215.753H346.219C346.409 212.067 347.508 208.32 349.87 205.421Z"
            fill="#F9DAC5" />
        <path
            d="M416.494 204.885C417.446 205.707 418.138 206.78 418.735 207.87C420.016 210.328 420.638 213.088 420.777 215.848L408.579 214.689C415.465 212.846 417.057 208.839 416.494 204.885Z"
            fill="#F9DAC5" />
        <path
            d="M365.718 214.689C366.064 214.62 366.419 214.542 366.773 214.533C370.052 214.542 373.331 214.55 376.619 214.533C376.974 214.533 377.329 214.62 377.675 214.689H365.718Z"
            fill="#B15CA4" />
    </g>
    <circle cx="279.749" cy="168.213" r="46.5032" fill="#B4BDEF" />
    <mask id="mask1_1611_7664" style="mask-type:alpha" maskUnits="userSpaceOnUse" x="233" y="121" width="94"
        height="94">
        <circle cx="279.749" cy="168.212" r="46.5032" fill="#99A6ED" />
    </mask>
    <g mask="url(#mask1_1611_7664)">
        <path
            d="M277.432 138.164C281.811 137.714 286.317 138.086 290.483 139.593C293.248 140.545 295.903 141.905 298.122 143.853C300.06 145.455 301.477 147.567 302.885 149.637C304.097 151.516 304.823 153.698 305.079 155.923C305.258 157.438 305.121 158.962 305.36 160.469C305.463 161.742 305.881 162.971 305.941 164.261C306.146 168.114 305.19 171.881 304.72 175.673C304.157 179.596 304.157 183.605 304.831 187.518C305.232 190.099 305.941 192.636 306.103 195.251C306.197 196.982 305.804 198.705 305.079 200.264C303.645 199.892 302.16 199.77 300.683 199.753C297.192 198.775 293.718 197.727 290.244 196.723C289.194 196.454 288.554 195.398 288.443 194.35C288.255 192.973 288.127 191.588 288.127 190.203C288.144 189.146 288.059 188.099 288.093 187.042C290.517 186.038 292.898 184.843 294.913 183.128C296.185 182.063 297.192 180.669 297.806 179.111C298.276 177.873 298.583 176.583 299.001 175.327C300.521 175.137 301.69 173.994 302.578 172.816C303.594 171.448 304.447 169.829 304.413 168.071C304.413 167.11 304.089 166.166 303.517 165.404C302.356 167.759 300.99 170.045 299.223 171.993C299.223 171.69 299.223 171.396 299.232 171.093C299.385 169.656 299.377 168.218 299.249 166.781C299.249 166.296 299.155 165.82 298.942 165.387C299.744 164.608 299.752 163.378 299.991 162.348C298.344 161.967 296.671 161.785 294.998 161.586C292.693 159.646 290.184 157.871 287.325 156.893C284.107 155.828 280.684 155.23 277.304 155.655C276.22 155.767 275.153 156.053 274.06 156.087C272.899 156.079 271.901 155.351 271.141 154.529C269.57 155.698 268.034 156.919 266.515 158.148C265.175 159.291 263.741 160.417 262.896 162.001C262.315 162.088 261.743 162.209 261.18 162.348C261.342 163.283 261.479 164.261 261.965 165.092C261.982 166.764 262.221 168.417 262.725 170.011C261.573 169.379 260.582 168.426 259.925 167.274C259.643 166.772 259.413 166.244 259.157 165.733C258.312 167.075 258.338 168.807 258.892 170.253C259.336 171.396 260.002 172.444 260.796 173.362C261.607 174.305 262.64 175.145 263.911 175.301C264.517 177.076 264.85 178.972 265.849 180.583C267.095 182.713 269.186 184.142 271.269 185.336C272.396 186.003 273.625 186.462 274.794 187.042C274.803 188.211 274.777 189.38 274.794 190.54C274.675 191.96 274.658 193.406 274.376 194.809C274.197 195.753 273.446 196.541 272.524 196.757C269.203 197.701 265.892 198.714 262.563 199.632C260.625 199.822 258.688 200.255 256.921 201.113C256.34 200.221 255.879 199.242 255.674 198.186C255.273 196.255 255.64 194.281 256.067 192.393C256.622 190.012 257.219 187.64 257.51 185.215C258.09 181.102 257.663 176.938 256.98 172.868C256.391 169.084 255.598 165.136 256.665 161.352C257.032 159.785 256.98 158.166 257.262 156.59C257.774 153.213 259.029 149.922 261.018 147.16C263.041 144.32 265.832 142.086 268.964 140.632C271.662 139.394 274.513 138.467 277.466 138.138L277.432 138.164Z"
            fill="#5D4E32" />
        <path
            d="M266.506 158.174C268.025 156.945 269.562 155.724 271.132 154.555C271.901 155.377 272.891 156.105 274.052 156.113C275.144 156.07 276.211 155.793 277.295 155.68C280.675 155.248 284.098 155.854 287.316 156.919C290.184 157.897 292.685 159.672 294.99 161.612C292.565 161.387 290.116 161.265 287.692 161.56C286.13 161.768 284.499 162.131 283.236 163.153C282.724 163.543 282.604 164.218 282.408 164.798C281.179 164.841 279.958 164.841 278.729 164.798C278.541 164.218 278.413 163.543 277.91 163.153C276.612 162.088 274.922 161.759 273.309 161.551C269.827 161.17 266.327 161.542 262.87 162.036C263.715 160.443 265.158 159.317 266.489 158.183L266.506 158.174Z"
            fill="#F9E0CA" />
        <path
            d="M262.878 162.027C266.327 161.534 269.835 161.161 273.318 161.542C274.931 161.75 276.621 162.079 277.918 163.144C278.43 163.534 278.55 164.209 278.738 164.789C279.967 164.841 281.187 164.841 282.417 164.789C282.613 164.209 282.732 163.534 283.245 163.144C284.508 162.131 286.138 161.768 287.7 161.551C290.124 161.257 292.574 161.369 294.998 161.603C296.671 161.802 298.353 161.975 299.991 162.365C299.752 163.404 299.752 164.625 298.942 165.404C298.242 166.106 298.361 167.188 298.199 168.097C297.986 169.82 297.132 171.491 295.758 172.539C294.375 173.604 292.634 174.089 290.927 174.167C290.261 173.976 289.569 173.976 288.904 174.167C286.915 174.063 284.866 173.249 283.612 171.621C282.451 170.14 282.101 168.175 282.161 166.322C281.179 165.984 280.078 165.915 279.088 166.261C278.917 166.487 278.994 166.79 278.96 167.049C278.96 168.989 278.311 171.015 276.877 172.348C275.614 173.5 273.907 174.08 272.234 174.167C271.568 173.968 270.876 173.976 270.211 174.167C268.623 174.089 267.018 173.656 265.687 172.747C264.466 171.916 263.578 170.634 263.169 169.205C262.827 168.114 262.921 166.937 262.546 165.854C262.452 165.534 262.179 165.335 261.948 165.118C261.453 164.287 261.325 163.309 261.163 162.374C261.726 162.244 262.298 162.114 262.878 162.027ZM266.737 162.936C265.251 163.084 263.817 164.417 263.945 166.01C263.945 168.184 264.56 170.556 266.267 172.002C267.804 173.301 269.912 173.483 271.832 173.344C273.548 173.24 275.349 172.626 276.442 171.214C277.884 169.318 278.063 166.495 276.826 164.443C276.151 163.586 275.008 163.352 274.009 163.127C271.61 162.72 269.161 162.772 266.745 162.945M288.033 162.988C286.744 163.214 285.259 163.404 284.354 164.452C282.878 166.859 283.39 170.452 285.694 172.149C287.282 173.301 289.33 173.491 291.225 173.353C292.736 173.284 294.29 172.738 295.348 171.604C296.799 170.028 297.277 167.768 297.226 165.664C297.115 164.183 295.741 163.023 294.324 162.936C292.233 162.798 290.124 162.772 288.042 162.997L288.033 162.988Z"
            fill="#010D3C" />
        <path
            d="M266.737 162.936C269.152 162.763 271.602 162.711 274 163.118C274.999 163.352 276.143 163.577 276.817 164.434C278.055 166.487 277.876 169.309 276.433 171.205C275.341 172.617 273.54 173.232 271.824 173.336C269.903 173.474 267.795 173.292 266.259 171.993C264.551 170.556 263.945 168.175 263.937 166.002C263.809 164.417 265.243 163.084 266.728 162.928L266.737 162.936Z"
            fill="#F9E0CA" />
        <path
            d="M288.024 162.971C290.107 162.755 292.215 162.772 294.307 162.91C295.732 163.006 297.098 164.166 297.209 165.638C297.26 167.733 296.782 170.002 295.331 171.578C294.273 172.721 292.719 173.258 291.208 173.327C289.313 173.465 287.265 173.275 285.677 172.123C283.373 170.426 282.852 166.833 284.337 164.426C285.242 163.378 286.736 163.188 288.016 162.962L288.024 162.971Z"
            fill="#F9E0CA" />
        <path
            d="M261.957 165.118C262.187 165.335 262.46 165.534 262.554 165.854C262.93 166.937 262.844 168.114 263.177 169.205C263.587 170.634 264.475 171.916 265.695 172.747C267.027 173.647 268.632 174.08 270.219 174.167C270.893 174.21 271.568 174.21 272.242 174.167C273.924 174.08 275.622 173.5 276.885 172.348C278.319 171.015 278.968 168.989 278.968 167.049C279.002 166.79 278.926 166.487 279.096 166.261C280.086 165.915 281.179 165.984 282.169 166.322C282.109 168.175 282.459 170.132 283.62 171.621C284.875 173.249 286.923 174.063 288.912 174.167C289.587 174.21 290.261 174.201 290.935 174.167C292.651 174.089 294.384 173.604 295.766 172.539C297.149 171.491 297.994 169.82 298.208 168.097C298.37 167.197 298.242 166.106 298.95 165.404C299.155 165.837 299.249 166.313 299.257 166.798C298.993 167.673 299.181 168.582 299.121 169.474C299.087 170.028 299.129 170.573 299.24 171.11C299.232 171.413 299.223 171.708 299.232 172.011C300.999 170.063 302.356 167.777 303.525 165.421C304.097 166.183 304.43 167.127 304.421 168.088C304.456 169.846 303.602 171.465 302.586 172.833C301.69 174.011 300.521 175.145 299.01 175.344C298.592 176.6 298.284 177.89 297.815 179.128C297.2 180.687 296.193 182.081 294.921 183.146C292.907 184.86 290.525 186.055 288.101 187.06C286.232 187.804 284.294 188.35 282.348 188.835C281.52 189.068 280.667 188.869 279.864 188.653C278.166 188.176 276.442 187.709 274.794 187.077C273.625 186.505 272.396 186.038 271.269 185.371C269.186 184.176 267.095 182.747 265.849 180.617C264.85 179.007 264.517 177.111 263.911 175.336C262.648 175.18 261.615 174.331 260.796 173.396C260.002 172.47 259.336 171.422 258.892 170.288C258.338 168.842 258.312 167.11 259.157 165.768C259.422 166.279 259.643 166.807 259.925 167.309C260.582 168.461 261.573 169.413 262.725 170.045C262.221 168.452 261.982 166.798 261.965 165.127L261.957 165.118Z"
            fill="#F9E0CA" />
        <path
            d="M299.112 169.474C299.172 168.582 298.976 167.673 299.249 166.798C299.377 168.236 299.385 169.682 299.232 171.11C299.121 170.573 299.078 170.019 299.112 169.474Z"
            fill="#FFFBE5" />
        <path
            d="M270.219 174.158C270.885 173.976 271.576 173.959 272.242 174.158C271.568 174.201 270.893 174.193 270.219 174.158Z"
            fill="#00156C" />
        <path
            d="M288.912 174.167C289.578 173.976 290.269 173.968 290.935 174.167C290.261 174.21 289.587 174.21 288.912 174.167Z"
            fill="#00156C" />
        <path
            d="M274.786 187.077C276.433 187.718 278.149 188.176 279.856 188.653C280.658 188.878 281.512 189.068 282.34 188.835C284.286 188.341 286.223 187.796 288.093 187.06C288.059 188.116 288.144 189.164 288.127 190.22C288.067 189.995 288.007 189.778 287.956 189.553C286.539 189.874 285.131 190.263 283.68 190.367C281.205 190.679 278.687 190.419 276.254 189.882C275.742 189.796 275.289 189.536 274.897 189.207C274.871 189.666 274.828 190.125 274.794 190.584C274.786 189.415 274.811 188.246 274.794 187.085L274.786 187.077Z"
            fill="#E5CDBA" />
        <path
            d="M274.888 189.207C275.281 189.536 275.733 189.796 276.245 189.882C278.678 190.419 281.187 190.679 283.671 190.367C285.122 190.263 286.531 189.874 287.948 189.553C288.007 189.778 288.067 189.995 288.118 190.22C288.118 191.605 288.246 192.999 288.434 194.367C288.545 195.415 289.185 196.463 290.235 196.74C293.718 197.744 297.192 198.792 300.674 199.77C297.619 203.996 293.334 207.381 288.434 209.113C284.175 210.594 279.446 210.646 275.153 209.269C272.481 208.42 269.98 207.026 267.786 205.269C265.764 203.684 264.065 201.736 262.537 199.667C265.866 198.757 269.178 197.744 272.498 196.792C273.42 196.575 274.171 195.796 274.35 194.844C274.632 193.441 274.649 192.004 274.769 190.575C274.803 190.116 274.845 189.657 274.871 189.198L274.888 189.207Z"
            fill="#F9E0CA" />
        <path
            d="M256.895 201.139C258.662 200.281 260.599 199.857 262.537 199.658C264.065 201.727 265.764 203.676 267.786 205.26C269.98 207.018 272.473 208.412 275.153 209.26C279.446 210.637 284.175 210.585 288.434 209.104C293.334 207.373 297.619 203.996 300.674 199.762C302.151 199.779 303.636 199.9 305.07 200.273C308.254 201.069 311.173 203.104 312.829 206.005C314.391 208.602 314.818 211.728 314.553 214.715H248.359C248.402 212.395 248.957 210.083 249.956 207.996C251.407 205 253.899 202.533 256.895 201.139Z"
            fill="#A533FF" />
    </g>
    <path
        d="M488.081 215.017C514.039 215.017 535.084 194.019 535.084 168.113C535.084 142.208 514.039 121.21 488.081 121.21C462.123 121.21 441.078 142.208 441.078 168.113C441.078 194.019 462.123 215.017 488.081 215.017Z"
        fill="#FFA7A5" stroke="#FFA7A5" />
    <ellipse cx="489.113" cy="158.833" rx="16.5345" ry="16.4991" fill="white" />
    <mask id="mask2_1611_7664" style="mask-type:alpha" maskUnits="userSpaceOnUse" x="462" y="179" width="52"
        height="53">
        <ellipse cx="488.081" cy="205.236" rx="25.8351" ry="25.7798" fill="white" />
    </mask>
    <g mask="url(#mask2_1611_7664)">
        <ellipse cx="488.081" cy="168.113" rx="46.5032" ry="46.4037" fill="white" />
    </g>
    <circle cx="175.581" cy="168.213" r="46.5032" fill="#FF908D" />
    <mask id="mask3_1611_7664" style="mask-type:alpha" maskUnits="userSpaceOnUse" x="129" y="121" width="94"
        height="94">
        <circle cx="175.581" cy="168.212" r="46.5032" fill="#99A6ED" />
    </mask>
    <g mask="url(#mask3_1611_7664)">
        <g clip-path="url(#clip0_1611_7664)">
            <path
                d="M167.236 147.324C167.624 147.218 167.999 147.086 168.391 147.043C170.904 146.749 173.487 146.897 175.798 147.996C176.161 148.17 176.539 148.368 176.93 148.325C177.183 148.3 177.418 148.175 177.641 148.051C179.684 146.928 181.866 146.345 184.208 146.745C185.321 146.935 186.598 147.371 187.471 148.131C189.442 149.855 191.017 152.906 191.371 155.352C191.853 158.656 190.939 161.961 190.788 165.294C192.096 164.192 191.983 162.852 192.147 161.169C192.197 160.608 192.836 159.588 193.117 159.08C193.269 158.794 193.511 158.541 193.823 158.413C194.359 158.198 194.292 158.683 194.362 159.099C194.517 159.993 194.648 160.888 194.614 161.804C194.577 162.669 194.465 163.525 193.978 164.271C193.622 164.808 193.161 165.261 192.686 165.701C191.809 166.503 190.879 167.27 190.24 168.277C189.589 169.297 189.301 170.491 188.91 171.626C188.708 172.207 188.389 172.729 188.174 173.298C187.993 173.776 187.903 174.301 187.735 174.778C187.498 175.424 187.224 176.096 187.206 176.796C187.196 177.418 187.376 178.019 187.367 178.642C187.354 179.747 187.174 181.342 186.53 182.235C184.441 185.111 181.433 187.053 178.532 189.116C177.708 189.7 176.795 190.275 175.782 190.322C174.718 190.371 173.377 190.75 172.439 190.248C170.2 189.031 168.273 186.885 166.463 185.09C165.387 184.035 164.503 182.768 163.968 181.345C163.693 180.622 163.532 179.88 163.471 179.109C163.408 178.286 163.65 177.488 163.359 176.689C163.156 176.14 162.755 175.701 162.441 175.208C161.441 173.629 161.466 171.686 161.42 169.872C161.394 169.315 161.49 168.638 161.101 168.173C160.926 167.966 160.666 167.838 160.443 167.67C159.759 167.156 159.452 166.294 159.199 165.468C158.901 164.517 158.615 163.553 158.494 162.568C158.376 161.672 158.321 160.481 158.805 159.685C159.383 158.731 160.336 159.297 160.727 160.078C160.95 160.5 161.023 160.979 161.044 161.448C161.064 161.878 160.934 162.367 161.03 162.781C161.726 162.749 161.941 161.076 162.147 160.584C162.49 159.756 162.755 158.893 162.982 158.032C163.409 156.286 163.605 154.487 163.548 152.699C163.521 152.104 163.493 151.509 163.555 150.922C163.617 150.335 163.91 149.814 164.087 149.234C164.119 149.106 164.19 148.988 164.287 148.895C164.517 148.656 164.748 148.429 164.965 148.191C165.075 148.084 165.17 147.953 165.333 147.907C165.984 147.712 166.623 147.53 167.275 147.348M165.507 178.659C165.516 178.849 165.661 178.97 165.756 179.117C166.041 179.498 166.264 179.932 166.608 180.246C167.208 180.853 167.758 181.501 168.357 182.095C168.804 182.43 169.311 182.686 169.794 182.981C169.99 183.099 170.186 183.217 170.404 183.27C170.956 183.397 171.507 183.524 172.059 183.651C172.648 183.763 173.229 183.965 173.829 184.039C174.083 184.04 174.347 183.977 174.601 183.991C174.995 183.998 175.384 183.904 175.79 183.898C176.209 183.904 176.623 183.796 177.042 183.802C177.423 183.785 177.815 183.766 178.177 183.623C178.812 183.365 179.462 183.145 180.084 182.862C180.295 182.763 180.535 182.727 180.718 182.566C181.487 181.909 182.284 181.288 183.053 180.63C183.126 180.564 183.212 180.496 183.246 180.393C182.947 180.534 182.691 180.749 182.393 180.902C181.778 181.324 181.136 181.722 180.507 182.119C179.659 182.45 178.782 182.706 177.921 183.038C177.659 183.139 177.378 183.088 177.113 183.139C176.445 183.233 175.785 183.238 175.116 183.32C174.533 183.334 173.959 183.271 173.387 183.26C172.955 183.254 172.623 182.939 172.259 182.766C171.307 182.2 170.32 181.725 169.355 181.173C169.2 181.104 169.044 181.035 168.937 180.913C168.629 180.572 168.213 180.363 167.893 180.022C167.388 179.525 166.704 179.29 166.104 178.936C165.908 178.831 165.725 178.7 165.506 178.647L165.507 178.659Z"
                fill="#FFC6BB" />
            <path
                d="M167.236 147.324C167.624 147.218 167.999 147.086 168.391 147.043C170.904 146.749 173.487 146.897 175.798 147.996C176.161 148.17 176.539 148.368 176.93 148.325C177.183 148.3 177.418 148.175 177.641 148.051C179.684 146.928 181.866 146.345 184.208 146.745C185.321 146.935 186.598 147.371 187.471 148.131C189.442 149.855 191.017 152.906 191.371 155.352C191.853 158.656 190.939 161.961 190.788 165.294C192.096 164.192 191.983 162.852 192.147 161.169C192.197 160.608 192.836 159.588 193.117 159.08C193.269 158.794 193.511 158.541 193.823 158.413C194.359 158.198 194.292 158.683 194.362 159.099C194.517 159.993 194.648 160.888 194.614 161.804C194.577 162.669 194.465 163.525 193.978 164.271C193.622 164.808 193.161 165.261 192.686 165.701C191.809 166.503 190.879 167.27 190.24 168.277C189.589 169.297 189.301 170.491 188.91 171.626C188.708 172.207 188.389 172.729 188.174 173.298C187.993 173.776 187.903 174.301 187.735 174.778C187.498 175.424 187.224 176.096 187.206 176.796C187.196 177.418 187.376 178.019 187.367 178.642C187.354 179.747 187.174 181.342 186.53 182.235C184.441 185.111 181.433 187.053 178.532 189.116C177.708 189.7 176.795 190.275 175.782 190.322C174.718 190.371 173.377 190.75 172.439 190.248C170.2 189.031 168.273 186.885 166.463 185.09C165.387 184.035 164.503 182.768 163.968 181.345C163.693 180.622 163.532 179.88 163.471 179.109C163.408 178.286 163.65 177.488 163.359 176.689C163.156 176.14 162.755 175.701 162.441 175.208C161.441 173.629 161.466 171.686 161.42 169.872C161.394 169.315 161.49 168.638 161.101 168.173C160.926 167.965 160.666 167.838 160.443 167.67C159.759 167.156 159.452 166.294 159.199 165.468C158.901 164.517 158.615 163.553 158.494 162.568C158.376 161.672 158.321 160.481 158.805 159.685C159.383 158.731 160.336 159.297 160.727 160.078C160.95 160.5 161.023 160.979 161.044 161.448C161.064 161.878 160.934 162.367 161.03 162.781C161.726 162.749 161.941 161.076 162.147 160.584C162.49 159.756 162.755 158.893 162.982 158.032C163.409 156.286 163.605 154.487 163.548 152.699C163.521 152.104 163.493 151.509 163.555 150.922C163.617 150.335 163.91 149.814 164.087 149.234C164.119 149.106 164.19 148.988 164.287 148.895C164.517 148.656 164.748 148.429 164.965 148.191C165.075 148.084 165.17 147.953 165.333 147.907C165.984 147.712 166.623 147.53 167.275 147.348M165.507 178.659C165.516 178.849 165.661 178.97 165.756 179.117C166.041 179.498 166.264 179.932 166.608 180.246C167.208 180.853 167.758 181.501 168.357 182.095C168.804 182.43 169.311 182.686 169.794 182.981C169.99 183.099 170.186 183.217 170.404 183.27C170.956 183.397 171.507 183.524 172.059 183.651C172.648 183.763 173.229 183.965 173.829 184.039C174.083 184.04 174.347 183.977 174.601 183.991C174.995 183.998 175.384 183.904 175.79 183.898C176.209 183.904 176.623 183.796 177.042 183.802C177.423 183.785 177.815 183.766 178.177 183.623C178.812 183.365 179.462 183.145 180.084 182.862C180.295 182.763 180.535 182.727 180.718 182.566C181.487 181.909 182.284 181.288 183.053 180.63C183.126 180.564 183.212 180.496 183.246 180.393C182.947 180.534 182.691 180.749 182.393 180.902C181.778 181.324 181.136 181.722 180.507 182.119C179.659 182.45 178.782 182.706 177.921 183.038C177.659 183.139 177.378 183.088 177.113 183.139C176.445 183.233 175.785 183.238 175.116 183.32C174.533 183.334 173.959 183.271 173.387 183.26C172.955 183.254 172.623 182.939 172.259 182.766C171.307 182.2 170.32 181.725 169.355 181.173C169.2 181.104 169.044 181.035 168.937 180.913C168.629 180.572 168.213 180.363 167.893 180.022C167.388 179.525 166.704 179.29 166.104 178.936C165.908 178.831 165.725 178.7 165.506 178.647L165.507 178.659Z"
                stroke="#FFC6BB" stroke-width="0.03" />
            <path
                d="M163.262 177.087C163.262 177.087 163.348 177.02 163.397 176.979C163.469 177.712 163.466 178.462 163.5 179.209C163.485 179.426 163.495 179.654 163.518 179.868C163.476 179.794 163.473 179.718 163.469 179.642C163.447 178.894 163.4 178.147 163.365 177.387C163.36 177.273 163.318 177.186 163.263 177.1L163.262 177.087Z"
                fill="#2D3E50" stroke="#2D3E50" stroke-width="0.03" />
            <path
                d="M161.497 179.288C161.851 178.422 162.608 177.777 163.33 177.185C163.09 179.418 163.98 181.649 165.332 183.441C166.684 185.232 168.439 186.662 170.191 188.053C171.838 189.361 173.634 190.573 175.832 190.066C177.766 189.621 179.407 188.301 180.951 187.113C182.827 185.668 184.526 183.977 185.884 182.036C186.42 181.262 187.801 179.002 187.399 178.005C188.834 181.583 188.321 185.605 187.722 189.416C187.359 191.73 186.984 194.045 186.582 196.349C186.423 197.309 186.251 198.256 186.066 199.204C185.84 200.357 185.576 201.512 185.312 202.666C183.984 208.288 182.335 213.823 180.351 219.246C180.149 214.051 179.916 208.704 177.78 203.966C177.173 202.635 176.414 201.325 176.284 199.871C176.077 197.595 177.428 195.502 178.725 193.614C180.771 195.309 182.803 196.993 184.849 198.689C185.087 198.881 185.325 199.086 185.562 199.278C185.1 198.906 184.591 198.586 184.141 198.201C183.692 197.815 183.24 197.379 182.802 196.955C181.937 196.094 181.109 195.205 180.195 194.384C178.513 192.875 176.47 191.509 174.092 191.695C173.99 191.699 173.889 191.717 173.788 191.721C173.763 191.723 173.737 191.724 173.712 191.725C171.594 192.038 169.814 193.352 168.212 194.683C168.163 194.723 168.114 194.763 168.065 194.804C167.711 195.099 167.357 195.407 167.015 195.715C166.857 195.849 166.698 195.996 166.539 196.131C166.393 196.264 166.133 196.403 166.026 196.561C165.684 196.843 165.341 197.125 164.998 197.395C164.667 197.652 164.303 198.011 163.917 198.181C166.021 196.726 168.125 195.283 170.229 193.828C171.048 195.618 170.549 197.736 169.678 199.502C168.808 201.269 167.585 202.849 166.87 204.672C166.109 206.611 165.538 208.834 164.907 210.831C162.7 205.105 162.435 198.808 161.963 192.686C161.674 188.903 161.449 185.13 161.313 181.341C161.283 180.695 161.266 180.048 161.466 179.442C161.489 179.39 161.5 179.339 161.523 179.287L161.497 179.288Z"
                fill="#297FB8" stroke="#297FB8" stroke-width="0.03" />
            <path
                d="M165.536 178.722C166.134 178.758 166.805 179.272 167.277 179.593C167.854 179.999 168.408 180.443 168.984 180.822C170.15 181.594 171.441 182.08 172.769 182.514C174.097 182.948 175.601 183.094 177.028 182.914C178.39 182.737 179.743 182.345 180.971 181.717C181.542 181.424 182.084 181.069 182.573 180.653C183.025 180.277 183.508 179.746 184.07 179.543C183.99 179.724 183.832 179.884 183.699 180.017C182.659 181.144 181.52 182.326 180.211 183.123C179.26 183.7 178.212 184.104 177.13 184.319C174.766 184.796 172.308 184.351 170.198 183.204C169.079 182.595 168.065 181.817 167.173 180.919C166.574 180.311 165.765 179.562 165.56 178.708L165.536 178.722Z"
                fill="#FEB1A4" stroke="#FEB1A4" stroke-width="0.03" />
            <path
                d="M187.1 177.524C187.325 177.729 187.428 178.017 187.591 178.263C187.882 178.783 188.198 179.302 188.489 179.834C188.64 180.081 188.603 180.387 188.629 180.665C188.687 181.932 188.746 183.199 188.805 184.478C188.819 184.783 188.872 185.11 188.784 185.406C188.565 186.165 188.345 186.912 188.127 187.671C187.994 188.109 187.901 188.557 187.717 188.972C187.784 188.22 187.953 187.476 188.083 186.733C188.159 186.171 188.311 185.618 188.349 185.058C188.287 183.449 188.201 181.853 188.127 180.244C188.119 179.788 187.872 179.393 187.713 178.981C187.545 178.646 187.477 178.256 187.259 177.948C187.215 178.077 187.196 178.218 187.189 178.358C187.151 178.08 187.1 177.803 187.1 177.524Z"
                fill="#1D5A81" stroke="#1D5A81" stroke-width="0.03" />
            <path
                d="M152.902 183.1C154.472 182.456 156.028 181.788 157.569 181.082C155.385 183.544 152.848 185.514 150.14 187.353L153.275 189.811C151.626 190.687 149.978 191.55 148.33 192.426C148.057 192.565 147.773 192.743 147.698 193.039C147.645 193.257 147.718 193.482 147.804 193.681C152.679 206.075 158.538 218.056 165.721 229.29L165.83 229.463C165.899 229.574 165.98 229.684 166.049 229.795C168.017 232.84 170.06 235.844 172.201 238.779C172.336 238.963 172.472 239.147 172.507 239.361C172.571 239.65 172.458 239.948 172.357 240.232C171.665 242.028 171.063 243.846 170.436 245.652C170.271 246.206 170.041 246.737 169.941 247.3C170.099 247.166 170.167 246.972 170.26 246.803C171.634 244.391 172.969 241.943 174.356 239.53C175.243 238.131 176.143 236.731 177.044 235.331C180.668 230.226 183.481 224.612 186.218 219.001C188.956 213.391 191.838 207.901 194.837 202.456C194.954 202.235 195.083 202.013 195.213 201.791C196.198 200.032 197.196 198.272 198.206 196.512C199.299 194.608 197.84 193.253 196.798 191.575C196.77 191.525 196.73 191.464 196.753 191.412C196.762 191.348 196.824 191.307 196.886 191.279C197.851 190.739 198.804 190.2 199.769 189.66C199.856 189.618 199.943 189.564 199.963 189.461C199.985 189.384 199.944 189.31 199.903 189.248C198.723 187.055 197.468 184.904 196.313 182.698C196.243 182.574 196.2 182.449 196.244 182.307C196.048 183.015 202.741 185.004 203.308 185.194C206.339 186.209 209.36 187.301 212.435 188.188C214.995 188.933 218.028 188.628 220.192 190.407C221.116 191.164 221.749 192.24 222.181 193.35C223.219 196.044 223.214 198.964 223.863 201.752C224.545 204.691 225.793 207.541 226.8 210.376C228.771 215.947 229.802 221.803 230.225 227.674C230.324 228.977 230.963 244.778 230.241 244.812L209.681 245.76C210.394 242.502 210.582 239.142 210.619 235.814C210.644 234.15 210.655 232.474 210.616 230.8C210.597 230.102 210.553 229.432 210.445 228.738C210.334 227.982 210.009 227.273 209.974 226.513C209.536 230.215 208.994 233.896 208.479 237.589C208.334 238.573 207.879 245.779 206.677 245.86C200.361 246.265 194.036 246.481 187.715 246.772C173.615 247.422 159.515 248.073 145.429 248.722L142.642 248.851C142.351 237.87 140.945 226.928 138.447 216.24C138.037 227.177 142.308 238.037 140.943 248.904C133.837 249.257 126.732 249.622 119.627 249.975C119.272 249.992 118.917 250.008 118.593 249.858C117.607 249.396 117.857 247.949 118.229 246.929C124.419 230.293 124.502 211.983 129.544 194.955C129.993 193.423 130.53 191.837 131.671 190.718C132.935 189.479 134.755 189.027 136.473 188.58C142.08 187.115 147.582 185.287 152.939 183.085L152.902 183.1Z"
                fill="#2670A0" stroke="#2670A0" stroke-width="0.03" />
            <path
                d="M186.725 195.835C187.027 193.853 187.253 191.862 187.567 189.88C187.521 191.355 187.373 192.822 187.289 194.298C187.227 194.885 187.242 195.494 187.117 196.071C186.796 197.647 186.501 199.235 186.155 200.812C185.849 202.172 185.556 203.531 185.238 204.891C185.12 205.354 185.053 205.839 184.871 206.292C184.227 208.023 183.584 209.754 182.94 211.485C182.714 212.092 182.578 212.72 182.313 213.304C182.412 212.715 182.641 212.171 182.818 211.604C183.369 209.789 183.722 208.072 184.299 206.268C184.748 204.178 185.41 202.002 185.872 199.911C185.95 199.679 185.703 199.551 185.607 199.39C185.71 199.436 185.805 199.572 185.931 199.553C186.217 198.321 186.452 197.079 186.725 195.848L186.725 195.835Z"
                fill="#1D5980" stroke="#1D5980" stroke-width="0.03" />
            <path
                d="M173.348 191.539C173.9 191.386 174.451 191.501 175.012 191.551C175.471 191.593 175.889 191.587 176.316 191.757C176.743 191.928 177.135 192.177 177.515 192.426C177.803 192.616 178.078 192.806 178.366 192.983C178.588 193.125 178.969 193.412 178.856 193.71L178.669 193.515C178.081 193.136 177.479 192.757 176.89 192.366C176.629 192.213 176.405 192.033 176.086 192.009C175.678 191.965 175.243 191.896 174.835 191.851C173.61 191.717 172.464 192.189 171.467 192.87C171.196 193.06 170.926 193.25 170.668 193.44C170.546 193.534 170.41 193.629 170.288 193.724C170.312 193.71 170.002 193.318 170.013 193.267C170.034 193.177 170.345 193.036 170.418 192.981C170.664 192.805 170.926 192.704 171.185 192.54C171.691 192.212 172.275 191.944 172.836 191.715C173.01 191.643 173.185 191.584 173.36 191.526L173.348 191.539Z"
                fill="#1B5981" stroke="#1B5981" stroke-width="0.03" />
            <path
                d="M167.378 195.292C168.163 194.698 168.905 194.003 169.719 193.471C169.94 193.321 170.369 192.984 170.478 193.144C170.492 193.181 170.539 193.103 170.576 193.076C170.736 192.967 170.909 192.857 171.069 192.748C171.143 192.707 171.383 192.95 171.373 193.001C171.363 193.065 171.077 193.205 171.016 193.246L170.659 193.491C168.532 194.985 166.419 196.517 164.251 197.963C164.103 198.059 163.968 198.154 163.82 198.249C164.953 197.207 166.151 196.212 167.39 195.279L167.378 195.292Z"
                fill="#1B5981" stroke="#1B5981" stroke-width="0.03" />
            <path
                d="M129.005 195.399C129.06 195.498 129.091 195.611 129.083 195.725C129.103 196.143 129.109 196.562 129.116 196.98C129.12 197.082 129.074 197.173 129.027 197.251C129.023 196.629 128.957 196.01 128.992 195.399L129.005 195.399Z"
                fill="#1F2B39" stroke="#1F2B39" stroke-width="0.03" />
            <path
                d="M178.222 192.875C179.26 193.627 179.517 193.425 181.817 195.96C182.406 196.618 183.165 197.103 183.826 197.682C184.13 197.935 184.434 198.188 184.737 198.44C184.989 198.67 185.433 198.941 185.538 199.279C185.462 199.283 185.37 199.223 185.304 199.176C185.212 199.104 185.119 199.006 185.026 198.922C184.775 198.718 184.537 198.5 184.286 198.296C183.731 197.826 183.2 197.318 182.622 196.887C182.003 196.421 181.419 195.864 180.825 195.358C180.191 194.829 179.557 194.286 178.935 193.757C178.869 193.696 178.79 193.636 178.761 193.549C178.731 193.461 178.148 192.93 178.222 192.875Z"
                fill="#195983" stroke="#195983" stroke-width="0.03" />
            <path
                d="M186.799 177.36C187.748 178.103 188.672 178.886 189.609 179.643C189.833 179.823 190.033 180.029 190.305 180.144C192.424 180.947 194.555 181.738 196.686 182.541C196.642 182.683 196.699 182.82 196.769 182.956C197.393 184.108 198.104 185.205 198.741 186.356C199.022 186.94 199.377 187.482 199.671 188.065C200.031 188.721 200.429 189.363 200.752 190.034C200.632 190.204 200.42 190.278 200.235 190.388C199.282 190.927 198.303 191.442 197.337 191.969C197.213 192.025 197.155 192.155 197.237 192.278C198.03 193.498 198.822 194.718 199.602 195.939C199.709 196.061 199.588 196.194 199.53 196.311C198.94 197.265 198.337 198.232 197.746 199.186C197.155 200.14 196.538 201.07 196.025 202.058C194.747 204.351 193.457 206.658 192.179 208.951C191.533 210.085 190.925 211.231 190.279 212.352C189.729 213.368 189.153 214.372 188.591 215.388C187.945 216.522 187.377 217.704 186.757 218.849C186.213 219.979 185.591 221.087 185.021 222.217C183.377 225.391 181.733 228.551 180.089 231.725C179.01 233.374 177.906 235.025 176.827 236.687C176.468 237.16 176.2 237.68 175.854 238.153C174.88 239.62 173.907 241.087 172.946 242.553C171.451 245.085 170.008 247.652 168.512 250.184C168.406 250.367 168.326 250.561 168.155 250.708C168.268 250.119 168.508 249.549 168.698 248.982C169.126 247.807 169.503 246.609 169.93 245.421C170.322 244.274 170.687 243.114 171.118 241.99C171.152 241.899 171.173 241.81 171.207 241.719C171.523 241.133 171.722 240.502 171.999 239.905C172.925 237.692 173.852 235.478 174.791 233.277C175.019 232.708 175.298 232.149 175.499 231.568C175.923 230.571 176.282 229.552 176.705 228.542C177.207 227.313 177.671 226.073 178.172 224.831C178.43 224.083 178.79 223.368 178.996 222.609C179.169 222.221 179.341 221.819 179.487 221.419C180.013 219.884 180.527 218.362 181.028 216.828C181.23 216.26 181.445 215.692 181.621 215.1C181.897 214.478 182.044 213.824 182.294 213.19C182.998 211.38 183.689 209.571 184.393 207.761C184.586 207.283 184.652 206.785 184.782 206.284C185.122 204.859 185.45 203.434 185.778 202.01C186.159 200.368 186.476 198.703 186.819 197.049C186.955 196.434 186.939 195.812 187.012 195.187C187.093 193.647 187.263 192.103 187.319 190.552C187.354 190.22 187.403 189.9 187.49 189.579C187.685 189.138 187.791 188.676 187.935 188.213C188.164 187.415 188.42 186.629 188.65 185.831C188.749 185.509 188.683 185.182 188.681 184.852C188.62 183.522 188.558 182.192 188.497 180.862C188.484 180.57 188.52 180.251 188.355 179.992C188.038 179.448 187.696 178.906 187.378 178.349C187.201 178.091 187.086 177.791 186.847 177.574C186.844 177.51 186.829 177.448 186.813 177.385L186.799 177.36Z"
                fill="#1B5981" stroke="#1B5981" stroke-width="0.03" />
            <path
                d="M171.222 135.779C174.803 135.271 178.633 134.904 182.212 135.704C184.893 136.304 188.226 137.826 189.415 140.5C189.755 141.259 189.961 142.138 190.621 142.692C191.281 143.245 191.944 143.849 192.509 144.547C193.911 146.323 194.634 148.511 194.826 150.749C194.973 152.545 194.922 154.477 194.393 156.216C193.864 157.954 193.018 159.719 192.556 161.543C192.363 162.301 192.234 163.082 191.989 163.829C191.744 164.577 191.369 165.254 190.771 165.777C190.905 163.727 191 161.653 190.715 159.61C190.489 157.995 190.036 156.429 189.847 154.813C189.723 153.79 189.714 152.75 189.514 151.731C189.315 150.712 188.823 149.96 188.093 149.257C186.804 148.009 185.107 147.275 183.334 147.09C182.224 146.976 180.939 147.2 179.847 147.467C178.855 147.703 177.893 148.318 177.097 148.939C177.011 149.006 176.913 149.087 176.799 149.08C176.723 149.083 176.645 149.049 176.567 149.014C175.995 148.723 175.481 148.315 174.897 148.038C174.222 147.713 173.466 147.558 172.726 147.478C170.977 147.266 169.191 147.361 167.47 147.758C166.628 147.949 165.778 148.229 165.078 148.732C163.776 149.68 163.569 151.264 163.602 152.786C163.63 153.673 163.786 154.593 163.624 155.476C163.452 156.423 163.228 157.348 162.979 158.273C162.728 159.174 162.452 160.062 162.137 160.94C161.878 161.65 161.248 162.86 160.713 163.38C160.871 163.233 161.09 161.915 161.066 161.675C161.022 161.258 160.952 160.855 160.782 160.469C160.483 159.76 159.903 159.291 159.178 159.82C159.116 159.861 159.068 159.914 159.02 159.967C158.778 160.232 158.641 160.568 158.4 160.833C158.544 160.661 158.207 159.407 158.195 159.154C158.157 158.61 158.195 158.05 158.208 157.503C158.23 156.334 158.329 155.174 158.479 154.025C158.669 152.645 158.95 151.286 159.32 149.949C159.734 148.47 160.25 146.999 160.676 145.507C161.725 141.815 163.843 138.467 167.437 136.854C168.681 136.289 169.949 135.99 171.223 135.804L171.222 135.779Z"
                fill="#77070D" stroke="#77070D" stroke-width="0.03" />
            <path
                d="M164.779 210.519L170.742 235.482L173.425 239.713L180.357 219.348L180.892 201.487L178.71 193.539L176.331 192.049L174.059 191.798L172.303 192.26L170.276 193.724L165.57 200.962L164.779 210.519Z"
                fill="#297FB8" stroke="#297FB8" stroke-width="0.03" />
            <path
                d="M160.633 179.76C160.831 179.662 161.029 179.551 161.243 179.503C161.13 179.534 161.415 183.241 161.431 183.595C161.496 184.989 161.56 186.382 161.624 187.763C161.762 190.486 161.963 193.206 162.228 195.923C162.374 197.44 162.546 198.956 162.742 200.457C163.43 205.745 164.99 210.941 166.584 216.047C167.03 217.461 167.463 218.863 167.883 220.278C169.504 225.7 171.012 231.141 172.571 236.591C172.798 237.393 173.038 238.182 173.253 238.997C173.326 239.743 173.309 240.492 173.382 241.238C173.216 241.208 173.133 241.059 173.038 240.937C172.312 240.056 171.586 239.175 170.847 238.295C170.603 237.964 170.298 237.686 170.092 237.34C169.461 236.315 168.756 235.345 168.125 234.321C166.817 232.388 165.558 230.427 164.275 228.481C163.155 226.768 162.011 225.068 160.903 223.355C160.615 222.886 160.376 222.376 160.1 221.894C158.206 218.274 156.301 214.681 154.408 211.061C153.824 209.958 153.252 208.842 152.656 207.752C152.378 207.232 152.175 206.683 151.934 206.135C150.205 201.949 148.463 197.764 146.721 193.579C146.692 193.491 146.636 193.392 146.657 193.29C148.419 192.396 150.219 191.234 151.98 190.328C152.265 190.188 152.467 190.159 152.711 189.957C152.523 189.737 152.362 189.815 152.126 189.661C151.261 189.066 150.395 188.458 149.53 187.864C149.425 187.792 149.333 187.72 149.265 187.622C150.337 186.925 151.437 186.265 152.509 185.568C153.231 184.989 153.9 184.349 154.609 183.757C155.536 182.928 156.515 182.134 157.441 181.304C157.44 181.278 157.424 181.216 157.41 181.178C157.572 181.12 157.735 181.062 157.896 180.991C158.804 180.568 159.711 180.145 160.618 179.723L160.633 179.76Z"
                fill="#1B5981" stroke="#1B5981" stroke-width="0.03" />
        </g>
    </g>
    <g filter="url(#filter1_d_1611_7664)">
        <rect x="499.973" y="138.077" width="179.028" height="113.07" rx="10" fill="#F6F6F6" />
    </g>
    <g filter="url(#filter2_d_1611_7664)">
        <rect x="10" y="204.034" width="292.099" height="131.915" rx="10" fill="#EEF0FF" />
    </g>
    <path
        d="M102.105 20.373C102.105 14.8502 106.583 10.373 112.105 10.373H557.137C562.66 10.373 567.137 14.8502 567.137 20.373V33.6246H102.105V20.373Z"
        fill="#9E9E9E" />
    <circle cx="117.5" cy="23.209" r="4.5" fill="white" />
    <circle cx="132.5" cy="23.209" r="4.5" fill="white" />
    <circle cx="147.5" cy="23.209" r="4.5" fill="white" />
    <path
        d="M268.99 75.44H266.35V57.02H268.99V75.44ZM260.85 61.98C260.85 64.98 262.33 68.16 265.41 69.44L263.97 71.52C261.81 70.58 260.37 68.84 259.55 66.58C258.73 69 257.25 71 255.09 71.98L253.59 69.88C256.69 68.5 258.17 65.12 258.17 61.98V60.96H254.33V58.78H264.65V60.96H260.85V61.98Z"
        fill="#9E9E9E" />
    <path
        d="M251.193 75.48H248.553V57H251.193V75.48ZM241.293 58.3C244.073 58.3 246.133 60.82 246.133 64.86C246.133 68.92 244.073 71.46 241.293 71.46C238.513 71.46 236.453 68.92 236.453 64.86C236.453 60.82 238.513 58.3 241.293 58.3ZM241.293 60.68C239.933 60.68 238.993 62.12 238.993 64.86C238.993 67.6 239.933 69.06 241.293 69.06C242.653 69.06 243.593 67.6 243.593 64.86C243.593 62.12 242.653 60.68 241.293 60.68Z"
        fill="#9E9E9E" />
    <path
        d="M234.113 75.46H231.613V57.02H234.113V75.46ZM230.413 57.4V74.6H227.953V66.04H226.193V63.74H227.953V57.4H230.413ZM225.473 68.84C225.973 68.78 226.453 68.74 226.913 68.68L227.093 70.58C224.233 71.22 220.533 71.26 218.233 71.26L217.953 69.12H219.393V61.2H218.273V59.1H226.653V61.2H225.473V68.84ZM221.753 69.06C222.213 69.06 222.673 69.04 223.113 69V61.2H221.753V69.06Z"
        fill="#9E9E9E" />
    <path
        d="M198.366 68.6001V58.3601H211.166V60.4801H201.046V62.4201H210.746V64.4601H201.046V66.5201H211.306V68.6001H198.366ZM213.086 73.3201H196.406V71.1801H213.086V73.3201Z"
        fill="#9E9E9E" />
    <path
        d="M194.307 68.24H191.807V57.02H194.307V68.24ZM188.187 57.36H190.647V68.16H188.187V63.7H186.227V61.56H188.187V57.36ZM186.367 67.78C184.767 67.16 183.767 66.16 183.147 64.8C182.487 66.26 181.387 67.44 179.707 68.1L178.367 66.08C180.867 65.12 181.847 63 181.847 60.94V60.44H178.947V58.34H187.087V60.44H184.407V60.94C184.407 62.9 185.327 64.84 187.667 65.74L186.367 67.78ZM194.307 68.94V75.46H191.667V71.02H181.627V68.94H194.307Z"
        fill="#9E9E9E" />
    <path
        d="M177.489 73.42H160.809V71.26H167.809V68.52H162.729V62.28H173.009V60.3H162.709V58.2H175.609V64.34H165.349V66.4H176.029V68.52H170.449V71.26H177.489V73.42Z"
        fill="#9E9E9E" />
    <path
        d="M144.308 60.7201V58.6201H158.308V60.7201H155.808V66.2401H158.248V68.3401H144.408V66.2401H146.808V60.7201H144.308ZM149.428 60.7201V66.2401H153.188V60.7201H149.428ZM159.688 73.3001H143.008V71.1601H159.688V73.3001Z"
        fill="#9E9E9E" />
    <path
        d="M137.06 75.42H134.54V66.24H132.88V74.56H130.42V57.34H132.88V64.1H134.54V57H137.06V75.42ZM124.64 68.68C126.08 68.62 127.66 68.52 129.42 68.2L129.64 70.42C127.22 70.88 125.12 70.96 123.28 70.96H122V59.06H124.64V68.68Z"
        fill="#9E9E9E" />
    <path
        d="M502 242.709H681V248.209C681 251.247 678.538 253.709 675.5 253.709H507.5C504.462 253.709 502 251.247 502 248.209V242.709Z"
        fill="#E0E0E0" />
    <rect x="71" y="227.709" width="126" height="15" fill="#DCDCDC" />
    <rect x="71" y="256.709" width="208" height="8" fill="#DCDCDC" />
    <rect x="71" y="273.709" width="208" height="7" fill="#DCDCDC" />
    <rect x="71" y="290.709" width="208" height="8" fill="#DCDCDC" />
    <rect x="71" y="307.709" width="208" height="8" fill="#DCDCDC" />
    <rect x="523" y="154.709" width="37" height="8" fill="#E0E0E0" />
    <rect x="523" y="167.709" width="37" height="8" fill="#E0E0E0" />
    <rect x="523" y="180.709" width="37" height="8" fill="#E0E0E0" />
    <rect x="523" y="193.709" width="37" height="8" fill="#E0E0E0" />
    <rect x="523" y="206.709" width="37" height="8" fill="#E0E0E0" />
    <rect x="523" y="219.709" width="37" height="8" fill="#E0E0E0" />
    <rect x="575" y="154.709" width="37" height="8" fill="#E0E0E0" />
    <rect x="575" y="167.709" width="37" height="8" fill="#E0E0E0" />
    <rect x="575" y="180.709" width="37" height="8" fill="#E0E0E0" />
    <rect x="575" y="193.709" width="37" height="8" fill="#E0E0E0" />
    <rect x="575" y="206.709" width="37" height="8" fill="#E0E0E0" />
    <rect x="575" y="219.709" width="37" height="8" fill="#E0E0E0" />
    <rect x="626" y="154.709" width="38" height="8" fill="#E0E0E0" />
    <rect x="626" y="167.709" width="38" height="8" fill="#E0E0E0" />
    <path
        d="M18 266.535C18 264.878 19.3431 263.535 21 263.535H25.92V277.883H21C19.3431 277.883 18 276.54 18 274.883V266.535Z"
        fill="#EE5550" />
    <path fill-rule="evenodd" clip-rule="evenodd"
        d="M48.3592 255.709H45.3421L42.798 258.446L31.1992 263.752V277.666L42.798 282.972L45.3421 285.709H48.3592V255.709Z"
        fill="#FF706C" />
    <ellipse cx="48.3587" cy="270.057" rx="2.64" ry="2.6087" fill="#FF706C" />
    <rect x="45.7188" y="255.709" width="2.64" height="30" fill="#F5F5F5" />
    <rect x="24.6016" y="263.535" width="3.96" height="22.1739" fill="#FF706C" />
    <path d="M31.1992 271.361H43.0792V283.1L31.1992 277.883V271.361Z" fill="#EE5550" />
    <rect x="480.422" y="52" width="61.2465" height="28.2676" rx="10" fill="#FFEAE9" />
    <path
        d="M519.061 64.34C521.113 64.148 522.181 63.452 522.469 62.696H519.541V61.436H527.713V62.696H524.773C525.061 63.452 526.129 64.148 528.193 64.34L527.641 65.564C525.565 65.384 524.209 64.604 523.621 63.56C523.033 64.616 521.713 65.384 519.589 65.564L519.061 64.34ZM524.413 68.072C526.345 68.228 527.437 68.888 527.437 70.04C527.437 71.324 525.985 72.044 523.597 72.044C521.209 72.044 519.769 71.324 519.769 70.04C519.769 68.888 520.897 68.216 522.829 68.06V67.256H518.629V65.996H528.613V67.256H524.413V68.072ZM525.829 70.04C525.829 69.476 525.097 69.236 523.597 69.236C522.097 69.236 521.365 69.476 521.365 70.04C521.365 70.604 522.097 70.832 523.597 70.832C525.097 70.832 525.829 70.604 525.829 70.04Z"
        fill="#FF706C" />
    <path
        d="M511.219 67.544V61.184H512.695V63.704H513.511V60.98H515.011V67.892H513.511V64.988H512.695V67.544H511.219ZM505.531 63.332V62.108H507.439V61.1H508.999V62.108H510.919V63.332H505.531ZM510.619 65.612C510.619 66.752 509.635 67.544 508.243 67.544C506.839 67.544 505.855 66.752 505.855 65.612C505.855 64.46 506.839 63.692 508.243 63.692C509.635 63.692 510.619 64.46 510.619 65.612ZM507.259 65.612C507.259 66.128 507.655 66.416 508.243 66.416C508.831 66.416 509.215 66.128 509.215 65.612C509.215 65.096 508.831 64.82 508.243 64.82C507.655 64.82 507.259 65.096 507.259 65.612ZM511.267 68.012C513.727 68.012 515.071 68.732 515.071 70.028C515.071 71.324 513.727 72.032 511.267 72.032C508.807 72.032 507.463 71.324 507.463 70.028C507.463 68.732 508.807 68.012 511.267 68.012ZM511.267 70.856C512.767 70.856 513.487 70.604 513.487 70.028C513.487 69.452 512.767 69.2 511.267 69.2C509.767 69.2 509.047 69.452 509.047 70.028C509.047 70.604 509.767 70.856 511.267 70.856Z"
        fill="#FF706C" />
    <path
        d="M502.497 68.972V60.98H504.093V68.972H502.497ZM500.997 67.604C499.749 67.22 498.945 66.452 498.429 65.444C497.937 66.548 497.061 67.376 495.765 67.796L494.961 66.56C496.785 65.984 497.601 64.532 497.601 63.152V63.02H495.381V61.772H501.393V63.02H499.209V63.152C499.209 64.436 500.025 65.816 501.801 66.392L500.997 67.604ZM504.369 71.84H496.737V68.252H498.321V70.58H504.369V71.84Z"
        fill="#FF706C" />
    <defs>
        <filter id="filter0_d_1611_7664" x="92.1055" y="0.373047" width="485.031" height="299.019"
            filterUnits="userSpaceOnUse" color-interpolation-filters="sRGB">
            <feFlood flood-opacity="0" result="BackgroundImageFix" />
            <feColorMatrix in="SourceAlpha" type="matrix" values="0 0 0 0 0 0 0 0 0 0 0 0 0 0 0 0 0 0 127 0"
                result="hardAlpha" />
            <feOffset />
            <feGaussianBlur stdDeviation="5" />
            <feComposite in2="hardAlpha" operator="out" />
            <feColorMatrix type="matrix" values="0 0 0 0 0 0 0 0 0 0 0 0 0 0 0 0 0 0 0.2 0" />
            <feBlend mode="normal" in2="BackgroundImageFix" result="effect1_dropShadow_1611_7664" />
            <feBlend mode="normal" in="SourceGraphic" in2="effect1_dropShadow_1611_7664" result="shape" />
        </filter>
        <filter id="filter1_d_1611_7664" x="489.973" y="128.077" width="199.027" height="133.07"
            filterUnits="userSpaceOnUse" color-interpolation-filters="sRGB">
            <feFlood flood-opacity="0" result="BackgroundImageFix" />
            <feColorMatrix in="SourceAlpha" type="matrix" values="0 0 0 0 0 0 0 0 0 0 0 0 0 0 0 0 0 0 127 0"
                result="hardAlpha" />
            <feOffset />
            <feGaussianBlur stdDeviation="5" />
            <feComposite in2="hardAlpha" operator="out" />
            <feColorMatrix type="matrix" values="0 0 0 0 0 0 0 0 0 0 0 0 0 0 0 0 0 0 0.15 0" />
            <feBlend mode="normal" in2="BackgroundImageFix" result="effect1_dropShadow_1611_7664" />
            <feBlend mode="normal" in="SourceGraphic" in2="effect1_dropShadow_1611_7664" result="shape" />
        </filter>
        <filter id="filter2_d_1611_7664" x="0" y="194.034" width="312.098" height="151.916" filterUnits="userSpaceOnUse"
            color-interpolation-filters="sRGB">
            <feFlood flood-opacity="0" result="BackgroundImageFix" />
            <feColorMatrix in="SourceAlpha" type="matrix" values="0 0 0 0 0 0 0 0 0 0 0 0 0 0 0 0 0 0 127 0"
                result="hardAlpha" />
            <feOffset />
            <feGaussianBlur stdDeviation="5" />
            <feComposite in2="hardAlpha" operator="out" />
            <feColorMatrix type="matrix" values="0 0 0 0 0 0 0 0 0 0 0 0 0 0 0 0 0 0 0.15 0" />
            <feBlend mode="normal" in2="BackgroundImageFix" result="effect1_dropShadow_1611_7664" />
            <feBlend mode="normal" in="SourceGraphic" in2="effect1_dropShadow_1611_7664" result="shape" />
        </filter>
        <clipPath id="clip0_1611_7664">
            <rect width="113.208" height="114.945" fill="white"
                transform="translate(112.758 138.182) rotate(-2.6399)" />
        </clipPath>
    </defs>
</svg>