<svg width="663" height="354" viewBox="0 0 663 354" fill="none" xmlns="http://www.w3.org/2000/svg">
    <g filter="url(#filter0_d_1207_2848)">
        <rect x="128.906" y="40.9268" width="447.02" height="268.212" rx="10" fill="white" />
        <path
            d="M128.906 50.9268C128.906 45.4039 133.383 40.9268 138.906 40.9268H565.926C571.449 40.9268 575.926 45.4039 575.926 50.9268V63.2778H128.906V50.9268Z"
            fill="#757575" />
        <circle cx="147.5" cy="51.5" r="4.5" fill="white" />
        <circle cx="162.5" cy="51.5" r="4.5" fill="white" />
        <circle cx="177.5" cy="51.5" r="4.5" fill="white" />
    </g>
    <rect x="128.906" y="62.3843" width="447.02" height="192.219" fill="#FFC7C6" />
    <rect x="184.34" y="124.967" width="143.046" height="71.5232" rx="10" fill="#DBF7F2" />
    <circle cx="195.067" cy="132.119" r="27.7152" fill="#A1E2D6" />
    <mask id="mask0_1207_2848" style="mask-type:alpha" maskUnits="userSpaceOnUse" x="167" y="104" width="56"
        height="56">
        <circle cx="195.067" cy="132.119" r="27.7152" fill="#99A6ED" />
    </mask>
    <g mask="url(#mask0_1207_2848)">
        <path
            d="M186.847 116.636C188.703 115.203 190.967 114.249 193.323 114.135C193.798 114.321 194.339 114.305 194.813 114.135C195.071 114.125 195.334 114.125 195.592 114.135C196.066 114.321 196.608 114.31 197.082 114.135C198.923 114.249 200.728 114.847 202.295 115.816C202.847 116.157 203.445 116.42 203.997 116.76C206.003 117.967 207.73 119.684 208.813 121.768C209.674 123.403 209.988 125.316 209.715 127.142C209.643 127.658 209.421 128.132 209.287 128.632C209.261 129.231 209.344 129.829 209.298 130.427C209.189 134.089 208.101 137.771 205.905 140.737C206.343 141.417 206.585 142.243 206.446 143.057C206.322 143.986 205.704 144.754 205.007 145.342C204.471 145.497 203.94 145.126 203.409 145.311C202.981 145.466 202.718 145.873 202.605 146.296C202.409 146.987 202.006 147.617 201.444 148.065C200.965 148.452 200.511 148.875 200.186 149.401C199.258 148.359 198.81 146.925 198.918 145.538C198.933 145.301 198.949 145.064 198.954 144.826C199.052 144.151 199.067 143.455 198.944 142.784C199.413 142.578 199.877 142.366 200.325 142.124C200.79 141.882 201.161 141.495 201.625 141.252C202.651 140.726 203.502 139.875 204.09 138.89C204.734 137.812 204.946 136.559 205.296 135.373C205.332 135.115 205.642 135.131 205.827 135.027C206.513 134.723 207.008 134.125 207.431 133.527C208.127 132.511 208.627 131.263 208.375 130.015C207.56 130.829 206.678 131.639 205.575 132.047C205.26 132.155 204.889 132.227 204.585 132.057C204.435 131.691 204.497 131.278 204.42 130.896C204.224 129.813 203.971 128.679 203.265 127.802C202.476 126.817 201.269 126.255 200.052 126.023C198.629 125.729 197.17 126.085 195.742 125.863C193.478 125.538 191.343 124.661 189.306 123.656C188.322 124.341 187.43 125.172 186.744 126.162C186.311 126.776 186.017 127.482 185.491 128.029C185.068 128.467 184.578 128.844 184.047 129.148C183.686 129.339 183.294 129.514 182.877 129.504C182.577 129.494 182.34 129.292 182.119 129.117C181.768 129.674 181.624 130.345 181.685 131C181.773 132.088 182.32 133.078 182.969 133.929C183.408 134.522 184.006 135.002 184.728 135.203C184.882 135.43 184.898 135.729 184.985 135.992C185.233 136.848 185.419 137.735 185.826 138.534C186.099 139.086 186.46 139.592 186.883 140.035C188.095 141.273 189.631 142.114 191.199 142.815C191.209 143.805 191.209 144.795 191.08 145.775C187.992 144.641 185.377 142.371 183.66 139.576C182.119 137.034 181.268 134.094 181.098 131.134C181.17 130.84 181.19 130.541 181.175 130.241C181.139 129.695 181.247 129.133 181.098 128.596C181.18 126.992 181.51 125.404 181.99 123.872C182.227 122.933 182.485 121.995 182.923 121.128C183.784 119.303 185.197 117.776 186.857 116.642L186.847 116.636Z"
            fill="#2D1F1F" />
        <path
            d="M193.323 114.135C193.818 114.109 194.318 114.114 194.813 114.135C194.339 114.305 193.798 114.321 193.323 114.135Z"
            fill="#070000" />
        <path
            d="M195.587 114.135C196.082 114.109 196.582 114.109 197.077 114.135C196.603 114.31 196.061 114.321 195.587 114.135Z"
            fill="#070000" />
        <path
            d="M186.733 126.157C187.419 125.172 188.316 124.336 189.296 123.65C191.333 124.656 193.468 125.533 195.731 125.858C197.16 126.079 198.619 125.724 200.042 126.018C201.259 126.25 202.465 126.817 203.254 127.797C203.956 128.679 204.213 129.808 204.409 130.891C204.487 131.273 204.425 131.685 204.574 132.052C204.879 132.222 205.25 132.15 205.564 132.041C206.668 131.639 207.55 130.829 208.364 130.009C208.617 131.257 208.117 132.506 207.421 133.522C206.998 134.12 206.503 134.718 205.817 135.022C205.631 135.12 205.322 135.11 205.286 135.368C204.935 136.554 204.724 137.807 204.079 138.885C203.491 139.875 202.641 140.721 201.615 141.247C201.151 141.49 200.784 141.876 200.315 142.119C199.867 142.356 199.403 142.573 198.933 142.779C197.876 143.238 196.768 143.583 195.654 143.883C195.308 143.981 194.942 144.032 194.597 143.929C193.468 143.63 192.344 143.295 191.271 142.825C191.256 143.228 191.261 143.625 191.271 144.027C193.328 144.734 195.592 144.821 197.711 144.336C198.113 144.264 198.495 144.048 198.913 144.084C198.913 144.326 198.923 144.574 198.938 144.816C198.928 145.053 198.913 145.291 198.902 145.528C198.794 146.915 199.243 148.349 200.171 149.391C199.748 150.046 199.686 150.891 199.959 151.613C200.063 151.949 200.037 152.31 200.145 152.65C200.264 153.078 200.418 153.542 200.258 153.981C200.078 154.589 199.583 155.002 199.088 155.353C199.449 155.435 199.82 155.497 200.186 155.543C196.371 156.595 192.225 156.327 188.554 154.878C186.553 154.073 184.8 152.475 184.155 150.381C184.764 150.123 185.413 149.973 186.037 149.762C187.311 149.365 188.585 148.963 189.863 148.571C190.26 148.457 190.585 148.153 190.766 147.782C191.029 147.147 191.034 146.441 191.054 145.765C191.183 144.78 191.183 143.795 191.173 142.805C189.606 142.103 188.069 141.263 186.857 140.025C186.434 139.581 186.079 139.071 185.8 138.524C185.393 137.725 185.207 136.838 184.96 135.982C184.877 135.719 184.857 135.425 184.702 135.192C183.985 134.991 183.387 134.512 182.944 133.919C182.294 133.068 181.752 132.072 181.66 130.989C181.598 130.334 181.742 129.664 182.093 129.107C182.314 129.277 182.552 129.478 182.851 129.494C183.268 129.504 183.66 129.334 184.021 129.138C184.552 128.833 185.037 128.457 185.465 128.019C185.986 127.472 186.285 126.765 186.713 126.152L186.733 126.157Z"
            fill="#F9DAC5" />
        <path
            d="M181.082 128.586C181.226 129.127 181.118 129.684 181.159 130.231C181.18 130.53 181.159 130.835 181.082 131.123C181.031 130.278 181.031 129.427 181.082 128.581V128.586Z"
            fill="#0F0101" />
        <path
            d="M191.281 142.831C192.354 143.295 193.478 143.635 194.607 143.934C194.958 144.042 195.324 143.986 195.664 143.888C196.778 143.589 197.887 143.243 198.944 142.784C198.918 143.222 198.933 143.656 198.928 144.094C198.51 144.058 198.129 144.275 197.727 144.347C195.607 144.826 193.344 144.739 191.286 144.037C191.271 143.635 191.271 143.238 191.286 142.836L191.281 142.831Z"
            fill="#F2BC9E" />
        <path
            d="M198.944 142.784C199.067 143.455 199.047 144.156 198.954 144.826C198.933 144.584 198.928 144.336 198.928 144.094C198.928 143.656 198.918 143.222 198.944 142.784Z"
            fill="#020000" />
        <path
            d="M203.409 145.306C203.94 145.12 204.471 145.492 205.007 145.337C204.915 145.414 204.822 145.492 204.729 145.569C204.92 145.961 205.162 146.337 205.286 146.76C205.626 147.838 205.539 149.05 205.028 150.061C204.889 150.324 204.719 150.567 204.554 150.809C203.873 150.448 203.11 150.2 202.331 150.283C201.78 150.334 201.228 150.479 200.764 150.793C200.449 151.02 200.233 151.35 199.97 151.624C199.696 150.902 199.758 150.051 200.181 149.401C200.506 148.875 200.965 148.447 201.439 148.065C202.001 147.617 202.403 146.987 202.599 146.296C202.713 145.873 202.981 145.466 203.404 145.311L203.409 145.306Z"
            fill="#262020" />
        <path
            d="M183.402 149.958C183.593 149.891 183.784 149.834 183.98 149.783C184.042 149.984 184.099 150.185 184.166 150.386C184.81 152.485 186.563 154.084 188.564 154.883C192.24 156.332 196.386 156.601 200.197 155.549C201.522 155.631 202.919 155.389 204.023 154.61C204.698 154.135 205.239 153.419 205.322 152.573C205.482 152.619 205.569 152.459 205.657 152.361C206.059 151.82 206.394 151.221 206.616 150.582C206.709 150.314 206.792 150.046 206.879 149.777C207.807 150.102 208.715 150.494 209.576 150.979C210.535 151.521 211.458 152.243 211.891 153.29C212.226 155.646 211.272 158.034 209.772 159.824H191.348C191.137 159.783 190.931 159.731 190.719 159.731C188.765 159.741 186.811 159.741 184.851 159.731C184.64 159.731 184.429 159.783 184.222 159.824H180.149C178.927 158.333 178.313 156.353 178.519 154.435C178.586 153.723 178.875 153.063 179.19 152.433C179.736 151.696 180.417 151.041 181.268 150.659C181.933 150.298 182.706 150.231 183.402 149.958Z"
            fill="#993399" />
        <path
            d="M204.559 150.809C204.724 150.567 204.894 150.324 205.033 150.061C205.559 150.242 206.09 150.401 206.616 150.587C206.394 151.227 206.059 151.825 205.657 152.366C205.569 152.464 205.482 152.624 205.322 152.578C205.415 151.902 205.09 151.221 204.559 150.809Z"
            fill="#F9DAC5" />
        <path
            d="M200.769 150.788C201.233 150.479 201.785 150.329 202.336 150.278C203.115 150.195 203.878 150.448 204.559 150.804C205.095 151.216 205.415 151.897 205.322 152.573C205.239 153.419 204.698 154.13 204.023 154.61C202.919 155.389 201.522 155.631 200.197 155.549C199.83 155.502 199.459 155.44 199.098 155.358C199.593 155.007 200.093 154.589 200.269 153.986C200.434 153.542 200.279 153.083 200.155 152.655C200.052 152.32 200.073 151.959 199.975 151.619C200.238 151.34 200.454 151.015 200.769 150.788Z"
            fill="#2D1F1F" />
        <path
            d="M177.844 153.666C178.251 153.212 178.648 152.727 179.19 152.433C178.87 153.063 178.586 153.723 178.519 154.435C178.313 156.353 178.927 158.333 180.149 159.824H175.668C175.781 157.627 176.436 155.394 177.844 153.666Z"
            fill="#F9DAC5" />
        <path
            d="M211.886 153.284C212.453 153.774 212.866 154.414 213.221 155.064C213.985 156.528 214.356 158.174 214.438 159.819H209.767C211.272 158.029 212.221 155.641 211.886 153.284Z"
            fill="#F9DAC5" />
        <path
            d="M184.222 159.819C184.429 159.778 184.64 159.731 184.851 159.726C186.806 159.731 188.76 159.736 190.719 159.726C190.931 159.726 191.142 159.778 191.348 159.819H184.222Z"
            fill="#B15CA4" />
        <path
            d="M193.323 114.135C190.967 114.249 188.703 115.203 186.847 116.636L186.857 116.642C185.197 117.776 183.784 119.303 182.923 121.128C182.485 121.995 182.227 122.933 181.99 123.872C181.51 125.404 181.18 126.992 181.098 128.596C181.247 129.133 181.139 129.695 181.175 130.241C181.19 130.541 181.17 130.84 181.098 131.134C181.268 134.094 182.119 137.034 183.66 139.576C185.377 142.371 187.992 144.641 191.08 145.775C191.209 144.795 191.209 143.805 191.199 142.815C189.631 142.114 188.095 141.273 186.883 140.035C186.46 139.592 186.099 139.086 185.826 138.534C185.419 137.735 185.233 136.848 184.985 135.992C184.898 135.729 184.882 135.43 184.728 135.203C184.006 135.002 183.408 134.522 182.969 133.929C182.32 133.078 181.773 132.088 181.685 131C181.624 130.345 181.768 129.674 182.119 129.117C182.34 129.292 182.577 129.494 182.877 129.504C183.294 129.514 183.686 129.339 184.047 129.148C184.578 128.844 185.068 128.467 185.491 128.029C186.017 127.482 186.311 126.776 186.744 126.162C187.43 125.172 188.322 124.341 189.306 123.656C191.343 124.661 193.478 125.538 195.742 125.863C197.17 126.085 198.629 125.729 200.052 126.023C201.269 126.255 202.476 126.817 203.265 127.802C203.971 128.679 204.224 129.813 204.42 130.896C204.497 131.278 204.435 131.691 204.585 132.057C204.889 132.227 205.26 132.155 205.575 132.047C206.678 131.639 207.56 130.829 208.375 130.015C208.627 131.263 208.127 132.511 207.431 133.527C207.008 134.125 206.513 134.723 205.827 135.027C205.642 135.131 205.332 135.115 205.296 135.373C204.946 136.559 204.734 137.812 204.09 138.89C203.502 139.875 202.651 140.726 201.625 141.252C201.161 141.495 200.79 141.882 200.325 142.124C199.877 142.366 199.413 142.578 198.944 142.784M193.323 114.135C193.798 114.321 194.339 114.305 194.813 114.135M193.323 114.135C193.818 114.109 194.318 114.114 194.813 114.135M194.813 114.135C195.071 114.125 195.334 114.125 195.592 114.135C196.066 114.321 196.608 114.31 197.082 114.135C198.923 114.249 200.728 114.847 202.295 115.816C202.847 116.157 203.445 116.42 203.997 116.76C206.003 117.967 207.73 119.684 208.813 121.768C209.674 123.403 209.988 125.316 209.715 127.142C209.643 127.658 209.421 128.132 209.287 128.632C209.261 129.231 209.344 129.829 209.297 130.427C209.189 134.089 208.101 137.771 205.905 140.737C206.343 141.417 206.585 142.243 206.446 143.057C206.322 143.986 205.704 144.754 205.007 145.342C204.471 145.497 203.94 145.126 203.409 145.311C202.981 145.466 202.718 145.873 202.605 146.296C202.409 146.987 202.006 147.617 201.444 148.065C200.965 148.452 200.511 148.875 200.186 149.401C199.258 148.359 198.81 146.925 198.918 145.538C198.933 145.301 198.949 145.064 198.954 144.826M198.954 144.826C199.052 144.151 199.067 143.455 198.944 142.784M198.954 144.826C199.047 144.156 199.067 143.455 198.944 142.784M198.954 144.826C198.933 144.584 198.928 144.336 198.928 144.094M198.944 142.784C197.887 143.243 196.778 143.589 195.664 143.888C195.324 143.986 194.958 144.042 194.607 143.934C193.478 143.635 192.354 143.295 191.281 142.831L191.286 142.836C191.271 143.238 191.271 143.635 191.286 144.037C193.344 144.739 195.607 144.826 197.727 144.347C198.129 144.275 198.51 144.058 198.928 144.094M198.944 142.784C198.918 143.222 198.933 143.656 198.928 144.094M198.944 142.784C198.918 143.222 198.928 143.656 198.928 144.094M200.197 155.549C196.386 156.601 192.24 156.332 188.564 154.883C186.563 154.084 184.81 152.485 184.166 150.386C184.099 150.185 184.042 149.984 183.98 149.783C183.784 149.834 183.593 149.891 183.402 149.958C182.706 150.231 181.933 150.298 181.268 150.659C180.417 151.041 179.736 151.696 179.19 152.433M200.197 155.549C201.522 155.631 202.919 155.389 204.023 154.61M200.197 155.549C199.83 155.502 199.459 155.44 199.098 155.358C199.593 155.007 200.093 154.589 200.269 153.986C200.434 153.542 200.279 153.083 200.155 152.655C200.052 152.32 200.073 151.959 199.975 151.619C200.238 151.34 200.454 151.015 200.769 150.788C201.233 150.479 201.785 150.329 202.336 150.278C203.115 150.195 203.878 150.448 204.559 150.804C205.095 151.216 205.415 151.897 205.322 152.573M204.023 154.61C204.698 154.135 205.239 153.419 205.322 152.573M204.023 154.61C204.698 154.13 205.239 153.419 205.322 152.573M205.322 152.573C205.482 152.619 205.569 152.459 205.657 152.361C206.059 151.82 206.394 151.221 206.616 150.582C206.709 150.314 206.792 150.046 206.879 149.777C207.807 150.102 208.715 150.494 209.576 150.979C210.535 151.521 211.458 152.243 211.891 153.29C212.226 155.646 211.272 158.034 209.772 159.824H191.348C191.137 159.783 190.931 159.731 190.719 159.731C188.765 159.741 186.811 159.741 184.851 159.731C184.64 159.731 184.429 159.783 184.222 159.824H180.149M180.149 159.824C178.927 158.333 178.313 156.353 178.519 154.435M180.149 159.824H175.668C175.781 157.627 176.436 155.394 177.844 153.666C178.251 153.212 178.648 152.727 179.19 152.433M178.519 154.435C178.586 153.723 178.875 153.063 179.19 152.433M178.519 154.435C178.586 153.723 178.87 153.063 179.19 152.433M195.587 114.135C196.082 114.109 196.582 114.109 197.077 114.135C196.603 114.31 196.061 114.321 195.587 114.135ZM186.733 126.157C187.419 125.172 188.316 124.336 189.296 123.65C191.333 124.656 193.468 125.533 195.731 125.858C197.16 126.079 198.619 125.724 200.042 126.018C201.259 126.25 202.465 126.817 203.254 127.797C203.956 128.679 204.213 129.808 204.409 130.891C204.487 131.273 204.425 131.685 204.574 132.052C204.879 132.222 205.25 132.15 205.564 132.041C206.668 131.639 207.55 130.829 208.364 130.009C208.617 131.257 208.117 132.506 207.421 133.522C206.998 134.12 206.503 134.718 205.817 135.022C205.631 135.12 205.322 135.11 205.286 135.368C204.935 136.554 204.724 137.807 204.079 138.885C203.491 139.875 202.641 140.721 201.615 141.247C201.151 141.49 200.784 141.876 200.315 142.119C199.867 142.356 199.403 142.573 198.933 142.779C197.876 143.238 196.768 143.583 195.654 143.883C195.308 143.981 194.942 144.032 194.597 143.929C193.468 143.63 192.344 143.295 191.271 142.825C191.256 143.228 191.261 143.625 191.271 144.027C193.328 144.734 195.592 144.821 197.711 144.336C198.113 144.264 198.495 144.048 198.913 144.084C198.913 144.326 198.923 144.574 198.938 144.816C198.928 145.053 198.913 145.291 198.902 145.528C198.794 146.915 199.243 148.349 200.171 149.391C199.748 150.046 199.686 150.891 199.959 151.613C200.063 151.949 200.037 152.31 200.145 152.65C200.264 153.078 200.418 153.542 200.258 153.981C200.078 154.589 199.583 155.002 199.088 155.353C199.449 155.435 199.82 155.497 200.186 155.543C196.371 156.595 192.225 156.327 188.554 154.878C186.553 154.073 184.8 152.475 184.155 150.381C184.764 150.123 185.413 149.973 186.037 149.762C187.311 149.365 188.585 148.963 189.863 148.571C190.26 148.457 190.585 148.153 190.766 147.782C191.029 147.147 191.034 146.441 191.054 145.765C191.183 144.78 191.183 143.795 191.173 142.805C189.606 142.103 188.069 141.263 186.857 140.025C186.434 139.581 186.079 139.071 185.8 138.524C185.393 137.725 185.207 136.838 184.96 135.982C184.877 135.719 184.857 135.425 184.702 135.192C183.985 134.991 183.387 134.512 182.944 133.919C182.294 133.068 181.752 132.072 181.66 130.989C181.598 130.334 181.742 129.664 182.093 129.107C182.314 129.277 182.552 129.478 182.851 129.494C183.268 129.504 183.66 129.334 184.021 129.138C184.552 128.833 185.037 128.457 185.465 128.019C185.986 127.472 186.285 126.765 186.713 126.152L186.733 126.157ZM181.082 128.586C181.226 129.127 181.118 129.684 181.159 130.231C181.18 130.53 181.159 130.835 181.082 131.123C181.031 130.278 181.031 129.427 181.082 128.581V128.586ZM203.409 145.306C203.94 145.12 204.471 145.492 205.007 145.337C204.915 145.414 204.822 145.492 204.729 145.569C204.92 145.961 205.162 146.337 205.286 146.76C205.626 147.838 205.539 149.05 205.028 150.061C204.889 150.324 204.719 150.567 204.554 150.809C203.873 150.448 203.11 150.2 202.331 150.283C201.78 150.334 201.228 150.479 200.764 150.793C200.449 151.02 200.233 151.35 199.97 151.624C199.696 150.902 199.758 150.051 200.181 149.401C200.506 148.875 200.965 148.447 201.439 148.065C202.001 147.617 202.403 146.987 202.599 146.296C202.713 145.873 202.981 145.466 203.404 145.311L203.409 145.306ZM204.559 150.809C204.724 150.567 204.894 150.324 205.033 150.061C205.559 150.242 206.09 150.401 206.616 150.587C206.394 151.227 206.059 151.825 205.657 152.366C205.569 152.464 205.482 152.624 205.322 152.578C205.415 151.902 205.09 151.221 204.559 150.809ZM211.886 153.284C212.453 153.774 212.866 154.414 213.221 155.064C213.985 156.528 214.356 158.174 214.438 159.819H209.767C211.272 158.029 212.221 155.641 211.886 153.284ZM184.222 159.819C184.429 159.778 184.64 159.731 184.851 159.726C186.806 159.731 188.76 159.736 190.719 159.726C190.931 159.726 191.142 159.778 191.348 159.819H184.222Z"
            stroke="#B15CA4" stroke-width="0.06" />
    </g>
    <g filter="url(#filter1_d_1207_2848)">
        <rect x="402.668" y="55" width="250" height="105" rx="10" fill="white" />
    </g>
    <circle cx="648.668" cy="56" r="10" fill="#FF706C" />
    <rect x="429.668" y="78" width="181" height="7" fill="#E3E3E3" />
    <rect x="429.668" y="96" width="181" height="7" fill="#E3E3E3" />
    <rect x="429.668" y="114" width="181" height="7" fill="#E3E3E3" />
    <rect x="429.668" y="132" width="80" height="7" fill="#E3E3E3" />
    <circle cx="407.702" cy="59.702" r="44.202" fill="white" stroke="#FF706C" />
    <mask id="mask1_1207_2848" style="mask-type:alpha" maskUnits="userSpaceOnUse" x="363" y="15" width="90" height="90">
        <circle cx="407.702" cy="59.702" r="44.702" fill="#99A6ED" />
    </mask>
    <g mask="url(#mask1_1207_2848)">
        <path
            d="M405.474 30.8176C409.683 30.3848 414.015 30.7427 418.019 32.1909C420.678 33.1065 423.229 34.4133 425.363 36.286C427.225 37.8258 428.587 39.8567 429.941 41.846C431.106 43.6521 431.804 45.7496 432.05 47.8887C432.222 49.3453 432.091 50.8102 432.321 52.2584C432.419 53.482 432.821 54.6639 432.879 55.904C433.075 59.6079 432.156 63.2285 431.705 66.8741C431.164 70.6446 431.164 74.4983 431.812 78.2604C432.198 80.7408 432.879 83.1795 433.034 85.6931C433.125 87.3578 432.747 89.0141 432.05 90.5123C430.671 90.1544 429.244 90.0379 427.824 90.0212C424.468 89.0807 421.129 88.0736 417.789 87.1081C416.78 86.8501 416.165 85.8346 416.058 84.8275C415.878 83.5041 415.755 82.1724 415.755 80.8406C415.771 79.8252 415.689 78.8181 415.722 77.8026C418.052 76.8371 420.341 75.6885 422.278 74.0405C423.5 73.0167 424.468 71.6767 425.059 70.1785C425.51 68.9883 425.806 67.7481 426.208 66.5412C427.668 66.3581 428.792 65.2594 429.646 64.1275C430.622 62.8124 431.443 61.2559 431.41 59.5663C431.41 58.6424 431.098 57.7352 430.548 57.0027C429.432 59.2666 428.12 61.464 426.421 63.3367C426.421 63.0454 426.421 62.7624 426.429 62.4711C426.577 61.0894 426.569 59.7078 426.446 58.3261C426.446 57.86 426.356 57.4022 426.15 56.9861C426.922 56.237 426.93 55.0551 427.16 54.0646C425.576 53.6984 423.968 53.5236 422.36 53.3321C420.144 51.4677 417.732 49.7614 414.983 48.8209C411.89 47.7971 408.6 47.2228 405.351 47.6307C404.309 47.7389 403.283 48.0135 402.233 48.0468C401.117 48.0385 400.157 47.3394 399.427 46.5486C397.917 47.6723 396.44 48.8459 394.979 50.0278C393.691 51.1265 392.313 52.2085 391.501 53.7316C390.943 53.8149 390.393 53.9314 389.851 54.0646C390.007 54.9635 390.138 55.904 390.606 56.7031C390.623 58.3095 390.852 59.8992 391.336 61.4307C390.229 60.8231 389.277 59.9075 388.645 58.8005C388.374 58.3178 388.153 57.8101 387.907 57.319C387.094 58.6091 387.119 60.2738 387.652 61.6638C388.079 62.7624 388.719 63.7696 389.482 64.6518C390.262 65.5591 391.254 66.3664 392.477 66.5162C393.059 68.2225 393.379 70.0453 394.339 71.5935C395.537 73.641 397.548 75.0143 399.55 76.1629C400.633 76.8038 401.814 77.245 402.938 77.8026C402.947 78.9263 402.922 80.0499 402.938 81.1653C402.823 82.5303 402.807 83.9203 402.536 85.2686C402.364 86.1759 401.642 86.9333 400.756 87.1414C397.564 88.0486 394.38 89.0224 391.181 89.9047C389.318 90.0878 387.455 90.504 385.757 91.328C385.199 90.4707 384.756 89.5302 384.559 88.5147C384.173 86.6586 384.526 84.7609 384.936 82.9464C385.47 80.6575 386.044 78.3769 386.323 76.0464C386.881 72.0929 386.471 68.0893 385.814 64.1774C385.248 60.5401 384.485 56.7447 385.511 53.1074C385.864 51.6009 385.814 50.0444 386.085 48.5296C386.577 45.2835 387.784 42.1206 389.695 39.4655C391.64 36.7355 394.323 34.5881 397.334 33.1897C399.927 31.9995 402.668 31.1089 405.507 30.7926L405.474 30.8176Z"
            fill="#5D4E32" />
        <path
            d="M394.971 50.0527C396.432 48.8708 397.909 47.6973 399.418 46.5736C400.157 47.3643 401.109 48.0635 402.225 48.0718C403.275 48.0302 404.3 47.7638 405.342 47.6556C408.592 47.2395 411.882 47.8221 414.975 48.8459C417.732 49.7864 420.136 51.4927 422.351 53.3571C420.021 53.1407 417.666 53.0242 415.336 53.3072C413.835 53.5069 412.267 53.8565 411.053 54.8386C410.561 55.2132 410.446 55.8624 410.257 56.4201C409.076 56.4617 407.902 56.4617 406.721 56.4201C406.54 55.8624 406.417 55.2132 405.933 54.8386C404.686 53.8149 403.061 53.4986 401.511 53.2988C398.163 52.9326 394.799 53.2905 391.476 53.7649C392.288 52.2335 393.675 51.1514 394.955 50.0611L394.971 50.0527Z"
            fill="#F9E0CA" />
        <path
            d="M391.484 53.7566C394.799 53.2822 398.171 52.9243 401.519 53.2905C403.07 53.4903 404.694 53.8066 405.941 54.8303C406.434 55.2049 406.549 55.8541 406.729 56.4118C407.911 56.4617 409.084 56.4617 410.265 56.4118C410.454 55.8541 410.569 55.2049 411.061 54.8303C412.276 53.8565 413.843 53.5069 415.344 53.2988C417.675 53.0158 420.029 53.124 422.36 53.3488C423.968 53.5402 425.584 53.7067 427.16 54.0812C426.93 55.08 426.93 56.2536 426.15 57.0027C425.478 57.6769 425.592 58.7173 425.437 59.5913C425.231 61.2476 424.411 62.854 423.09 63.8611C421.761 64.8849 420.087 65.351 418.446 65.4259C417.806 65.2428 417.141 65.2428 416.501 65.4259C414.589 65.326 412.62 64.5436 411.414 62.9788C410.298 61.5556 409.962 59.6662 410.019 57.885C409.076 57.5604 408.017 57.4938 407.065 57.8267C406.901 58.0431 406.975 58.3344 406.942 58.5841C406.942 60.4486 406.319 62.3962 404.94 63.678C403.726 64.785 402.085 65.3427 400.477 65.4259C399.837 65.2345 399.172 65.2428 398.532 65.4259C397.006 65.351 395.464 64.9348 394.184 64.0609C393.01 63.2618 392.157 62.03 391.763 60.6566C391.435 59.6079 391.525 58.4759 391.164 57.4355C391.074 57.1276 390.811 56.9361 390.59 56.728C390.114 55.929 389.991 54.9885 389.835 54.0896C390.376 53.9647 390.926 53.8399 391.484 53.7566ZM395.193 54.6306C393.765 54.7721 392.387 56.0539 392.51 57.5853C392.51 59.6745 393.101 61.9551 394.742 63.3451C396.218 64.5936 398.245 64.7683 400.091 64.6352C401.74 64.5353 403.472 63.9443 404.522 62.5876C405.909 60.7648 406.081 58.0514 404.891 56.0788C404.243 55.2548 403.143 55.0301 402.183 54.8137C399.878 54.4225 397.523 54.4724 395.201 54.6389M415.664 54.6805C414.425 54.8969 412.998 55.08 412.128 56.0871C410.709 58.401 411.201 61.8552 413.416 63.4866C414.942 64.5936 416.912 64.7767 418.733 64.6435C420.185 64.5769 421.679 64.0525 422.696 62.9622C424.091 61.4473 424.55 59.275 424.501 57.2524C424.395 55.8291 423.074 54.7138 421.711 54.6306C419.701 54.4974 417.675 54.4724 415.673 54.6888L415.664 54.6805Z"
            fill="#965858" />
        <path
            d="M395.193 54.6306C397.515 54.4641 399.87 54.4142 402.175 54.8054C403.135 55.0301 404.235 55.2465 404.883 56.0705C406.073 58.0431 405.9 60.7565 404.514 62.5793C403.463 63.936 401.732 64.527 400.083 64.6268C398.237 64.76 396.21 64.5852 394.733 63.3367C393.092 61.9551 392.51 59.6662 392.502 57.577C392.378 56.0539 393.757 54.7721 395.185 54.6222L395.193 54.6306Z"
            fill="#F9E0CA" />
        <path
            d="M415.656 54.6639C417.658 54.4558 419.685 54.4724 421.695 54.6056C423.065 54.6972 424.378 55.8125 424.485 57.2274C424.534 59.2417 424.075 61.4224 422.68 62.9372C421.662 64.0359 420.169 64.5519 418.717 64.6185C416.895 64.7517 414.926 64.5686 413.4 63.4616C411.184 61.8302 410.684 58.3761 412.112 56.0622C412.981 55.0551 414.417 54.8719 415.648 54.6555L415.656 54.6639Z"
            fill="#F9E0CA" />
        <path
            d="M390.598 56.728C390.82 56.9361 391.082 57.1276 391.172 57.4355C391.533 58.4759 391.451 59.6079 391.771 60.6566C392.165 62.03 393.018 63.2618 394.192 64.0609C395.472 64.9265 397.014 65.3427 398.54 65.4259C399.189 65.4675 399.837 65.4675 400.485 65.4259C402.101 65.3427 403.734 64.785 404.949 63.678C406.327 62.3962 406.951 60.4486 406.951 58.5841C406.983 58.3344 406.91 58.0431 407.074 57.8267C408.025 57.4938 409.076 57.5604 410.027 57.885C409.97 59.6662 410.306 61.5472 411.422 62.9788C412.628 64.5436 414.598 65.326 416.509 65.4259C417.158 65.4675 417.806 65.4592 418.454 65.4259C420.103 65.351 421.769 64.8849 423.098 63.8611C424.427 62.854 425.24 61.2476 425.445 59.5913C425.601 58.7256 425.478 57.6769 426.159 57.0027C426.356 57.4189 426.446 57.8767 426.454 58.3428C426.2 59.1834 426.38 60.0574 426.323 60.9147C426.29 61.4473 426.331 61.9717 426.438 62.4878C426.429 62.7791 426.421 63.0621 426.429 63.3534C428.128 61.4806 429.432 59.2833 430.557 57.0194C431.106 57.7518 431.426 58.659 431.418 59.5829C431.451 61.2726 430.63 62.829 429.654 64.1441C428.792 65.2761 427.668 66.3664 426.216 66.5579C425.814 67.7647 425.519 69.0049 425.067 70.1951C424.477 71.6933 423.508 73.0334 422.286 74.0572C420.349 75.7052 418.06 76.8538 415.73 77.8193C413.933 78.5351 412.071 79.0595 410.2 79.5256C409.404 79.7503 408.583 79.5589 407.812 79.3508C406.179 78.893 404.522 78.4435 402.938 77.8359C401.814 77.2866 400.633 76.8371 399.55 76.1962C397.548 75.0476 395.537 73.6743 394.339 71.6267C393.379 70.0786 393.059 68.2558 392.477 66.5495C391.263 66.3997 390.27 65.584 389.482 64.6851C388.719 63.7945 388.079 62.7874 387.652 61.6971C387.119 60.3071 387.094 58.6424 387.907 57.3523C388.161 57.8434 388.374 58.3511 388.645 58.8338C389.277 59.9408 390.229 60.8564 391.336 61.464C390.852 59.9325 390.623 58.3428 390.606 56.7364L390.598 56.728Z"
            fill="#F9E0CA" />
        <path
            d="M426.314 60.9147C426.372 60.0574 426.183 59.1834 426.446 58.3428C426.569 59.7244 426.577 61.1144 426.429 62.4878C426.323 61.9717 426.282 61.439 426.314 60.9147Z"
            fill="#FFFBE5" />
        <path
            d="M398.54 65.4176C399.18 65.2428 399.845 65.2261 400.485 65.4176C399.837 65.4592 399.189 65.4509 398.54 65.4176Z"
            fill="#00156C" />
        <path
            d="M416.509 65.4259C417.149 65.2428 417.814 65.2345 418.454 65.4259C417.806 65.4675 417.158 65.4675 416.509 65.4259Z"
            fill="#00156C" />
        <path
            d="M402.93 77.8359C404.514 78.4519 406.163 78.893 407.804 79.3508C408.575 79.5672 409.396 79.7503 410.192 79.5256C412.062 79.0511 413.925 78.5268 415.722 77.8193C415.689 78.8347 415.771 79.8418 415.755 80.8573C415.697 80.6409 415.64 80.4328 415.591 80.2164C414.228 80.5244 412.875 80.8989 411.48 80.9988C409.1 81.2984 406.68 81.0487 404.341 80.5327C403.849 80.4494 403.414 80.1997 403.037 79.8835C403.012 80.3246 402.971 80.7657 402.938 81.2069C402.93 80.0832 402.955 78.9596 402.938 77.8443L402.93 77.8359Z"
            fill="#E5CDBA" />
        <path
            d="M403.029 79.8835C403.406 80.1997 403.841 80.4494 404.333 80.5327C406.672 81.0487 409.084 81.2984 411.472 80.9988C412.866 80.8989 414.22 80.5244 415.582 80.2164C415.64 80.4328 415.697 80.6409 415.746 80.8573C415.746 82.189 415.869 83.5291 416.05 84.8442C416.157 85.8513 416.772 86.8584 417.781 87.1247C421.129 88.0902 424.468 89.0974 427.816 90.0379C424.879 94.0997 420.76 97.3541 416.05 99.0187C411.956 100.442 407.41 100.492 403.283 99.1686C400.715 98.3529 398.311 97.0128 396.202 95.3232C394.257 93.8 392.625 91.9273 391.156 89.938C394.356 89.0641 397.539 88.0902 400.731 87.1747C401.617 86.9666 402.339 86.2175 402.512 85.3019C402.782 83.9536 402.799 82.5719 402.914 81.1985C402.947 80.7574 402.988 80.3163 403.012 79.8751L403.029 79.8835Z"
            fill="#F9E0CA" />
        <path
            d="M385.732 91.353C387.431 90.529 389.293 90.1211 391.156 89.9297C392.625 91.919 394.257 93.7917 396.202 95.3149C398.311 97.0045 400.707 98.3445 403.283 99.1602C407.41 100.484 411.956 100.434 416.05 99.0104C420.76 97.3457 424.879 94.0997 427.816 90.0296C429.235 90.0462 430.663 90.1627 432.042 90.5206C435.102 91.2864 437.908 93.2424 439.5 96.0307C441.002 98.5277 441.412 101.532 441.157 104.404H377.527C377.568 102.173 378.102 99.9509 379.062 97.945C380.457 95.0652 382.852 92.693 385.732 91.353Z"
            fill="#A533FF" />
    </g>
    <g filter="url(#filter2_d_1207_2848)">
        <rect x="10" y="226.889" width="178.808" height="116.225" rx="10" fill="white" />
    </g>
    <rect x="25" y="293" width="96" height="6" fill="#E3E3E3" />
    <rect x="25" y="305" width="137" height="7" fill="#E3E3E3" />
    <rect x="25" y="318" width="137" height="6" fill="#E3E3E3" />
    <circle cx="167.351" cy="235.829" r="56.7185" fill="white" stroke="#FF706C" />
    <mask id="mask2_1207_2848" style="mask-type:alpha" maskUnits="userSpaceOnUse" x="110" y="178" width="115"
        height="116">
        <circle cx="167.351" cy="235.83" r="57.2185" fill="#99A6ED" />
    </mask>
    <g mask="url(#mask2_1207_2848)">
        <g clip-path="url(#clip0_1207_2848)">
            <path
                d="M157.882 209.06C158.327 208.942 158.757 208.795 159.205 208.748C162.08 208.434 165.032 208.625 167.664 209.901C168.078 210.103 168.508 210.333 168.956 210.287C169.245 210.261 169.515 210.12 169.771 209.98C172.116 208.714 174.615 208.066 177.288 208.543C178.559 208.77 180.015 209.28 181.007 210.155C183.245 212.144 185.02 215.644 185.403 218.444C185.927 222.225 184.853 225.995 184.652 229.803C186.156 228.556 186.039 227.022 186.241 225.1C186.303 224.459 187.042 223.299 187.367 222.72C187.543 222.394 187.823 222.108 188.18 221.964C188.794 221.722 188.714 222.277 188.79 222.752C188.961 223.776 189.102 224.801 189.055 225.847C189.006 226.835 188.87 227.813 188.308 228.661C187.896 229.272 187.365 229.786 186.818 230.286C185.809 231.195 184.74 232.063 184 233.209C183.247 234.37 182.908 235.732 182.45 237.026C182.215 237.688 181.846 238.283 181.595 238.931C181.384 239.476 181.277 240.075 181.08 240.619C180.804 241.355 180.485 242.122 180.458 242.921C180.442 243.632 180.643 244.321 180.627 245.033C180.603 246.296 180.383 248.118 179.639 249.133C177.226 252.403 173.771 254.597 170.437 256.931C169.491 257.591 168.442 258.241 167.283 258.286C166.066 258.333 164.53 258.755 163.463 258.172C160.913 256.762 158.729 254.292 156.676 252.225C155.454 251.01 154.455 249.554 153.855 247.923C153.547 247.093 153.369 246.244 153.306 245.362C153.241 244.421 153.525 243.511 153.2 242.595C152.972 241.965 152.517 241.461 152.162 240.894C151.033 239.081 151.078 236.859 151.041 234.786C151.017 234.149 151.132 233.375 150.69 232.841C150.493 232.602 150.197 232.454 149.943 232.26C149.165 231.667 148.822 230.679 148.539 229.732C148.207 228.642 147.889 227.538 147.758 226.411C147.632 225.386 147.579 224.024 148.139 223.118C148.808 222.033 149.892 222.687 150.333 223.584C150.584 224.068 150.663 224.616 150.684 225.152C150.703 225.645 150.55 226.202 150.656 226.676C151.452 226.646 151.712 224.735 151.952 224.175C152.351 223.231 152.661 222.247 152.927 221.264C153.431 219.272 153.671 217.217 153.621 215.173C153.595 214.492 153.568 213.811 153.644 213.141C153.72 212.471 154.059 211.877 154.266 211.217C154.304 211.07 154.386 210.936 154.498 210.83C154.763 210.559 155.029 210.302 155.279 210.031C155.405 209.91 155.516 209.761 155.702 209.71C156.448 209.493 157.18 209.291 157.927 209.088M155.638 244.866C155.646 245.083 155.811 245.222 155.919 245.392C156.241 245.829 156.492 246.327 156.883 246.689C157.563 247.388 158.187 248.133 158.866 248.818C159.374 249.204 159.951 249.501 160.501 249.843C160.724 249.979 160.947 250.116 161.196 250.179C161.826 250.328 162.455 250.478 163.085 250.628C163.757 250.762 164.419 250.997 165.105 251.087C165.395 251.09 165.697 251.02 165.988 251.038C166.438 251.05 166.884 250.946 167.348 250.942C167.827 250.953 168.301 250.833 168.78 250.843C169.215 250.827 169.664 250.809 170.079 250.648C170.807 250.359 171.552 250.112 172.265 249.795C172.508 249.684 172.782 249.644 172.992 249.462C173.878 248.717 174.793 248.014 175.679 247.269C175.763 247.193 175.861 247.117 175.9 246.999C175.558 247.158 175.263 247.401 174.922 247.574C174.215 248.051 173.478 248.5 172.755 248.949C171.783 249.32 170.778 249.606 169.791 249.977C169.491 250.09 169.17 250.03 168.867 250.086C168.102 250.188 167.348 250.188 166.582 250.275C165.915 250.287 165.26 250.21 164.606 250.192C164.112 250.182 163.736 249.819 163.322 249.618C162.237 248.963 161.113 248.412 160.015 247.772C159.838 247.692 159.661 247.612 159.539 247.471C159.19 247.079 158.717 246.836 158.353 246.444C157.78 245.871 157 245.596 156.317 245.188C156.095 245.066 155.886 244.914 155.637 244.851L155.638 244.866Z"
                fill="#FFC6BB" />
            <path
                d="M157.882 209.06C158.327 208.942 158.757 208.795 159.205 208.748C162.08 208.434 165.032 208.625 167.664 209.901C168.078 210.103 168.508 210.333 168.956 210.287C169.245 210.261 169.515 210.12 169.771 209.98C172.116 208.714 174.615 208.066 177.288 208.543C178.559 208.77 180.015 209.28 181.007 210.155C183.245 212.144 185.02 215.644 185.403 218.444C185.927 222.225 184.853 225.995 184.652 229.803C186.156 228.556 186.039 227.022 186.241 225.1C186.303 224.459 187.042 223.299 187.367 222.72C187.543 222.394 187.823 222.108 188.18 221.964C188.794 221.722 188.714 222.277 188.79 222.752C188.961 223.776 189.102 224.801 189.055 225.847C189.006 226.835 188.87 227.813 188.308 228.661C187.896 229.272 187.365 229.786 186.818 230.286C185.809 231.195 184.74 232.063 184 233.209C183.247 234.37 182.908 235.732 182.45 237.026C182.215 237.688 181.846 238.283 181.595 238.931C181.384 239.476 181.277 240.075 181.08 240.619C180.804 241.355 180.485 242.122 180.458 242.921C180.442 243.632 180.643 244.321 180.627 245.033C180.603 246.296 180.383 248.118 179.639 249.133C177.226 252.403 173.771 254.597 170.437 256.931C169.491 257.591 168.442 258.241 167.283 258.286C166.066 258.333 164.53 258.755 163.463 258.172C160.913 256.762 158.729 254.292 156.676 252.225C155.454 251.01 154.455 249.554 153.855 247.923C153.547 247.093 153.369 246.244 153.306 245.362C153.241 244.421 153.525 243.511 153.2 242.595C152.972 241.965 152.517 241.461 152.162 240.894C151.033 239.081 151.078 236.859 151.041 234.786C151.017 234.149 151.132 233.375 150.69 232.841C150.493 232.602 150.197 232.454 149.943 232.26C149.165 231.667 148.822 230.679 148.539 229.732C148.207 228.642 147.889 227.538 147.758 226.411C147.632 225.386 147.579 224.024 148.139 223.118C148.808 222.033 149.892 222.687 150.333 223.584C150.584 224.068 150.663 224.616 150.684 225.152C150.703 225.645 150.55 226.202 150.656 226.676C151.452 226.646 151.712 224.735 151.952 224.175C152.351 223.231 152.661 222.247 152.927 221.264C153.431 219.272 153.671 217.217 153.621 215.173C153.595 214.492 153.568 213.811 153.644 213.141C153.72 212.471 154.059 211.877 154.266 211.217C154.304 211.07 154.386 210.936 154.498 210.83C154.763 210.559 155.029 210.302 155.279 210.031C155.405 209.91 155.516 209.761 155.702 209.71C156.448 209.493 157.18 209.291 157.927 209.088M155.638 244.866C155.646 245.083 155.811 245.222 155.919 245.392C156.241 245.829 156.492 246.327 156.883 246.689C157.563 247.388 158.187 248.133 158.866 248.818C159.374 249.204 159.951 249.501 160.501 249.843C160.724 249.979 160.947 250.116 161.196 250.179C161.826 250.328 162.455 250.478 163.085 250.628C163.757 250.762 164.419 250.997 165.105 251.087C165.395 251.09 165.697 251.02 165.988 251.038C166.438 251.05 166.884 250.946 167.348 250.942C167.827 250.953 168.301 250.833 168.78 250.843C169.215 250.827 169.664 250.809 170.079 250.648C170.807 250.359 171.552 250.112 172.265 249.795C172.508 249.684 172.782 249.644 172.992 249.462C173.878 248.717 174.793 248.014 175.679 247.269C175.763 247.193 175.861 247.117 175.9 246.999C175.558 247.158 175.263 247.401 174.922 247.574C174.215 248.051 173.478 248.5 172.755 248.949C171.783 249.32 170.778 249.606 169.791 249.977C169.491 250.09 169.17 250.03 168.867 250.086C168.102 250.188 167.348 250.188 166.582 250.275C165.915 250.287 165.26 250.21 164.606 250.192C164.112 250.182 163.736 249.819 163.322 249.618C162.237 248.963 161.113 248.412 160.015 247.772C159.838 247.692 159.661 247.612 159.539 247.471C159.19 247.079 158.717 246.836 158.353 246.444C157.78 245.871 157 245.596 156.317 245.188C156.095 245.066 155.886 244.914 155.637 244.851L155.638 244.866Z"
                stroke="#FFC6BB" stroke-width="0.03" />
            <path
                d="M153.087 243.049C153.087 243.049 153.185 242.973 153.241 242.927C153.317 243.765 153.307 244.622 153.34 245.477C153.32 245.724 153.33 245.985 153.354 246.23C153.308 246.145 153.304 246.058 153.301 245.971C153.282 245.116 153.235 244.262 153.201 243.393C153.196 243.262 153.149 243.163 153.087 243.063L153.087 243.049Z"
                fill="#2D3E50" stroke="#2D3E50" stroke-width="0.03" />
            <path
                d="M151.051 245.55C151.462 244.563 152.334 243.833 153.164 243.162C152.871 245.712 153.869 248.271 155.399 250.33C156.929 252.389 158.923 254.038 160.914 255.644C162.786 257.154 164.828 258.555 167.345 257.993C169.56 257.501 171.446 256.007 173.222 254.662C175.379 253.026 177.336 251.108 178.905 248.9C179.524 248.02 181.122 245.449 180.671 244.305C182.281 248.407 181.66 253.001 180.943 257.352C180.508 259.995 180.059 262.638 179.58 265.268C179.39 266.363 179.185 267.445 178.966 268.527C178.698 269.843 178.386 271.161 178.074 272.479C176.508 278.893 174.576 285.207 172.261 291.389C172.075 285.448 171.854 279.334 169.453 273.899C168.77 272.373 167.914 270.869 167.778 269.206C167.561 266.602 169.123 264.221 170.621 262.074C172.946 264.03 175.255 265.972 177.579 267.928C177.849 268.149 178.119 268.386 178.389 268.607C177.864 268.178 177.284 267.808 176.774 267.364C176.264 266.919 175.751 266.417 175.253 265.928C174.272 264.936 173.333 263.913 172.295 262.967C170.386 261.227 168.062 259.648 165.341 259.84C165.226 259.845 165.11 259.864 164.994 259.868C164.965 259.869 164.936 259.871 164.907 259.872C162.483 260.212 160.437 261.698 158.595 263.206C158.538 263.251 158.482 263.297 158.426 263.343C158.018 263.678 157.611 264.027 157.218 264.376C157.035 264.528 156.853 264.695 156.67 264.847C156.502 264.998 156.203 265.155 156.08 265.334C155.686 265.654 155.292 265.974 154.898 266.279C154.517 266.569 154.098 266.977 153.655 267.168C156.073 265.523 158.49 263.891 160.908 262.246C161.829 264.299 161.24 266.716 160.23 268.728C159.219 270.74 157.809 272.535 156.975 274.613C156.088 276.824 155.417 279.359 154.678 281.637C152.205 275.073 151.956 267.872 151.468 260.869C151.17 256.543 150.946 252.228 150.822 247.895C150.794 247.156 150.78 246.417 151.014 245.726C151.041 245.667 151.053 245.608 151.08 245.549L151.051 245.55Z"
                fill="#297FB8" stroke="#297FB8" stroke-width="0.03" />
            <path
                d="M155.672 244.937C156.356 244.983 157.119 245.577 157.656 245.948C158.312 246.416 158.941 246.929 159.596 247.368C160.922 248.26 162.395 248.827 163.909 249.334C165.422 249.841 167.141 250.022 168.773 249.828C170.333 249.637 171.883 249.2 173.292 248.493C173.946 248.163 174.569 247.762 175.131 247.29C175.652 246.864 176.209 246.262 176.853 246.034C176.759 246.241 176.578 246.422 176.424 246.573C175.226 247.853 173.914 249.194 172.411 250.094C171.319 250.745 170.117 251.198 168.879 251.434C166.172 251.96 163.366 251.43 160.964 250.101C159.689 249.395 158.537 248.497 157.525 247.462C156.846 246.763 155.927 245.899 155.701 244.921L155.672 244.937Z"
                fill="#FEB1A4" stroke="#FEB1A4" stroke-width="0.03" />
            <path
                d="M180.331 243.753C180.587 243.99 180.701 244.319 180.886 244.602C181.214 245.199 181.57 245.794 181.899 246.405C182.069 246.689 182.025 247.039 182.051 247.357C182.107 248.806 182.163 250.254 182.22 251.717C182.233 252.065 182.291 252.44 182.188 252.778C181.931 253.643 181.674 254.495 181.417 255.361C181.263 255.86 181.152 256.372 180.938 256.845C181.021 255.985 181.22 255.136 181.376 254.289C181.467 253.647 181.646 253.016 181.694 252.376C181.637 250.536 181.552 248.711 181.481 246.871C181.476 246.349 181.197 245.896 181.019 245.424C180.83 245.039 180.755 244.592 180.509 244.239C180.457 244.386 180.434 244.547 180.426 244.707C180.385 244.389 180.329 244.072 180.331 243.753Z"
                fill="#1D5A81" stroke="#1D5A81" stroke-width="0.03" />
            <path
                d="M141.191 249.834C142.991 249.111 144.776 248.361 146.544 247.567C144.026 250.363 141.109 252.593 137.998 254.672L141.56 257.509C139.669 258.496 137.777 259.468 135.885 260.455C135.572 260.612 135.246 260.814 135.158 261.151C135.095 261.4 135.177 261.658 135.273 261.886C140.74 276.096 147.335 289.841 155.45 302.745L155.573 302.943C155.651 303.071 155.743 303.198 155.82 303.325C158.044 306.823 160.354 310.274 162.776 313.648C162.929 313.859 163.083 314.071 163.121 314.316C163.192 314.647 163.06 314.986 162.942 315.31C162.136 317.357 161.433 319.43 160.7 321.49C160.506 322.121 160.24 322.726 160.119 323.369C160.302 323.217 160.381 322.996 160.489 322.803C162.081 320.058 163.627 317.271 165.233 314.525C166.26 312.933 167.301 311.34 168.342 309.748C172.528 303.943 175.792 297.549 178.969 291.159C182.147 284.769 185.489 278.518 188.963 272.319C189.099 272.067 189.249 271.815 189.399 271.563C190.54 269.56 191.696 267.557 192.866 265.553C194.132 263.386 192.476 261.825 191.299 259.897C191.267 259.841 191.221 259.77 191.248 259.711C191.259 259.638 191.33 259.592 191.402 259.56C192.51 258.951 193.603 258.343 194.711 257.735C194.811 257.687 194.91 257.625 194.935 257.508C194.96 257.42 194.914 257.335 194.867 257.264C193.537 254.748 192.121 252.278 190.82 249.746C190.742 249.604 190.693 249.461 190.744 249.299C190.514 250.106 198.148 252.437 198.795 252.659C202.251 253.846 205.695 255.12 209.202 256.16C212.123 257.033 215.592 256.711 218.051 258.763C219.1 259.637 219.815 260.871 220.3 262.144C221.463 265.233 221.433 268.571 222.151 271.764C222.904 275.129 224.307 278.397 225.434 281.647C227.639 288.033 228.768 294.735 229.201 301.45C229.302 302.941 229.898 321.009 229.073 321.041L205.561 321.949C206.404 318.231 206.648 314.391 206.719 310.588C206.761 308.685 206.789 306.769 206.759 304.855C206.742 304.058 206.698 303.291 206.58 302.498C206.46 301.632 206.095 300.819 206.061 299.95C205.528 304.178 204.878 308.381 204.257 312.598C204.083 313.722 203.502 321.956 202.126 322.038C194.903 322.447 187.671 322.639 180.442 322.918C164.319 323.541 148.195 324.163 132.087 324.785L128.9 324.908C128.662 312.353 127.148 299.833 124.384 287.594C123.821 300.092 128.611 312.544 126.957 324.954C118.832 325.297 110.707 325.654 102.581 325.996C102.175 326.012 101.77 326.028 101.4 325.853C100.277 325.316 100.576 323.666 101.01 322.503C108.228 303.538 108.479 282.608 114.388 263.186C114.916 261.439 115.542 259.63 116.857 258.361C118.312 256.955 120.396 256.454 122.364 255.957C128.787 254.331 135.091 252.289 141.234 249.817L141.191 249.834Z"
                fill="#2670A0" stroke="#2670A0" stroke-width="0.03" />
            <path
                d="M179.746 264.681C180.108 262.418 180.383 260.145 180.76 257.881C180.694 259.567 180.512 261.242 180.403 262.929C180.328 263.6 180.34 264.296 180.192 264.954C179.811 266.753 179.46 268.566 179.051 270.366C178.69 271.918 178.344 273.469 177.969 275.021C177.829 275.549 177.749 276.103 177.537 276.619C176.786 278.592 176.036 280.566 175.285 282.539C175.021 283.231 174.86 283.948 174.552 284.612C174.672 283.94 174.938 283.321 175.145 282.675C175.79 280.604 176.208 278.644 176.883 276.587C177.415 274.201 178.189 271.72 178.736 269.334C178.827 269.069 178.546 268.92 178.437 268.736C178.555 268.789 178.663 268.945 178.807 268.925C179.144 267.519 179.423 266.101 179.746 264.696L179.746 264.681Z"
                fill="#1D5980" stroke="#1D5980" stroke-width="0.03" />
            <path
                d="M164.493 259.656C165.125 259.486 165.754 259.621 166.395 259.684C166.919 259.736 167.398 259.732 167.884 259.931C168.371 260.13 168.817 260.417 169.249 260.705C169.577 260.925 169.89 261.145 170.217 261.35C170.47 261.514 170.903 261.845 170.771 262.184L170.56 261.96C169.89 261.522 169.205 261.084 168.535 260.631C168.238 260.454 167.983 260.246 167.62 260.217C167.153 260.162 166.657 260.08 166.19 260.025C164.791 259.862 163.477 260.391 162.332 261.161C162.021 261.376 161.71 261.591 161.414 261.806C161.273 261.913 161.117 262.02 160.976 262.127C161.005 262.112 160.654 261.661 160.666 261.602C160.691 261.5 161.047 261.341 161.132 261.28C161.415 261.08 161.715 260.967 162.012 260.781C162.593 260.411 163.263 260.109 163.906 259.852C164.106 259.772 164.307 259.706 164.507 259.641L164.493 259.656Z"
                fill="#1B5981" stroke="#1B5981" stroke-width="0.03" />
            <path
                d="M157.637 263.895C158.539 263.222 159.394 262.435 160.328 261.833C160.583 261.663 161.076 261.282 161.199 261.466C161.215 261.508 161.27 261.419 161.312 261.389C161.496 261.266 161.694 261.142 161.878 261.019C161.963 260.972 162.235 261.252 162.223 261.31C162.211 261.383 161.884 261.541 161.813 261.587L161.403 261.864C158.958 263.554 156.53 265.287 154.039 266.921C153.87 267.029 153.714 267.137 153.544 267.245C154.848 266.063 156.226 264.936 157.651 263.88L157.637 263.895Z"
                fill="#1B5981" stroke="#1B5981" stroke-width="0.03" />
            <path
                d="M113.772 263.688C113.834 263.802 113.868 263.931 113.859 264.062C113.877 264.54 113.881 265.019 113.885 265.497C113.889 265.613 113.835 265.717 113.781 265.806C113.782 265.095 113.712 264.387 113.757 263.689L113.772 263.688Z"
                fill="#1F2B39" stroke="#1F2B39" stroke-width="0.03" />
            <path
                d="M170.051 261.225C171.231 262.094 171.527 261.865 174.135 264.782C174.802 265.539 175.665 266.101 176.416 266.768C176.761 267.06 177.106 267.351 177.451 267.642C177.737 267.907 178.242 268.221 178.359 268.608C178.272 268.612 178.168 268.543 178.093 268.488C177.988 268.405 177.883 268.293 177.777 268.195C177.493 267.96 177.222 267.709 176.937 267.474C176.307 266.932 175.704 266.346 175.046 265.849C174.344 265.31 173.68 264.669 173.005 264.085C172.285 263.475 171.565 262.85 170.859 262.239C170.784 262.169 170.694 262.1 170.661 262C170.628 261.899 169.966 261.287 170.051 261.225Z"
                fill="#195983" stroke="#195983" stroke-width="0.03" />
            <path
                d="M179.989 243.563C181.067 244.421 182.117 245.323 183.181 246.196C183.436 246.404 183.663 246.642 183.972 246.775C186.388 247.712 188.817 248.633 191.247 249.57C191.195 249.731 191.259 249.888 191.338 250.045C192.042 251.367 192.845 252.627 193.563 253.949C193.879 254.618 194.281 255.241 194.611 255.91C195.017 256.664 195.467 257.401 195.83 258.17C195.692 258.364 195.449 258.446 195.236 258.57C194.142 259.178 193.019 259.758 191.91 260.352C191.767 260.416 191.701 260.564 191.793 260.705C192.689 262.107 193.584 263.509 194.465 264.911C194.587 265.051 194.448 265.202 194.38 265.335C193.697 266.42 192.999 267.521 192.316 268.606C191.632 269.692 190.919 270.749 190.324 271.875C188.843 274.486 187.349 277.111 185.868 279.722C185.12 281.013 184.416 282.317 183.667 283.593C183.03 284.749 182.363 285.892 181.712 287.049C180.963 288.34 180.304 289.686 179.586 290.99C178.954 292.277 178.233 293.538 177.572 294.825C175.666 298.439 173.759 302.038 171.853 305.652C170.606 307.528 169.329 309.405 168.082 311.296C167.667 311.834 167.356 312.426 166.956 312.964C165.831 314.632 164.706 316.301 163.595 317.968C161.864 320.85 160.192 323.772 158.461 326.654C158.338 326.862 158.245 327.083 158.049 327.25C158.182 326.577 158.462 325.928 158.684 325.281C159.183 323.942 159.624 322.576 160.123 321.222C160.58 319.913 161.008 318.591 161.509 317.309C161.549 317.206 161.574 317.103 161.614 317C161.98 316.333 162.213 315.613 162.535 314.934C163.613 312.411 164.69 309.889 165.783 307.38C166.048 306.732 166.372 306.095 166.608 305.433C167.1 304.297 167.52 303.135 168.012 301.984C168.597 300.583 169.137 299.17 169.72 297.755C170.021 296.901 170.44 296.087 170.682 295.222C170.882 294.779 171.082 294.322 171.253 293.865C171.868 292.115 172.468 290.38 173.053 288.631C173.289 287.983 173.54 287.335 173.746 286.66C174.067 285.951 174.241 285.205 174.533 284.483C175.352 282.42 176.158 280.358 176.978 278.295C177.203 277.749 177.283 277.181 177.435 276.609C177.836 274.983 178.223 273.358 178.61 271.732C179.06 269.858 179.437 267.957 179.843 266.07C180.004 265.368 179.991 264.657 180.08 263.943C180.186 262.183 180.393 260.42 180.47 258.647C180.513 258.268 180.572 257.903 180.674 257.536C180.901 257.034 181.026 256.507 181.194 255.979C181.464 255.069 181.763 254.172 182.032 253.262C182.149 252.895 182.076 252.521 182.076 252.143C182.017 250.622 181.959 249.101 181.9 247.58C181.887 247.247 181.931 246.883 181.745 246.585C181.388 245.961 181.001 245.337 180.642 244.698C180.442 244.401 180.313 244.058 180.042 243.807C180.039 243.735 180.022 243.663 180.005 243.591L179.989 243.563Z"
                fill="#1B5981" stroke="#1B5981" stroke-width="0.03" />
            <path
                d="M162.542 195.896C166.641 195.346 171.022 194.959 175.106 195.904C178.166 196.613 181.963 198.382 183.3 201.449C183.681 202.319 183.909 203.326 184.659 203.965C185.409 204.603 186.161 205.299 186.802 206.102C188.389 208.144 189.197 210.652 189.397 213.212C189.549 215.266 189.475 217.474 188.855 219.457C188.235 221.439 187.254 223.45 186.71 225.531C186.482 226.396 186.328 227.287 186.042 228.139C185.756 228.992 185.321 229.763 184.633 230.356C184.804 228.013 184.93 225.643 184.622 223.305C184.377 221.458 183.872 219.664 183.67 217.814C183.538 216.644 183.536 215.455 183.317 214.288C183.097 213.121 182.542 212.258 181.713 211.448C180.25 210.011 178.316 209.157 176.291 208.93C175.023 208.79 173.553 209.036 172.302 209.331C171.166 209.592 170.061 210.288 169.146 210.99C169.047 211.067 168.934 211.158 168.803 211.149C168.717 211.152 168.628 211.112 168.539 211.072C167.888 210.734 167.304 210.264 166.639 209.941C165.87 209.565 165.007 209.38 164.161 209.282C162.164 209.026 160.122 209.119 158.151 209.558C157.187 209.769 156.213 210.082 155.408 210.65C153.912 211.724 153.662 213.532 153.686 215.272C153.71 216.287 153.882 217.339 153.688 218.348C153.484 219.429 153.22 220.484 152.927 221.54C152.633 222.567 152.309 223.58 151.942 224.581C151.639 225.391 150.909 226.768 150.293 227.358C150.475 227.191 150.737 225.687 150.711 225.412C150.664 224.935 150.588 224.474 150.397 224.031C150.061 223.217 149.402 222.677 148.569 223.275C148.498 223.321 148.442 223.382 148.387 223.442C148.108 223.743 147.949 224.126 147.67 224.427C147.837 224.232 147.462 222.796 147.451 222.506C147.412 221.883 147.46 221.243 147.48 220.619C147.515 219.283 147.638 217.958 147.82 216.645C148.049 215.069 148.381 213.519 148.815 211.993C149.301 210.306 149.904 208.629 150.404 206.926C151.634 202.715 154.084 198.906 158.207 197.093C159.633 196.458 161.086 196.126 162.543 195.925L162.542 195.896Z"
                fill="#77070D" stroke="#77070D" stroke-width="0.03" />
            <path
                d="M154.536 281.28L161.138 309.867L164.169 314.726L172.268 291.505L173.032 271.092L170.606 261.988L167.899 260.264L165.305 259.958L163.294 260.471L160.964 262.128L155.522 270.361L154.536 281.28Z"
                fill="#297FB8" stroke="#297FB8" stroke-width="0.03" />
            <path
                d="M150.056 246.082C150.284 245.972 150.511 245.847 150.756 245.794C150.627 245.828 150.921 250.068 150.937 250.473C150.998 252.067 151.06 253.66 151.121 255.239C151.255 258.353 151.462 261.464 151.742 264.573C151.896 266.308 152.079 268.042 152.29 269.76C153.032 275.81 154.77 281.764 156.549 287.614C157.046 289.235 157.529 290.841 157.998 292.462C159.805 298.674 161.481 304.906 163.217 311.15C163.47 312.069 163.737 312.972 163.976 313.906C164.053 314.759 164.028 315.616 164.104 316.469C163.914 316.433 163.82 316.262 163.713 316.122C162.891 315.109 162.068 314.096 161.231 313.084C160.955 312.703 160.609 312.382 160.376 311.985C159.664 310.808 158.866 309.693 158.153 308.516C156.675 306.296 155.253 304.044 153.803 301.808C152.538 299.84 151.244 297.888 149.992 295.919C149.667 295.381 149.398 294.796 149.086 294.242C146.953 290.088 144.806 285.964 142.673 281.81C142.014 280.544 141.37 279.263 140.698 278.013C140.385 277.415 140.157 276.786 139.886 276.158C137.946 271.358 135.991 266.559 134.035 261.76C134.002 261.66 133.94 261.546 133.964 261.429C135.986 260.422 138.054 259.109 140.074 258.088C140.402 257.931 140.632 257.899 140.914 257.671C140.701 257.418 140.516 257.506 140.248 257.327C139.264 256.64 138.279 255.938 137.295 255.251C137.176 255.168 137.071 255.085 136.994 254.972C138.226 254.185 139.488 253.439 140.72 252.652C141.551 251.996 142.321 251.27 143.136 250.6C144.202 249.659 145.328 248.76 146.395 247.819C146.394 247.79 146.376 247.719 146.36 247.676C146.546 247.61 146.732 247.545 146.918 247.466C147.959 246.99 148.999 246.515 150.04 246.039L150.056 246.082Z"
                fill="#1B5981" stroke="#1B5981" stroke-width="0.03" />
        </g>
    </g>
    <circle cx="167.351" cy="235.829" r="56.7185" stroke="#FF706C" />
    <path d="M534.764 297.75L563.625 282L534.764 266.25L534.75 278.5L555.375 282L534.75 285.5L534.764 297.75Z"
        fill="#FF706C" />
    <defs>
        <filter id="filter0_d_1207_2848" x="88.9062" y="0.926758" width="527.02" height="348.212"
            filterUnits="userSpaceOnUse" color-interpolation-filters="sRGB">
            <feFlood flood-opacity="0" result="BackgroundImageFix" />
            <feColorMatrix in="SourceAlpha" type="matrix" values="0 0 0 0 0 0 0 0 0 0 0 0 0 0 0 0 0 0 127 0"
                result="hardAlpha" />
            <feOffset />
            <feGaussianBlur stdDeviation="20" />
            <feComposite in2="hardAlpha" operator="out" />
            <feColorMatrix type="matrix" values="0 0 0 0 0 0 0 0 0 0 0 0 0 0 0 0 0 0 0.1 0" />
            <feBlend mode="normal" in2="BackgroundImageFix" result="effect1_dropShadow_1207_2848" />
            <feBlend mode="normal" in="SourceGraphic" in2="effect1_dropShadow_1207_2848" result="shape" />
        </filter>
        <filter id="filter1_d_1207_2848" x="392.668" y="45" width="270" height="125" filterUnits="userSpaceOnUse"
            color-interpolation-filters="sRGB">
            <feFlood flood-opacity="0" result="BackgroundImageFix" />
            <feColorMatrix in="SourceAlpha" type="matrix" values="0 0 0 0 0 0 0 0 0 0 0 0 0 0 0 0 0 0 127 0"
                result="hardAlpha" />
            <feOffset />
            <feGaussianBlur stdDeviation="5" />
            <feComposite in2="hardAlpha" operator="out" />
            <feColorMatrix type="matrix" values="0 0 0 0 0 0 0 0 0 0 0 0 0 0 0 0 0 0 0.15 0" />
            <feBlend mode="normal" in2="BackgroundImageFix" result="effect1_dropShadow_1207_2848" />
            <feBlend mode="normal" in="SourceGraphic" in2="effect1_dropShadow_1207_2848" result="shape" />
        </filter>
        <filter id="filter2_d_1207_2848" x="0" y="216.889" width="198.809" height="136.225" filterUnits="userSpaceOnUse"
            color-interpolation-filters="sRGB">
            <feFlood flood-opacity="0" result="BackgroundImageFix" />
            <feColorMatrix in="SourceAlpha" type="matrix" values="0 0 0 0 0 0 0 0 0 0 0 0 0 0 0 0 0 0 127 0"
                result="hardAlpha" />
            <feOffset />
            <feGaussianBlur stdDeviation="5" />
            <feComposite in2="hardAlpha" operator="out" />
            <feColorMatrix type="matrix" values="0 0 0 0 0 0 0 0 0 0 0 0 0 0 0 0 0 0 0.15 0" />
            <feBlend mode="normal" in2="BackgroundImageFix" result="effect1_dropShadow_1207_2848" />
            <feBlend mode="normal" in="SourceGraphic" in2="effect1_dropShadow_1207_2848" result="shape" />
        </filter>
        <clipPath id="clip0_1207_2848">
            <rect width="129.416" height="131.402" fill="white"
                transform="translate(95.6875 198.143) rotate(-2.21071)" />
        </clipPath>
    </defs>
</svg>