<svg width="347" height="490" viewBox="0 0 347 490" fill="none" xmlns="http://www.w3.org/2000/svg">
<path d="M113.5 104.001C140.561 104.001 162.5 82.1109 162.5 55.1052C162.5 28.0996 140.561 6.20898 113.5 6.20898C86.4391 6.20898 64.5 28.0996 64.5 55.1052C64.5 82.1109 86.4391 104.001 113.5 104.001Z" fill="#BDBDBD" stroke="#BDBDBD"/>
<ellipse cx="114.576" cy="45.4261" rx="17.2444" ry="17.2075" fill="white"/>
<mask id="mask0_1277_5494" style="mask-type:alpha" maskUnits="userSpaceOnUse" x="86" y="66" width="55" height="55">
<ellipse cx="113.499" cy="93.8221" rx="26.9444" ry="26.8868" fill="white"/>
</mask>
<g mask="url(#mask0_1277_5494)">
<ellipse cx="113.5" cy="55.1052" rx="48.5" ry="48.3962" fill="white"/>
</g>
<path d="M230.5 104.001C257.561 104.001 279.5 82.1109 279.5 55.1052C279.5 28.0996 257.561 6.20898 230.5 6.20898C203.439 6.20898 181.5 28.0996 181.5 55.1052C181.5 82.1109 203.439 104.001 230.5 104.001Z" fill="#BDBDBD" stroke="#BDBDBD"/>
<ellipse cx="231.576" cy="45.4261" rx="17.2444" ry="17.2075" fill="white"/>
<mask id="mask1_1277_5494" style="mask-type:alpha" maskUnits="userSpaceOnUse" x="203" y="66" width="55" height="55">
<ellipse cx="230.499" cy="93.8221" rx="26.9444" ry="26.8868" fill="white"/>
</mask>
<g mask="url(#mask1_1277_5494)">
<ellipse cx="230.5" cy="55.1052" rx="48.5" ry="48.3962" fill="white"/>
</g>
<path fill-rule="evenodd" clip-rule="evenodd" d="M186.001 130.709H158.001V172.209L138.293 172.209L172.501 215.709L206.709 172.209L186.001 172.209V130.709Z" fill="#FF908D"/>
<rect x="42" y="269.709" width="260" height="220" rx="10" fill="#E0E0E0"/>
<g clip-path="url(#clip0_1277_5494)">
<rect x="141" y="7.70898" width="17" height="20" rx="4" fill="white"/>
<path d="M154.284 4.95898H143.716L136.25 12.4248V22.9932L143.716 30.459H154.284L161.75 22.9932V12.4248L154.284 4.95898ZM156.083 23.0073L154.298 24.7923L149 19.494L143.702 24.7923L141.917 23.0073L147.215 17.709L141.917 12.4107L143.702 10.6257L149 15.924L154.298 10.6257L156.083 12.4107L150.785 17.709L156.083 23.0073Z" fill="#FF706C"/>
</g>
<g clip-path="url(#clip1_1277_5494)">
<rect x="261" y="7.70898" width="17" height="20" rx="4" fill="white"/>
<path d="M274.284 4.95898H263.716L256.25 12.4248V22.9932L263.716 30.459H274.284L281.75 22.9932V12.4248L274.284 4.95898ZM276.083 23.0073L274.298 24.7923L269 19.494L263.702 24.7923L261.917 23.0073L267.215 17.709L261.917 12.4107L263.702 10.6257L269 15.924L274.298 10.6257L276.083 12.4107L270.785 17.709L276.083 23.0073Z" fill="#FF706C"/>
</g>
<circle cx="109.9" cy="390.609" r="44.9002" fill="white"/>
<path d="M114.968 370.213C118.445 370.213 121.289 367.394 121.289 363.948C121.289 360.502 118.445 357.683 114.968 357.683C111.491 357.683 108.647 360.502 108.647 363.948C108.647 367.394 111.491 370.213 114.968 370.213ZM103.59 413.756L106.75 399.972L113.388 406.238V425.033H119.709V401.539L113.072 395.274L114.968 385.876C119.077 390.575 125.398 393.707 132.352 393.707V387.442C126.346 387.442 121.289 384.309 118.761 379.924L115.6 374.912C114.336 373.032 112.439 371.779 110.227 371.779C109.279 371.779 108.647 372.092 107.698 372.092L91.2629 378.984V393.707H97.5843V383.056L103.274 380.864L98.2164 406.238L82.7291 403.105L81.4648 409.37L103.59 413.756Z" fill="#FF706C"/>
<circle cx="233.627" cy="391.357" r="44.9002" fill="white"/>
<path fill-rule="evenodd" clip-rule="evenodd" d="M274.786 391.358C274.786 414.089 256.359 432.516 233.627 432.516C210.896 432.516 192.469 414.089 192.469 391.358C192.469 368.626 210.896 350.199 233.627 350.199C256.359 350.199 274.786 368.626 274.786 391.358ZM203.648 383.736C203.648 380.929 205.923 378.654 208.729 378.654H218.892C221.698 378.654 223.973 380.929 223.973 383.736C223.973 386.542 221.698 388.817 218.892 388.817H208.729C205.923 388.817 203.648 386.542 203.648 383.736ZM247.347 378.654C244.54 378.654 242.265 380.929 242.265 383.736C242.265 386.542 244.54 388.817 247.347 388.817H257.509C260.316 388.817 262.591 386.542 262.591 383.736C262.591 380.929 260.316 378.654 257.509 378.654H247.347ZM217.254 404.207C214.791 402.958 213.806 399.95 215.055 397.487L215.128 397.342C216.377 394.879 219.386 393.894 221.849 395.143L233.22 400.907L244.592 395.143C247.055 393.894 250.064 394.879 251.313 397.342L251.386 397.487C252.635 399.95 251.65 402.958 249.187 404.207L244.458 406.604L249.187 409.001C251.65 410.25 252.635 413.259 251.386 415.722L251.313 415.867C250.064 418.33 247.055 419.314 244.592 418.066L233.22 412.301L221.849 418.066C219.386 419.314 216.377 418.33 215.128 415.867L215.055 415.722C213.806 413.259 214.791 410.25 217.254 409.001L221.983 406.604L217.254 404.207Z" fill="#FF706C"/>
<path d="M131.09 415.334L145.243 449.795L147.115 449.807L152.259 436.78L165.351 431.825L165.363 429.954L131.09 415.334Z" fill="#9E9E9E"/>
<path d="M131.09 412.341L145.243 446.802L147.115 446.814L152.259 433.787L165.351 428.831L165.363 426.96L131.09 412.341Z" fill="#616161"/>
<rect x="7.88672" y="275.603" width="325.641" height="61.6578" rx="5" transform="rotate(-10.408 7.88672 275.603)" fill="#FF706C"/>
<path d="M54.6357 302.396L51.8112 290.491L50.9141 286.434L55.2629 285.635L55.8661 289.746L57.4565 301.878L54.6357 302.396ZM55.1502 309.166L54.3838 304.994L58.6738 304.206L59.4402 308.378L55.1502 309.166Z" fill="white"/>
<path d="M64.6296 300.56L61.8051 288.656L60.908 284.598L65.2568 283.799L65.8601 287.911L67.4504 300.042L64.6296 300.56ZM65.1441 307.33L64.3777 303.158L68.6678 302.37L69.4342 306.542L65.1441 307.33Z" fill="white"/>
<path d="M80.5467 281.598L83.8713 299.699L92.6865 298.08L93.3557 301.723L80.1918 304.141L76.1979 282.397L80.5467 281.598Z" fill="white"/>
<path d="M96.624 278.645L100.618 300.389L96.269 301.188L92.2752 279.444L96.624 278.645Z" fill="white"/>
<path d="M105.912 276.94L111.481 286.426C111.842 287.069 112.195 287.723 112.54 288.388L113.575 290.385L113.722 290.358C113.828 289.61 113.914 288.865 113.98 288.124C114.066 287.379 114.164 286.642 114.273 285.914L116.02 275.083L120.838 274.198L124.832 295.942L120.866 296.67L119.198 287.591C119.104 287.081 119.012 286.521 118.92 285.911C118.844 285.276 118.777 284.641 118.721 284.003C118.661 283.346 118.605 282.708 118.552 282.09C118.496 281.452 118.45 280.873 118.415 280.353L118.298 280.375L117.474 285.812L115.803 295.565L113.305 296.024L108.247 287.506L105.575 282.712L105.457 282.734C105.609 283.232 105.772 283.789 105.946 284.405C106.136 284.998 106.31 285.614 106.468 286.254C106.642 286.87 106.806 287.487 106.96 288.107C107.111 288.707 107.233 289.262 107.327 289.771L108.994 298.851L105.086 299.569L101.093 277.825L105.912 276.94Z" fill="white"/>
<path d="M129.639 272.581L133.633 294.325L129.284 295.124L125.291 273.38L129.639 272.581Z" fill="white"/>
<path d="M132.979 275.704L132.316 272.09L148.947 269.035L149.611 272.649L143.44 273.783L146.77 291.912L142.421 292.711L139.091 274.581L132.979 275.704Z" fill="white"/>
<path d="M167.93 288.451C166.461 288.721 164.981 288.709 163.489 288.416C162.017 288.119 160.659 287.559 159.414 286.735L161.361 283.279C162.278 283.86 163.257 284.287 164.3 284.561C165.358 284.812 166.368 284.85 167.328 284.674C168.464 284.465 169.284 284.081 169.789 283.523C170.294 282.964 170.476 282.303 170.336 281.539C170.261 281.128 170.119 280.799 169.912 280.554C169.705 280.308 169.435 280.105 169.101 279.943C168.788 279.778 168.409 279.645 167.965 279.545C167.541 279.44 167.064 279.325 166.535 279.2L163.399 278.5C162.578 278.327 161.787 278.047 161.027 277.66C160.287 277.269 159.634 276.741 159.066 276.076C158.495 275.391 158.112 274.52 157.918 273.462C157.756 272.581 157.791 271.724 158.022 270.891C158.251 270.039 158.648 269.278 159.213 268.607C159.774 267.917 160.487 267.33 161.35 266.848C162.21 266.346 163.188 265.994 164.285 265.792C165.578 265.555 166.857 265.573 168.122 265.847C169.403 266.098 170.568 266.593 171.615 267.332L169.913 270.469C169.123 270.027 168.327 269.718 167.525 269.541C166.723 269.364 165.871 269.359 164.97 269.524C164.01 269.7 163.284 270.046 162.792 270.562C162.296 271.058 162.114 271.669 162.247 272.394C162.316 272.766 162.463 273.073 162.69 273.315C162.936 273.553 163.226 273.753 163.559 273.914C163.912 274.072 164.312 274.211 164.76 274.332C165.204 274.432 165.677 274.528 166.179 274.618L169.251 275.299C170.703 275.599 171.904 276.128 172.853 276.885C173.802 277.642 174.422 278.814 174.714 280.401C174.876 281.282 174.844 282.159 174.62 283.03C174.414 283.898 174.025 284.699 173.451 285.432C172.873 286.146 172.117 286.771 171.183 287.307C170.268 287.839 169.184 288.221 167.93 288.451Z" fill="white"/>
<path d="M188.162 261.832L188.826 265.446L179.834 267.098L180.757 272.122L188.397 270.719L189.066 274.363L181.426 275.766L182.495 281.584L191.81 279.873L192.479 283.517L178.816 286.026L174.822 264.282L188.162 261.832Z" fill="white"/>
<path d="M201.876 273.286L198.849 273.841L200.361 282.069L196.012 282.868L192.018 261.124L199.599 259.731C200.755 259.519 201.842 259.431 202.861 259.466C203.9 259.498 204.828 259.702 205.647 260.078C206.485 260.451 207.187 261.021 207.753 261.787C208.338 262.551 208.746 263.559 208.977 264.813C209.282 266.478 209.147 267.89 208.57 269.049C208.009 270.185 207.147 271.112 205.983 271.832L212.702 279.802L207.854 280.693L201.876 273.286ZM201.039 269.885C202.449 269.626 203.465 269.146 204.085 268.445C204.722 267.721 204.932 266.771 204.716 265.595C204.5 264.42 203.979 263.675 203.151 263.362C202.34 263.025 201.23 262.986 199.819 263.245L196.998 263.763L198.218 270.404L201.039 269.885Z" fill="white"/>
<path d="M212.899 257.288L217.722 267.337C218.282 268.51 218.791 269.632 219.251 270.702C219.727 271.748 220.254 272.856 220.834 274.026L220.98 273.999C221.087 272.703 221.176 271.482 221.249 270.335C221.338 269.164 221.435 267.931 221.542 266.636L222.42 255.54L226.827 254.73L224.151 277.699L218.979 278.649L208.345 258.125L212.899 257.288Z" fill="white"/>
<path d="M232.797 253.633L236.791 275.377L232.442 276.176L228.448 254.432L232.797 253.633Z" fill="white"/>
<path d="M250.209 273.338C248.838 273.59 247.5 273.583 246.195 273.316C244.891 273.049 243.702 272.529 242.628 271.754C241.554 270.979 240.625 269.945 239.841 268.651C239.076 267.354 238.526 265.794 238.191 263.973C237.86 262.17 237.832 260.525 238.105 259.037C238.395 257.526 238.91 256.196 239.65 255.048C240.391 253.899 241.322 252.959 242.443 252.226C243.584 251.49 244.84 250.996 246.211 250.744C247.621 250.485 248.907 250.543 250.07 250.916C251.248 251.267 252.258 251.75 253.1 252.365L251.315 255.548C250.67 255.12 249.993 254.798 249.285 254.584C248.574 254.35 247.807 254.309 246.984 254.46C246.162 254.611 245.43 254.928 244.79 255.41C244.146 255.872 243.628 256.474 243.238 257.214C242.847 257.954 242.589 258.811 242.465 259.786C242.34 260.76 242.386 261.835 242.601 263.011C242.817 264.186 243.139 265.22 243.566 266.114C244.013 267.004 244.543 267.737 245.155 268.313C245.783 268.866 246.472 269.256 247.222 269.482C247.989 269.686 248.803 269.708 249.665 269.55C250.605 269.377 251.402 269.028 252.055 268.504C252.723 267.955 253.294 267.314 253.767 266.579L256.555 268.862C255.165 271.324 253.049 272.816 250.209 273.338Z" fill="white"/>
<path d="M269.036 246.977L269.7 250.591L260.708 252.243L261.631 257.268L269.271 255.864L269.94 259.508L262.301 260.911L263.369 266.729L272.684 265.018L273.353 268.662L259.69 271.171L255.696 249.427L269.036 246.977Z" fill="white"/>
<path d="M282.869 260.474L280.045 248.57L279.148 244.512L283.496 243.714L284.1 247.825L285.69 259.956L282.869 260.474ZM283.384 267.245L282.617 263.072L286.907 262.284L287.674 266.457L283.384 267.245Z" fill="white"/>
<path d="M292.863 258.639L290.039 246.734L289.142 242.677L293.49 241.878L294.094 245.989L295.684 258.121L292.863 258.639ZM293.378 265.409L292.611 261.236L296.901 260.448L297.668 264.621L293.378 265.409Z" fill="white"/>
<defs>
<clipPath id="clip0_1277_5494">
<rect width="34" height="34" fill="white" transform="translate(132 0.708984)"/>
</clipPath>
<clipPath id="clip1_1277_5494">
<rect width="34" height="34" fill="white" transform="translate(252 0.708984)"/>
</clipPath>
</defs>
</svg>
