<svg width="605" height="385" viewBox="0 0 605 385" fill="none" xmlns="http://www.w3.org/2000/svg">
<path d="M14.416 146.02L17.2992 134.487L28.832 131.604L17.2992 128.721L14.416 117.188L11.5328 128.721L0 131.604L11.5328 134.487L14.416 146.02Z" fill="#FFE55D"/>
<path d="M580.361 133.929L584.825 116.072L602.682 111.608L584.825 107.143L580.361 89.2861L575.896 107.143L558.039 111.608L575.896 116.072L580.361 133.929Z" fill="#FFC803"/>
<path d="M545.019 111.608L556.179 66.9645L600.822 55.8038L556.179 44.643L545.019 0L533.858 44.643L489.215 55.8038L533.858 66.9645L545.019 111.608Z" fill="#FFE55D"/>
<g filter="url(#filter0_d_1207_2911)">
<rect x="65.1055" y="57.6638" width="465.032" height="279.019" rx="10" fill="white"/>
</g>
<circle cx="346.917" cy="215.504" r="46.5032" fill="#A1E2D6"/>
<mask id="mask0_1207_2911" style="mask-type:alpha" maskUnits="userSpaceOnUse" x="300" y="169" width="94" height="94">
<circle cx="346.917" cy="215.503" r="46.5032" fill="#99A6ED"/>
</mask>
<g mask="url(#mask0_1207_2911)">
<path d="M333.122 189.525C336.236 187.119 340.034 185.518 343.988 185.328C344.784 185.639 345.693 185.613 346.489 185.328C346.921 185.31 347.362 185.31 347.795 185.328C348.591 185.639 349.499 185.622 350.295 185.328C353.384 185.518 356.412 186.522 359.042 188.149C359.968 188.72 360.972 189.161 361.897 189.732C365.263 191.757 368.161 194.639 369.978 198.135C371.423 200.878 371.951 204.088 371.492 207.152C371.371 208.017 370.999 208.813 370.774 209.652C370.731 210.656 370.869 211.66 370.791 212.664C370.61 218.808 368.784 224.986 365.099 229.962C365.834 231.104 366.241 232.489 366.007 233.856C365.799 235.414 364.761 236.703 363.593 237.69C362.693 237.949 361.802 237.326 360.911 237.638C360.193 237.897 359.752 238.581 359.561 239.291C359.233 240.45 358.558 241.506 357.615 242.259C356.81 242.908 356.049 243.617 355.504 244.5C353.946 242.752 353.194 240.346 353.375 238.019C353.401 237.62 353.427 237.222 353.436 236.824C353.6 235.691 353.626 234.523 353.419 233.398C354.206 233.051 354.985 232.697 355.737 232.29C356.516 231.883 357.139 231.234 357.918 230.827C359.639 229.945 361.067 228.517 362.053 226.864C363.135 225.056 363.489 222.953 364.078 220.963C364.138 220.53 364.657 220.556 364.969 220.383C366.119 219.872 366.95 218.868 367.659 217.865C368.827 216.16 369.667 214.066 369.243 211.972C367.876 213.339 366.396 214.697 364.545 215.381C364.017 215.563 363.394 215.684 362.884 215.398C362.633 214.784 362.737 214.092 362.607 213.451C362.278 211.634 361.854 209.73 360.669 208.259C359.345 206.606 357.321 205.663 355.279 205.274C352.891 204.781 350.443 205.378 348.046 205.006C344.248 204.46 340.666 202.989 337.249 201.302C335.596 202.453 334.099 203.846 332.949 205.507C332.222 206.537 331.729 207.723 330.846 208.64C330.137 209.376 329.315 210.007 328.424 210.518C327.818 210.838 327.161 211.132 326.46 211.115C325.958 211.098 325.56 210.76 325.188 210.466C324.6 211.4 324.357 212.525 324.461 213.624C324.608 215.45 325.525 217.112 326.616 218.54C327.351 219.535 328.355 220.34 329.566 220.677C329.825 221.058 329.851 221.56 329.998 222.001C330.414 223.437 330.725 224.926 331.409 226.267C331.867 227.193 332.473 228.041 333.182 228.785C335.215 230.862 337.794 232.273 340.424 233.449C340.441 235.111 340.441 236.772 340.225 238.417C335.042 236.513 330.656 232.705 327.775 228.015C325.188 223.749 323.76 218.816 323.475 213.849C323.596 213.356 323.631 212.854 323.605 212.352C323.544 211.435 323.726 210.492 323.475 209.592C323.613 206.901 324.167 204.235 324.972 201.665C325.37 200.09 325.802 198.515 326.538 197.062C327.983 193.998 330.353 191.437 333.139 189.533L333.122 189.525Z" fill="#2D1F1F"/>
<path d="M343.988 185.328C344.819 185.284 345.658 185.293 346.489 185.328C345.693 185.613 344.784 185.639 343.988 185.328Z" fill="#070000"/>
<path d="M347.786 185.328C348.617 185.284 349.456 185.284 350.287 185.328C349.491 185.622 348.582 185.639 347.786 185.328Z" fill="#070000"/>
<path d="M332.931 205.499C334.082 203.846 335.587 202.444 337.231 201.293C340.649 202.981 344.231 204.452 348.029 204.997C350.425 205.369 352.874 204.772 355.262 205.265C357.303 205.655 359.328 206.606 360.652 208.251C361.828 209.73 362.261 211.625 362.59 213.443C362.719 214.083 362.616 214.775 362.866 215.39C363.377 215.675 364 215.554 364.528 215.372C366.379 214.697 367.858 213.339 369.225 211.963C369.649 214.057 368.81 216.151 367.642 217.856C366.933 218.86 366.102 219.864 364.951 220.374C364.64 220.539 364.121 220.521 364.06 220.954C363.472 222.944 363.117 225.047 362.036 226.856C361.05 228.517 359.622 229.936 357.9 230.819C357.122 231.226 356.507 231.875 355.72 232.281C354.967 232.679 354.189 233.043 353.401 233.389C351.628 234.159 349.768 234.739 347.899 235.241C347.319 235.405 346.705 235.492 346.125 235.319C344.231 234.817 342.344 234.254 340.545 233.467C340.519 234.142 340.528 234.808 340.545 235.483C343.997 236.669 347.795 236.816 351.351 236.002C352.026 235.881 352.666 235.518 353.367 235.578C353.367 235.985 353.384 236.4 353.41 236.807C353.393 237.205 353.367 237.603 353.349 238.001C353.168 240.329 353.921 242.735 355.478 244.483C354.768 245.582 354.665 247.001 355.123 248.212C355.296 248.775 355.253 249.381 355.435 249.952C355.634 250.67 355.893 251.449 355.625 252.184C355.322 253.205 354.492 253.898 353.661 254.486C354.267 254.625 354.89 254.728 355.504 254.806C349.101 256.572 342.145 256.122 335.985 253.69C332.629 252.34 329.687 249.657 328.605 246.144C329.626 245.711 330.717 245.46 331.763 245.106C333.9 244.439 336.037 243.764 338.183 243.107C338.849 242.916 339.394 242.406 339.697 241.783C340.138 240.718 340.147 239.533 340.182 238.399C340.398 236.746 340.398 235.094 340.381 233.432C337.75 232.255 335.172 230.845 333.139 228.768C332.43 228.024 331.833 227.167 331.365 226.25C330.682 224.909 330.37 223.42 329.955 221.984C329.817 221.542 329.782 221.049 329.523 220.66C328.32 220.322 327.316 219.517 326.572 218.522C325.482 217.094 324.574 215.424 324.418 213.607C324.314 212.508 324.556 211.383 325.145 210.449C325.517 210.734 325.915 211.072 326.417 211.098C327.117 211.115 327.775 210.829 328.381 210.501C329.272 209.99 330.085 209.358 330.803 208.623C331.677 207.705 332.179 206.52 332.897 205.49L332.931 205.499Z" fill="#F9DAC5"/>
<path d="M323.449 209.575C323.691 210.483 323.51 211.418 323.579 212.335C323.613 212.837 323.579 213.348 323.449 213.832C323.363 212.413 323.363 210.985 323.449 209.566V209.575Z" fill="#0F0101"/>
<path d="M340.562 233.475C342.362 234.254 344.248 234.825 346.143 235.327C346.731 235.509 347.345 235.414 347.916 235.249C349.785 234.748 351.645 234.168 353.419 233.398C353.375 234.133 353.401 234.86 353.393 235.596C352.692 235.535 352.052 235.898 351.377 236.02C347.821 236.824 344.023 236.677 340.571 235.5C340.545 234.825 340.545 234.159 340.571 233.484L340.562 233.475Z" fill="#F2BC9E"/>
<path d="M353.419 233.398C353.626 234.523 353.592 235.699 353.436 236.824C353.401 236.418 353.393 236.002 353.393 235.596C353.393 234.86 353.375 234.133 353.419 233.398Z" fill="#020000"/>
<path d="M360.911 237.629C361.802 237.318 362.693 237.941 363.593 237.681C363.437 237.811 363.282 237.941 363.126 238.07C363.446 238.728 363.853 239.36 364.06 240.069C364.631 241.878 364.484 243.912 363.628 245.608C363.394 246.049 363.109 246.456 362.832 246.862C361.69 246.257 360.409 245.841 359.103 245.98C358.177 246.066 357.251 246.309 356.473 246.836C355.945 247.217 355.582 247.771 355.14 248.23C354.682 247.018 354.786 245.59 355.495 244.5C356.04 243.617 356.81 242.899 357.606 242.259C358.549 241.506 359.224 240.45 359.553 239.291C359.743 238.581 360.193 237.897 360.902 237.638L360.911 237.629Z" fill="#262020"/>
<path d="M327.636 246.438C327.957 246.326 328.277 246.231 328.605 246.144C328.709 246.482 328.51 245.815 328.623 246.153C329.704 249.675 332.646 252.357 336.003 253.699C342.171 256.13 349.127 256.58 355.521 254.815C357.745 254.953 360.089 254.547 361.941 253.24C363.074 252.444 363.982 251.241 364.121 249.822C364.389 249.9 364.536 249.631 364.683 249.467C365.358 248.558 365.92 247.555 366.293 246.482C366.007 247.39 366.145 246.94 366.293 246.49C367.85 247.035 370.047 247.416 371.492 248.23C373.101 249.138 378.776 250.428 379.503 252.184C380.065 256.139 378.465 260.145 371.587 261.989H340.675C340.32 261.919 339.974 261.833 339.619 261.833C336.34 261.85 333.061 261.85 329.773 261.833C329.419 261.833 329.064 261.919 328.718 261.989L316.737 263.044C314.687 260.543 313.657 257.221 314.003 254.001C314.116 252.807 314.6 251.7 315.128 250.644C316.045 249.406 322.627 248.256 324.055 247.615C325.171 247.009 326.468 246.897 327.636 246.438Z" fill="#993399"/>
<path d="M362.84 246.862C363.117 246.456 363.403 246.049 363.636 245.608C364.519 245.91 365.41 246.179 366.293 246.49C365.92 247.563 365.358 248.567 364.683 249.476C364.536 249.64 364.389 249.908 364.121 249.83C364.277 248.697 363.732 247.555 362.84 246.862Z" fill="#F9DAC5"/>
<path d="M356.481 246.828C357.26 246.309 358.186 246.058 359.112 245.971C360.418 245.833 361.698 246.257 362.84 246.854C363.74 247.546 364.277 248.688 364.121 249.822C363.982 251.241 363.074 252.435 361.941 253.24C360.089 254.547 357.745 254.953 355.521 254.815C354.907 254.737 354.284 254.633 353.678 254.495C354.509 253.906 355.348 253.205 355.642 252.193C355.919 251.449 355.66 250.679 355.452 249.96C355.279 249.398 355.313 248.792 355.149 248.221C355.59 247.754 355.954 247.208 356.481 246.828Z" fill="#2D1F1F"/>
<path d="M312.87 252.712C313.553 251.951 314.219 251.137 315.128 250.644C314.591 251.7 314.116 252.807 314.003 254.001C313.657 257.221 314.687 260.543 316.737 263.044H309.219C309.409 259.358 310.508 255.611 312.87 252.712Z" fill="#F9DAC5"/>
<path d="M379.494 252.176C380.446 252.998 381.138 254.071 381.735 255.161C383.016 257.619 383.638 260.379 383.777 263.139L371.579 261.98C378.465 260.137 380.057 256.13 379.494 252.176Z" fill="#F9DAC5"/>
<path d="M328.718 261.98C329.064 261.911 329.419 261.833 329.773 261.824C333.052 261.833 336.331 261.841 339.619 261.824C339.974 261.824 340.329 261.911 340.675 261.98H328.718Z" fill="#B15CA4"/>
</g>
<circle cx="242.749" cy="215.504" r="46.5032" fill="#B4BDEF"/>
<mask id="mask1_1207_2911" style="mask-type:alpha" maskUnits="userSpaceOnUse" x="196" y="169" width="94" height="94">
<circle cx="242.749" cy="215.503" r="46.5032" fill="#99A6ED"/>
</mask>
<g mask="url(#mask1_1207_2911)">
<path d="M240.432 185.455C244.811 185.005 249.317 185.377 253.483 186.884C256.248 187.836 258.903 189.196 261.122 191.144C263.06 192.746 264.477 194.858 265.885 196.928C267.097 198.807 267.823 200.989 268.079 203.214C268.258 204.729 268.121 206.253 268.36 207.76C268.463 209.033 268.881 210.262 268.941 211.552C269.146 215.405 268.19 219.172 267.72 222.964C267.157 226.887 267.157 230.896 267.831 234.809C268.232 237.39 268.941 239.927 269.103 242.542C269.197 244.273 268.804 245.996 268.079 247.555C266.645 247.183 265.16 247.061 263.683 247.044C260.192 246.066 256.718 245.018 253.244 244.014C252.194 243.745 251.554 242.689 251.443 241.641C251.255 240.264 251.127 238.879 251.127 237.494C251.144 236.437 251.059 235.39 251.093 234.333C253.517 233.329 255.898 232.134 257.913 230.419C259.185 229.354 260.192 227.96 260.806 226.402C261.276 225.164 261.583 223.874 262.001 222.618C263.521 222.428 264.69 221.285 265.578 220.107C266.594 218.739 267.447 217.12 267.413 215.362C267.413 214.401 267.089 213.457 266.517 212.695C265.356 215.05 263.99 217.336 262.223 219.284C262.223 218.981 262.223 218.687 262.232 218.384C262.385 216.947 262.377 215.509 262.249 214.072C262.249 213.587 262.155 213.111 261.942 212.678C262.744 211.899 262.752 210.669 262.991 209.639C261.344 209.258 259.671 209.076 257.998 208.877C255.693 206.937 253.184 205.162 250.325 204.184C247.107 203.119 243.684 202.521 240.304 202.946C239.22 203.058 238.153 203.344 237.06 203.378C235.899 203.37 234.901 202.642 234.141 201.82C232.57 202.989 231.034 204.21 229.515 205.439C228.175 206.582 226.741 207.708 225.896 209.292C225.315 209.379 224.743 209.5 224.18 209.639C224.342 210.574 224.479 211.552 224.965 212.383C224.982 214.055 225.221 215.708 225.725 217.302C224.573 216.67 223.582 215.717 222.925 214.565C222.643 214.063 222.413 213.535 222.157 213.024C221.312 214.366 221.338 216.098 221.892 217.544C222.336 218.687 223.002 219.735 223.796 220.653C224.607 221.596 225.64 222.436 226.911 222.592C227.517 224.367 227.85 226.263 228.849 227.874C230.095 230.004 232.186 231.433 234.269 232.627C235.396 233.294 236.625 233.753 237.794 234.333C237.803 235.502 237.777 236.671 237.794 237.831C237.675 239.251 237.658 240.697 237.376 242.1C237.197 243.044 236.446 243.832 235.524 244.048C232.203 244.992 228.892 246.005 225.563 246.923C223.625 247.113 221.688 247.546 219.921 248.404C219.34 247.512 218.879 246.533 218.674 245.477C218.273 243.546 218.64 241.572 219.067 239.684C219.622 237.303 220.219 234.931 220.51 232.506C221.09 228.393 220.663 224.229 219.98 220.159C219.391 216.375 218.598 212.427 219.665 208.643C220.032 207.076 219.98 205.457 220.262 203.881C220.774 200.504 222.029 197.213 224.018 194.451C226.041 191.611 228.832 189.377 231.964 187.923C234.662 186.685 237.513 185.758 240.466 185.429L240.432 185.455Z" fill="#5D4E32"/>
<path d="M229.506 205.465C231.025 204.236 232.562 203.015 234.132 201.846C234.901 202.668 235.891 203.396 237.052 203.404C238.144 203.361 239.211 203.084 240.295 202.972C243.675 202.539 247.098 203.145 250.316 204.21C253.184 205.188 255.685 206.963 257.99 208.903C255.565 208.678 253.116 208.556 250.692 208.851C249.13 209.059 247.499 209.422 246.236 210.444C245.724 210.834 245.604 211.509 245.408 212.089C244.179 212.132 242.958 212.132 241.729 212.089C241.541 211.509 241.413 210.834 240.91 210.444C239.612 209.379 237.922 209.05 236.309 208.842C232.827 208.461 229.327 208.833 225.87 209.327C226.715 207.734 228.158 206.608 229.489 205.474L229.506 205.465Z" fill="#F9E0CA"/>
<path d="M225.878 209.318C229.327 208.825 232.835 208.452 236.318 208.833C237.931 209.041 239.621 209.37 240.918 210.435C241.43 210.825 241.55 211.5 241.738 212.08C242.967 212.132 244.187 212.132 245.417 212.08C245.613 211.5 245.732 210.825 246.245 210.435C247.508 209.422 249.138 209.059 250.7 208.842C253.124 208.548 255.574 208.66 257.998 208.894C259.671 209.093 261.353 209.266 262.991 209.656C262.752 210.695 262.752 211.916 261.942 212.695C261.242 213.397 261.361 214.479 261.199 215.388C260.986 217.111 260.132 218.782 258.758 219.83C257.375 220.895 255.634 221.38 253.927 221.458C253.261 221.267 252.569 221.267 251.904 221.458C249.915 221.354 247.866 220.54 246.612 218.912C245.451 217.431 245.101 215.466 245.161 213.613C244.179 213.275 243.078 213.206 242.088 213.552C241.917 213.778 241.994 214.081 241.96 214.34C241.96 216.28 241.311 218.306 239.877 219.639C238.614 220.791 236.907 221.371 235.234 221.458C234.568 221.259 233.876 221.267 233.211 221.458C231.623 221.38 230.018 220.947 228.687 220.038C227.466 219.207 226.578 217.925 226.169 216.496C225.827 215.405 225.921 214.228 225.546 213.145C225.452 212.825 225.179 212.626 224.948 212.409C224.453 211.578 224.325 210.6 224.163 209.665C224.726 209.535 225.298 209.405 225.878 209.318ZM229.737 210.227C228.251 210.375 226.817 211.708 226.945 213.301C226.945 215.475 227.56 217.847 229.267 219.293C230.804 220.592 232.912 220.774 234.832 220.635C236.548 220.531 238.349 219.917 239.442 218.505C240.884 216.609 241.063 213.786 239.826 211.734C239.151 210.877 238.008 210.643 237.009 210.418C234.61 210.011 232.161 210.063 229.745 210.236M251.033 210.279C249.744 210.505 248.259 210.695 247.354 211.743C245.878 214.15 246.39 217.743 248.694 219.44C250.282 220.592 252.33 220.782 254.225 220.644C255.736 220.575 257.29 220.029 258.348 218.895C259.799 217.319 260.277 215.059 260.226 212.955C260.115 211.474 258.741 210.314 257.324 210.227C255.233 210.089 253.124 210.063 251.042 210.288L251.033 210.279Z" fill="#010D3C"/>
<path d="M229.737 210.227C232.152 210.054 234.602 210.002 237 210.409C237.999 210.643 239.143 210.868 239.817 211.725C241.055 213.778 240.876 216.6 239.433 218.497C238.341 219.908 236.54 220.523 234.824 220.627C232.903 220.765 230.795 220.583 229.259 219.284C227.551 217.847 226.945 215.466 226.937 213.293C226.809 211.708 228.243 210.375 229.728 210.219L229.737 210.227Z" fill="#F9E0CA"/>
<path d="M251.024 210.262C253.107 210.046 255.215 210.063 257.307 210.201C258.732 210.297 260.098 211.457 260.209 212.929C260.26 215.024 259.782 217.293 258.331 218.869C257.273 220.012 255.719 220.549 254.208 220.618C252.313 220.756 250.265 220.566 248.677 219.414C246.373 217.717 245.852 214.124 247.337 211.717C248.242 210.669 249.736 210.479 251.016 210.253L251.024 210.262Z" fill="#F9E0CA"/>
<path d="M224.957 212.409C225.187 212.626 225.46 212.825 225.554 213.145C225.93 214.228 225.844 215.405 226.177 216.496C226.587 217.925 227.475 219.207 228.695 220.038C230.027 220.938 231.632 221.371 233.219 221.458C233.893 221.501 234.568 221.501 235.242 221.458C236.924 221.371 238.622 220.791 239.885 219.639C241.319 218.306 241.968 216.28 241.968 214.34C242.002 214.081 241.926 213.778 242.096 213.552C243.086 213.206 244.179 213.275 245.169 213.613C245.109 215.466 245.459 217.423 246.62 218.912C247.875 220.54 249.923 221.354 251.912 221.458C252.587 221.501 253.261 221.492 253.935 221.458C255.651 221.38 257.384 220.895 258.766 219.83C260.149 218.782 260.994 217.111 261.208 215.388C261.37 214.488 261.242 213.397 261.95 212.695C262.155 213.128 262.249 213.604 262.257 214.089C261.993 214.964 262.181 215.873 262.121 216.765C262.087 217.319 262.129 217.864 262.24 218.401C262.232 218.704 262.223 218.999 262.232 219.302C263.999 217.354 265.356 215.068 266.525 212.713C267.097 213.474 267.43 214.418 267.421 215.379C267.456 217.137 266.602 218.756 265.586 220.124C264.69 221.302 263.521 222.436 262.01 222.635C261.592 223.891 261.284 225.181 260.815 226.419C260.2 227.978 259.193 229.372 257.921 230.437C255.907 232.151 253.525 233.346 251.101 234.351C249.232 235.095 247.294 235.641 245.348 236.126C244.52 236.359 243.667 236.16 242.864 235.944C241.166 235.468 239.442 235 237.794 234.368C236.625 233.796 235.396 233.329 234.269 232.662C232.186 231.467 230.095 230.039 228.849 227.908C227.85 226.298 227.517 224.402 226.911 222.627C225.648 222.471 224.615 221.622 223.796 220.687C223.002 219.761 222.336 218.713 221.892 217.579C221.338 216.133 221.312 214.401 222.157 213.059C222.422 213.57 222.643 214.098 222.925 214.6C223.582 215.752 224.573 216.704 225.725 217.336C225.221 215.743 224.982 214.089 224.965 212.418L224.957 212.409Z" fill="#F9E0CA"/>
<path d="M262.112 216.765C262.172 215.873 261.976 214.964 262.249 214.089C262.377 215.527 262.385 216.973 262.232 218.401C262.121 217.864 262.078 217.31 262.112 216.765Z" fill="#FFFBE5"/>
<path d="M233.219 221.449C233.885 221.267 234.576 221.25 235.242 221.449C234.568 221.492 233.893 221.484 233.219 221.449Z" fill="#00156C"/>
<path d="M251.912 221.458C252.578 221.267 253.269 221.259 253.935 221.458C253.261 221.501 252.587 221.501 251.912 221.458Z" fill="#00156C"/>
<path d="M237.786 234.368C239.433 235.009 241.149 235.468 242.856 235.944C243.658 236.169 244.512 236.359 245.34 236.126C247.286 235.632 249.223 235.087 251.093 234.351C251.059 235.407 251.144 236.455 251.127 237.511C251.067 237.286 251.007 237.069 250.956 236.844C249.539 237.165 248.131 237.554 246.68 237.658C244.205 237.97 241.687 237.71 239.254 237.173C238.742 237.087 238.289 236.827 237.897 236.498C237.871 236.957 237.828 237.416 237.794 237.875C237.786 236.706 237.811 235.537 237.794 234.377L237.786 234.368Z" fill="#E5CDBA"/>
<path d="M237.888 236.498C238.281 236.827 238.733 237.087 239.245 237.173C241.678 237.71 244.187 237.97 246.671 237.658C248.122 237.554 249.531 237.165 250.948 236.844C251.007 237.069 251.067 237.286 251.118 237.511C251.118 238.896 251.246 240.29 251.434 241.658C251.545 242.706 252.185 243.754 253.235 244.031C256.718 245.035 260.192 246.083 263.674 247.061C260.619 251.287 256.334 254.672 251.434 256.404C247.175 257.885 242.446 257.937 238.153 256.56C235.481 255.711 232.98 254.317 230.786 252.56C228.764 250.975 227.065 249.027 225.537 246.958C228.866 246.048 232.178 245.035 235.498 244.083C236.42 243.866 237.171 243.087 237.35 242.135C237.632 240.732 237.649 239.295 237.769 237.866C237.803 237.407 237.845 236.948 237.871 236.489L237.888 236.498Z" fill="#F9E0CA"/>
<path d="M219.895 248.43C221.662 247.572 223.599 247.148 225.537 246.949C227.065 249.018 228.764 250.967 230.786 252.551C232.98 254.309 235.473 255.703 238.153 256.551C242.446 257.928 247.175 257.876 251.434 256.396C256.334 254.664 260.619 251.287 263.674 247.053C265.151 247.07 266.636 247.191 268.07 247.564C271.254 248.36 274.173 250.395 275.829 253.296C277.391 255.893 277.818 259.019 277.553 262.006H211.359C211.402 259.686 211.957 257.374 212.956 255.287C214.407 252.291 216.899 249.824 219.895 248.43Z" fill="#A533FF"/>
</g>
<path d="M451.081 262.308C477.039 262.308 498.084 241.31 498.084 215.404C498.084 189.499 477.039 168.501 451.081 168.501C425.123 168.501 404.078 189.499 404.078 215.404C404.078 241.31 425.123 262.308 451.081 262.308Z" fill="#FFA7A5" stroke="#FFA7A5"/>
<ellipse cx="452.113" cy="206.124" rx="16.5345" ry="16.4991" fill="white"/>
<mask id="mask2_1207_2911" style="mask-type:alpha" maskUnits="userSpaceOnUse" x="425" y="226" width="52" height="53">
<ellipse cx="451.081" cy="252.527" rx="25.8351" ry="25.7798" fill="white"/>
</mask>
<g mask="url(#mask2_1207_2911)">
<ellipse cx="451.081" cy="215.404" rx="46.5032" ry="46.4037" fill="white"/>
</g>
<circle cx="138.581" cy="215.504" r="46.5032" fill="#FF908D"/>
<mask id="mask3_1207_2911" style="mask-type:alpha" maskUnits="userSpaceOnUse" x="92" y="169" width="94" height="94">
<circle cx="138.581" cy="215.503" r="46.5032" fill="#99A6ED"/>
</mask>
<g mask="url(#mask3_1207_2911)">
<g clip-path="url(#clip0_1207_2911)">
<path d="M130.236 194.616C130.624 194.509 130.999 194.377 131.391 194.334C133.904 194.04 136.487 194.188 138.798 195.287C139.161 195.461 139.539 195.659 139.93 195.616C140.183 195.591 140.418 195.466 140.641 195.342C142.684 194.219 144.866 193.636 147.208 194.036C148.321 194.226 149.598 194.662 150.471 195.422C152.442 197.146 154.017 200.197 154.371 202.643C154.853 205.947 153.939 209.252 153.788 212.585C155.096 211.483 154.983 210.143 155.147 208.46C155.197 207.899 155.836 206.879 156.117 206.371C156.269 206.085 156.511 205.832 156.823 205.704C157.359 205.489 157.292 205.974 157.362 206.39C157.517 207.284 157.648 208.179 157.614 209.095C157.577 209.96 157.465 210.816 156.978 211.562C156.622 212.099 156.161 212.552 155.686 212.992C154.809 213.794 153.879 214.561 153.24 215.568C152.589 216.588 152.301 217.782 151.91 218.917C151.708 219.498 151.389 220.02 151.174 220.589C150.993 221.067 150.903 221.592 150.735 222.069C150.498 222.715 150.224 223.387 150.206 224.087C150.196 224.709 150.376 225.31 150.367 225.933C150.354 227.038 150.174 228.633 149.53 229.526C147.441 232.402 144.433 234.344 141.532 236.407C140.708 236.991 139.795 237.566 138.782 237.613C137.718 237.662 136.377 238.041 135.439 237.539C133.2 236.322 131.273 234.176 129.463 232.381C128.387 231.326 127.503 230.059 126.968 228.636C126.693 227.913 126.532 227.171 126.471 226.4C126.408 225.577 126.65 224.779 126.359 223.98C126.156 223.431 125.755 222.992 125.441 222.499C124.441 220.92 124.466 218.977 124.42 217.163C124.394 216.606 124.49 215.929 124.101 215.464C123.926 215.257 123.666 215.129 123.443 214.961C122.759 214.447 122.452 213.585 122.199 212.759C121.901 211.808 121.615 210.844 121.494 209.859C121.376 208.963 121.321 207.772 121.805 206.976C122.383 206.022 123.336 206.588 123.727 207.369C123.95 207.791 124.023 208.27 124.044 208.739C124.064 209.169 123.934 209.658 124.03 210.072C124.726 210.04 124.941 208.367 125.147 207.875C125.49 207.047 125.755 206.184 125.982 205.323C126.409 203.577 126.605 201.778 126.548 199.99C126.521 199.395 126.493 198.8 126.555 198.213C126.617 197.626 126.91 197.105 127.087 196.525C127.119 196.397 127.19 196.279 127.287 196.186C127.517 195.947 127.748 195.72 127.965 195.482C128.075 195.375 128.17 195.244 128.333 195.198C128.984 195.003 129.623 194.821 130.275 194.639M128.507 225.95C128.516 226.14 128.661 226.261 128.756 226.409C129.041 226.789 129.264 227.223 129.608 227.537C130.208 228.144 130.758 228.792 131.357 229.386C131.804 229.721 132.311 229.977 132.794 230.272C132.99 230.39 133.186 230.508 133.404 230.561C133.956 230.688 134.507 230.815 135.059 230.942C135.648 231.054 136.229 231.256 136.829 231.33C137.083 231.331 137.347 231.268 137.601 231.282C137.995 231.289 138.384 231.195 138.79 231.189C139.209 231.195 139.623 231.087 140.042 231.093C140.423 231.076 140.815 231.057 141.177 230.914C141.812 230.656 142.462 230.436 143.084 230.153C143.295 230.054 143.535 230.018 143.718 229.857C144.487 229.2 145.284 228.579 146.053 227.921C146.126 227.855 146.212 227.787 146.246 227.684C145.947 227.825 145.691 228.04 145.393 228.193C144.778 228.615 144.136 229.013 143.507 229.41C142.659 229.741 141.782 229.997 140.921 230.329C140.659 230.43 140.378 230.379 140.113 230.43C139.445 230.524 138.785 230.529 138.116 230.611C137.533 230.625 136.959 230.562 136.387 230.551C135.955 230.545 135.623 230.23 135.259 230.057C134.307 229.491 133.32 229.016 132.355 228.464C132.2 228.395 132.044 228.326 131.937 228.204C131.629 227.863 131.213 227.654 130.893 227.313C130.388 226.816 129.704 226.581 129.104 226.227C128.908 226.122 128.725 225.991 128.506 225.938L128.507 225.95Z" fill="#FFC6BB"/>
<path d="M130.236 194.616C130.624 194.509 130.999 194.377 131.391 194.334C133.904 194.04 136.487 194.188 138.798 195.287C139.161 195.461 139.539 195.659 139.93 195.616C140.183 195.591 140.418 195.466 140.641 195.342C142.684 194.219 144.866 193.636 147.208 194.036C148.321 194.226 149.598 194.662 150.471 195.422C152.442 197.146 154.017 200.197 154.371 202.643C154.853 205.947 153.939 209.252 153.788 212.585C155.096 211.483 154.983 210.143 155.147 208.46C155.197 207.899 155.836 206.879 156.117 206.371C156.269 206.085 156.511 205.832 156.823 205.704C157.359 205.489 157.292 205.974 157.362 206.39C157.517 207.284 157.648 208.179 157.614 209.095C157.577 209.96 157.465 210.816 156.978 211.562C156.622 212.099 156.161 212.552 155.686 212.992C154.809 213.794 153.879 214.561 153.24 215.568C152.589 216.588 152.301 217.782 151.91 218.917C151.708 219.498 151.389 220.02 151.174 220.589C150.993 221.067 150.903 221.592 150.735 222.069C150.498 222.715 150.224 223.387 150.206 224.087C150.196 224.709 150.376 225.31 150.367 225.933C150.354 227.038 150.174 228.633 149.53 229.526C147.441 232.402 144.433 234.344 141.532 236.407C140.708 236.991 139.795 237.566 138.782 237.613C137.718 237.662 136.377 238.041 135.439 237.539C133.2 236.322 131.273 234.176 129.463 232.381C128.387 231.326 127.503 230.059 126.968 228.636C126.693 227.913 126.532 227.171 126.471 226.4C126.408 225.577 126.65 224.779 126.359 223.98C126.156 223.431 125.755 222.992 125.441 222.499C124.441 220.92 124.466 218.977 124.42 217.163C124.394 216.606 124.49 215.929 124.101 215.464C123.926 215.257 123.666 215.129 123.443 214.961C122.759 214.447 122.452 213.585 122.199 212.759C121.901 211.808 121.615 210.844 121.494 209.859C121.376 208.963 121.321 207.772 121.805 206.976C122.383 206.022 123.336 206.588 123.727 207.369C123.95 207.791 124.023 208.27 124.044 208.739C124.064 209.169 123.934 209.658 124.03 210.072C124.726 210.04 124.941 208.367 125.147 207.875C125.49 207.047 125.755 206.184 125.982 205.323C126.409 203.577 126.605 201.778 126.548 199.99C126.521 199.395 126.493 198.8 126.555 198.213C126.617 197.626 126.91 197.105 127.087 196.525C127.119 196.397 127.19 196.279 127.287 196.186C127.517 195.947 127.748 195.72 127.965 195.482C128.075 195.375 128.17 195.244 128.333 195.198C128.984 195.003 129.623 194.821 130.275 194.639M128.507 225.95C128.516 226.14 128.661 226.261 128.756 226.409C129.041 226.789 129.264 227.223 129.608 227.537C130.208 228.144 130.758 228.792 131.357 229.386C131.804 229.721 132.311 229.977 132.794 230.272C132.99 230.39 133.186 230.508 133.404 230.561C133.956 230.688 134.507 230.815 135.059 230.942C135.648 231.054 136.229 231.256 136.829 231.33C137.083 231.331 137.347 231.268 137.601 231.282C137.995 231.289 138.384 231.195 138.79 231.189C139.209 231.195 139.623 231.087 140.042 231.093C140.423 231.076 140.815 231.057 141.177 230.914C141.812 230.656 142.462 230.436 143.084 230.153C143.295 230.054 143.535 230.018 143.718 229.857C144.487 229.2 145.284 228.579 146.053 227.921C146.126 227.855 146.212 227.787 146.246 227.684C145.947 227.825 145.691 228.04 145.393 228.193C144.778 228.615 144.136 229.013 143.507 229.41C142.659 229.741 141.782 229.997 140.921 230.329C140.659 230.43 140.378 230.379 140.113 230.43C139.445 230.524 138.785 230.529 138.116 230.611C137.533 230.625 136.959 230.562 136.387 230.551C135.955 230.545 135.623 230.23 135.259 230.057C134.307 229.491 133.32 229.016 132.355 228.464C132.2 228.395 132.044 228.326 131.937 228.204C131.629 227.863 131.213 227.654 130.893 227.313C130.388 226.816 129.704 226.581 129.104 226.227C128.908 226.122 128.725 225.991 128.506 225.938L128.507 225.95Z" stroke="#FFC6BB" stroke-width="0.03"/>
<path d="M126.262 224.378C126.262 224.378 126.348 224.311 126.397 224.27C126.469 225.003 126.466 225.753 126.5 226.5C126.485 226.717 126.495 226.945 126.518 227.159C126.476 227.085 126.473 227.009 126.469 226.933C126.447 226.185 126.4 225.438 126.365 224.678C126.36 224.564 126.318 224.477 126.263 224.391L126.262 224.378Z" fill="#2D3E50" stroke="#2D3E50" stroke-width="0.03"/>
<path d="M124.497 226.579C124.851 225.713 125.608 225.068 126.33 224.476C126.09 226.709 126.98 228.94 128.332 230.732C129.684 232.523 131.439 233.953 133.191 235.344C134.838 236.652 136.634 237.864 138.832 237.357C140.766 236.912 142.407 235.592 143.951 234.404C145.827 232.959 147.526 231.268 148.884 229.327C149.42 228.553 150.801 226.293 150.399 225.296C151.834 228.874 151.321 232.896 150.722 236.707C150.359 239.021 149.984 241.337 149.582 243.64C149.423 244.6 149.251 245.547 149.066 246.495C148.84 247.648 148.576 248.803 148.312 249.957C146.984 255.579 145.335 261.114 143.351 266.537C143.149 261.342 142.916 255.995 140.78 251.257C140.173 249.926 139.414 248.616 139.284 247.162C139.077 244.886 140.428 242.793 141.725 240.905C143.771 242.6 145.803 244.284 147.849 245.98C148.087 246.172 148.325 246.377 148.562 246.569C148.1 246.197 147.591 245.877 147.141 245.492C146.692 245.106 146.24 244.67 145.802 244.246C144.937 243.385 144.109 242.496 143.195 241.675C141.513 240.166 139.47 238.8 137.092 238.986C136.99 238.99 136.889 239.008 136.788 239.012C136.763 239.014 136.737 239.015 136.712 239.016C134.594 239.329 132.814 240.643 131.212 241.974C131.163 242.014 131.114 242.054 131.065 242.095C130.711 242.39 130.357 242.698 130.015 243.006C129.857 243.14 129.698 243.287 129.539 243.422C129.393 243.555 129.133 243.694 129.026 243.852C128.684 244.134 128.341 244.416 127.998 244.686C127.667 244.943 127.303 245.302 126.917 245.472C129.021 244.017 131.125 242.574 133.229 241.119C134.048 242.909 133.549 245.027 132.678 246.793C131.808 248.56 130.585 250.14 129.87 251.963C129.109 253.902 128.538 256.125 127.907 258.122C125.7 252.396 125.435 246.099 124.963 239.977C124.674 236.194 124.449 232.421 124.313 228.632C124.283 227.986 124.266 227.339 124.466 226.733C124.489 226.681 124.5 226.63 124.523 226.578L124.497 226.579Z" fill="#297FB8" stroke="#297FB8" stroke-width="0.03"/>
<path d="M128.536 226.013C129.134 226.049 129.805 226.563 130.277 226.885C130.854 227.29 131.408 227.734 131.984 228.113C133.15 228.885 134.441 229.371 135.769 229.805C137.097 230.239 138.601 230.385 140.028 230.205C141.39 230.028 142.743 229.636 143.971 229.008C144.542 228.715 145.084 228.36 145.573 227.944C146.025 227.568 146.508 227.037 147.07 226.834C146.99 227.015 146.832 227.175 146.699 227.308C145.659 228.435 144.52 229.617 143.211 230.414C142.26 230.991 141.212 231.395 140.13 231.61C137.766 232.087 135.308 231.642 133.198 230.495C132.079 229.886 131.065 229.108 130.173 228.21C129.574 227.602 128.765 226.853 128.56 225.999L128.536 226.013Z" fill="#FEB1A4" stroke="#FEB1A4" stroke-width="0.03"/>
<path d="M150.1 224.815C150.325 225.02 150.428 225.308 150.591 225.554C150.882 226.074 151.198 226.593 151.489 227.125C151.64 227.372 151.603 227.678 151.629 227.956C151.687 229.223 151.746 230.49 151.805 231.77C151.819 232.074 151.872 232.401 151.784 232.697C151.565 233.456 151.345 234.203 151.127 234.962C150.994 235.4 150.901 235.848 150.717 236.263C150.784 235.511 150.953 234.767 151.083 234.024C151.159 233.462 151.311 232.909 151.349 232.349C151.287 230.74 151.201 229.144 151.127 227.535C151.119 227.079 150.872 226.684 150.713 226.272C150.545 225.937 150.477 225.547 150.259 225.239C150.215 225.368 150.196 225.509 150.189 225.649C150.151 225.371 150.1 225.094 150.1 224.815Z" fill="#1D5A81" stroke="#1D5A81" stroke-width="0.03"/>
<path d="M115.902 230.391C117.472 229.747 119.028 229.079 120.569 228.373C118.385 230.835 115.848 232.805 113.14 234.644L116.275 237.102C114.626 237.978 112.978 238.841 111.33 239.717C111.057 239.856 110.773 240.034 110.698 240.33C110.645 240.548 110.718 240.773 110.804 240.972C115.679 253.366 121.538 265.347 128.721 276.581L128.83 276.754C128.899 276.865 128.98 276.975 129.049 277.086C131.017 280.131 133.06 283.135 135.201 286.07C135.336 286.254 135.472 286.438 135.507 286.652C135.571 286.942 135.458 287.239 135.357 287.523C134.665 289.319 134.063 291.137 133.436 292.943C133.271 293.497 133.041 294.028 132.941 294.591C133.099 294.457 133.167 294.263 133.26 294.094C134.634 291.682 135.969 289.234 137.356 286.821C138.243 285.422 139.143 284.022 140.044 282.622C143.668 277.517 146.481 271.903 149.218 266.292C151.956 260.682 154.838 255.192 157.837 249.747C157.954 249.526 158.083 249.304 158.213 249.082C159.198 247.323 160.196 245.563 161.206 243.803C162.299 241.899 160.84 240.544 159.798 238.866C159.77 238.816 159.73 238.755 159.753 238.703C159.762 238.639 159.824 238.598 159.886 238.57C160.851 238.03 161.804 237.491 162.769 236.951C162.856 236.909 162.943 236.855 162.963 236.752C162.985 236.675 162.944 236.601 162.903 236.539C161.723 234.346 160.468 232.195 159.313 229.989C159.243 229.865 159.2 229.74 159.244 229.598C159.048 230.306 165.741 232.295 166.308 232.485C169.339 233.5 172.36 234.592 175.435 235.479C177.995 236.224 181.028 235.919 183.192 237.698C184.116 238.455 184.749 239.531 185.181 240.641C186.219 243.335 186.214 246.255 186.863 249.043C187.545 251.982 188.793 254.832 189.8 257.667C191.771 263.238 192.802 269.094 193.225 274.965C193.324 276.268 193.963 292.069 193.241 292.103L172.681 293.051C173.394 289.793 173.582 286.433 173.619 283.105C173.644 281.441 173.655 279.765 173.616 278.091C173.597 277.394 173.553 276.723 173.445 276.029C173.334 275.273 173.009 274.564 172.974 273.804C172.536 277.506 171.994 281.187 171.479 284.88C171.334 285.864 170.879 293.07 169.677 293.151C163.361 293.556 157.036 293.772 150.715 294.063C136.615 294.713 122.515 295.364 108.429 296.013L105.642 296.142C105.351 285.161 103.945 274.219 101.447 263.531C101.037 274.468 105.308 285.328 103.943 296.195C96.8373 296.548 89.7323 296.913 82.6266 297.266C82.2719 297.283 81.9172 297.299 81.5929 297.149C80.6068 296.687 80.8575 295.24 81.2294 294.22C87.4192 277.584 87.5017 259.274 92.5436 242.246C92.9935 240.714 93.5297 239.128 94.6714 238.009C95.9346 236.77 97.7545 236.318 99.4731 235.871C105.08 234.406 110.582 232.578 115.939 230.376L115.902 230.391Z" fill="#2670A0" stroke="#2670A0" stroke-width="0.03"/>
<path d="M149.725 243.126C150.027 241.144 150.253 239.153 150.567 237.171C150.521 238.646 150.373 240.113 150.289 241.589C150.227 242.176 150.242 242.785 150.117 243.362C149.796 244.938 149.501 246.526 149.155 248.103C148.849 249.463 148.556 250.822 148.238 252.183C148.12 252.645 148.053 253.13 147.871 253.583C147.227 255.314 146.584 257.045 145.94 258.776C145.714 259.383 145.578 260.011 145.313 260.595C145.412 260.006 145.641 259.462 145.818 258.895C146.369 257.08 146.722 255.363 147.299 253.559C147.748 251.469 148.41 249.293 148.872 247.202C148.95 246.97 148.703 246.842 148.607 246.681C148.71 246.727 148.805 246.863 148.931 246.844C149.217 245.612 149.452 244.37 149.725 243.139L149.725 243.126Z" fill="#1D5980" stroke="#1D5980" stroke-width="0.03"/>
<path d="M136.348 238.83C136.9 238.677 137.451 238.792 138.012 238.842C138.471 238.884 138.889 238.878 139.316 239.048C139.743 239.219 140.135 239.468 140.515 239.717C140.803 239.907 141.078 240.097 141.366 240.274C141.588 240.416 141.969 240.703 141.856 241.001L141.669 240.806C141.081 240.427 140.479 240.048 139.89 239.657C139.629 239.504 139.405 239.324 139.086 239.3C138.678 239.256 138.243 239.187 137.835 239.142C136.61 239.008 135.464 239.48 134.467 240.161C134.196 240.351 133.926 240.541 133.668 240.731C133.546 240.825 133.41 240.92 133.288 241.015C133.312 241.001 133.002 240.609 133.013 240.558C133.034 240.468 133.345 240.327 133.418 240.272C133.664 240.096 133.926 239.995 134.185 239.831C134.691 239.503 135.275 239.235 135.836 239.006C136.01 238.934 136.185 238.875 136.36 238.817L136.348 238.83Z" fill="#1B5981" stroke="#1B5981" stroke-width="0.03"/>
<path d="M130.378 242.583C131.163 241.989 131.905 241.294 132.719 240.762C132.94 240.612 133.369 240.275 133.478 240.435C133.492 240.472 133.539 240.394 133.576 240.367C133.736 240.258 133.909 240.148 134.069 240.039C134.143 239.998 134.383 240.241 134.373 240.292C134.363 240.356 134.077 240.496 134.016 240.537L133.659 240.782C131.532 242.276 129.419 243.808 127.251 245.254C127.103 245.35 126.968 245.445 126.82 245.54C127.953 244.498 129.151 243.503 130.39 242.57L130.378 242.583Z" fill="#1B5981" stroke="#1B5981" stroke-width="0.03"/>
<path d="M92.0047 242.69C92.0601 242.789 92.0907 242.902 92.0833 243.016C92.1025 243.434 92.1092 243.853 92.1158 244.271C92.1204 244.373 92.0739 244.464 92.0267 244.542C92.0234 243.92 91.9568 243.301 91.9921 242.69L92.0047 242.69Z" fill="#1F2B39" stroke="#1F2B39" stroke-width="0.03"/>
<path d="M141.222 240.166C142.26 240.918 142.517 240.716 144.817 243.251C145.406 243.909 146.165 244.394 146.826 244.973C147.13 245.226 147.434 245.479 147.737 245.731C147.989 245.961 148.433 246.232 148.538 246.57C148.462 246.574 148.37 246.514 148.304 246.467C148.212 246.395 148.119 246.297 148.026 246.213C147.775 246.009 147.537 245.791 147.286 245.587C146.731 245.117 146.2 244.609 145.622 244.178C145.003 243.712 144.419 243.155 143.825 242.649C143.191 242.12 142.557 241.578 141.935 241.048C141.869 240.987 141.79 240.927 141.761 240.84C141.731 240.752 141.148 240.221 141.222 240.166Z" fill="#195983" stroke="#195983" stroke-width="0.03"/>
<path d="M149.799 224.651C150.748 225.395 151.672 226.177 152.609 226.934C152.833 227.114 153.033 227.32 153.305 227.435C155.424 228.238 157.555 229.029 159.686 229.832C159.642 229.974 159.699 230.111 159.769 230.247C160.393 231.399 161.104 232.496 161.741 233.647C162.022 234.231 162.377 234.773 162.671 235.356C163.031 236.012 163.429 236.654 163.752 237.325C163.632 237.495 163.42 237.569 163.235 237.679C162.282 238.218 161.303 238.733 160.337 239.26C160.213 239.316 160.155 239.446 160.237 239.569C161.03 240.789 161.822 242.009 162.602 243.23C162.709 243.352 162.588 243.485 162.53 243.602C161.94 244.556 161.337 245.523 160.746 246.477C160.155 247.431 159.538 248.361 159.025 249.349C157.747 251.642 156.457 253.949 155.179 256.242C154.533 257.376 153.925 258.522 153.279 259.643C152.729 260.659 152.153 261.663 151.591 262.679C150.945 263.813 150.377 264.995 149.757 266.14C149.213 267.27 148.591 268.378 148.021 269.508C146.377 272.682 144.733 275.842 143.089 279.016C142.01 280.665 140.906 282.316 139.827 283.978C139.468 284.451 139.2 284.971 138.854 285.444C137.88 286.911 136.907 288.378 135.946 289.844C134.451 292.376 133.008 294.943 131.512 297.475C131.406 297.658 131.326 297.852 131.155 297.999C131.268 297.41 131.508 296.84 131.698 296.273C132.126 295.098 132.503 293.9 132.93 292.712C133.322 291.565 133.687 290.405 134.118 289.281C134.152 289.19 134.173 289.101 134.207 289.01C134.523 288.424 134.722 287.793 134.999 287.196C135.925 284.983 136.852 282.769 137.791 280.568C138.019 279.999 138.298 279.44 138.499 278.859C138.923 277.862 139.282 276.843 139.705 275.833C140.207 274.604 140.671 273.364 141.172 272.122C141.43 271.374 141.79 270.659 141.996 269.9C142.169 269.512 142.341 269.11 142.487 268.71C143.013 267.175 143.527 265.653 144.028 264.119C144.23 263.552 144.445 262.983 144.621 262.391C144.897 261.769 145.044 261.115 145.294 260.481C145.998 258.671 146.689 256.862 147.393 255.052C147.586 254.574 147.652 254.076 147.782 253.575C148.122 252.15 148.45 250.725 148.778 249.301C149.159 247.659 149.476 245.994 149.819 244.34C149.955 243.725 149.939 243.103 150.012 242.478C150.093 240.938 150.263 239.394 150.319 237.843C150.354 237.511 150.403 237.191 150.49 236.87C150.685 236.429 150.791 235.967 150.935 235.504C151.164 234.706 151.42 233.92 151.65 233.122C151.749 232.8 151.683 232.473 151.681 232.143C151.62 230.813 151.558 229.483 151.497 228.153C151.484 227.862 151.52 227.542 151.355 227.283C151.038 226.739 150.696 226.197 150.378 225.64C150.201 225.382 150.086 225.082 149.847 224.865C149.844 224.801 149.829 224.739 149.813 224.676L149.799 224.651Z" fill="#1B5981" stroke="#1B5981" stroke-width="0.03"/>
<path d="M134.222 183.07C137.803 182.562 141.633 182.195 145.212 182.995C147.893 183.595 151.226 185.117 152.415 187.791C152.755 188.55 152.961 189.429 153.621 189.983C154.281 190.536 154.944 191.14 155.509 191.838C156.911 193.614 157.634 195.802 157.826 198.04C157.973 199.836 157.922 201.768 157.393 203.507C156.864 205.245 156.018 207.01 155.556 208.834C155.363 209.592 155.234 210.373 154.989 211.12C154.744 211.868 154.369 212.545 153.771 213.068C153.905 211.018 154 208.944 153.715 206.901C153.489 205.286 153.036 203.72 152.847 202.104C152.723 201.081 152.714 200.041 152.514 199.022C152.315 198.003 151.823 197.251 151.093 196.548C149.804 195.3 148.107 194.566 146.334 194.381C145.224 194.267 143.939 194.491 142.847 194.758C141.855 194.994 140.893 195.609 140.097 196.23C140.011 196.297 139.913 196.378 139.799 196.371C139.723 196.374 139.645 196.34 139.567 196.305C138.995 196.014 138.481 195.606 137.897 195.329C137.222 195.004 136.466 194.849 135.726 194.769C133.977 194.557 132.191 194.652 130.47 195.049C129.628 195.24 128.778 195.521 128.078 196.023C126.776 196.971 126.569 198.555 126.602 200.077C126.63 200.964 126.786 201.884 126.624 202.767C126.452 203.714 126.228 204.639 125.979 205.564C125.728 206.465 125.452 207.353 125.137 208.231C124.878 208.941 124.248 210.151 123.713 210.671C123.871 210.524 124.09 209.206 124.066 208.966C124.022 208.549 123.952 208.146 123.782 207.76C123.483 207.051 122.903 206.582 122.178 207.111C122.116 207.152 122.068 207.205 122.02 207.258C121.778 207.523 121.641 207.859 121.4 208.124C121.544 207.952 121.207 206.698 121.195 206.445C121.157 205.901 121.195 205.341 121.208 204.794C121.23 203.625 121.329 202.465 121.479 201.316C121.669 199.936 121.95 198.577 122.32 197.24C122.734 195.761 123.25 194.29 123.676 192.798C124.725 189.106 126.843 185.758 130.437 184.145C131.681 183.58 132.949 183.281 134.223 183.095L134.222 183.07Z" fill="#77070D" stroke="#77070D" stroke-width="0.03"/>
<path d="M127.779 257.81L133.742 282.773L136.425 287.004L143.357 266.639L143.892 248.778L141.71 240.83L139.331 239.34L137.059 239.089L135.303 239.551L133.276 241.015L128.57 248.253L127.779 257.81Z" fill="#297FB8" stroke="#297FB8" stroke-width="0.03"/>
<path d="M123.633 227.051C123.831 226.953 124.029 226.842 124.243 226.794C124.13 226.825 124.415 230.532 124.431 230.886C124.496 232.28 124.56 233.673 124.624 235.054C124.762 237.777 124.963 240.497 125.228 243.214C125.374 244.731 125.546 246.247 125.742 247.748C126.43 253.036 127.99 258.232 129.584 263.338C130.03 264.752 130.463 266.154 130.883 267.569C132.504 272.991 134.012 278.432 135.571 283.882C135.798 284.684 136.038 285.473 136.253 286.288C136.326 287.034 136.309 287.783 136.382 288.529C136.216 288.499 136.133 288.35 136.038 288.228C135.312 287.347 134.586 286.466 133.847 285.586C133.603 285.255 133.298 284.977 133.092 284.631C132.461 283.607 131.756 282.636 131.125 281.612C129.817 279.679 128.558 277.718 127.275 275.772C126.155 274.059 125.011 272.359 123.903 270.646C123.615 270.177 123.376 269.667 123.1 269.185C121.206 265.565 119.301 261.972 117.408 258.352C116.824 257.249 116.252 256.133 115.656 255.043C115.378 254.523 115.175 253.974 114.934 253.426C113.205 249.24 111.463 245.055 109.721 240.87C109.692 240.782 109.636 240.683 109.657 240.581C111.419 239.687 113.219 238.525 114.98 237.619C115.265 237.479 115.467 237.45 115.711 237.248C115.523 237.028 115.362 237.106 115.126 236.952C114.261 236.357 113.395 235.749 112.53 235.155C112.425 235.083 112.333 235.011 112.265 234.913C113.337 234.216 114.437 233.556 115.509 232.859C116.231 232.28 116.9 231.64 117.609 231.048C118.536 230.219 119.515 229.425 120.441 228.595C120.44 228.569 120.424 228.507 120.41 228.469C120.572 228.411 120.735 228.353 120.896 228.282C121.804 227.859 122.711 227.436 123.618 227.014L123.633 227.051Z" fill="#1B5981" stroke="#1B5981" stroke-width="0.03"/>
</g>
</g>
<path d="M65.1055 67.6638C65.1055 62.141 69.5826 57.6638 75.1055 57.6638H520.137C525.66 57.6638 530.137 62.141 530.137 67.6638V80.9154H65.1055V67.6638Z" fill="#9E9E9E"/>
<circle cx="80.5" cy="70.5" r="4.5" fill="white"/>
<circle cx="95.5" cy="70.5" r="4.5" fill="white"/>
<circle cx="110.5" cy="70.5" r="4.5" fill="white"/>
<path d="M108.64 139.7H106.12V130.52H104.46V138.84H102V121.62H104.46V128.38H106.12V121.28H108.64V139.7ZM96.22 132.96C97.66 132.9 99.24 132.8 101 132.48L101.22 134.7C98.8 135.16 96.7 135.24 94.86 135.24H93.58V123.34H96.22V132.96ZM115.89 125V122.9H129.89V125H127.39V130.52H129.83V132.62H115.99V130.52H118.39V125H115.89ZM121.01 125V130.52H124.77V125H121.01ZM131.27 137.58H114.59V135.44H131.27V137.58ZM149.068 137.7H132.388V135.54H139.388V132.8H134.308V126.56H144.588V124.58H134.288V122.48H147.188V128.62H136.928V130.68H147.608V132.8H142.028V135.54H149.068V137.7ZM165.887 132.52H163.387V121.3H165.887V132.52ZM159.767 121.64H162.227V132.44H159.767V127.98H157.807V125.84H159.767V121.64ZM157.947 132.06C156.347 131.44 155.347 130.44 154.727 129.08C154.067 130.54 152.967 131.72 151.287 132.38L149.947 130.36C152.447 129.4 153.427 127.28 153.427 125.22V124.72H150.527V122.62H158.667V124.72H155.987V125.22C155.987 127.18 156.907 129.12 159.247 130.02L157.947 132.06ZM165.887 133.22V139.74H163.247V135.3H153.207V133.22H165.887ZM169.945 132.88V122.64H182.745V124.76H172.625V126.7H182.325V128.74H172.625V130.8H182.885V132.88H169.945ZM184.665 137.6H167.985V135.46H184.665V137.6ZM205.695 139.74H203.195V121.3H205.695V139.74ZM201.995 121.68V138.88H199.535V130.32H197.775V128.02H199.535V121.68H201.995ZM197.055 133.12C197.555 133.06 198.035 133.02 198.495 132.96L198.675 134.86C195.815 135.5 192.115 135.54 189.815 135.54L189.535 133.4H190.975V125.48H189.855V123.38H198.235V125.48H197.055V133.12ZM193.335 133.34C193.795 133.34 194.255 133.32 194.695 133.28V125.48H193.335V133.34ZM222.773 139.76H220.133V121.28H222.773V139.76ZM212.873 122.58C215.653 122.58 217.713 125.1 217.713 129.14C217.713 133.2 215.653 135.74 212.873 135.74C210.093 135.74 208.033 133.2 208.033 129.14C208.033 125.1 210.093 122.58 212.873 122.58ZM212.873 124.96C211.513 124.96 210.573 126.4 210.573 129.14C210.573 131.88 211.513 133.34 212.873 133.34C214.233 133.34 215.173 131.88 215.173 129.14C215.173 126.4 214.233 124.96 212.873 124.96ZM240.572 139.72H237.932V121.3H240.572V139.72ZM232.432 126.26C232.432 129.26 233.912 132.44 236.992 133.72L235.552 135.8C233.392 134.86 231.952 133.12 231.132 130.86C230.312 133.28 228.832 135.28 226.672 136.26L225.172 134.16C228.272 132.78 229.752 129.4 229.752 126.26V125.24H225.912V123.06H236.232V125.24H232.432V126.26Z" fill="#FF706C"/>
<path d="M44.6446 188.803L50.7644 175.326L64.1759 169.272L50.7644 163.217L44.6446 149.74L38.655 163.217L25.1133 169.272L38.655 175.326L44.6446 188.803Z" fill="#FFC803"/>
<path d="M540.053 366.588L560.953 336.482L596.315 327.697L566.339 306.984L557.425 271.434L536.841 301.599L501.162 310.325L531.456 331.096L540.053 366.588Z" fill="#FFC803"/>
<path d="M229.262 384.116L235.308 359.934L259.489 353.889L235.308 347.844L229.262 323.662L223.217 347.844L199.035 353.889L223.217 359.934L229.262 384.116Z" fill="#FFE55D"/>
<path d="M56.2698 68.8247L60.2691 52.8277L76.2661 48.8284L60.2691 44.8291L56.2698 28.832L52.2705 44.8291L36.2734 48.8284L52.2705 52.8277L56.2698 68.8247Z" fill="#FFC803"/>
<circle cx="35.3421" cy="107.887" r="5.58038" fill="#FFE55D"/>
<circle cx="62.3148" cy="188.803" r="5.58038" fill="#FFE55D"/>
<circle cx="259.487" cy="323.662" r="5.58038" fill="#FFE55D"/>
<circle cx="574.78" cy="276.229" r="5.58038" fill="#FFC803"/>
<circle cx="545.018" cy="235.306" r="5.58038" fill="#FFE55D"/>
<circle cx="51.1546" cy="208.334" r="5.58038" fill="#FFE55D"/>
<circle cx="45.5726" cy="276.229" r="5.58038" fill="#FFC803"/>
<circle cx="193.451" cy="372.955" r="5.58038" fill="#FFC803"/>
<circle cx="169.272" cy="361.794" r="5.58038" fill="#FFE55D"/>
<circle cx="494.795" cy="39.9927" r="5.58038" fill="#FFE55D"/>
<circle cx="459.451" cy="45.5731" r="5.58038" fill="#FFE55D"/>
<circle cx="555.248" cy="133.929" r="5.58038" fill="#FFE55D"/>
<defs>
<filter id="filter0_d_1207_2911" x="55.1055" y="47.6638" width="485.031" height="299.019" filterUnits="userSpaceOnUse" color-interpolation-filters="sRGB">
<feFlood flood-opacity="0" result="BackgroundImageFix"/>
<feColorMatrix in="SourceAlpha" type="matrix" values="0 0 0 0 0 0 0 0 0 0 0 0 0 0 0 0 0 0 127 0" result="hardAlpha"/>
<feOffset/>
<feGaussianBlur stdDeviation="5"/>
<feComposite in2="hardAlpha" operator="out"/>
<feColorMatrix type="matrix" values="0 0 0 0 0 0 0 0 0 0 0 0 0 0 0 0 0 0 0.2 0"/>
<feBlend mode="normal" in2="BackgroundImageFix" result="effect1_dropShadow_1207_2911"/>
<feBlend mode="normal" in="SourceGraphic" in2="effect1_dropShadow_1207_2911" result="shape"/>
</filter>
<clipPath id="clip0_1207_2911">
<rect width="113.208" height="114.945" fill="white" transform="translate(75.7578 185.473) rotate(-2.6399)"/>
</clipPath>
</defs>
</svg>
