<svg width="358" height="263" viewBox="0 0 358 263" fill="none" xmlns="http://www.w3.org/2000/svg">
<path d="M109.692 78.709H247.203L290 155.709H69L109.692 78.709Z" fill="url(#paint0_linear_1277_5356)"/>
<circle cx="94" cy="117.709" r="5" fill="#FF706C"/>
<circle cx="246" cy="117.709" r="5" fill="#E0E0E0"/>
<circle cx="170" cy="117.709" r="5" fill="#FF706C"/>
<circle cx="132" cy="117.709" r="5" fill="#FF706C"/>
<circle cx="284" cy="117.709" r="5" fill="#E0E0E0"/>
<circle cx="208" cy="117.709" r="5" fill="#E0E0E0"/>
<circle cx="75" cy="117.709" r="5" fill="#FF706C"/>
<circle cx="227" cy="117.709" r="5" fill="#E0E0E0"/>
<circle cx="151" cy="117.709" r="5" fill="#FF706C"/>
<circle cx="113" cy="117.709" r="5" fill="#FF706C"/>
<circle cx="265" cy="117.709" r="5" fill="#E0E0E0"/>
<circle cx="189" cy="104.709" r="5" fill="#FF706C"/>
<rect y="0.708984" width="358" height="80" rx="10" fill="#EEEEEE"/>
<rect x="36" y="17.709" width="41" height="46" rx="7" fill="white" stroke="white" stroke-width="4"/>
<path d="M49.75 38.6256H45.5833V42.7923H49.75V38.6256ZM58.0833 38.6256H53.9167V42.7923H58.0833V38.6256ZM66.4167 38.6256H62.25V42.7923H66.4167V38.6256ZM70.5833 24.0423H68.5V19.8757H64.3333V24.0423H47.6667V19.8757H43.5V24.0423H41.4167C39.1042 24.0423 37.2708 25.9173 37.2708 28.209L37.25 57.3756C37.25 59.6673 39.1042 61.5423 41.4167 61.5423H70.5833C72.875 61.5423 74.75 59.6673 74.75 57.3756V28.209C74.75 25.9173 72.875 24.0423 70.5833 24.0423ZM70.5833 57.3756H41.4167V34.459H70.5833V57.3756Z" fill="#FF908D"/>
<path fill-rule="evenodd" clip-rule="evenodd" d="M70.5833 57.3756H41.4167V34.459H70.5833V57.3756ZM45.5833 42.7923V38.6256H49.75V42.7923H45.5833ZM53.9167 38.6256H58.0833V42.7923H53.9167V38.6256ZM62.25 38.6256H66.4167V42.7923H62.25V38.6256ZM70.5833 24.0423H68.5V19.8757H64.3333V24.0423H47.6667V19.8757H43.5V24.0423H41.4167C39.1042 24.0423 37.2708 25.9173 37.2708 28.209L37.25 57.3756C37.25 59.6673 39.1042 61.5423 41.4167 61.5423H70.5833C72.875 61.5423 74.75 59.6673 74.75 57.3756V28.209C74.75 25.9173 72.875 24.0423 70.5833 24.0423Z" fill="#FF908D"/>
<rect x="115.32" y="20.349" width="49.36" height="40.18" rx="6" fill="white" stroke="white" stroke-width="4"/>
<path d="M138.875 33.959C135.77 33.959 133.25 36.479 133.25 39.584C133.25 42.689 135.77 45.209 138.875 45.209C141.98 45.209 144.5 42.689 144.5 39.584C144.5 36.479 141.98 33.959 138.875 33.959ZM158 22.709H122C119.525 22.709 117.5 24.734 117.5 27.209V54.209C117.5 56.684 119.525 58.709 122 58.709H158C160.475 58.709 162.5 56.684 162.5 54.209V27.209C162.5 24.734 160.475 22.709 158 22.709ZM150.778 54.6815L144.23 48.134C142.678 49.124 140.833 49.709 138.853 49.709C133.273 49.709 128.75 45.1865 128.75 39.584C128.75 33.9815 133.273 29.459 138.875 29.459C144.478 29.459 149 33.9815 149 39.584C149 41.564 148.415 43.3865 147.425 44.9615L153.972 51.4865L150.778 54.6815Z" fill="#FF908D"/>
<path fill-rule="evenodd" clip-rule="evenodd" d="M122 22.709H158C160.475 22.709 162.5 24.734 162.5 27.209V54.209C162.5 56.684 160.475 58.709 158 58.709H122C119.525 58.709 117.5 56.684 117.5 54.209V27.209C117.5 24.734 119.525 22.709 122 22.709ZM144.23 48.134L150.778 54.6815L153.972 51.4865L147.425 44.9615C148.415 43.3865 149 41.564 149 39.584C149 33.9815 144.478 29.459 138.875 29.459C133.273 29.459 128.75 33.9815 128.75 39.584C128.75 45.1865 133.273 49.709 138.853 49.709C140.833 49.709 142.678 49.124 144.23 48.134ZM138.875 33.959C135.77 33.959 133.25 36.479 133.25 39.584C133.25 42.689 135.77 45.209 138.875 45.209C141.98 45.209 144.5 42.689 144.5 39.584C144.5 36.479 141.98 33.959 138.875 33.959Z" fill="#FF908D"/>
<circle cx="220" cy="40.709" r="23" fill="white" stroke="white" stroke-width="4"/>
<path fill-rule="evenodd" clip-rule="evenodd" d="M220 19.8757C208.5 19.8757 199.167 29.209 199.167 40.709C199.167 52.209 208.5 61.5423 220 61.5423C231.5 61.5423 240.833 52.209 240.833 40.709C240.833 29.209 231.5 19.8757 220 19.8757ZM230.208 47.9798L227.292 50.8965C226.875 51.3131 226.229 51.3131 225.812 50.8965L218.708 43.7923C216.167 44.6882 213.208 44.1465 211.167 42.1048C208.854 39.7923 208.458 36.2923 209.938 33.5632L214.833 38.459L217.771 35.5215L212.875 30.6465C215.625 29.1673 219.104 29.5632 221.417 31.8757C223.458 33.9173 224 36.8757 223.104 39.4173L230.208 46.5215C230.604 46.9173 230.604 47.584 230.208 47.9798Z" fill="#FF908D"/>
<path fill-rule="evenodd" clip-rule="evenodd" d="M199.167 40.709C199.167 29.209 208.5 19.8757 220 19.8757C231.5 19.8757 240.833 29.209 240.833 40.709C240.833 52.209 231.5 61.5423 220 61.5423C208.5 61.5423 199.167 52.209 199.167 40.709ZM227.292 50.8965L230.208 47.9798C230.604 47.584 230.604 46.9173 230.208 46.5215L223.104 39.4173C224 36.8757 223.458 33.9173 221.417 31.8757C219.104 29.5632 215.625 29.1673 212.875 30.6465L217.771 35.5215L214.833 38.459L209.938 33.5632C208.458 36.2923 208.854 39.7923 211.167 42.1048C213.208 44.1465 216.167 44.6882 218.708 43.7923L225.812 50.8965C226.229 51.3131 226.875 51.3131 227.292 50.8965Z" fill="#FF908D"/>
<path d="M286.9 64.6168L287.01 64.6291H287.12H318.86C321.168 64.6291 322.804 63.6227 323.796 62.2452C324.714 60.9697 325 59.4991 325 58.4891V26.2891C325 23.9812 323.994 22.3458 322.617 21.354C321.341 20.4356 319.871 20.1491 318.86 20.1491H310.34C309.822 19.3769 309.119 18.524 308.249 17.766C306.925 16.6134 305.058 15.5491 302.76 15.5491C300.442 15.5491 298.631 16.631 297.378 17.8271C296.604 18.5658 295.994 19.3906 295.548 20.1491H286.66C284.537 20.1491 283.016 21.0788 282.093 22.3605C281.244 23.5401 280.98 24.8957 280.98 25.8291V58.4891C280.98 60.6931 282.055 62.2456 283.332 63.2047C284.538 64.1106 285.933 64.5094 286.9 64.6168Z" fill="white" stroke="white" stroke-width="4"/>
<path d="M318.543 22.0386H309.228C308.292 19.4346 305.841 17.549 302.944 17.549C300.047 17.549 297.596 19.4346 296.66 22.0386H287.345C284.894 22.0386 282.888 24.0589 282.888 26.5282V57.9554C282.888 59.5202 283.693 60.9047 284.907 61.709C285.609 62.1739 286.447 62.445 287.345 62.445H318.543C320.994 62.445 323 60.4247 323 57.9554V26.5282C323 24.0589 320.994 22.0386 318.543 22.0386ZM302.944 22.0386C304.17 22.0386 305.172 23.0487 305.172 24.2834C305.172 25.518 304.17 26.5282 302.944 26.5282C301.718 26.5282 300.716 25.518 300.716 24.2834C300.716 23.0487 301.718 22.0386 302.944 22.0386ZM307.401 53.4658H291.802V48.9762H307.401V53.4658ZM314.086 44.4866H291.802V39.997H314.086V44.4866ZM314.086 35.5074H291.802V31.0178H314.086V35.5074Z" fill="#FF908D"/>
<path fill-rule="evenodd" clip-rule="evenodd" d="M323 61.709V26.5282C323 24.0589 320.994 22.0386 318.543 22.0386H309.228C308.292 19.4346 305.841 17.549 302.944 17.549C300.047 17.549 297.596 19.4346 296.66 22.0386H287.345C284.894 22.0386 282.888 24.0589 282.888 26.5282V57.9554C282.888 59.5202 283.693 60.9047 284.907 61.709H323ZM314.086 35.5074H291.802V31.0178H314.086V35.5074ZM291.802 44.4866H314.086V39.997H291.802V44.4866ZM307.401 53.4658H291.802V48.9762H307.401V53.4658ZM305.172 24.2834C305.172 23.0487 304.17 22.0386 302.944 22.0386C301.718 22.0386 300.716 23.0487 300.716 24.2834C300.716 25.518 301.718 26.5282 302.944 26.5282C304.17 26.5282 305.172 25.518 305.172 24.2834Z" fill="#FF908D"/>
<circle cx="57.5" cy="213.209" r="49.5" fill="#FF9F9F"/>
<mask id="mask0_1277_5356" style="mask-type:alpha" maskUnits="userSpaceOnUse" x="8" y="163" width="99" height="100">
<circle cx="57.5" cy="213.209" r="49.5" fill="#99A6ED"/>
</mask>
<g mask="url(#mask0_1277_5356)">
<path d="M42.8149 185.556C46.1302 182.996 50.1731 181.292 54.3817 181.089C55.229 181.421 56.196 181.393 57.0432 181.089C57.5037 181.071 57.9734 181.071 58.4338 181.089C59.2811 181.421 60.2481 181.402 61.0953 181.089C64.3831 181.292 67.6063 182.36 70.4059 184.092C71.3913 184.7 72.4596 185.17 73.445 185.778C77.0274 187.933 80.1124 191 82.0464 194.722C83.5843 197.641 84.146 201.059 83.6579 204.32C83.529 205.241 83.1331 206.088 82.8936 206.982C82.8476 208.05 82.9949 209.119 82.912 210.187C82.7186 216.727 80.7756 223.304 76.8524 228.6C77.6352 229.816 78.0681 231.29 77.8194 232.745C77.5984 234.403 76.4933 235.776 75.25 236.826C74.2923 237.102 73.3437 236.439 72.3951 236.77C71.6308 237.047 71.1611 237.774 70.9585 238.53C70.6085 239.764 69.8902 240.888 68.8864 241.689C68.0299 242.38 67.2195 243.135 66.6393 244.075C64.9817 242.214 64.1805 239.653 64.3738 237.176C64.4015 236.752 64.4291 236.328 64.4383 235.904C64.6133 234.698 64.6409 233.454 64.4199 232.257C65.2579 231.888 66.0868 231.511 66.888 231.078C67.7168 230.645 68.3799 229.954 69.2087 229.521C71.0414 228.582 72.5609 227.062 73.6108 225.302C74.7619 223.377 75.1395 221.139 75.7658 219.021C75.8302 218.56 76.3828 218.588 76.7143 218.403C77.9391 217.86 78.8232 216.791 79.5784 215.723C80.8216 213.908 81.7149 211.679 81.2636 209.45C79.8086 210.906 78.2338 212.352 76.2631 213.079C75.7013 213.273 75.0382 213.402 74.4949 213.098C74.2278 212.444 74.3383 211.707 74.2002 211.025C73.8502 209.091 73.399 207.064 72.1373 205.499C70.7283 203.739 68.5733 202.735 66.3999 202.321C63.8581 201.796 61.2519 202.431 58.7009 202.035C54.658 201.455 50.8454 199.889 47.2077 198.093C45.4487 199.318 43.8555 200.801 42.6307 202.569C41.8571 203.666 41.3322 204.927 40.3928 205.904C39.6377 206.687 38.7628 207.359 37.8142 207.903C37.1696 208.243 36.4697 208.557 35.7237 208.538C35.1896 208.52 34.7659 208.161 34.3699 207.847C33.7437 208.842 33.4858 210.04 33.5964 211.209C33.7529 213.153 34.7291 214.922 35.8895 216.441C36.6723 217.501 37.7405 218.357 39.0298 218.717C39.3061 219.122 39.3338 219.656 39.4903 220.126C39.9324 221.655 40.2639 223.239 40.9914 224.667C41.4795 225.653 42.1242 226.555 42.8793 227.347C45.0435 229.558 47.7879 231.059 50.5875 232.312C50.6059 234.081 50.6059 235.849 50.3757 237.599C44.8593 235.573 40.1902 231.52 37.1235 226.528C34.3699 221.986 32.8504 216.736 32.5465 211.449C32.6754 210.924 32.7123 210.39 32.6846 209.855C32.6202 208.879 32.8136 207.875 32.5465 206.917C32.6938 204.052 33.2832 201.215 34.1397 198.48C34.5633 196.803 35.0238 195.127 35.8066 193.579C37.3445 190.319 39.8679 187.592 42.8333 185.566L42.8149 185.556Z" fill="#2D1F1F"/>
<path d="M54.3817 181.089C55.2658 181.043 56.1591 181.052 57.0432 181.089C56.196 181.393 55.229 181.421 54.3817 181.089Z" fill="#070000"/>
<path d="M58.4246 181.089C59.3087 181.043 60.202 181.043 61.0861 181.089C60.2389 181.402 59.2719 181.421 58.4246 181.089Z" fill="#070000"/>
<path d="M42.6123 202.56C43.8371 200.801 45.4395 199.309 47.1893 198.084C50.827 199.88 54.6396 201.446 58.6825 202.026C61.2335 202.422 63.8397 201.786 66.3815 202.312C68.5549 202.726 70.7098 203.739 72.1189 205.489C73.3713 207.064 73.8318 209.082 74.1818 211.016C74.3199 211.698 74.2094 212.435 74.4764 213.089C75.0198 213.393 75.6829 213.264 76.2446 213.07C78.2154 212.352 79.7901 210.906 81.2452 209.441C81.6965 211.67 80.8032 213.899 79.56 215.714C78.8048 216.782 77.9207 217.851 76.6959 218.394C76.3644 218.569 75.8118 218.551 75.7473 219.011C75.1211 221.13 74.7435 223.368 73.5924 225.293C72.5425 227.062 71.023 228.572 69.1903 229.512C68.3615 229.945 67.7076 230.636 66.8696 231.069C66.0684 231.492 65.2395 231.879 64.4015 232.248C62.5136 233.067 60.5336 233.685 58.5444 234.219C57.9273 234.394 57.2735 234.486 56.6565 234.302C54.6396 233.768 52.632 233.169 50.7164 232.331C50.6888 233.049 50.698 233.758 50.7164 234.477C54.391 235.739 58.4338 235.895 62.2189 235.029C62.9372 234.9 63.6187 234.514 64.3646 234.578C64.3646 235.011 64.3831 235.453 64.4107 235.886C64.3923 236.31 64.3646 236.733 64.3462 237.157C64.1528 239.635 64.954 242.196 66.6117 244.056C65.8565 245.226 65.746 246.737 66.2341 248.026C66.4183 248.625 66.3723 249.27 66.5657 249.878C66.7775 250.642 67.0537 251.471 66.7683 252.254C66.4459 253.341 65.5618 254.078 64.6777 254.704C65.3224 254.852 65.9855 254.962 66.6393 255.045C59.8244 256.924 52.4202 256.445 45.8631 253.857C42.2899 252.42 39.1588 249.565 38.0076 245.825C39.0943 245.364 40.2547 245.097 41.369 244.72C43.6437 244.01 45.9184 243.292 48.2023 242.592C48.9114 242.389 49.4916 241.846 49.8139 241.182C50.2836 240.049 50.2928 238.788 50.3297 237.581C50.5599 235.822 50.5599 234.062 50.5415 232.294C47.7418 231.041 44.9975 229.54 42.8333 227.329C42.0781 226.537 41.4427 225.625 40.9454 224.648C40.2178 223.221 39.8863 221.636 39.4443 220.107C39.2969 219.638 39.2601 219.113 38.9838 218.698C37.7037 218.339 36.6354 217.482 35.8434 216.423C34.6831 214.903 33.7161 213.125 33.5503 211.191C33.4398 210.021 33.6977 208.824 34.3239 207.829C34.7199 208.133 35.1435 208.492 35.6777 208.52C36.4236 208.538 37.1235 208.234 37.7682 207.884C38.7167 207.341 39.5824 206.668 40.3468 205.885C41.2769 204.909 41.8111 203.647 42.5754 202.551L42.6123 202.56Z" fill="#F9DAC5"/>
<path d="M32.5189 206.899C32.7767 207.866 32.5833 208.861 32.657 209.837C32.6938 210.371 32.657 210.915 32.5189 211.431C32.4268 209.92 32.4268 208.4 32.5189 206.889V206.899Z" fill="#0F0101"/>
<path d="M50.7349 232.34C52.6504 233.169 54.658 233.777 56.6749 234.311C57.3011 234.504 57.955 234.403 58.5628 234.228C60.552 233.694 62.532 233.077 64.4199 232.257C64.3738 233.04 64.4015 233.814 64.3923 234.597C63.6463 234.532 62.9648 234.919 62.2465 235.048C58.4615 235.904 54.4186 235.748 50.7441 234.495C50.7164 233.777 50.7164 233.067 50.7441 232.349L50.7349 232.34Z" fill="#F2BC9E"/>
<path d="M64.4199 232.257C64.6409 233.454 64.6041 234.707 64.4383 235.904C64.4015 235.472 64.3923 235.029 64.3923 234.597C64.3923 233.814 64.3738 233.04 64.4199 232.257Z" fill="#020000"/>
<path d="M72.3951 236.761C73.3437 236.43 74.2923 237.093 75.25 236.816C75.0843 236.955 74.9185 237.093 74.7527 237.231C75.0935 237.931 75.5263 238.603 75.7473 239.359C76.3551 241.284 76.1986 243.448 75.2869 245.254C75.0382 245.724 74.7343 246.156 74.4396 246.589C73.224 245.945 71.861 245.502 70.4704 245.65C69.485 245.742 68.4996 246 67.6708 246.562C67.109 246.967 66.7222 247.557 66.2525 248.045C65.7644 246.755 65.875 245.235 66.6301 244.075C67.2103 243.135 68.0299 242.371 68.8772 241.689C69.881 240.888 70.5993 239.764 70.9493 238.53C71.1519 237.774 71.6308 237.047 72.3859 236.77L72.3951 236.761Z" fill="#262020"/>
<path d="M36.9762 246.138C37.3169 246.018 37.6577 245.917 38.0076 245.825C38.1181 246.184 37.9063 245.475 38.026 245.834C39.1772 249.583 42.3084 252.438 45.8816 253.866C52.4478 256.454 59.8521 256.933 66.6577 255.054C69.0245 255.202 71.5203 254.769 73.4911 253.378C74.6975 252.531 75.6645 251.25 75.8118 249.74C76.0973 249.822 76.2538 249.537 76.4104 249.362C77.1287 248.395 77.7273 247.326 78.1233 246.184C78.2891 245.705 77.9668 246.672 78.1233 246.193C79.781 246.774 81.3741 247.16 82.912 248.026C84.625 248.993 90.676 250.808 91.4496 252.678C92.0482 256.887 86.4391 259.494 83.7592 262.69H50.8546C50.477 262.617 50.1086 262.525 49.7311 262.525C46.2407 262.543 42.7504 262.543 39.2509 262.525C38.8733 262.525 38.4957 262.617 38.1273 262.69L26.4091 264.339C24.2265 261.677 23.1306 258.14 23.499 254.714C23.6187 253.442 24.1344 252.263 24.6962 251.14C25.6724 249.822 31.644 248.072 33.1635 247.391C34.3515 246.746 35.7329 246.626 36.9762 246.138Z" fill="#993399"/>
<path d="M74.4488 246.589C74.7435 246.156 75.0474 245.724 75.2961 245.254C76.2354 245.576 77.184 245.862 78.1233 246.193C77.7273 247.335 77.1287 248.404 76.4104 249.371C76.2538 249.546 76.0973 249.832 75.8118 249.749C75.9776 248.542 75.3974 247.326 74.4488 246.589Z" fill="#F9DAC5"/>
<path d="M67.68 246.553C68.5088 246 69.4942 245.733 70.4796 245.641C71.8702 245.493 73.2332 245.945 74.4488 246.58C75.4066 247.317 75.9776 248.533 75.8118 249.74C75.6645 251.25 74.6975 252.521 73.4911 253.378C71.5203 254.769 69.0245 255.202 66.6577 255.054C66.0039 254.971 65.3408 254.861 64.6962 254.714C65.5803 254.087 66.4736 253.341 66.7867 252.263C67.0814 251.471 66.8051 250.651 66.5841 249.887C66.3999 249.288 66.4367 248.643 66.2617 248.036C66.7314 247.538 67.1182 246.958 67.68 246.553Z" fill="#2D1F1F"/>
<path d="M22.2926 253.341C23.0201 252.531 23.7292 251.665 24.6962 251.14C24.1252 252.263 23.6187 253.442 23.499 254.714C23.1306 258.14 24.2265 261.677 26.4091 264.339H18.4062C18.6089 260.415 19.7784 256.427 22.2926 253.341Z" fill="#F9DAC5"/>
<path d="M91.4404 252.669C92.4534 253.544 93.1902 254.686 93.8256 255.847C95.1886 258.463 95.8517 261.401 95.999 264.339L83.75 262.681C86.4392 259.485 92.039 256.878 91.4404 252.669Z" fill="#F9DAC5"/>
<path d="M38.1273 262.681C38.4957 262.608 38.8733 262.525 39.2509 262.515C42.7412 262.525 46.2315 262.534 49.7311 262.515C50.1086 262.515 50.4862 262.608 50.8546 262.681H38.1273Z" fill="#B15CA4"/>
</g>
<circle cx="179.5" cy="213.209" r="49.5" fill="#B5EADA"/>
<mask id="mask1_1277_5356" style="mask-type:alpha" maskUnits="userSpaceOnUse" x="130" y="163" width="99" height="100">
<circle cx="179.5" cy="213.209" r="49.5" fill="#99A6ED"/>
</mask>
<g mask="url(#mask1_1277_5356)">
<path d="M170.543 177.455C172.307 174.825 175.302 173.098 178.437 172.784C182.128 172.398 185.989 174.083 188.177 177.119C187.733 177.028 187.3 176.916 186.876 176.774C185.051 176.216 183.166 175.881 181.26 175.769C179.839 175.617 178.407 175.769 176.996 175.891C175.151 176.145 173.306 176.531 171.561 177.191C171.229 177.312 170.886 177.404 170.543 177.465V177.455Z" fill="#0F0F0E" stroke="#0F0F0E" stroke-width="0.06"/>
<path d="M176.994 175.881C178.415 175.759 179.837 175.606 181.259 175.759C183.164 175.881 185.05 176.205 186.874 176.764C187.298 176.916 187.731 177.028 188.175 177.109C188.518 177.373 188.931 177.495 189.324 177.668C192.309 178.947 195.021 180.846 197.269 183.202C200.022 186.085 202.058 189.65 203.117 193.508C204.488 198.443 204.266 203.815 202.482 208.618C202.3 208.354 202.099 208.11 201.887 207.866C201.776 208.496 201.746 209.196 201.353 209.735C201.161 209.999 200.788 209.897 200.576 209.714C200.143 209.359 199.87 208.841 199.618 208.354C199.235 207.541 198.943 206.668 198.812 205.774C198.711 204.901 198.862 204.038 198.903 203.175C197.37 203.541 195.848 203.957 194.305 204.261C188.75 205.399 183.063 205.856 177.387 205.683C171.449 205.5 165.5 204.739 159.783 203.104C159.955 203.916 160.207 204.739 160.116 205.571C160.035 206.445 159.531 207.196 159.158 207.968C158.815 208.577 158.523 209.237 158.029 209.735C157.868 209.927 157.525 209.968 157.394 209.714C157.061 209.186 157.051 208.547 156.92 207.968C156.597 206.81 156.244 205.653 156.053 204.465C154.944 198.413 156.204 191.944 159.572 186.786C162.082 182.897 165.722 179.749 169.926 177.861C170.148 177.759 170.38 177.647 170.541 177.454C170.894 177.394 171.237 177.312 171.559 177.18C173.304 176.51 175.149 176.124 176.994 175.881Z" fill="#020202" stroke="#020202" stroke-width="0.06"/>
<path d="M159.786 203.104C165.513 204.739 171.461 205.5 177.39 205.683C183.056 205.856 188.742 205.399 194.308 204.262C195.86 203.967 197.373 203.541 198.905 203.175C198.865 204.038 198.724 204.911 198.814 205.775C198.935 206.668 199.238 207.531 199.621 208.354C199.873 208.851 200.145 209.359 200.579 209.714C200.791 209.897 201.164 209.989 201.355 209.735C201.748 209.197 201.769 208.496 201.89 207.866C202.101 208.11 202.303 208.354 202.484 208.618C202.868 209.481 203.069 210.435 203.009 211.38C202.918 213.167 202.091 214.812 201.103 216.244C200.206 217.492 199.046 218.772 197.443 218.995C196.838 220.975 196.496 223.077 195.437 224.895C194.57 226.489 193.259 227.779 191.817 228.835C190.093 230.145 188.158 231.15 186.171 232.013C184.135 232.876 182.017 233.556 179.86 234.064C179.346 234.186 178.821 234.013 178.327 233.881C177.823 233.739 177.299 233.648 176.795 233.485C176.129 233.171 175.403 232.998 174.718 232.744C172.318 231.881 169.989 230.794 167.882 229.353C167.449 229.058 167.045 228.703 166.571 228.449C166.087 228.043 165.614 227.626 165.17 227.18C163.97 225.961 163.083 224.448 162.549 222.823C162.155 221.564 161.823 220.285 161.47 219.016C160.653 218.873 159.887 218.508 159.282 217.939C157.941 216.731 156.963 215.147 156.318 213.461C155.683 211.674 155.652 209.481 156.892 207.958C157.023 208.547 157.034 209.186 157.366 209.704C157.497 209.958 157.84 209.907 158.001 209.725C158.495 209.227 158.788 208.567 159.131 207.958C159.514 207.186 160.018 206.445 160.088 205.561C160.179 204.729 159.927 203.906 159.756 203.094L159.786 203.104Z" fill="#FECDAC" stroke="#FECDAC" stroke-width="0.06"/>
<path d="M166.588 228.459C167.052 228.713 167.455 229.068 167.899 229.363C170.006 230.805 172.335 231.891 174.735 232.754C175.42 233.008 176.146 233.181 176.812 233.495C176.791 234.216 176.922 234.937 176.943 235.658C177.023 237.141 177.023 238.623 176.832 240.096C176.65 241.751 175.813 243.233 174.926 244.614C172.859 247.701 169.693 250.047 166.124 251.042C163.715 251.773 161.124 252.098 158.956 253.479C157.575 254.383 156.405 255.733 155.992 257.368C155.8 258.069 155.881 258.8 155.992 259.51C153.612 257.348 152.15 254.261 151.737 251.082C151.676 250.534 151.656 249.976 151.656 249.427C151.656 245.488 153.431 241.588 156.405 239.019C158.079 237.547 160.014 236.43 161.799 235.12C163.079 234.176 164.299 233.11 165.207 231.779C165.842 230.754 166.205 229.596 166.608 228.479L166.588 228.459Z" fill="#020202" stroke="#020202" stroke-width="0.06"/>
<path d="M179.877 234.064C182.035 233.556 184.142 232.876 186.189 232.013C186.189 232.907 186.249 233.8 186.249 234.704C185.856 234.785 185.473 234.887 185.1 234.998C182.459 235.76 179.676 235.932 176.954 235.638C176.923 234.917 176.802 234.206 176.823 233.475C177.327 233.638 177.851 233.729 178.355 233.871C178.849 234.003 179.373 234.176 179.888 234.054L179.877 234.064Z" fill="#C1977A" stroke="#C1977A" stroke-width="0.06"/>
<path d="M185.092 234.998C185.475 234.886 185.858 234.785 186.241 234.704C186.322 236.542 186.372 238.39 186.635 240.207C186.755 240.989 187.058 241.801 187.683 242.319C188.197 242.736 188.873 242.868 189.488 243.06C193.934 244.462 198.38 245.853 202.827 247.244C204.51 247.752 206.174 248.483 207.535 249.63C206.86 249.63 206.164 249.681 205.549 249.996C204.722 250.412 204.006 251.001 203.28 251.56C200.508 253.844 197.342 255.662 193.894 256.677C191.252 257.479 188.49 257.815 185.747 258.068C183.569 258.292 181.372 258.353 179.184 258.211C174.586 257.916 170.1 256.758 165.684 255.489C163.435 254.839 161.197 254.149 158.969 253.448C161.136 252.077 163.728 251.742 166.137 251.011C169.706 250.016 172.872 247.67 174.939 244.584C175.826 243.213 176.663 241.72 176.845 240.065C177.036 238.593 177.026 237.11 176.956 235.628C179.678 235.912 182.46 235.739 185.102 234.988L185.092 234.998Z" fill="#FECDAC" stroke="#FECDAC" stroke-width="0.06"/>
<path d="M150.328 250.565C150.741 250.148 151.185 249.762 151.649 249.407C151.649 249.955 151.669 250.514 151.73 251.062C151.236 250.971 150.762 250.798 150.328 250.565Z" fill="#D8AA8B" stroke="#D8AA8B" stroke-width="0.06"/>
<path d="M205.537 250.006C206.153 249.691 206.848 249.631 207.524 249.641C207.998 249.813 208.492 249.935 208.935 250.179C209.863 250.676 210.639 251.418 211.315 252.22C212.666 253.905 213.573 255.936 213.956 258.069C214.239 259.622 214.128 261.267 213.472 262.709H145.397C145.074 260.445 145.77 258.19 146.657 256.139C147.564 254.088 148.734 252.139 150.327 250.565C150.76 250.808 151.234 250.981 151.728 251.062C152.132 254.241 153.604 257.327 155.983 259.49C155.872 258.779 155.792 258.048 155.983 257.348C156.407 255.723 157.576 254.362 158.947 253.459C161.175 254.159 163.414 254.85 165.662 255.5C170.078 256.769 174.565 257.926 179.162 258.221C181.35 258.363 183.548 258.302 185.726 258.079C188.468 257.825 191.231 257.49 193.872 256.688C197.32 255.672 200.496 253.855 203.259 251.57C203.985 251.001 204.701 250.412 205.517 249.996L205.537 250.006Z" fill="#4F8746" stroke="#CE57B5" stroke-width="0.06"/>
</g>
<circle cx="301.5" cy="213.209" r="49.5" fill="#FFCD9E"/>
<mask id="mask2_1277_5356" style="mask-type:alpha" maskUnits="userSpaceOnUse" x="252" y="163" width="99" height="100">
<circle cx="301.5" cy="213.209" r="49.5" fill="#99A6ED"/>
</mask>
<g mask="url(#mask2_1277_5356)">
<path d="M288.798 182.796C292.661 180.413 297.114 178.933 301.677 178.734C305.561 178.585 309.505 179.082 313.139 180.502C315.885 181.585 318.431 183.303 320.208 185.677C321.795 187.742 322.674 190.255 323.163 192.788C323.692 195.578 324.171 198.389 324.141 201.24C324.161 202.59 324.082 203.941 323.962 205.292C323.832 206.692 323.782 208.122 323.413 209.483C322.634 213.257 321.186 216.852 320.128 220.547C320.088 220.656 320.038 220.765 319.988 220.865C319.748 218.67 320.088 216.475 320.258 214.28C320.437 212.76 320.617 211.241 320.767 209.711C320.907 208.142 321.096 206.563 320.967 204.974C320.397 202.253 319.499 199.601 318.371 197.058C318.211 196.681 318.021 196.284 317.642 196.095C315.176 194.565 312.28 193.93 309.445 193.483C306.539 193.046 303.604 192.917 300.669 193.016C297.564 193.185 294.429 193.542 291.463 194.526C290.335 194.923 289.217 195.4 288.248 196.105C287.899 196.343 287.769 196.77 287.589 197.148C286.511 199.581 285.652 202.104 285.083 204.706C284.974 205.172 284.944 205.649 284.954 206.126C284.954 210.248 285.433 214.359 285.623 218.471C285.662 219.881 285.792 221.302 285.623 222.712C285.603 222.811 285.563 222.91 285.493 222.99C284.295 218.6 283.426 214.131 282.567 209.672C282.438 208.887 282.308 208.112 282.208 207.328C281.978 204.855 282.138 202.362 282.378 199.889C282.587 197.505 282.557 195.102 282.777 192.718C283.356 189.272 285.303 186.213 287.709 183.73C288.039 183.382 288.368 183.005 288.798 182.767V182.796Z" fill="#2D1F1F"/>
<path d="M300.669 193.046C303.604 192.947 306.539 193.066 309.445 193.513C312.28 193.96 315.176 194.595 317.642 196.125C318.021 196.323 318.211 196.721 318.371 197.088C319.499 199.631 320.397 202.272 320.967 205.004C321.096 206.583 320.907 208.162 320.767 209.741C320.617 211.261 320.437 212.79 320.258 214.31C320.078 216.495 319.748 218.699 319.988 220.894C320.038 220.785 320.088 220.686 320.128 220.577C321.186 216.882 322.634 213.287 323.413 209.513C323.433 209.562 323.483 209.652 323.502 209.691C324.211 209.681 324.93 209.91 325.439 210.406C326.478 211.36 326.847 212.83 326.847 214.19C326.897 216.465 325.939 218.63 324.731 220.507C324.082 221.46 323.323 222.404 322.304 222.98C321.925 223.199 321.496 223.278 321.066 223.318C320.777 224.43 320.527 225.582 320.088 226.645C320.148 226.238 320.238 225.84 320.298 225.433C319.938 225.801 319.679 226.248 319.369 226.655C316.893 229.912 313.708 232.683 309.984 234.431C308.946 234.898 307.787 235.265 306.629 235.097C305.95 234.997 305.271 234.898 304.612 234.719C304.023 234.56 303.514 234.113 302.875 234.143C302.206 234.113 301.717 234.66 301.098 234.809C300.269 235.037 299.391 235.136 298.532 235.117C296.775 234.977 295.098 234.312 293.54 233.518C290.425 231.869 287.679 229.545 285.523 226.784C285.173 225.632 284.804 224.5 284.544 223.328C283.136 222.95 282.148 221.798 281.349 220.656C280.151 218.838 279.193 216.763 279.133 214.558C279.093 213.237 279.343 211.837 280.191 210.784C280.75 210.089 281.649 209.612 282.557 209.741C283.416 214.2 284.295 218.67 285.483 223.059C285.553 222.97 285.593 222.881 285.613 222.771C285.792 221.361 285.652 219.941 285.613 218.531C285.413 214.409 284.944 210.307 284.944 206.186C284.944 205.709 284.974 205.232 285.073 204.765C285.643 202.173 286.501 199.641 287.579 197.207C287.749 196.84 287.879 196.413 288.238 196.164C289.207 195.459 290.325 194.983 291.453 194.585C294.419 193.602 297.554 193.254 300.659 193.076L300.669 193.046Z" fill="#A5663A"/>
<path d="M319.369 226.625C319.679 226.218 320.307 225.245 320.666 224.878C320.607 225.285 320.255 226.211 320.078 226.615C319.798 227.837 319.359 229.018 318.82 230.161C318.46 230.886 318.071 231.611 317.532 232.226C315.915 234.243 313.918 235.931 311.751 237.341C309.754 238.553 307.548 239.546 305.202 239.824C303.524 240.072 301.817 240.023 300.15 239.735C297.973 239.407 296.016 238.315 294.219 237.113C292.412 235.792 290.575 234.481 289.027 232.852C287.12 230.905 285.802 227.943 285.073 225.311C285.323 225.58 285.283 226.496 285.533 226.764C287.689 229.525 290.435 231.859 293.55 233.498C295.108 234.292 296.785 234.958 298.542 235.097C299.401 235.117 300.279 235.017 301.108 234.789C301.727 234.63 302.216 234.094 302.885 234.123C303.524 234.103 304.033 234.54 304.622 234.699C305.281 234.868 305.96 234.977 306.639 235.077C307.797 235.246 308.946 234.878 309.994 234.411C313.718 232.663 316.913 229.892 319.379 226.635L319.369 226.625Z" fill="#2D1F1F"/>
<path d="M294.219 237.103C296.016 238.305 297.983 239.397 300.15 239.725C301.817 240.023 303.524 240.063 305.201 239.814C307.548 239.536 309.744 238.543 311.751 237.331C311.861 238.215 311.811 239.109 311.881 240.003C311.452 240.43 310.892 240.698 310.363 240.986C308.506 241.86 306.579 242.605 304.553 242.982C303.684 243.151 302.785 243.102 301.897 243.092C300.659 242.982 299.451 242.665 298.282 242.277C297.174 241.86 296.046 241.473 295.058 240.827C294.738 240.619 294.429 240.4 294.099 240.211C294.069 239.725 294.099 239.238 294.129 238.761C294.169 238.215 294.119 237.659 294.209 237.113L294.219 237.103Z" fill="#8E5C3A"/>
<path d="M310.373 240.996C310.902 240.708 311.452 240.44 311.891 240.013C311.911 240.927 312.041 241.83 312.18 242.724C312.33 243.777 312.959 244.83 313.988 245.237C314.806 245.535 315.655 245.773 316.484 246.051C316.294 246.578 315.994 247.044 315.725 247.531C314.647 249.488 313.468 251.395 312.17 253.212C310.843 255.049 309.395 256.827 307.658 258.297C306.469 259.3 305.092 260.174 303.524 260.413C302.566 260.552 301.697 260.025 300.918 259.558C299.111 258.367 297.574 256.817 296.116 255.238C294.009 252.904 292.102 250.401 290.435 247.74C290.115 247.184 289.746 246.657 289.516 246.051C290.315 245.783 291.124 245.545 291.923 245.277C292.861 244.939 293.52 244.065 293.74 243.121C293.939 242.168 294.019 241.195 294.119 240.221C294.449 240.42 294.758 240.639 295.078 240.837C296.066 241.483 297.204 241.87 298.302 242.287C299.481 242.675 300.679 242.992 301.917 243.102C302.795 243.112 303.694 243.171 304.573 242.992C306.599 242.615 308.526 241.88 310.383 241.006L310.373 240.996Z" fill="#A5663A"/>
<path d="M275.648 250.501C280.271 249.021 284.884 247.491 289.506 246.031C289.736 246.637 290.095 247.164 290.425 247.72C292.092 250.382 293.999 252.884 296.106 255.218C297.564 256.797 299.101 258.347 300.908 259.539C301.697 260.005 302.566 260.542 303.514 260.393C305.082 260.154 306.46 259.28 307.648 258.277C309.385 256.807 310.833 255.03 312.16 253.192C313.458 251.375 314.647 249.478 315.715 247.511C315.974 247.025 316.274 246.548 316.474 246.031C320.797 247.392 325.11 248.822 329.433 250.203C330.461 250.59 331.55 250.769 332.598 251.116C336.532 252.338 339.966 255.119 341.853 258.774C343.161 261.197 343.73 263.928 344 266.65C343.571 266.729 343.131 266.709 342.692 266.699C315.944 266.699 289.207 266.699 262.459 266.699C262.31 266.689 262.15 266.669 262 266.65C262.25 264.326 262.699 261.992 263.657 259.846C265.245 256.182 268.27 253.143 271.974 251.613C273.152 251.107 274.4 250.809 275.638 250.481L275.648 250.501Z" fill="#64900A"/>
<path d="M288.798 182.796C292.661 180.413 297.114 178.933 301.677 178.734C305.561 178.585 309.505 179.082 313.139 180.502C315.885 181.585 318.431 183.303 320.208 185.677C321.795 187.742 322.674 190.255 323.163 192.788C323.692 195.578 324.171 198.389 324.141 201.24C324.161 202.59 324.082 203.941 323.962 205.292C323.832 206.692 323.782 208.122 323.413 209.483C322.634 213.257 321.186 216.852 320.128 220.547C320.088 220.656 320.038 220.765 319.988 220.865C319.748 218.67 320.088 216.475 320.258 214.28C320.437 212.76 320.617 211.241 320.767 209.711C320.907 208.142 321.096 206.563 320.967 204.974C320.397 202.253 319.499 199.601 318.371 197.058C318.211 196.681 318.021 196.284 317.642 196.095C315.176 194.565 312.28 193.93 309.445 193.483C306.539 193.046 303.604 192.917 300.669 193.016C297.564 193.185 294.429 193.542 291.463 194.526C290.335 194.923 289.217 195.4 288.248 196.105C287.899 196.343 287.769 196.77 287.589 197.148C286.511 199.581 285.652 202.104 285.083 204.706C284.974 205.172 284.944 205.649 284.954 206.126C284.954 210.248 285.433 214.359 285.623 218.471C285.662 219.881 285.792 221.302 285.623 222.712C285.603 222.811 285.563 222.91 285.493 222.99C284.295 218.6 283.426 214.131 282.567 209.672C282.438 208.887 282.308 208.112 282.208 207.328C281.978 204.855 282.138 202.362 282.378 199.889C282.587 197.505 282.557 195.102 282.777 192.718C283.356 189.272 285.303 186.213 287.709 183.73C288.039 183.382 288.368 183.005 288.798 182.767V182.796Z" stroke="#8E5C3A" stroke-width="0.06"/>
<path d="M300.669 193.046C303.604 192.947 306.539 193.066 309.445 193.513C312.28 193.96 315.176 194.595 317.642 196.125C318.021 196.323 318.211 196.721 318.371 197.088C319.499 199.631 320.397 202.272 320.967 205.004C321.096 206.583 320.907 208.162 320.767 209.741C320.617 211.261 320.437 212.79 320.258 214.31C320.078 216.495 319.748 218.699 319.988 220.894C320.038 220.785 320.088 220.686 320.128 220.577C321.186 216.882 322.634 213.287 323.413 209.513C323.433 209.562 323.483 209.652 323.502 209.691C324.211 209.681 324.93 209.91 325.439 210.406C326.478 211.36 326.847 212.83 326.847 214.19C326.897 216.465 325.939 218.63 324.731 220.507C324.082 221.46 323.323 222.404 322.304 222.98C321.925 223.199 321.496 223.278 321.066 223.318C320.777 224.43 320.527 225.582 320.088 226.645C320.148 226.238 320.238 225.84 320.298 225.433C319.938 225.801 319.679 226.248 319.369 226.655C316.893 229.912 313.708 232.683 309.984 234.431C308.946 234.898 307.787 235.265 306.629 235.097C305.95 234.997 305.271 234.898 304.612 234.719C304.023 234.56 303.514 234.113 302.875 234.143C302.206 234.113 301.717 234.66 301.098 234.809C300.269 235.037 299.391 235.136 298.532 235.117C296.775 234.977 295.098 234.312 293.54 233.518C290.425 231.869 287.679 229.545 285.523 226.784C285.173 225.632 284.804 224.5 284.544 223.328C283.136 222.95 282.148 221.798 281.349 220.656C280.151 218.838 279.193 216.763 279.133 214.558C279.093 213.237 279.343 211.837 280.191 210.784C280.75 210.089 281.649 209.612 282.557 209.741C283.416 214.2 284.295 218.67 285.483 223.059C285.553 222.97 285.593 222.881 285.613 222.771C285.792 221.361 285.652 219.941 285.613 218.531C285.413 214.409 284.944 210.307 284.944 206.186C284.944 205.709 284.974 205.232 285.073 204.765C285.643 202.173 286.501 199.641 287.579 197.207C287.749 196.84 287.879 196.413 288.238 196.164C289.207 195.459 290.325 194.983 291.453 194.585C294.419 193.602 297.554 193.254 300.659 193.076L300.669 193.046Z" stroke="#8E5C3A" stroke-width="0.06"/>
<path d="M319.369 226.625C319.679 226.218 320.307 225.245 320.666 224.878C320.607 225.285 320.255 226.211 320.078 226.615C319.798 227.837 319.359 229.018 318.82 230.161C318.46 230.886 318.071 231.611 317.532 232.226C315.915 234.243 313.918 235.931 311.751 237.341C309.754 238.553 307.548 239.546 305.202 239.824C303.524 240.072 301.817 240.023 300.15 239.735C297.973 239.407 296.016 238.315 294.219 237.113C292.412 235.792 290.575 234.481 289.027 232.852C287.12 230.905 285.802 227.943 285.073 225.311C285.323 225.58 285.283 226.496 285.533 226.764C287.689 229.525 290.435 231.859 293.55 233.498C295.108 234.292 296.785 234.958 298.542 235.097C299.401 235.117 300.279 235.017 301.108 234.789C301.727 234.63 302.216 234.094 302.885 234.123C303.524 234.103 304.033 234.54 304.622 234.699C305.281 234.868 305.96 234.977 306.639 235.077C307.797 235.246 308.946 234.878 309.994 234.411C313.718 232.663 316.913 229.892 319.379 226.635L319.369 226.625Z" stroke="#8E5C3A" stroke-width="0.06"/>
<path d="M294.219 237.103C296.016 238.305 297.983 239.397 300.15 239.725C301.817 240.023 303.524 240.063 305.201 239.814C307.548 239.536 309.744 238.543 311.751 237.331C311.861 238.215 311.811 239.109 311.881 240.003C311.452 240.43 310.892 240.698 310.363 240.986C308.506 241.86 306.579 242.605 304.553 242.982C303.684 243.151 302.785 243.102 301.897 243.092C300.659 242.982 299.451 242.665 298.282 242.277C297.174 241.86 296.046 241.473 295.058 240.827C294.738 240.619 294.429 240.4 294.099 240.211C294.069 239.725 294.099 239.238 294.129 238.761C294.169 238.215 294.119 237.659 294.209 237.113L294.219 237.103Z" stroke="#8E5C3A" stroke-width="0.06"/>
<path d="M310.373 240.996C310.902 240.708 311.452 240.44 311.891 240.013C311.911 240.927 312.041 241.83 312.18 242.724C312.33 243.777 312.959 244.83 313.988 245.237C314.806 245.535 315.655 245.773 316.484 246.051C316.294 246.578 315.994 247.044 315.725 247.531C314.647 249.488 313.468 251.395 312.17 253.212C310.843 255.049 309.395 256.827 307.658 258.297C306.469 259.3 305.092 260.174 303.524 260.413C302.566 260.552 301.697 260.025 300.918 259.558C299.111 258.367 297.574 256.817 296.116 255.238C294.009 252.904 292.102 250.401 290.435 247.74C290.115 247.184 289.746 246.657 289.516 246.051C290.315 245.783 291.124 245.545 291.923 245.277C292.861 244.939 293.52 244.065 293.74 243.121C293.939 242.168 294.019 241.195 294.119 240.221C294.449 240.42 294.758 240.639 295.078 240.837C296.066 241.483 297.204 241.87 298.302 242.287C299.481 242.675 300.679 242.992 301.917 243.102C302.795 243.112 303.694 243.171 304.573 242.992C306.599 242.615 308.526 241.88 310.383 241.006L310.373 240.996Z" stroke="#8E5C3A" stroke-width="0.06"/>
<path d="M275.648 250.501C280.271 249.021 284.884 247.491 289.506 246.031C289.736 246.637 290.095 247.164 290.425 247.72C292.092 250.382 293.999 252.884 296.106 255.218C297.564 256.797 299.101 258.347 300.908 259.539C301.697 260.005 302.566 260.542 303.514 260.393C305.082 260.154 306.46 259.28 307.648 258.277C309.385 256.807 310.833 255.03 312.16 253.192C313.458 251.375 314.647 249.478 315.715 247.511C315.974 247.025 316.274 246.548 316.474 246.031C320.797 247.392 325.11 248.822 329.433 250.203C330.461 250.59 331.55 250.769 332.598 251.116C336.532 252.338 339.966 255.119 341.853 258.774C343.161 261.197 343.73 263.928 344 266.65C343.571 266.729 343.131 266.709 342.692 266.699C315.944 266.699 289.207 266.699 262.459 266.699C262.31 266.689 262.15 266.669 262 266.65C262.25 264.326 262.699 261.992 263.657 259.846C265.245 256.182 268.27 253.143 271.974 251.613C273.152 251.107 274.4 250.809 275.638 250.481L275.648 250.501Z" stroke="#8E5C3A" stroke-width="0.06"/>
</g>
<path d="M74.1572 57.2292L83.614 80.2539L84.8641 80.2621L88.3014 71.5583L97.049 68.2472L97.0571 66.997L74.1572 57.2292Z" fill="#616161"/>
<path d="M239.157 57.2292L248.614 80.2539L249.864 80.2621L253.301 71.5583L262.049 68.2472L262.057 66.997L239.157 57.2292Z" fill="#616161"/>
<path d="M322.157 57.2292L331.614 80.2539L332.864 80.2621L336.301 71.5583L345.049 68.2472L345.057 66.997L322.157 57.2292Z" fill="#616161"/>
<defs>
<linearGradient id="paint0_linear_1277_5356" x1="179.5" y1="78.709" x2="179.5" y2="155.709" gradientUnits="userSpaceOnUse">
<stop stop-color="#EEEEEE"/>
<stop offset="1" stop-color="#EEEEEE" stop-opacity="0"/>
</linearGradient>
</defs>
</svg>
