<svg width="361" height="246" viewBox="0 0 361 246" fill="none" xmlns="http://www.w3.org/2000/svg">
<mask id="mask0_1277_5466" style="mask-type:alpha" maskUnits="userSpaceOnUse" x="78" y="0" width="247" height="246">
<path d="M201.466 20.5209C144.928 20.5209 99.1449 66.4067 99.1449 122.945C99.1449 179.482 144.928 225.368 201.466 225.368C258.106 225.368 303.992 179.482 303.992 122.945C303.992 66.4067 258.106 20.5209 201.466 20.5209ZM272.446 81.9751H242.231C238.953 69.1721 234.242 56.8813 228.096 45.5123C246.942 51.965 262.613 65.0752 272.446 81.9751ZM201.569 41.4153C210.07 53.7062 216.727 67.3285 221.132 81.9751H182.006C186.41 67.3285 193.067 53.7062 201.569 41.4153ZM122.293 143.429C120.654 136.874 119.63 130.012 119.63 122.945C119.63 115.877 120.654 109.015 122.293 102.46H156.912C156.092 109.22 155.478 115.98 155.478 122.945C155.478 129.909 156.092 136.669 156.912 143.429H122.293ZM130.691 163.914H160.906C164.184 176.717 168.895 189.008 175.041 200.377C156.195 193.924 140.524 180.916 130.691 163.914ZM160.906 81.9751H130.691C140.524 64.9728 156.195 51.965 175.041 45.5123C168.895 56.8813 164.184 69.1721 160.906 81.9751ZM201.569 204.474C193.067 192.183 186.41 178.561 182.006 163.914H221.132C216.727 178.561 210.07 192.183 201.569 204.474ZM225.536 143.429H177.601C176.68 136.669 175.963 129.909 175.963 122.945C175.963 115.98 176.68 109.117 177.601 102.46H225.536C226.458 109.117 227.175 115.98 227.175 122.945C227.175 129.909 226.458 136.669 225.536 143.429ZM228.096 200.377C234.242 189.008 238.953 176.717 242.231 163.914H272.446C262.613 180.814 246.942 193.924 228.096 200.377ZM246.225 143.429C247.045 136.669 247.659 129.909 247.659 122.945C247.659 115.98 247.045 109.22 246.225 102.46H280.845C282.483 109.015 283.508 115.877 283.508 122.945C283.508 130.012 282.483 136.874 280.845 143.429H246.225Z" fill="#283DB1"/>
</mask>
<g mask="url(#mask0_1277_5466)">
<circle cx="200.964" cy="123.547" r="125.921" fill="url(#paint0_linear_1277_5466)" fill-opacity="0.15"/>
</g>
<circle cx="201.919" cy="121.189" r="37.2237" fill="white"/>
<path d="M324.419 44.6344C320.381 44.6344 317.103 47.912 317.103 51.9504C317.103 55.9888 320.381 59.2664 324.419 59.2664C328.458 59.2664 331.735 55.9888 331.735 51.9504C331.735 47.912 328.458 44.6344 324.419 44.6344ZM349.293 30.0024H302.471C299.252 30.0024 296.618 32.6362 296.618 35.8552V70.9719C296.618 74.191 299.252 76.8247 302.471 76.8247H349.293C352.512 76.8247 355.146 74.191 355.146 70.9719V35.8552C355.146 32.6362 352.512 30.0024 349.293 30.0024ZM339.9 71.5865L331.384 63.0707C329.365 64.3583 326.965 65.1191 324.39 65.1191C317.132 65.1191 311.25 59.2371 311.25 51.9504C311.25 44.6637 317.132 38.7816 324.419 38.7816C331.706 38.7816 337.588 44.6637 337.588 51.9504C337.588 54.5256 336.827 56.896 335.539 58.9445L344.055 67.431L339.9 71.5865Z" fill="#FF908D"/>
<path fill-rule="evenodd" clip-rule="evenodd" d="M339.9 71.5865L331.384 63.0707C329.365 64.3583 326.965 65.1191 324.39 65.1191C317.132 65.1191 311.25 59.2371 311.25 51.9504C311.25 44.6637 317.132 38.7816 324.419 38.7816C331.706 38.7816 337.588 44.6637 337.588 51.9504C337.588 54.5256 336.827 56.896 335.539 58.9445L344.055 67.431L339.9 71.5865ZM317.103 51.9504C317.103 47.912 320.381 44.6344 324.419 44.6344C328.458 44.6344 331.735 47.912 331.735 51.9504C331.735 55.9888 328.458 59.2664 324.419 59.2664C320.381 59.2664 317.103 55.9888 317.103 51.9504ZM349.293 30.0024H302.471C299.252 30.0024 296.618 32.6362 296.618 35.8552V70.9719C296.618 74.191 299.252 76.8247 302.471 76.8247H349.293C352.512 76.8247 355.146 74.191 355.146 70.9719V35.8552C355.146 32.6362 352.512 30.0024 349.293 30.0024Z" fill="#FF908D"/>
<path d="M62.8583 55.0466H55.7179V62.187H62.8583V55.0466ZM77.1391 55.0466H69.9987V62.187H77.1391V55.0466ZM91.4199 55.0466H84.2795V62.187H91.4199V55.0466ZM98.5603 30.0552H94.9901V22.9148H87.8497V30.0552H59.2881V22.9148H52.1477V30.0552H48.5776C44.6146 30.0552 41.4729 33.2684 41.4729 37.1956L41.4372 87.1784C41.4372 91.1056 44.6146 94.3188 48.5776 94.3188H98.5603C102.488 94.3188 105.701 91.1056 105.701 87.1784V37.1956C105.701 33.2684 102.488 30.0552 98.5603 30.0552ZM98.5603 87.1784H48.5776V47.9062H98.5603V87.1784Z" fill="#FF908D"/>
<path fill-rule="evenodd" clip-rule="evenodd" d="M94.9901 30.0552H98.5603C102.488 30.0552 105.701 33.2684 105.701 37.1956V87.1784C105.701 91.1056 102.488 94.3188 98.5603 94.3188H48.5776C44.6146 94.3188 41.4372 91.1056 41.4372 87.1784L41.4729 37.1956C41.4729 33.2684 44.6146 30.0552 48.5776 30.0552H52.1477V22.9148H59.2881V30.0552H87.8497V22.9148H94.9901V30.0552ZM48.5776 87.1784H98.5603V47.9062H48.5776V87.1784ZM62.8583 62.187V55.0466H55.7179V62.187H62.8583ZM77.1391 55.0466H69.9987V62.187H77.1391V55.0466ZM91.4199 62.187V55.0466H84.2795V62.187H91.4199Z" fill="#FF908D"/>
<path d="M110.168 64.488L164.877 101.96" stroke="#FF908D" stroke-width="2" stroke-dasharray="12 12"/>
<path d="M168.561 145.419L52.6758 179.131M234.58 145.419L283.664 167.162" stroke="#FF908D" stroke-width="2" stroke-dasharray="12 12"/>
<path d="M237.387 101.172L294.528 49.1245" stroke="#FF908D" stroke-width="2" stroke-dasharray="12 12"/>
<path fill-rule="evenodd" clip-rule="evenodd" d="M33.712 158.764C18.2045 158.764 5.61867 171.349 5.61867 186.857C5.61867 202.364 18.2045 214.95 33.712 214.95C49.2196 214.95 61.8054 202.364 61.8054 186.857C61.8054 171.349 49.2196 158.764 33.712 158.764ZM47.4778 196.662L43.5447 200.595C42.9828 201.156 42.1119 201.156 41.5501 200.595L31.9702 191.015C28.5429 192.223 24.5536 191.492 21.8004 188.739C18.6821 185.621 18.1483 180.901 20.1429 177.221L26.7449 183.823L30.706 179.862L24.1041 173.288C27.8124 171.293 32.504 171.827 35.6224 174.945C38.3755 177.698 39.1059 181.688 37.8979 185.115L47.4778 194.695C48.0115 195.229 48.0115 196.128 47.4778 196.662Z" fill="#FF908D"/>
<path fill-rule="evenodd" clip-rule="evenodd" d="M5.61867 186.857C5.61867 171.349 18.2045 158.764 33.712 158.764C49.2196 158.764 61.8054 171.349 61.8054 186.857C61.8054 202.364 49.2196 214.95 33.712 214.95C18.2045 214.95 5.61867 202.364 5.61867 186.857ZM43.5447 200.595L47.4778 196.662C48.0115 196.128 48.0115 195.229 47.4778 194.695L37.8979 185.115C39.1059 181.688 38.3755 177.698 35.6224 174.945C32.504 171.827 27.8124 171.293 24.1041 173.288L30.706 179.862L26.7449 183.823L20.1429 177.221C18.1483 180.901 18.6821 185.621 21.8004 188.739C24.5536 191.492 28.5429 192.223 31.9702 191.015L41.5501 200.595C42.1119 201.156 42.9828 201.156 43.5447 200.595Z" fill="#FF908D"/>
<path d="M201.919 155.606C221.006 155.606 236.482 140.165 236.482 121.116C236.482 102.066 221.006 86.6254 201.919 86.6254C182.831 86.6254 167.355 102.066 167.355 121.116C167.355 140.165 182.831 155.606 201.919 155.606Z" fill="#FFA7A5" stroke="#FFA7A5"/>
<ellipse cx="202.674" cy="114.318" rx="12.1114" ry="12.0854" fill="white"/>
<mask id="mask1_1277_5466" style="mask-type:alpha" maskUnits="userSpaceOnUse" x="182" y="129" width="39" height="39">
<ellipse cx="201.916" cy="148.308" rx="18.924" ry="18.8835" fill="white"/>
</mask>
<g mask="url(#mask1_1277_5466)">
<ellipse cx="201.919" cy="121.116" rx="34.0632" ry="33.9903" fill="white"/>
</g>
<path d="M352.493 152.583H334.715C332.929 147.613 328.251 144.015 322.722 144.015C317.193 144.015 312.514 147.613 310.728 152.583H292.95C288.272 152.583 284.444 156.439 284.444 161.152V221.131C284.444 224.117 285.981 226.76 288.298 228.295C289.637 229.182 291.237 229.699 292.95 229.699H352.493C357.171 229.699 360.999 225.844 360.999 221.131V161.152C360.999 156.439 357.171 152.583 352.493 152.583ZM322.722 152.583C325.061 152.583 326.975 154.511 326.975 156.867C326.975 159.224 325.061 161.152 322.722 161.152C320.382 161.152 318.469 159.224 318.469 156.867C318.469 154.511 320.382 152.583 322.722 152.583ZM331.228 212.562H301.456V203.994H331.228V212.562ZM343.987 195.425H301.456V186.857H343.987V195.425ZM343.987 178.288H301.456V169.72H343.987V178.288Z" fill="#FF908D"/>
<path fill-rule="evenodd" clip-rule="evenodd" d="M360.999 228.295V161.152C360.999 156.439 357.171 152.583 352.493 152.583H334.715C332.929 147.613 328.251 144.015 322.722 144.015C317.193 144.015 312.514 147.613 310.728 152.583H292.95C288.272 152.583 284.444 156.439 284.444 161.152V221.131C284.444 224.117 285.981 226.76 288.298 228.295H360.999ZM301.456 178.288V169.72H343.987V178.288H301.456ZM326.975 156.867C326.975 154.511 325.061 152.583 322.722 152.583C320.382 152.583 318.469 154.511 318.469 156.867C318.469 159.224 320.382 161.152 322.722 161.152C325.061 161.152 326.975 159.224 326.975 156.867ZM343.987 195.425H301.456V186.857H343.987V195.425ZM301.456 212.562H331.228V203.994H301.456V212.562Z" fill="#FF908D"/>
<path d="M244.87 136.41L230.764 170.755L228.899 170.767L223.772 157.784L210.723 152.845L210.711 150.98L244.87 136.41Z" fill="#616161"/>
<defs>
<linearGradient id="paint0_linear_1277_5466" x1="200.964" y1="-43.3433" x2="200.964" y2="304.897" gradientUnits="userSpaceOnUse">
<stop stop-color="#C36DF8"/>
<stop offset="0.0001" stop-color="#E22F7A"/>
<stop offset="0.510525" stop-color="#475BC5"/>
<stop offset="1" stop-color="#29B14F"/>
</linearGradient>
</defs>
</svg>
