<svg width="13" height="16" viewBox="0 0 13 16" fill="none" xmlns="http://www.w3.org/2000/svg">
<circle cx="6.5" cy="9.5" r="6" stroke="#BDBDBD"/>
<path d="M6.547 6.422C6.38233 6.422 6.235 6.36133 6.105 6.24C5.98367 6.11867 5.923 5.97133 5.923 5.798C5.923 5.62467 5.98367 5.47733 6.105 5.356C6.235 5.23467 6.38233 5.174 6.547 5.174C6.72033 5.174 6.86767 5.23467 6.989 5.356C7.11033 5.47733 7.171 5.62467 7.171 5.798C7.171 5.97133 7.11033 6.11867 6.989 6.24C6.86767 6.36133 6.72033 6.422 6.547 6.422ZM6.456 13.065C6.144 13.065 5.897 12.935 5.715 12.675C5.54167 12.4063 5.416 12.0683 5.338 11.661C5.26867 11.245 5.234 10.8117 5.234 10.361C5.234 9.98833 5.25133 9.62867 5.286 9.282C5.32933 8.92667 5.377 8.619 5.429 8.359C5.48967 8.09033 5.546 7.89967 5.598 7.787C5.65 7.683 5.73233 7.58767 5.845 7.501C5.96633 7.40567 6.12667 7.358 6.326 7.358C6.43867 7.358 6.55133 7.371 6.664 7.397C6.57733 7.70033 6.47333 8.12067 6.352 8.658C6.23067 9.19533 6.17 9.789 6.17 10.439C6.17 10.6643 6.17433 10.907 6.183 11.167C6.19167 11.4183 6.21333 11.6567 6.248 11.882C6.28267 12.0987 6.33467 12.2763 6.404 12.415C6.482 12.5537 6.58167 12.623 6.703 12.623H6.716C6.78533 12.623 6.859 12.5883 6.937 12.519C7.02367 12.4497 7.11467 12.3197 7.21 12.129C7.34 11.8777 7.46133 11.5527 7.574 11.154C7.59133 11.076 7.626 11.037 7.678 11.037C7.72133 11.037 7.743 11.089 7.743 11.193V11.245C7.72567 11.4703 7.665 11.726 7.561 12.012C7.457 12.298 7.30967 12.545 7.119 12.753C6.937 12.961 6.716 13.065 6.456 13.065Z" fill="#BDBDBD"/>
</svg>
