<svg width="current" height="current" viewBox="0 0 78 78" fill="none"
    xmlns="http://www.w3.org/2000/svg">
    <path d="M74.456 38.9995C74.456 58.5805 58.5824 74.454 39.0014 74.454C19.4204 74.454 3.54688 58.5805 3.54688 38.9995C3.54688 19.4185 19.4204 3.54492 39.0014 3.54492C58.5824 3.54492 74.456 19.4185 74.456 38.9995Z" fill="#FFA7A5"/>
    <path fill-rule="evenodd" clip-rule="evenodd" d="M78 39C78 60.5391 60.5391 78 39 78C17.4609 78 0 60.5391 0 39C0 17.4609 17.4609 0 39 0C60.5391 0 78 17.4609 78 39ZM39 74.4545C58.581 74.4545 74.4545 58.581 74.4545 39C74.4545 19.419 58.581 3.54545 39 3.54545C19.419 3.54545 3.54545 19.419 3.54545 39C3.54545 58.581 19.419 74.4545 39 74.4545Z" fill="#FFA7A5"/>
    <ellipse cx="39.7857" cy="31.9088" rx="12.6061" ry="12.6061" fill="#FFEAE9"/>
    <path d="M19.3333 68.5048C19.3117 68.1269 19.3008 67.7462 19.3008 67.363C19.3008 56.4846 28.1194 47.666 38.9977 47.666C49.8761 47.666 58.6947 56.4846 58.6947 67.363C58.6947 67.7466 58.6838 68.1277 58.6621 68.5059C53.035 72.2633 46.2726 74.4539 38.9986 74.4539C31.7238 74.4539 24.9607 72.2629 19.3333 68.5048Z" fill="#FFEAE9"/>
</svg>
