<svg width="current" height="current" viewBox="0 0 20 20" fill="none" xmlns="http://www.w3.org/2000/svg">
    <g id="&#236;&#158;&#160;&#236;&#136;&#152;">
        <path id="Subtract" fill-rule="evenodd" clip-rule="evenodd"
            d="M20 10C20 15.5228 15.5228 20 10 20C4.47715 20 0 15.5228 0 10C0 4.47715 4.47715 0 10 0C15.5228 0 20 4.47715 20 10ZM2.71605 8.14815C2.71605 7.46632 3.26878 6.91358 3.95062 6.91358H6.41975C7.10159 6.91358 7.65432 7.46632 7.65432 8.14815C7.65432 8.82998 7.10159 9.38272 6.41975 9.38272H3.95062C3.26878 9.38272 2.71605 8.82998 2.71605 8.14815ZM13.3333 6.91359C12.6515 6.91359 12.0988 7.46632 12.0988 8.14815C12.0988 8.82999 12.6515 9.38272 13.3333 9.38272H15.8025C16.4843 9.38272 17.037 8.82999 17.037 8.14815C17.037 7.46632 16.4843 6.91359 15.8025 6.91359H13.3333ZM6.03947 13.1309C5.43131 12.8226 5.18823 12.0797 5.49653 11.4715C5.80482 10.8634 6.54775 10.6203 7.15591 10.9286L9.90116 12.3203L12.6464 10.9286C13.2546 10.6203 13.9975 10.8634 14.3058 11.4715C14.6141 12.0797 14.371 12.8226 13.7629 13.1309L12.6316 13.7044L13.7629 14.2779C14.371 14.5862 14.6141 15.3291 14.3058 15.9373C13.9975 16.5454 13.2546 16.7885 12.6464 16.4802L9.90116 15.0885L7.1559 16.4802C6.54775 16.7885 5.80482 16.5454 5.49653 15.9373C5.18823 15.3291 5.43131 14.5862 6.03947 14.2779L7.17076 13.7044L6.03947 13.1309Z"
            fill="currentColor" />
    </g>
</svg>