<svg xmlns="http://www.w3.org/2000/svg" width="current" height="current" viewBox="0 0 28 35" fill="none">
    <path
        d="M14 35C15.925 35 17.5 33.3846 17.5 31.4103H10.5C10.5 33.3846 12.075 35 14 35ZM24.5 24.2308V15.2564C24.5 9.74615 21.6475 5.13333 16.625 3.91282V2.69231C16.625 1.20256 15.4525 0 14 0C12.5475 0 11.375 1.20256 11.375 2.69231V3.91282C6.37 5.13333 3.5 9.72821 3.5 15.2564V24.2308L0 27.8205V29.6154H28V27.8205L24.5 24.2308ZM21 26.0256H7V15.2564C7 10.8051 9.6425 7.17949 14 7.17949C18.3575 7.17949 21 10.8051 21 15.2564V26.0256Z"
        fill="currentColor" />
</svg>