<svg xmlns="http://www.w3.org/2000/svg" width="current" height="current" viewBox="0 0 30 28" fill="none">
    <path d="M18.0688 6.94326C19.6902 5.2922 22.2013 5.17242 23.6776 6.67572C25.1539 8.17902 25.0363 10.7361 23.4149 12.3872C23.4111 12.3911 23.4073 12.395 23.4034 12.3988L9.90118 26.1483M18.0688 6.94326C18.065 6.94714 18.0612 6.95103 18.0574 6.95492M18.0688 6.94326L8.01635 17.1797M10.7351 25.2991L10.7237 25.3108C8.49571 27.5669 4.89351 27.5631 2.67028 25.2991C0.447058 23.0352 0.44324 19.3671 2.65886 17.0983L16.1611 3.3489C16.1649 3.34501 16.1687 3.34113 16.1725 3.33725C19.1693 0.285671 23.9563 0.212759 26.8647 3.17439C29.7731 6.13603 29.7015 11.0107 26.7048 14.0623C26.701 14.0662 26.6972 14.07 26.6933 14.0739L15.6813 25.2875" stroke="currentColor" strokeWidth="2"/>
</svg>