<svg xmlns="http://www.w3.org/2000/svg" width="current" height="current" viewBox="0 0 16 16" fill="none">
    <path d="M12.2074 7.13157L12.7607 7.6379L12.7616 7.63692L12.2074 7.13157ZM12.2017 7.13782L11.6484 6.63149L11.6475 6.63248L12.2017 7.13782ZM5.86183 14.0904L6.41437 14.5976L6.4153 14.5965L5.86183 14.0904ZM1.83514 14.0842L1.28096 14.5895H1.28096L1.83514 14.0842ZM1.82943 9.66834L1.27524 9.16298L1.27385 9.16452L1.82943 9.66834ZM8.58057 2.26479L9.13475 2.77014L9.13546 2.76936L8.58057 2.26479ZM13.8524 8.03353L14.4061 8.53942L14.4066 8.53888L13.8524 8.03353ZM13.8467 8.03979L13.293 7.5339L13.2925 7.53444L13.8467 8.03979ZM8.58627 2.25852L8.03208 1.75317L8.03138 1.75395L8.58627 2.25852ZM11.6541 6.62524L11.6484 6.63149L12.755 7.64415L12.7607 7.6379L11.6541 6.62524ZM11.7846 4.56151C12.2237 5.04298 12.2427 5.97983 11.6533 6.62622L12.7616 7.63692C13.7936 6.50525 13.9302 4.68827 12.893 3.55081L11.7846 4.56151ZM10.0886 4.70557C10.6543 4.08516 11.394 4.13318 11.7846 4.56151L12.893 3.55081C11.8073 2.36019 10.0359 2.53721 8.98021 3.69487L10.0886 4.70557ZM10.0838 4.71086L10.0895 4.70459L8.97932 3.69585L8.97362 3.70212L10.0838 4.71086ZM11.6475 6.63248L5.30764 13.5851L6.41601 14.5958L12.7559 7.64317L11.6475 6.63248ZM5.30928 13.5833L5.30809 13.5846L6.41318 14.5989L6.41437 14.5976L5.30928 13.5833ZM5.30645 13.5864L4.89641 14.036L6.00478 15.0467L6.41482 14.5971L5.30645 13.5864ZM8.98021 3.69487L3.95399 9.20681L5.06236 10.2175L10.0886 4.70557L8.98021 3.69487ZM2.38933 13.5788C1.53844 12.6457 1.53679 11.1075 2.38501 10.1722L1.27385 9.16452C-0.0935498 10.6724 -0.0913786 13.0846 1.28096 14.5895L2.38933 13.5788ZM5.30814 13.5845C4.492 14.4735 3.20382 14.472 2.38933 13.5788L1.28096 14.5895C2.6889 16.1335 5.00114 16.137 6.41313 14.5989L5.30814 13.5845ZM5.31408 13.578L5.30836 13.5843L6.4153 14.5965L6.42102 14.5903L5.31408 13.578ZM2.38362 10.1737L9.13475 2.77014L8.02638 1.75944L1.27525 9.16299L2.38362 10.1737ZM13.2987 7.52764L13.293 7.5339L14.4004 8.54568L14.4061 8.53942L13.2987 7.52764ZM13.3782 2.67618C14.5589 3.97105 14.548 6.1576 13.2982 7.52818L14.4066 8.53888C16.1535 6.62315 16.2142 3.56006 14.4865 1.66548L13.3782 2.67618ZM9.14046 2.76387C10.3579 1.42879 12.2377 1.4255 13.3782 2.67618L14.4865 1.66548C12.7186 -0.2733 9.81138 -0.198069 8.03209 1.75317L9.14046 2.76387ZM9.13546 2.76936L9.14117 2.76309L8.03138 1.75395L8.02567 1.76022L9.13546 2.76936ZM13.2925 7.53444L7.78649 13.5725L8.89486 14.5832L14.4009 8.54514L13.2925 7.53444Z" fill="currentColor"/>
</svg>