<svg width="current" height="current" viewBox="0 0 22 22" fill="none" xmlns="http://www.w3.org/2000/svg">
    <g id="Group 479">
        <path id="Vector 190 (Stroke)" fill-rule="evenodd" clip-rule="evenodd"
            d="M0.568557 0.568557C1.32663 -0.189519 2.55572 -0.189519 3.3138 0.568557L21.4314 18.6862C22.1895 19.4443 22.1895 20.6734 21.4314 21.4314C20.6734 22.1895 19.4443 22.1895 18.6862 21.4314L0.568557 3.3138C-0.189519 2.55572 -0.189519 1.32663 0.568557 0.568557Z"
            fill="currentColor" />
        <path id="Vector 191 (Stroke)" fill-rule="evenodd" clip-rule="evenodd"
            d="M21.4314 0.568557C20.6734 -0.189519 19.4443 -0.189519 18.6862 0.568557L0.568558 18.6862C-0.189518 19.4443 -0.189518 20.6734 0.568558 21.4314C1.32664 22.1895 2.55572 22.1895 3.3138 21.4314L21.4314 3.3138C22.1895 2.55572 22.1895 1.32663 21.4314 0.568557Z"
            fill="currentColor" />
    </g>
</svg>