<svg xmlns="http://www.w3.org/2000/svg" width="current" height="current" viewBox="0 0 30 30" fill="none">
    <circle cx="15" cy="15" r="15" fill="currentColor" />
    <path
        d="M6.99 11.3863C6.60336 11.2013 6.17849 11.5567 6.29218 11.9699L8.40046 19.6331C8.46016 19.8501 8.65749 20.0005 8.88255 20.0005H21.1205C21.3456 20.0005 21.5429 19.8501 21.6026 19.6331L23.7109 11.9699C23.8246 11.5567 23.3997 11.2013 23.0131 11.3863L18.4039 13.5907C18.1746 13.7003 17.8996 13.6206 17.7646 13.4053L15.4251 9.67571C15.2291 9.3633 14.7739 9.3633 14.578 9.67571L12.2385 13.4053C12.1035 13.6206 11.8285 13.7003 11.5992 13.5907L6.99 11.3863Z"
        fill="white" />
</svg>