<svg xmlns="http://www.w3.org/2000/svg" width="current" height="current" viewBox="0 0 11 11" fill="none">
    <path d="M5.5 0C4.77773 0 4.06253 0.145794 3.39524 0.429057C2.72795 0.71232 2.12163 1.12751 1.61091 1.65091C0.579463 2.70796 0 4.14164 0 5.63655C0 8.1279 1.5785 10.2416 3.762 10.9913C4.037 11.0364 4.125 10.8616 4.125 10.7094V9.75687C2.6015 10.0951 2.277 9.00157 2.277 9.00157C2.024 8.34773 1.6665 8.173 1.6665 8.173C1.166 7.82353 1.705 7.8348 1.705 7.8348C2.255 7.87426 2.5465 8.41537 2.5465 8.41537C3.025 9.27212 3.8335 9.01848 4.147 8.8832C4.1965 8.51682 4.3395 8.26882 4.4935 8.1279C3.2725 7.98699 1.991 7.50225 1.991 5.35472C1.991 4.72906 2.2 4.22741 2.5575 3.82722C2.5025 3.6863 2.31 3.1001 2.6125 2.33917C2.6125 2.33917 3.0745 2.18698 4.125 2.9141C4.5595 2.79009 5.0325 2.72809 5.5 2.72809C5.9675 2.72809 6.4405 2.79009 6.875 2.9141C7.9255 2.18698 8.3875 2.33917 8.3875 2.33917C8.69 3.1001 8.4975 3.6863 8.4425 3.82722C8.8 4.22741 9.009 4.72906 9.009 5.35472C9.009 7.50788 7.722 7.98135 6.4955 8.12227C6.6935 8.297 6.875 8.64083 6.875 9.16503V10.7094C6.875 10.8616 6.963 11.042 7.2435 10.9913C9.427 10.236 11 8.1279 11 5.63655C11 4.89635 10.8577 4.16339 10.5813 3.47953C10.3049 2.79568 9.89981 2.17431 9.38909 1.65091C8.87837 1.12751 8.27205 0.71232 7.60476 0.429057C6.93747 0.145794 6.22227 0 5.5 0Z" fill="currentColor"/>
</svg>