<svg xmlns="http://www.w3.org/2000/svg" width="current" height="current" viewBox="0 0 10 10" fill="none">
    <path fill-rule="evenodd" clip-rule="evenodd"
        d="M8.02921 1.09941H2.60231C1.94668 1.09941 1.41518 1.63091 1.41518 2.28655V7.71345C1.41518 8.36909 1.94668 8.90058 2.60231 8.90058H8.02921C8.68485 8.90058 9.21635 8.36909 9.21635 7.71345V2.28655C9.21635 1.63091 8.68485 1.09941 8.02921 1.09941ZM2.60231 0.421051C1.57203 0.421051 0.736816 1.25626 0.736816 2.28655V7.71345C0.736816 8.74373 1.57203 9.57895 2.60231 9.57895H8.02921C9.0595 9.57895 9.89471 8.74373 9.89471 7.71345V2.28655C9.89471 1.25626 9.0595 0.421051 8.02921 0.421051H2.60231Z"
        fill="currentColor" />
    <mask id="mask0_1421_5036" style="mask-type:alpha" maskUnits="userSpaceOnUse" x="0" y="4" width="10" height="4">
        <path fill-rule="evenodd" clip-rule="evenodd"
            d="M6.15426 4.75745C6.55314 4.30305 7.26091 4.30383 7.65878 4.75912L9.6827 7.07509C9.79979 7.20908 9.78609 7.41261 9.65211 7.5297C9.51812 7.64679 9.31459 7.6331 9.1975 7.49911L7.6577 5.73711C7.25982 5.28183 6.55206 5.28105 6.15318 5.73545L4.97379 7.079C4.62109 7.48079 4.01475 7.53409 3.59736 7.2L3.30658 6.96725C2.92336 6.66051 2.37417 6.67726 2.01036 7.00679L1.40819 7.55221C1.27631 7.67166 1.07256 7.66159 0.953105 7.5297C0.833652 7.39782 0.843728 7.19407 0.975611 7.07462L1.98456 6.16076C2.34837 5.83124 2.89756 5.81449 3.28078 6.12123L3.51931 6.31215C3.9367 6.64625 4.54304 6.59294 4.89574 6.19115L6.15426 4.75745Z"
            fill="black" />
    </mask>
    <g mask="url(#mask0_1421_5036)">
        <path
            d="M0.953247 2.37453C0.953247 1.39587 1.74661 0.602509 2.72527 0.602509H7.88023C8.85889 0.602509 9.65225 1.39587 9.65225 2.37453V7.52949C9.65225 8.50815 8.85889 9.30151 7.88023 9.30151H2.72527C1.74661 9.30151 0.953247 8.50815 0.953247 7.52949V2.37453Z"
            fill="currentColor" />
    </g>
    <path
        d="M4.21055 3.10526C4.21055 3.36687 3.99848 3.57894 3.73687 3.57894C3.47526 3.57894 3.26318 3.36687 3.26318 3.10526C3.26318 2.84365 3.47526 2.63158 3.73687 2.63158C3.99848 2.63158 4.21055 2.84365 4.21055 3.10526Z"
        fill="currentColor" />
</svg>