<svg xmlns="http://www.w3.org/2000/svg" width="current" height="current" viewBox="0 0 37 37" fill="none">
    <path fill-rule="evenodd" clip-rule="evenodd"
        d="M26.9417 3.59223H10.0583C6.48717 3.59223 3.59223 6.48717 3.59223 10.0583V26.9417C3.59223 30.5128 6.48717 33.4078 10.0583 33.4078H26.9417C30.5128 33.4078 33.4078 30.5128 33.4078 26.9417V10.0583C33.4078 6.48717 30.5128 3.59223 26.9417 3.59223ZM10.0583 0C4.50323 0 0 4.50323 0 10.0583V26.9417C0 32.4968 4.50323 37 10.0583 37H26.9417C32.4968 37 37 32.4968 37 26.9417V10.0583C37 4.50323 32.4968 0 26.9417 0H10.0583Z"
        fill="currentColor" />
    <path fill-rule="evenodd" clip-rule="evenodd"
        d="M18.5 24.4151C21.7668 24.4151 24.4151 21.7668 24.4151 18.5C24.4151 15.2332 21.7668 12.5849 18.5 12.5849C15.2332 12.5849 12.5849 15.2332 12.5849 18.5C12.5849 21.7668 15.2332 24.4151 18.5 24.4151ZM18.5 28C23.7467 28 28 23.7467 28 18.5C28 13.2533 23.7467 9 18.5 9C13.2533 9 9 13.2533 9 18.5C9 23.7467 13.2533 28 18.5 28Z"
        fill="currentColor" />
    <path
        d="M31 8.5C31 9.88071 29.8807 11 28.5 11C27.1193 11 26 9.88071 26 8.5C26 7.11929 27.1193 6 28.5 6C29.8807 6 31 7.11929 31 8.5Z"
        fill="currentColor" />
</svg>