<svg xmlns="http://www.w3.org/2000/svg" width="current" height="current" viewBox="0 0 11 11" fill="none">
    <path d="M9.77778 0C10.1019 0 10.4128 0.128769 10.642 0.357981C10.8712 0.587192 11 0.898069 11 1.22222V9.77778C11 10.1019 10.8712 10.4128 10.642 10.642C10.4128 10.8712 10.1019 11 9.77778 11H1.22222C0.898069 11 0.587192 10.8712 0.357981 10.642C0.128769 10.4128 0 10.1019 0 9.77778V1.22222C0 0.898069 0.128769 0.587192 0.357981 0.357981C0.587192 0.128769 0.898069 0 1.22222 0H9.77778ZM9.47222 9.47222V6.23333C9.47222 5.70496 9.26233 5.19823 8.88871 4.82462C8.5151 4.451 8.00837 4.24111 7.48 4.24111C6.96056 4.24111 6.35556 4.55889 6.06222 5.03556V4.35722H4.35722V9.47222H6.06222V6.45944C6.06222 5.98889 6.44111 5.60389 6.91167 5.60389C7.13857 5.60389 7.35619 5.69403 7.51664 5.85448C7.67708 6.01492 7.76722 6.23254 7.76722 6.45944V9.47222H9.47222ZM2.37111 3.39778C2.6434 3.39778 2.90454 3.28961 3.09707 3.09707C3.28961 2.90454 3.39778 2.6434 3.39778 2.37111C3.39778 1.80278 2.93944 1.33833 2.37111 1.33833C2.0972 1.33833 1.83451 1.44714 1.64083 1.64083C1.44714 1.83451 1.33833 2.0972 1.33833 2.37111C1.33833 2.93944 1.80278 3.39778 2.37111 3.39778ZM3.22056 9.47222V4.35722H1.52778V9.47222H3.22056Z" fill="currentColor"/>
</svg>