<svg xmlns="http://www.w3.org/2000/svg" width="current" height="current" viewBox="0 0 13 10" fill="none">
    <path fillRule="evenodd" clipRule="evenodd" d="M0 0.517241C0 0.231577 0.231577 0 0.517241 0H5C5.28566 0 5.51724 0.231577 5.51724 0.517241C5.51724 0.802906 5.28566 1.03448 5 1.03448H1.03448V8.96552H8.96552V6.82349C8.96552 6.53783 9.19709 6.30625 9.48276 6.30625C9.76842 6.30625 10 6.53783 10 6.82349V9.48276C10 9.76842 9.76842 10 9.48276 10H0.517241C0.231577 10 0 9.76842 0 9.48276V0.517241Z" fill="currentColor"/>
    <path d="M8.80389 4.7034C8.80389 4.84478 8.95376 4.92865 9.06477 4.8494L12.2354 2.586C12.3334 2.51608 12.3334 2.36393 12.2354 2.294L9.06477 0.0306029C8.95376 -0.048646 8.80389 0.0352273 8.80389 0.176604V1.39239C5.60908 1.56647 3.07812 3.94307 3.07812 6.84931Lnan nanL3.07812 6.84931C3.07812 6.94095 3.20764 6.9496 3.23256 6.86181C3.78444 4.91738 5.75145 3.47916 8.09339 3.47916C8.33458 3.47916 8.57179 3.49441 8.80389 3.5239V4.7034Z" fill="currentColor"/>
</svg>