<svg width="current" height="current" viewBox="0 0 81 26" fill="none" xmlns="http://www.w3.org/2000/svg">
    <g id="Group 458">
        <g id="Group 455">
            <path id="Subtract" fill-rule="evenodd" clip-rule="evenodd"
                d="M1.22708 1.22708C-0.409029 2.86318 -0.409024 5.51584 1.22708 7.15194L11.7498 17.6747C13.3859 19.3108 16.0386 19.3108 17.6747 17.6747C19.3108 16.0386 19.3108 13.3859 17.6747 11.7498L7.15194 1.22708C5.51583 -0.409026 2.86318 -0.409026 1.22708 1.22708ZM5.22412 6.57748C5.97157 6.57748 6.5775 5.97155 6.5775 5.2241C6.5775 4.47665 5.97157 3.87072 5.22412 3.87072C4.47667 3.87072 3.87074 4.47665 3.87074 5.2241C3.87074 5.97155 4.47667 6.57748 5.22412 6.57748Z"
                fill="currentColor" />
            <g id="Subtract_2">
                <path
                    d="M0.0625 8.17888V21.9853C0.0625 24.0781 1.75912 25.7748 3.85197 25.7748H5.47602C7.56888 25.7748 9.26549 24.0781 9.26549 21.9853V17.3819L0.0625 8.17888Z"
                    fill="currentColor" />
                <path
                    d="M16.8417 9.26354H20.9046C22.9974 9.26354 24.694 7.56692 24.694 5.47407V3.85001C24.694 1.75716 22.9974 0.0605469 20.9046 0.0605469H7.63872L16.8417 9.26354Z"
                    fill="currentColor" />
            </g>
        </g>
        <g id="Group 456">
            <path id="Vector"
                d="M27.3691 11.6316H36.565V14.3583H30.4993V17.6877H35.6772V20.4144H30.4993V26.0001H27.3691V11.6316Z"
                fill="currentColor" />
            <path id="Vector_2" d="M41.1621 17.9536H50.9327V19.6778H41.1621V17.9536Z" fill="currentColor" />
            <path id="Vector_3"
                d="M54.3809 23.2734H57.8649V14.3583H54.3809V11.6316H64.7262V14.3583H61.2421V23.2734H64.7262V26.0001H54.3809V23.2734Z"
                fill="currentColor" />
            <path id="Vector_4" d="M73.1327 14.3583H68.752V11.6316H80.8215V14.3583H76.4407V26.0001H73.1327V14.3583Z"
                fill="currentColor" />
        </g>
    </g>
</svg>