<svg width="current" height="current" viewBox="0 0 32 32" fill="none" xmlns="http://www.w3.org/2000/svg">
    <path
        d="M21.991 3.35876C23.2602 2.08955 25.318 2.08955 26.5872 3.35876L28.2173 4.98894C29.4865 6.25814 29.4865 8.31593 28.2173 9.58514L26.7181 11.0844L20.4917 4.85803L21.991 3.35876Z"
        stroke="currentColor" stroke-width="1.5" />
    <mask id="path-2-inside-1_2048_5779" fill="white">
        <path d="M18.623 5.66773L25.9101 12.9548L11.8817 26.9831L3.64413 27.9337L4.5947 19.6961L18.623 5.66773Z" />
    </mask>
    <path
        d="M18.623 5.66773L19.6837 4.60707L18.623 3.5464L17.5624 4.60707L18.623 5.66773ZM25.9101 12.9548L26.9707 14.0154L28.0314 12.9548L26.9707 11.8941L25.9101 12.9548ZM11.8817 26.9831L12.0537 28.4732L12.5729 28.4133L12.9424 28.0438L11.8817 26.9831ZM4.5947 19.6961L3.53404 18.6354L3.16449 19.005L3.10458 19.5241L4.5947 19.6961ZM3.64413 27.9337L2.15402 27.7617C2.10153 28.2166 2.25969 28.6706 2.58347 28.9943C2.90726 29.3181 3.3612 29.4763 3.81608 29.4238L3.64413 27.9337ZM17.5624 6.72839L24.8494 14.0154L26.9707 11.8941L19.6837 4.60707L17.5624 6.72839ZM24.8494 11.8941L10.8211 25.9225L12.9424 28.0438L26.9707 14.0154L24.8494 11.8941ZM5.65536 20.7567L19.6837 6.72839L17.5624 4.60707L3.53404 18.6354L5.65536 20.7567ZM11.7098 25.493L3.47219 26.4436L3.81608 29.4238L12.0537 28.4732L11.7098 25.493ZM5.13425 28.1056L6.08481 19.868L3.10458 19.5241L2.15402 27.7617L5.13425 28.1056Z"
        fill="currentColor" mask="url(#path-2-inside-1_2048_5779)" />
</svg>