<svg xmlns="http://www.w3.org/2000/svg" width="current" height="current" viewBox="0 0 20 20" fill="none">
    <path d="M18.1156 13.678C17.9763 14.7366 17.4564 15.7083 16.6531 16.4116C15.8497 17.1149 14.8177 17.5018 13.75 17.4998C7.54688 17.4998 2.50001 12.453 2.50001 6.24984C2.49809 5.1821 2.88492 4.15017 3.58824 3.34679C4.29155 2.54341 5.26326 2.02352 6.32188 1.88422C6.58958 1.85153 6.86067 1.9063 7.09468 2.04034C7.3287 2.17438 7.51308 2.38052 7.62032 2.62797L9.27032 6.31156V6.32094C9.35242 6.51035 9.38632 6.71715 9.36901 6.92287C9.3517 7.12859 9.2837 7.32681 9.1711 7.49984C9.15704 7.52094 9.14219 7.54047 9.12657 7.56L7.50001 9.48812C8.08516 10.6772 9.32891 11.91 10.5336 12.4967L12.4352 10.8787C12.4538 10.8631 12.4734 10.8484 12.4938 10.835C12.6666 10.7197 12.8655 10.6493 13.0725 10.6302C13.2794 10.6111 13.4878 10.6439 13.6789 10.7256L13.6891 10.7303L17.3695 12.3795C17.6174 12.4864 17.8241 12.6706 17.9585 12.9047C18.093 13.1387 18.1481 13.41 18.1156 13.678Z" fill="currentColor"/>
</svg>