<svg width="current" height="current" viewBox="0 0 15 20" fill="none" xmlns="http://www.w3.org/2000/svg">
    <g id="Run">
        <path id="Vector"
            d="M9.86047 3.72093C10.8837 3.72093 11.7209 2.88372 11.7209 1.86047C11.7209 0.837209 10.8837 0 9.86047 0C8.83721 0 8 0.837209 8 1.86047C8 2.88372 8.83721 3.72093 9.86047 3.72093ZM6.51163 16.6512L7.44186 12.5581L9.39535 14.4186V20H11.2558V13.0233L9.30233 11.1628L9.86047 8.37209C11.0698 9.76744 12.9302 10.6977 14.9767 10.6977V8.83721C13.2093 8.83721 11.7209 7.90698 10.9767 6.60465L10.0465 5.11628C9.67442 4.55814 9.11628 4.18605 8.46512 4.18605C8.18605 4.18605 8 4.27907 7.72093 4.27907L2.88372 6.32558V10.6977H4.74419V7.53488L6.4186 6.88372L4.93023 14.4186L0.372093 13.4884L0 15.3488L6.51163 16.6512Z"
            fill="current" />
    </g>
</svg>