<svg xmlns="http://www.w3.org/2000/svg" width="current" height="current" viewBox="0 0 11 11" fill="none">
    <path fill-rule="evenodd" clip-rule="evenodd" d="M5.5 11C8.53757 11 11 8.53757 11 5.5C11 2.46243 8.53757 0 5.5 0C2.46243 0 0 2.46243 0 5.5C0 8.53757 2.46243 11 5.5 11ZM3.38462 4.65385C3.85193 4.65385 4.23077 4.27501 4.23077 3.80769C4.23077 3.34037 3.85193 2.96154 3.38462 2.96154C2.9173 2.96154 2.53846 3.34037 2.53846 3.80769C2.53846 4.27501 2.9173 4.65385 3.38462 4.65385ZM6.34615 3.80769C6.34615 4.27501 5.96732 4.65385 5.5 4.65385C5.03268 4.65385 4.65385 4.27501 4.65385 3.80769C4.65385 3.34037 5.03268 2.96154 5.5 2.96154C5.96732 2.96154 6.34615 3.34037 6.34615 3.80769ZM7.61538 4.65385C8.0827 4.65385 8.46154 4.27501 8.46154 3.80769C8.46154 3.34037 8.0827 2.96154 7.61538 2.96154C7.14807 2.96154 6.76923 3.34037 6.76923 3.80769C6.76923 4.27501 7.14807 4.65385 7.61538 4.65385ZM6.34615 6.34615C6.34615 6.81347 5.96732 7.19231 5.5 7.19231C5.03268 7.19231 4.65385 6.81347 4.65385 6.34615C4.65385 5.87884 5.03268 5.5 5.5 5.5C5.96732 5.5 6.34615 5.87884 6.34615 6.34615ZM5.5 9.30769C5.96732 9.30769 6.34615 8.92886 6.34615 8.46154C6.34615 7.99422 5.96732 7.61538 5.5 7.61538C5.03268 7.61538 4.65385 7.99422 4.65385 8.46154C4.65385 8.92886 5.03268 9.30769 5.5 9.30769Z" fill="currentColor"/>
</svg>