<svg xmlns="http://www.w3.org/2000/svg" width="current" height="current" viewBox="0 0 22 21" fill="none">
    <circle cx="10.8242" cy="10.5" r="9.9" stroke="#E0E0E0" stroke-width="1.2"/>
    <path d="M10.2242 14.2071C10.2242 14.5385 10.4928 14.8071 10.8242 14.8071C11.1556 14.8071 11.4242 14.5385 11.4242 14.2071L10.2242 14.2071ZM11.2485 5.75347C11.0142 5.51916 10.6343 5.51916 10.4 5.75347L6.58158 9.57185C6.34726 9.80616 6.34726 10.1861 6.58158 10.4204C6.81589 10.6547 7.19579 10.6547 7.43011 10.4204L10.8242 7.02626L14.2183 10.4204C14.4526 10.6547 14.8325 10.6547 15.0669 10.4204C15.3012 10.1861 15.3012 9.80616 15.0669 9.57185L11.2485 5.75347ZM11.4242 14.2071L11.4242 6.17773L10.2242 6.17773L10.2242 14.2071L11.4242 14.2071Z" fill="#E0E0E0"/>
</svg>