<svg xmlns="http://www.w3.org/2000/svg" width="current" height="current" viewBox="0 0 25 20" fill="none">
    <path d="M11.9931 12.763C8.47394 12.763 5.60742 9.89652 5.60742 6.37739C5.60742 2.85826 8.47394 0 11.9931 0C15.5122 0 18.3787 2.86652 18.3787 6.38565C18.3787 9.90478 15.5122 12.7713 11.9931 12.7713V12.763ZM11.9931 1.65217C9.38264 1.65217 7.2596 3.77522 7.2596 6.38565C7.2596 8.99609 9.38264 11.1191 11.9931 11.1191C14.6035 11.1191 16.7266 8.99609 16.7266 6.38565C16.7266 3.77522 14.6035 1.65217 11.9931 1.65217Z" fill="white"/>
    <path fill-rule="evenodd" clip-rule="evenodd" d="M12.1524 13.3913C7.56602 13.3913 3.65858 15.9 1.89562 19.4453C1.64971 19.9398 1.04947 20.1413 0.554957 19.8954C0.0604414 19.6495 -0.141091 19.0492 0.104821 18.5547C2.22108 14.2991 6.84187 11.3913 12.1524 11.3913C17.4629 11.3913 22.0837 14.2991 24.2 18.5547C24.4459 19.0492 24.2443 19.6495 23.7498 19.8954C23.2553 20.1413 22.6551 19.9398 22.4092 19.4453C20.6462 15.9 16.7388 13.3913 12.1524 13.3913Z" fill="white"/>
</svg>