<svg width="current" height="current" viewBox="-1 0 38 38" fill="none" xmlns="http://www.w3.org/2000/svg">
    <path fill-rule="evenodd" clip-rule="evenodd"
        d="M1.789 1.8091C-0.596338 4.22125 -0.59633 8.1321 1.78901 10.5442L17.1305 26.0581C19.5158 28.4702 23.3832 28.4702 25.7685 26.0581C28.1539 23.646 28.1539 19.7351 25.7685 17.323L10.4271 1.80911C8.04173 -0.603035 4.17434 -0.603035 1.789 1.8091ZM7.61643 9.69731C8.70617 9.69731 9.58957 8.80398 9.58957 7.702C9.58957 6.60001 8.70617 5.70668 7.61643 5.70668C6.52669 5.70668 5.64329 6.60001 5.64329 7.702C5.64329 8.80398 6.52669 9.69731 7.61643 9.69731Z"
        fill="currentColor" />
    <path
        d="M0.0898438 12.0581V32.4132C0.0898438 35.4987 2.5634 38.0001 5.61465 38.0001H7.98242C11.0337 38.0001 13.5072 35.4987 13.5072 32.4132V25.6263L0.0898438 12.0581Z"
        fill="currentColor" />
    <path
        d="M24.5529 13.6573H30.4762C33.5275 13.6573 36.001 11.1559 36.001 8.07037V5.67599C36.001 2.59047 33.5275 0.0891113 30.4762 0.0891113H11.1355L24.5529 13.6573Z"
        fill="currentColor" />
</svg>