<svg width="1920" height="2007" viewBox="0 0 1920 2007" fill="none" xmlns="http://www.w3.org/2000/svg">
<g filter="url(#filter0_f_1752_5797)">
<path d="M-117.875 1373.32C-20.6174 1347.87 48.6876 1233.18 136.003 1169.63C214.926 1112.24 307.393 1098.08 396.87 1103.25C486.347 1108.43 574.635 1131.73 663.68 1144.72C703.411 1150.54 744.187 1154.15 782.838 1140.47C827 1124.84 865.147 1087.87 901.637 1050.7C1007.29 943.093 1110.81 825.963 1234.15 761.83C1370.6 690.908 1522.57 690.371 1666.19 726.906C1809.81 763.442 1947.05 835.341 2083.32 906.899" stroke="#231815" stroke-miterlimit="10"/>
<path d="M-120.828 1349.38C-28.6135 1328.09 39.899 1226.93 121.451 1162.75C125.594 1159.47 129.772 1156.35 133.987 1153.27C212.837 1096.22 304.188 1083.28 392.404 1080.79C464.158 1078.73 535.481 1088.84 608.244 1100.96C626.975 1104.08 645.634 1107.41 664.293 1110.63C704.817 1117.57 746.061 1123.72 784.892 1113.41C829.343 1101.84 867.705 1070.19 904.483 1038.29C943.926 1004.2 983.118 968.785 1023.53 934.691C1060.42 903.528 1098.53 873.44 1138.48 844.671C1151.84 835.048 1165.49 825.475 1178.89 815.657C1187.07 809.649 1195.1 803.641 1203.17 797.878C1216.1 788.597 1229.14 779.805 1242.36 771.648C1281.91 747.177 1322.22 728.567 1363.21 715.233C1417.71 697.404 1473.48 688.612 1530.46 687.342C1574.16 686.365 1618.71 689.785 1663.24 698.186C1676.56 700.677 1689.89 703.656 1703.26 707.027C1747.63 718.31 1791.72 734.673 1835.02 753.527C1921.73 791.284 2005.84 839.102 2089.19 887.068" stroke="url(#paint0_linear_1752_5797)" stroke-miterlimit="10"/>
<path d="M-123.82 1325.45C-31.9659 1307.08 37.8074 1209.78 119.432 1146.33C123.574 1143.11 127.753 1139.99 131.931 1136.96C210.674 1080.25 300.979 1063.2 387.899 1058.37C460.338 1054.36 532.452 1054.8 607.305 1066.28C626.576 1069.21 645.775 1072.82 664.831 1076.63C706.147 1084.74 747.824 1093.19 786.835 1086.45C831.537 1078.73 870.152 1052.55 907.254 1026.03C947.022 997.652 986.609 967.954 1027.85 938.941C1065.46 912.418 1104.83 886.579 1146.36 859.275C1160.27 850.141 1174.5 840.714 1188.08 830.262C1196.36 823.863 1204.32 817.269 1212.25 810.821C1224.96 800.515 1237.68 790.697 1250.47 781.417C1288.79 753.722 1327.26 731.4 1366.38 714.158C1418.36 691.201 1471.6 676.645 1527.4 669.758C1570.19 664.483 1614.82 663.653 1660.17 669.368C1673.75 671.077 1687.4 673.324 1701.13 676.255C1746.77 685.926 1792.3 702.728 1836.68 722.657C1925.54 762.563 2010.84 814.68 2094.91 867.237" stroke="url(#paint1_linear_1752_5797)" stroke-miterlimit="10"/>
<path d="M-126.809 1301.51C-35.3144 1286.08 35.7197 1192.69 117.38 1129.92C121.522 1126.75 125.701 1123.62 129.879 1120.64C208.55 1064.28 297.847 1045.52 383.434 1035.95C456.593 1027.74 529.428 1020.76 606.37 1031.6C626.217 1034.38 645.885 1038.24 665.408 1042.59C707.517 1051.82 749.698 1062.71 788.854 1059.44C833.844 1055.68 872.675 1034.92 910.101 1013.67C950.229 990.96 990.213 967.026 1032.25 943.141C1070.61 921.259 1111.24 899.621 1154.33 873.88C1168.73 865.234 1183.58 856.003 1197.37 844.866C1205.76 838.077 1213.62 830.848 1221.4 823.814C1233.86 812.531 1246.25 801.639 1258.68 791.284C1295.82 760.316 1332.42 734.282 1369.66 713.181C1419.15 685.047 1469.8 664.825 1524.41 652.321C1566.3 642.747 1611 637.668 1657.18 640.647C1671.02 641.526 1684.99 643.138 1699.11 645.531C1745.98 653.591 1792.95 670.882 1838.44 691.836C1929.5 733.842 2015.96 790.258 2100.71 847.406" stroke="url(#paint2_linear_1752_5797)" stroke-miterlimit="10"/>
<path d="M-129.762 1277.58C-38.6278 1265.08 33.6671 1175.59 115.363 1113.51C119.506 1110.39 123.684 1107.31 127.863 1104.28C206.461 1048.25 294.786 1027.69 378.967 1013.48C452.883 1001.02 526.439 986.662 605.47 996.87C625.858 999.508 646.066 1003.61 666.021 1008.54C708.923 1018.95 751.572 1031.7 790.907 1032.43C836.186 1033.21 875.233 1017.24 912.984 1001.32C953.472 984.317 993.815 966.098 1036.68 947.293C1075.76 930.1 1117.66 912.662 1162.32 888.436C1177.27 880.327 1192.73 871.193 1206.67 859.422C1215.17 852.242 1222.91 844.378 1230.58 836.709C1242.83 824.449 1254.9 812.482 1266.89 801.004C1302.84 766.764 1337.6 737.066 1372.94 712.107C1419.91 678.795 1468.04 652.858 1521.46 634.786C1562.45 620.914 1607.22 611.584 1654.23 611.878C1668.31 611.926 1682.62 612.854 1697.13 614.759C1745.26 621.207 1793.67 638.937 1840.21 660.966C1933.43 705.073 2021.04 765.787 2106.55 827.575" stroke="url(#paint3_linear_1752_5797)" stroke-miterlimit="10"/>
<path d="M-132.75 1253.65C-41.9763 1244.07 31.5793 1158.45 113.312 1097.1C117.454 1093.97 121.633 1090.94 125.811 1087.97C204.338 1032.28 291.725 1009.72 374.466 991.058C449.211 974.206 523.379 952.617 604.535 962.191C625.499 964.633 646.211 969.029 666.599 974.499C710.329 986.027 753.447 1001.75 792.926 1005.37C838.529 1009.57 877.756 999.557 915.831 988.909C956.679 977.626 997.419 965.121 1041.08 951.445C1080.88 938.892 1124.03 925.655 1170.29 902.942C1185.74 895.322 1201.8 886.335 1215.96 873.928C1224.57 866.358 1232.24 857.859 1239.73 849.604C1251.73 836.318 1263.47 823.326 1275.11 810.772C1309.83 773.26 1342.76 739.85 1376.22 711.032C1420.71 672.542 1466.24 640.94 1518.5 617.25C1558.56 599.031 1603.41 585.501 1651.28 583.059C1665.61 582.326 1680.28 582.571 1695.15 583.987C1744.5 588.823 1794.39 607.042 1842.01 630.096C1937.43 676.303 2026.19 741.364 2112.42 807.695" stroke="url(#paint4_linear_1752_5797)" stroke-miterlimit="10"/>
<path d="M-135.742 1229.71C-45.3286 1223.12 29.4877 1141.35 111.256 1080.64C115.399 1077.56 119.577 1074.53 123.755 1071.6C202.21 1016.26 288.697 991.546 369.961 968.589C445.534 947.244 520.35 918.524 603.56 927.462C625.064 929.758 646.281 934.398 667.101 940.455C711.624 953.155 755.209 971.276 794.833 978.358C840.724 986.564 880.167 981.924 918.566 976.551C959.775 970.983 1000.91 964.193 1045.4 955.646C1085.92 947.733 1130.37 938.745 1178.17 917.547C1194.17 910.464 1210.81 901.623 1225.14 888.533C1233.86 880.571 1241.43 871.437 1248.77 862.548C1260.55 848.285 1271.97 834.218 1283.17 820.541C1316.71 779.756 1347.8 742.683 1379.35 709.957C1421.32 666.339 1464.33 628.973 1515.4 599.666C1554.56 577.149 1599.48 559.321 1648.14 554.241C1662.73 552.678 1677.72 552.238 1692.99 553.166C1743.56 556.39 1794.93 575.049 1843.63 599.178C1941.21 647.485 2031.12 716.844 2118.08 787.816" stroke="url(#paint5_linear_1752_5797)" stroke-miterlimit="10"/>
<path d="M-138.695 1205.83C-48.642 1202.16 27.4351 1124.31 109.239 1064.28C113.382 1061.25 117.56 1058.22 121.739 1055.29C200.121 1000.29 285.708 973.23 365.495 946.121C441.932 920.184 517.325 884.43 602.66 892.734C624.741 894.883 646.462 899.816 667.714 906.361C712.993 920.331 757.119 940.797 796.887 951.298C843.102 963.509 882.725 964.193 921.448 964.144C962.981 964.242 1004.51 963.216 1049.83 959.748C1091.11 956.476 1136.78 951.689 1186.17 932.005C1202.67 925.411 1219.96 916.716 1234.44 903.04C1243.26 894.688 1250.76 884.967 1257.96 875.443C1269.52 860.154 1280.62 845.061 1291.42 830.31C1323.73 786.301 1352.98 745.467 1382.67 708.932C1422.11 660.136 1462.56 617.104 1512.45 582.18C1550.7 555.364 1595.7 533.287 1645.19 525.471C1660.03 523.078 1675.34 522.003 1691.01 522.443C1742.84 524.055 1795.65 543.202 1845.43 568.357C1945.17 618.765 2036.27 692.422 2123.95 767.985" stroke="url(#paint6_linear_1752_5797)" stroke-miterlimit="10"/>
<path d="M-141.684 1181.89C-52.0265 1181.16 25.3473 1107.21 107.224 1047.86C111.366 1044.84 115.545 1041.91 119.723 1038.97C198.034 984.317 282.72 954.815 361.066 923.701C438.368 893.027 514.373 850.386 601.797 858.054C624.454 860.008 646.643 865.234 668.364 872.366C714.435 887.507 759.066 910.416 798.977 924.336C845.481 940.553 885.321 946.609 924.368 951.885C966.261 957.697 1008.19 962.386 1054.3 964.047C1096.3 965.463 1143.23 964.877 1194.17 946.707C1211.21 940.602 1229.07 932.103 1243.77 917.742C1252.7 908.999 1260.09 898.644 1267.15 888.484C1278.46 872.219 1289.23 856.051 1299.64 840.177C1330.76 792.895 1358.17 748.398 1385.95 707.955C1422.9 653.982 1460.8 605.235 1509.5 564.742C1546.85 533.628 1591.92 507.301 1642.24 496.8C1657.37 493.576 1672.96 491.818 1688.99 491.769C1742.05 491.769 1796.34 511.355 1847.2 537.585C1949.14 590.093 2041.39 668.098 2129.75 748.252" stroke="url(#paint7_linear_1752_5797)" stroke-miterlimit="10"/>
<path d="M-144.676 1157.96C-55.3789 1160.16 23.2557 1090.07 105.168 1031.45C109.311 1028.47 113.489 1025.54 117.668 1022.61C195.906 968.345 279.655 936.205 356.561 901.233C433.467 866.26 511.345 816.292 600.822 823.326C624.019 825.133 646.749 830.603 668.902 838.272C715.766 854.537 760.864 879.936 800.92 897.276C847.712 917.498 887.768 928.879 927.103 939.478C969.356 951.005 1011.64 961.409 1058.58 968.199C1101.3 974.255 1149.53 977.87 1202.02 961.214C1219.56 955.646 1238.04 947.244 1252.92 932.249C1261.99 923.115 1269.23 912.125 1276.19 901.379C1287.28 884.088 1297.73 866.895 1307.74 849.946C1337.67 799.392 1363.21 751.182 1389.11 706.929C1423.55 647.778 1458.89 593.317 1506.43 547.256C1542.89 511.844 1588.02 481.267 1639.17 468.03C1654.55 464.025 1670.47 461.583 1686.9 461.045C1741.22 459.434 1796.91 479.509 1848.89 506.764C1952.99 561.372 2046.39 643.675 2135.51 728.469" stroke="url(#paint8_linear_1752_5797)" stroke-miterlimit="10"/>
<path d="M-147.629 1134.03C-58.6922 1139.15 21.2031 1072.97 103.152 1014.99C107.294 1012.06 111.472 1009.13 115.651 1006.25C193.817 952.324 276.63 917.449 352.095 878.764C431.054 838.272 508.319 782.198 599.922 788.597C623.696 790.258 646.894 795.973 669.479 804.227C717.135 821.665 762.738 849.506 802.938 870.216C850.054 894.492 890.29 911.197 929.949 927.072C972.562 944.314 1015.25 960.432 1062.98 972.302C1106.45 982.999 1155.91 990.814 1209.98 975.721C1228.06 970.641 1247.12 962.435 1262.17 946.756C1271.36 937.231 1278.53 925.606 1285.3 914.225C1296.18 895.958 1306.3 877.69 1315.88 859.617C1344.59 805.79 1368.29 753.918 1392.35 705.757C1424.31 641.477 1457.09 581.301 1503.44 529.574C1539 489.864 1584.2 455.038 1636.18 439.114C1651.82 434.279 1668.06 431.153 1684.88 430.127C1740.43 426.903 1797.59 447.418 1850.62 475.748C1956.92 532.456 2051.47 619.058 2141.31 708.443" stroke="url(#paint9_linear_1752_5797)" stroke-miterlimit="10"/>
<path d="M-150.617 1110.09C-62.0407 1118.15 19.1153 1055.87 101.1 998.58C105.242 995.698 109.421 992.768 113.599 989.935C191.694 936.352 273.534 898.644 347.594 856.345C427.345 810.773 505.295 748.154 598.987 753.918C623.301 755.383 647.039 761.391 670.057 770.183C718.541 788.744 764.577 819.076 804.957 843.206C852.361 871.535 892.813 893.564 932.796 914.714C975.734 937.622 1018.85 959.504 1067.37 976.502C1111.57 991.888 1162.29 1003.9 1217.94 990.277C1236.53 985.734 1256.23 977.626 1271.47 961.312C1280.76 951.396 1287.82 939.136 1294.45 927.169C1305.08 907.876 1314.87 888.582 1324.1 869.435C1351.62 812.336 1373.48 756.751 1395.63 704.731C1425.06 635.274 1455.29 569.383 1500.46 512.088C1535.11 468.079 1580.39 429.004 1633.16 410.345C1649.04 404.679 1665.61 400.918 1682.83 399.404C1739.64 394.568 1798.25 415.571 1852.35 444.927C1960.81 503.736 2056.52 594.684 2147.08 688.661" stroke="url(#paint10_linear_1752_5797)" stroke-miterlimit="10"/>
<path d="M-153.609 1086.16C-65.3931 1097.15 17.0237 1038.73 99.0442 982.168C103.223 979.286 107.365 976.453 111.544 973.572C189.566 920.331 270.398 879.692 343.089 833.876C423.596 783.126 502.231 714.06 598.012 719.189C622.902 720.508 647.145 726.662 670.595 736.138C719.908 755.725 766.411 788.695 806.899 816.194C854.592 848.578 895.26 875.882 935.568 902.356C978.865 930.979 1022.34 958.576 1071.69 980.703C1116.61 1000.73 1168.63 1016.95 1225.83 1004.88C1244.95 1000.83 1265.23 992.865 1280.65 975.916C1290.05 965.61 1297.04 952.764 1303.53 940.113C1313.94 919.842 1323.41 899.474 1332.2 879.204C1358.49 818.881 1378.52 759.535 1398.8 703.705C1425.71 629.071 1453.41 557.513 1497.39 494.602C1531.14 446.294 1576.5 402.969 1630.09 381.624C1646.23 375.177 1663.13 370.683 1680.74 368.68C1738.77 362.233 1798.85 383.676 1854.04 414.057C1964.66 474.966 2061.56 570.213 2152.84 668.781" stroke="url(#paint11_linear_1752_5797)" stroke-miterlimit="10"/>
<path d="M-156.562 1062.22C-68.7065 1076.15 14.9711 1021.63 97.0277 965.756C101.206 962.923 105.349 960.09 109.527 957.257C187.441 904.359 267.228 860.692 338.659 811.456C419.887 755.432 499.278 680.016 597.148 684.509C622.579 685.682 647.326 692.08 671.244 702.093C721.349 722.852 768.321 758.265 808.989 789.183C856.97 825.621 897.89 858.25 938.486 889.998C982.144 924.336 1026.02 957.648 1076.16 984.855C1121.8 1009.52 1175.07 1029.99 1233.86 1019.44C1253.49 1015.87 1274.38 1008.1 1289.98 990.472C1299.49 979.726 1306.37 966.294 1312.71 953.057C1322.91 931.761 1332.05 910.367 1340.45 889.022C1365.55 825.426 1383.75 762.416 1402.12 702.68C1426.54 622.867 1451.65 545.595 1494.48 477.115C1527.33 424.51 1572.71 376.935 1627.18 352.855C1643.57 345.577 1660.82 340.448 1678.8 337.957C1738.05 329.849 1799.61 351.829 1855.88 383.236C1968.7 446.245 2066.71 545.791 2158.74 648.999" stroke="url(#paint12_linear_1752_5797)" stroke-miterlimit="10"/>
<path d="M-159.551 1038.29C-72.055 1055.14 12.8833 1004.54 95.012 949.296C99.1904 946.512 103.333 943.679 107.511 940.894C185.353 888.338 264.06 841.593 334.194 788.988C416.07 727.541 496.254 645.922 596.249 649.781C622.256 650.758 647.507 657.449 671.822 668.049C722.72 689.931 770.16 727.883 811.008 762.172C859.277 802.664 900.413 840.568 941.333 877.69C985.351 917.742 1029.62 956.769 1080.59 989.104C1126.99 1018.41 1181.49 1043.08 1241.86 1034.04C1262.03 1031.01 1283.54 1023.34 1299.31 1005.13C1308.93 993.989 1315.7 979.921 1321.93 966.049C1331.88 943.776 1340.7 921.308 1348.7 898.839C1372.58 831.971 1388.93 765.249 1405.43 701.654C1427.33 616.713 1449.92 533.726 1491.56 459.58C1523.51 402.676 1568.97 350.803 1624.26 324.085C1640.9 315.977 1658.48 310.164 1676.82 307.185C1737.33 297.465 1800.33 319.885 1857.68 352.366C1972.66 417.525 2071.86 521.368 2164.58 629.12" stroke="url(#paint13_linear_1752_5797)" stroke-miterlimit="10"/>
<path d="M-162.543 1014.36C-75.4074 1034.14 10.7917 987.395 92.9563 932.884C97.1348 930.1 101.277 927.316 105.456 924.532C183.226 872.317 260.78 822.446 329.689 766.519C412.141 699.602 493.225 611.78 595.274 615.052C621.858 615.883 647.613 622.819 672.36 633.955C724.05 657.01 771.958 697.453 812.951 735.064C861.507 779.61 902.86 822.837 944.104 865.234C988.483 911.002 1033.11 955.743 1084.91 993.207C1132.03 1027.2 1187.82 1056.07 1249.75 1048.55C1270.42 1046.01 1292.54 1038.53 1308.5 1019.63C1318.22 1008.1 1324.92 993.402 1330.97 978.944C1340.7 955.646 1349.2 932.151 1356.8 908.608C1379.49 838.468 1394.01 768.082 1408.6 700.628C1428.01 610.51 1448.01 521.808 1488.46 442.094C1519.51 380.891 1565.04 324.769 1621.16 295.316C1638.06 286.377 1655.96 279.93 1674.69 276.462C1736.43 265.13 1800.87 288.038 1859.33 321.545C1976.48 388.804 2076.87 496.946 2170.31 609.338" stroke="url(#paint14_linear_1752_5797)" stroke-miterlimit="10"/>
<path d="M-165.496 990.472C-78.7207 1013.23 8.73909 970.348 90.9398 916.521C95.1182 913.786 99.2607 911.05 103.439 908.266C181.137 856.393 257.502 803.299 325.222 744.148C408.216 671.663 490.2 577.784 594.374 580.421C621.498 581.105 647.757 588.285 672.972 600.008C725.456 624.186 773.832 667.169 815.005 708.15C863.849 756.799 905.418 805.302 946.987 852.974C991.689 904.408 1036.75 954.913 1089.34 997.456C1137.18 1036.09 1194.24 1069.16 1257.74 1063.15C1278.96 1061.15 1301.65 1053.77 1317.83 1034.24C1327.66 1022.32 1334.25 1007.03 1340.2 991.888C1349.71 967.612 1357.85 943.044 1365.05 918.377C1386.55 844.964 1399.2 770.866 1411.91 699.553C1428.81 604.258 1446.28 509.89 1485.54 424.558C1515.69 359.058 1561.29 298.686 1618.21 266.546C1635.39 256.826 1653.58 249.646 1672.71 245.69C1735.71 232.746 1801.59 256.094 1861.1 290.675C1980.44 360.035 2081.95 472.475 2176.14 589.458" stroke="url(#paint15_linear_1752_5797)" stroke-miterlimit="10"/>
<path d="M-168.484 966.538C-82.0692 992.23 6.65131 953.252 88.888 900.109C93.0665 897.423 97.2089 894.688 101.387 891.952C179.013 840.421 254.118 784.103 320.721 721.729C404.147 643.578 487.176 543.739 593.439 545.742C621.139 546.23 647.903 553.704 673.55 565.964C726.826 591.314 775.671 636.739 817.023 681.139C866.12 733.842 907.941 787.62 949.834 840.617C994.896 897.765 1040.32 953.985 1093.74 1001.66C1142.3 1044.93 1200.61 1082.25 1265.7 1077.76C1287.43 1076.24 1310.77 1069.06 1327.09 1048.84C1337.03 1036.53 1343.55 1020.61 1349.31 1004.88C1358.57 979.579 1366.42 953.985 1373.23 928.244C1393.51 851.607 1404.31 773.797 1415.16 698.577C1429.57 598.103 1444.44 498.021 1482.55 407.121C1511.77 337.322 1557.48 272.701 1615.22 237.826C1632.65 227.275 1651.17 219.46 1670.69 215.015C1734.92 200.46 1802.28 224.296 1862.87 259.903C1984.37 331.363 2087.06 448.15 2181.94 569.725" stroke="url(#paint16_linear_1752_5797)" stroke-miterlimit="10"/>
<path d="M-171.477 942.604C-85.4216 971.227 4.55968 936.157 86.8324 883.697C91.0109 881.06 95.1533 878.325 99.2958 875.589C176.85 824.4 250.657 764.81 316.216 699.26C400.038 615.394 484.112 509.646 592.464 511.013C620.705 511.355 648.009 519.073 674.052 531.919C728.12 558.393 777.433 606.358 818.966 654.128C868.351 710.885 910.388 769.987 952.569 828.259C997.992 891.122 1043.81 953.057 1098.02 1005.86C1147.34 1053.82 1206.88 1095.29 1273.56 1092.31C1295.82 1091.34 1319.73 1084.25 1336.23 1063.4C1346.28 1050.7 1352.69 1034.14 1358.31 1017.78C1367.35 991.497 1374.88 964.828 1381.26 937.964C1400.35 858.054 1409.32 776.532 1418.25 697.502C1430.14 591.9 1442.5 486.103 1479.42 389.537C1507.73 315.391 1553.51 246.569 1612.08 209.007C1629.77 197.627 1648.61 189.128 1668.53 184.194C1733.98 168.027 1802.82 192.302 1864.49 228.985C1988.18 302.545 2092 423.63 2187.63 549.796" stroke="url(#paint17_linear_1752_5797)" stroke-miterlimit="10"/>
<path d="M-174.465 918.67C-88.7701 950.224 2.43587 919.012 84.7806 867.237C88.9591 864.599 93.1016 861.913 97.244 859.226C174.726 808.379 247.201 745.516 311.715 676.743C395.825 587.113 481.087 475.503 591.529 476.236C620.346 476.431 648.118 484.393 674.63 497.777C729.49 525.423 779.236 575.879 820.949 627.019C870.586 687.88 912.875 752.208 955.38 815.804C1001.16 884.381 1047.38 952.031 1102.38 1009.91C1152.42 1062.52 1213.26 1108.19 1281.48 1106.77C1304.25 1106.28 1328.78 1099.35 1345.49 1077.85C1355.65 1064.76 1361.99 1047.57 1367.46 1030.62C1376.29 1003.32 1383.46 975.623 1389.47 947.635C1407.34 864.453 1414.47 779.268 1421.53 696.33C1430.9 585.55 1440.7 474.038 1476.43 371.904C1503.84 293.46 1549.7 220.388 1609.1 180.091C1627.03 167.929 1646.2 158.746 1666.51 153.276C1733.22 135.496 1803.5 160.261 1866.25 197.969C1992.11 273.629 2097.11 399.013 2193.43 529.819" stroke="url(#paint18_linear_1752_5797)" stroke-miterlimit="10"/>
<path d="M-177.418 894.736C-92.0834 929.221 0.383313 901.917 82.8001 850.825C86.9786 848.236 91.121 845.599 95.2635 842.863C172.673 792.407 243.743 726.174 307.285 654.274C391.647 558.832 478.134 441.41 590.665 441.508C620.022 441.508 648.335 449.762 675.279 463.732C730.968 492.501 781.074 545.595 823.038 599.959C872.856 664.971 915.469 734.526 958.299 803.446C1004.41 877.69 1051.02 951.103 1106.85 1014.11C1157.6 1071.36 1219.71 1121.28 1289.51 1121.33C1312.82 1121.33 1337.93 1114.59 1354.82 1092.46C1365.12 1078.98 1371.32 1061.15 1376.65 1043.57C1385.22 1015.28 1392.1 986.515 1397.69 957.453C1414.36 870.998 1419.66 782.101 1424.81 695.304C1431.69 579.347 1438.93 462.169 1473.48 354.418C1499.99 271.675 1545.91 194.354 1606.14 151.371C1624.33 138.378 1643.82 128.511 1664.5 122.601C1732.43 103.21 1804.19 128.414 1868.02 167.196C1996.04 244.957 2102.23 374.688 2199.27 510.036" stroke="url(#paint19_linear_1752_5797)" stroke-miterlimit="10"/>
<path d="M-180.406 870.803C-95.4319 908.218 -1.70443 884.821 80.7484 834.413C84.9269 831.874 89.1053 829.236 93.2118 826.55C170.55 776.435 240.179 706.929 302.784 631.855C387.29 530.551 475.074 407.365 589.694 406.828C619.627 406.682 648.409 415.18 675.821 429.687C732.302 459.629 782.876 515.165 825.021 572.948C875.127 642.015 917.956 716.893 961.11 791.088C1007.58 871.047 1054.59 950.175 1111.21 1018.31C1162.72 1080.2 1226.05 1134.32 1297.4 1135.93C1321.21 1136.47 1346.97 1129.83 1364.01 1107.06C1374.42 1093.19 1380.51 1074.78 1385.73 1056.56C1394.09 1027.25 1400.64 997.457 1405.83 967.271C1421.28 877.592 1424.74 784.983 1428.02 694.327C1432.38 573.193 1437.06 450.3 1470.45 336.98C1496.06 249.939 1542.03 168.32 1603.08 122.65C1621.52 108.827 1641.34 98.3257 1662.41 91.8782C1731.61 70.8751 1804.77 96.5673 1869.71 136.376C1999.93 216.237 2107.24 350.266 2205.03 490.255" stroke="url(#paint20_linear_1752_5797)" stroke-miterlimit="10"/>
<path d="M-183.398 846.869C-98.7843 887.214 -3.79609 867.677 78.6928 818.002C82.8712 815.462 87.0497 812.873 91.1561 810.235C168.422 760.463 236.538 687.684 298.315 609.435C382.929 502.27 472.082 373.321 588.791 372.148C619.301 371.855 648.586 380.55 676.395 395.691C733.669 426.757 784.711 484.784 827 545.986C877.394 619.058 920.439 699.26 963.917 778.779C1010.74 864.453 1058.11 949.296 1115.6 1022.51C1167.83 1089.09 1232.46 1147.41 1305.36 1150.54C1329.71 1151.56 1356.05 1145.11 1373.3 1121.67C1383.82 1107.41 1389.83 1088.36 1394.88 1069.5C1403.02 1039.22 1409.21 1008.35 1414 977.088C1428.27 884.137 1429.89 787.816 1431.26 693.301C1433.13 567.038 1435.26 438.43 1467.42 319.445C1492.13 228.106 1538.17 142.237 1600.05 93.8808C1618.75 79.2275 1638.92 68.0421 1660.35 61.155C1730.77 38.5399 1805.41 64.6718 1871.4 105.555C2003.78 187.516 2112.28 325.844 2210.76 470.473" stroke="url(#paint21_linear_1752_5797)" stroke-miterlimit="10"/>
<path d="M-186.352 822.935C-102.134 866.211 -5.84869 850.581 76.6762 801.541C159.201 752.501 229.695 672.689 293.849 586.967C378.499 473.892 469.057 339.227 587.891 337.42C682.771 335.955 765.944 422.898 829.054 518.926C934.308 679.137 1007.65 875.589 1120.03 1026.67C1172.99 1097.88 1238.87 1160.4 1313.36 1165.04C1338.22 1166.61 1365.16 1160.26 1382.59 1136.18C1393.22 1121.52 1399.13 1101.84 1404.03 1082.4C1435.4 958.039 1435.18 823.668 1434.54 692.227C1433.89 560.786 1433.46 426.464 1464.47 301.91C1495.48 177.356 1564.32 62.1808 1658.37 30.3829C1730.02 6.15602 1806.13 32.7763 1873.2 74.685C2007.78 158.746 2117.39 301.421 2216.63 450.593" stroke="url(#paint22_linear_1752_5797)" stroke-miterlimit="10"/>
</g>
<g clip-path="url(#clip0_1752_5797)">
<path d="M-222.768 1573.31C-94.1022 1633.39 91.115 1665.71 246.848 1670.21C371.076 1673.79 481.299 1662.3 602.771 1662.6C724.23 1662.89 869.345 1678.02 982.349 1721.79C1019.92 1736.35 1051.71 1753.23 1087.25 1768.66C1203.18 1819 1353.86 1851.3 1495.23 1867.76C1636.61 1884.22 1771.62 1886.54 1905 1888.75" stroke="white" stroke-miterlimit="10"/>
<path d="M-221.792 1569.34C-171.674 1591.95 -111.898 1610.6 -48.3358 1625.45C12.2919 1639.66 76.1994 1650.25 138.529 1657.04C176.101 1661.14 213.084 1663.86 248.54 1665.18C270.101 1665.99 291.241 1666.36 312.079 1666.42C411.403 1666.75 504.055 1660.18 604.058 1661.5C639.629 1662.01 677.179 1663.79 715.327 1667.15C782.5 1673.07 851.56 1683.97 915.443 1701.57C938.788 1707.99 961.423 1715.31 982.955 1723.62C1020.65 1738.16 1052.76 1754.92 1088.48 1770.14C1101.67 1775.74 1115.28 1781.1 1129.24 1786.22C1154.24 1795.33 1180.3 1803.65 1207.13 1811.25C1250.19 1823.37 1295.22 1833.66 1340.77 1842.19C1392.3 1851.79 1444.47 1859.14 1495.64 1864.52C1530.27 1868.19 1564.62 1871.06 1598.85 1873.38C1702.94 1880.57 1804.93 1882.35 1905.93 1884.12" stroke="url(#paint23_linear_1752_5797)" stroke-miterlimit="10"/>
<path d="M-220.808 1565.38C-171.333 1586.92 -111.32 1604.83 -47.2902 1619.47C13.5276 1633.47 77.6999 1644.19 140.11 1651.29C177.759 1655.58 214.774 1658.56 250.235 1660.19C271.799 1661.18 292.937 1661.75 313.774 1662.02C413.131 1663.38 505.726 1658.03 605.348 1660.43C640.848 1661.37 678.27 1663.56 716.237 1667.29C783.113 1673.87 851.788 1685.34 915.872 1703.28C939.197 1709.78 961.898 1717.15 983.551 1725.47C1021.37 1740 1053.8 1756.64 1089.71 1771.63C1102.99 1777.15 1116.67 1782.42 1130.69 1787.42C1155.88 1796.34 1181.95 1804.4 1208.78 1811.67C1251.9 1823.36 1296.89 1833.04 1342.16 1841C1393.46 1849.92 1445.12 1856.52 1496.05 1861.3C1530.48 1864.59 1564.68 1867.07 1599 1869.21C1702.77 1875.65 1805.38 1877.65 1906.86 1879.51" stroke="url(#paint24_linear_1752_5797)" stroke-miterlimit="10"/>
<path d="M-219.836 1561.42C-170.988 1581.88 -110.771 1599.06 -46.2566 1613.49C14.7512 1627.28 79.1863 1638.12 141.695 1645.53C179.422 1650.02 216.455 1653.25 251.935 1655.19C273.517 1656.37 294.638 1657.14 315.471 1657.62C414.864 1660 507.366 1655.7 606.641 1659.36C642.068 1660.68 679.349 1663.32 717.15 1667.43C783.715 1674.67 852.02 1686.72 916.318 1705C939.639 1711.58 962.389 1719 984.15 1727.32C1022.1 1741.84 1054.84 1758.37 1090.93 1773.14C1104.31 1778.58 1118.05 1783.77 1132.14 1788.64C1157.47 1797.38 1183.61 1805.15 1210.43 1812.11C1253.64 1823.32 1298.54 1832.48 1343.56 1839.81C1394.61 1848.12 1445.77 1853.83 1496.44 1858.07C1530.65 1860.93 1564.72 1863.11 1599.12 1865.03C1702.61 1870.81 1805.79 1872.93 1907.79 1874.89" stroke="url(#paint25_linear_1752_5797)" stroke-miterlimit="10"/>
<path d="M-218.845 1557.45C-170.637 1576.82 -110.164 1593.19 -45.1886 1607.5C16.043 1621 80.6944 1632.05 143.301 1639.76C181.107 1644.44 218.17 1647.94 253.655 1650.18C275.239 1651.54 296.375 1652.51 317.19 1653.2C416.633 1656.61 509.045 1653.47 607.971 1658.28C643.318 1659.99 680.482 1663.07 718.114 1667.57C784.367 1675.46 852.303 1688.08 916.815 1706.7C940.118 1713.36 962.948 1720.84 984.815 1729.17C1022.89 1743.69 1055.94 1760.08 1092.24 1774.63C1105.7 1779.99 1119.52 1785.1 1133.67 1789.85C1159.18 1798.41 1185.36 1805.89 1212.14 1812.53C1255.45 1823.27 1300.28 1831.88 1345.03 1838.62C1395.83 1846.27 1446.49 1851.19 1496.92 1854.84C1530.89 1857.31 1564.86 1859.14 1599.33 1860.85C1702.51 1865.96 1806.29 1868.21 1908.78 1870.27" stroke="url(#paint26_linear_1752_5797)" stroke-miterlimit="10"/>
<path d="M-217.875 1553.49C-170.296 1571.79 -109.596 1587.39 -44.1571 1601.52C17.2857 1614.78 82.1787 1625.99 144.868 1634C182.753 1638.87 219.846 1642.63 255.338 1645.17C276.925 1646.72 298.059 1647.89 318.872 1648.79C418.35 1653.23 510.702 1651.25 609.25 1657.2C644.53 1659.32 681.546 1662.82 719.012 1667.69C784.97 1676.24 852.467 1689.54 917.231 1708.4C940.507 1715.17 963.409 1722.67 985.4 1731C1023.6 1745.51 1056.96 1761.78 1093.45 1776.11C1107 1781.4 1120.9 1786.42 1135.1 1791.04C1160.79 1799.4 1187.02 1806.61 1213.78 1812.94C1257.17 1823.21 1301.93 1831.26 1346.41 1837.41C1396.99 1844.39 1447.14 1848.53 1497.31 1851.6C1531.07 1853.67 1564.9 1855.17 1599.45 1856.66C1702.32 1861.11 1806.7 1863.48 1909.7 1865.63" stroke="url(#paint27_linear_1752_5797)" stroke-miterlimit="10"/>
<path d="M-216.889 1549.53C-169.952 1566.75 -109.026 1581.6 -43.1097 1595.54C18.5274 1608.57 83.681 1619.92 146.466 1628.25C184.428 1633.32 221.538 1637.34 257.05 1640.18C278.656 1641.91 299.774 1643.28 320.583 1644.39C420.096 1649.86 512.401 1649.06 610.557 1656.13C645.77 1658.67 682.654 1662.59 719.953 1667.84C785.602 1677.04 852.722 1690.94 917.706 1710.12C940.96 1716.98 963.93 1724.52 986.028 1732.86C1024.36 1747.35 1058 1763.54 1094.71 1777.61C1108.35 1782.83 1122.32 1787.75 1136.58 1792.25C1162.45 1800.43 1188.72 1807.35 1215.46 1813.38C1258.95 1823.17 1303.63 1830.68 1347.84 1836.22C1398.18 1842.55 1447.83 1845.9 1497.74 1848.38C1531.28 1850.05 1564.97 1851.22 1599.62 1852.5C1702.2 1856.29 1807.16 1858.78 1910.67 1861.02" stroke="url(#paint28_linear_1752_5797)" stroke-miterlimit="10"/>
<path d="M-215.914 1545.57C-169.621 1561.71 -108.47 1575.81 -42.0737 1589.56C19.7555 1602.37 85.1698 1613.86 148.038 1622.49C186.078 1627.75 223.221 1632.02 258.723 1635.17C280.331 1637.09 301.448 1638.66 322.253 1639.98C421.817 1646.47 514.046 1646.84 611.823 1655.05C646.969 1658 683.706 1662.35 720.838 1667.97C786.175 1677.83 852.923 1692.33 918.11 1711.82C941.36 1718.77 964.394 1726.37 986.599 1734.71C1025.05 1749.19 1059 1765.27 1095.9 1779.11C1109.63 1784.25 1123.69 1789.09 1138 1793.47C1164.06 1801.45 1190.37 1808.1 1217.08 1813.81C1260.68 1823.13 1305.27 1830.08 1349.21 1835.05C1399.31 1840.71 1448.44 1843.28 1498.11 1845.18C1531.42 1846.45 1565 1847.28 1599.73 1848.34C1701.99 1851.47 1807.56 1854.07 1911.56 1856.42" stroke="url(#paint29_linear_1752_5797)" stroke-miterlimit="10"/>
<path d="M-214.942 1541.6C-169.275 1556.66 -107.9 1570.01 -41.0249 1583.57C21.0134 1596.16 86.6734 1607.79 149.623 1616.73C187.742 1622.18 224.9 1626.71 260.422 1630.17C282.032 1632.27 303.154 1634.02 323.95 1635.57C423.534 1642.96 515.731 1644.64 613.114 1653.98C648.194 1657.35 684.8 1662.11 721.764 1668.12C786.791 1678.63 853.148 1693.72 918.569 1713.54C941.798 1720.57 964.897 1728.22 987.226 1736.57C1025.81 1751.04 1060.08 1767.01 1097.16 1780.62C1110.98 1785.69 1125.11 1790.43 1139.48 1794.69C1165.72 1802.48 1192.07 1808.84 1218.76 1814.25C1262.46 1823.09 1306.97 1829.48 1350.62 1833.86C1400.49 1838.86 1449.11 1840.65 1498.53 1841.96C1531.63 1842.84 1565.07 1843.33 1599.88 1844.17C1701.83 1846.66 1808.01 1849.36 1912.52 1851.81" stroke="url(#paint30_linear_1752_5797)" stroke-miterlimit="10"/>
<path d="M-213.956 1537.64C-168.931 1551.61 -107.333 1564.22 -39.9778 1577.59C22.2547 1589.95 88.1585 1601.73 151.221 1610.98C189.418 1616.62 226.607 1621.42 262.135 1625.17C283.749 1627.46 304.885 1629.4 325.663 1631.16C425.284 1639.57 517.431 1642.44 614.423 1652.91C649.436 1656.68 685.909 1661.88 722.692 1668.25C787.422 1679.42 853.393 1695.1 919.015 1715.24C942.238 1722.37 965.391 1730.05 987.825 1738.41C1026.53 1752.88 1061.11 1768.72 1098.38 1782.1C1112.3 1787.1 1126.5 1791.74 1140.93 1795.89C1167.34 1803.48 1193.67 1809.93 1220.4 1814.66C1264.32 1822.43 1308.64 1828.86 1352 1832.65C1401.64 1836.99 1449.75 1837.99 1498.93 1838.72C1531.79 1839.2 1565.12 1839.35 1600 1839.98C1701.65 1841.82 1808.42 1844.63 1913.43 1847.17" stroke="url(#paint31_linear_1752_5797)" stroke-miterlimit="10"/>
<path d="M-212.982 1533.68C-168.6 1546.58 -106.67 1558.05 -38.9403 1571.6C23.4005 1584.09 89.6509 1595.65 152.794 1605.21C191.068 1611.05 228.274 1616.1 263.825 1620.16C285.455 1622.63 306.575 1624.78 327.352 1626.74C427.026 1636.16 519.105 1640.23 615.708 1651.81C650.653 1656 686.98 1661.62 723.611 1668.37C788.031 1680.2 853.626 1696.47 919.469 1716.93C942.674 1724.13 965.904 1731.88 988.446 1740.24C1027.28 1754.69 1062.17 1770.42 1099.63 1783.58C1113.64 1788.51 1127.92 1793.06 1142.4 1797.09C1169 1804.49 1195.45 1810.29 1222.07 1815.07C1265.98 1822.97 1310.32 1828.25 1353.42 1831.45C1402.85 1835.13 1450.41 1835.35 1499.34 1835.48C1531.99 1835.57 1565.19 1835.38 1600.16 1835.8C1701.51 1837 1808.86 1839.9 1914.38 1842.54" stroke="url(#paint32_linear_1752_5797)" stroke-miterlimit="10"/>
<path d="M-211.993 1529.72C-168.237 1541.53 -106.189 1552.63 -37.8893 1565.62C24.7298 1577.52 91.1548 1589.58 154.383 1599.44C192.736 1605.47 229.972 1610.78 265.528 1615.15C287.161 1617.81 308.281 1620.15 329.051 1622.32C428.761 1632.78 520.807 1638.03 617.004 1650.73C651.895 1655.35 688.076 1661.38 724.526 1668.5C788.636 1680.98 853.843 1697.85 919.903 1718.63C943.086 1725.92 966.385 1733.71 989.048 1742.09C1028.01 1756.53 1063.2 1772.14 1100.86 1785.07C1114.95 1789.91 1129.32 1794.37 1143.85 1798.28C1170.63 1805.49 1197.12 1811.01 1223.72 1815.49C1267.73 1822.9 1312.01 1827.62 1354.83 1830.24C1404.03 1833.25 1451.07 1832.69 1499.76 1832.23C1532.18 1831.93 1565.25 1831.4 1600.3 1831.6C1701.34 1832.16 1809.3 1835.17 1915.33 1837.9" stroke="url(#paint33_linear_1752_5797)" stroke-miterlimit="10"/>
<path d="M-211.021 1525.76C-167.909 1536.49 -105.636 1546.84 -36.8554 1559.63C25.9706 1571.32 92.6436 1583.51 155.968 1593.68C194.4 1599.9 231.668 1605.48 267.228 1610.14C288.863 1612.99 309.999 1615.53 330.751 1617.91C430.514 1629.38 522.492 1635.83 618.314 1649.66C653.139 1654.68 689.174 1661.13 725.471 1668.64C789.284 1681.78 854.105 1699.23 920.381 1720.34C943.558 1727.72 966.908 1735.56 989.678 1743.94C1028.77 1758.36 1064.28 1773.86 1102.12 1786.57C1116.3 1791.33 1130.74 1795.7 1145.33 1799.5C1172.3 1806.51 1198.84 1811.75 1225.4 1815.92C1269.52 1822.85 1313.71 1827.03 1356.26 1829.06C1405.22 1831.4 1451.74 1830.07 1500.2 1829.02C1532.4 1828.32 1565.33 1827.46 1600.47 1827.44C1701.19 1827.37 1809.75 1830.46 1916.28 1833.3" stroke="url(#paint34_linear_1752_5797)" stroke-miterlimit="10"/>
<path d="M-210.048 1521.79C-167.563 1531.45 -105.082 1541.06 -35.8067 1553.65C27.2115 1565.12 94.1451 1577.45 157.553 1587.93C196.063 1594.34 233.346 1600.17 268.926 1605.15C290.579 1608.18 311.698 1610.92 332.448 1613.51C432.249 1625.99 524.19 1633.65 619.608 1648.59C654.378 1654.03 690.269 1660.9 726.384 1668.78C789.887 1682.57 854.318 1700.62 920.812 1722.05C943.971 1729.51 967.386 1737.4 990.277 1745.79C1029.49 1760.21 1065.31 1775.59 1103.36 1788.07C1117.64 1792.77 1132.16 1797.05 1146.79 1800.72C1173.95 1807.54 1200.52 1812.5 1227.06 1816.36C1271.3 1822.81 1315.41 1826.43 1357.67 1827.88C1406.41 1829.55 1452.41 1827.45 1500.62 1825.81C1532.58 1824.73 1565.4 1823.53 1600.62 1823.28C1701.04 1822.58 1810.2 1825.77 1917.23 1828.69" stroke="url(#paint35_linear_1752_5797)" stroke-miterlimit="10"/>
<path d="M-209.064 1517.84C-167.223 1526.41 -104.502 1535.27 -34.7613 1547.68C28.449 1558.91 95.6453 1571.39 159.134 1582.17C197.721 1588.79 235.037 1594.87 270.609 1600.14C292.264 1603.36 313.383 1606.29 334.13 1609.1C433.983 1622.6 525.869 1631.46 620.885 1647.5C655.588 1653.36 691.332 1660.65 727.28 1668.91C790.472 1683.36 854.531 1701.99 921.242 1723.75C944.394 1731.31 967.875 1739.24 990.875 1747.64C1030.21 1762.05 1066.36 1777.3 1104.58 1789.56C1118.96 1794.17 1133.55 1798.36 1148.24 1801.92C1175.58 1808.54 1202.21 1813.21 1228.7 1816.78C1273.05 1822.74 1317.07 1825.81 1359.05 1826.68C1407.58 1827.68 1453.04 1824.81 1501 1822.58C1532.75 1821.1 1565.42 1819.56 1600.74 1819.1C1700.85 1817.77 1810.61 1821.04 1918.14 1824.06" stroke="url(#paint36_linear_1752_5797)" stroke-miterlimit="10"/>
<path d="M-208.09 1513.87C-166.889 1521.36 -103.948 1529.48 -33.7253 1541.68C29.6772 1552.7 97.1193 1565.32 160.721 1576.41C199.386 1583.21 236.717 1589.56 272.309 1595.14C293.967 1598.55 315.101 1601.67 335.827 1604.69C435.717 1619.22 527.565 1629.28 622.179 1646.43C656.828 1652.72 692.426 1660.42 728.208 1669.05C791.09 1684.15 854.776 1703.38 921.689 1725.46C944.822 1733.1 968.369 1741.08 991.474 1749.49C1030.94 1763.89 1067.39 1779.02 1105.81 1791.06C1120.28 1795.6 1134.95 1799.7 1149.69 1803.14C1177.22 1809.56 1203.9 1813.95 1230.35 1817.22C1274.82 1822.69 1318.75 1825.21 1360.45 1825.5C1408.75 1825.83 1453.69 1822.19 1501.4 1819.37C1532.92 1817.5 1565.49 1815.63 1600.88 1814.94C1700.67 1812.99 1811.04 1816.34 1919.07 1819.46" stroke="url(#paint37_linear_1752_5797)" stroke-miterlimit="10"/>
<path d="M-207.1 1509.91C-166.527 1516.32 -103.377 1523.7 -32.6743 1535.71C30.9352 1546.5 98.6252 1559.25 162.308 1570.65C201.052 1577.65 238.415 1584.25 274.012 1590.14C295.689 1593.72 316.805 1597.06 337.544 1600.29C437.486 1615.83 529.624 1625.78 623.492 1645.36C657.956 1652.55 693.527 1660.17 729.14 1669.19C791.727 1684.94 855.01 1704.75 922.154 1727.17C945.283 1734.89 968.879 1742.93 992.107 1751.34C1031.7 1765.73 1068.46 1780.74 1107.07 1792.56C1121.64 1797.02 1136.38 1801.02 1151.17 1804.34C1178.89 1810.56 1205.6 1814.67 1232.03 1817.63C1276.62 1822.63 1320.46 1824.6 1361.87 1824.3C1409.94 1823.95 1454.35 1819.56 1501.83 1816.13C1533.12 1813.87 1565.57 1811.67 1601.04 1810.76C1700.53 1808.18 1811.49 1811.62 1920.03 1814.83" stroke="url(#paint38_linear_1752_5797)" stroke-miterlimit="10"/>
<path d="M-206.13 1505.95C-166.2 1511.28 -102.827 1517.92 -31.6425 1529.72C32.1592 1540.3 100.11 1553.19 163.876 1564.9C202.713 1572.08 240.077 1578.95 275.693 1585.14C297.373 1588.91 318.489 1592.44 339.224 1595.88C439.203 1612.45 530.973 1624.92 624.768 1644.28C659.294 1651.41 694.604 1659.94 730.051 1669.33C792.326 1685.74 855.237 1706.14 922.598 1728.88C945.706 1736.69 969.384 1744.77 992.718 1753.2C1032.44 1767.57 1069.52 1782.48 1108.31 1794.06C1122.96 1798.44 1137.78 1802.35 1152.63 1805.56C1180.53 1811.59 1207.3 1815.41 1233.7 1818.07C1278.4 1822.58 1322.16 1823.99 1363.28 1823.11C1411.14 1822.09 1455.02 1816.93 1502.24 1812.91C1533.31 1810.27 1565.62 1807.72 1601.18 1806.58C1700.36 1803.39 1811.92 1806.9 1920.96 1810.21" stroke="url(#paint39_linear_1752_5797)" stroke-miterlimit="10"/>
<path d="M-205.154 1501.98C-165.85 1506.23 -102.255 1512.12 -30.5901 1523.74C33.4016 1534.1 101.617 1547.11 165.481 1559.13C204.395 1566.51 241.791 1573.63 277.414 1580.13C299.097 1584.08 320.226 1587.82 340.945 1591.45C440.974 1609.05 532.689 1622.73 626.085 1643.19C660.556 1650.74 695.721 1659.68 730.987 1669.44C792.952 1686.51 855.492 1707.49 923.052 1730.57C946.141 1738.45 969.883 1746.6 993.327 1755.01C1033.17 1769.38 1070.56 1784.16 1109.54 1795.53C1124.29 1799.83 1139.19 1803.65 1154.09 1806.74C1182.19 1812.57 1209 1816.12 1235.35 1818.47C1280.17 1822.48 1323.84 1823.36 1364.69 1821.9C1412.32 1820.22 1455.66 1814.3 1502.66 1809.67C1533.49 1806.64 1565.67 1803.77 1601.34 1802.4C1700.2 1798.59 1812.37 1802.17 1921.92 1805.58" stroke="url(#paint40_linear_1752_5797)" stroke-miterlimit="10"/>
<path d="M-204.171 1498.02C-165.51 1501.19 -101.692 1506.35 -29.543 1517.75C34.6409 1527.89 103.117 1541.05 167.064 1553.36C206.057 1560.94 243.469 1568.32 279.114 1575.11C300.798 1579.25 321.928 1583.18 342.641 1587.04C442.721 1605.66 534.396 1620.56 627.377 1642.11C661.779 1650.08 696.801 1659.43 731.913 1669.58C793.581 1687.31 855.72 1708.86 923.512 1732.28C946.597 1740.24 970.39 1748.43 993.954 1756.87C1033.93 1771.22 1071.64 1785.88 1110.79 1797.02C1125.64 1801.25 1140.56 1805.18 1155.57 1807.95C1183.94 1813.18 1210.72 1816.83 1237.02 1818.89C1281.95 1822.41 1325.54 1822.72 1366.1 1820.7C1413.5 1818.33 1456.33 1811.65 1503.08 1806.43C1533.69 1803.01 1565.76 1799.81 1601.49 1798.2C1700.05 1793.79 1812.82 1797.43 1922.86 1800.94" stroke="url(#paint41_linear_1752_5797)" stroke-miterlimit="10"/>
<path d="M-203.198 1494.06C-165.179 1496.15 -101.14 1500.57 -28.5091 1511.77C35.8649 1521.7 104.591 1534.98 168.634 1547.6C207.706 1555.37 245.149 1563.01 280.797 1570.12C302.499 1574.45 323.627 1578.58 344.323 1582.64C444.441 1602.27 536.073 1618.4 628.67 1641.04C663.019 1649.44 697.895 1659.2 732.826 1669.72C794.184 1688.1 855.952 1710.24 923.943 1733.99C947.007 1742.04 970.881 1750.28 994.553 1758.72C1034.65 1773.06 1072.67 1787.61 1112.02 1798.52C1126.96 1802.67 1141.97 1806.52 1157.01 1809.17C1185.57 1814.2 1212.39 1817.57 1238.67 1819.33C1283.72 1822.35 1327.22 1822.12 1367.5 1819.52C1414.69 1816.47 1456.97 1809.04 1503.49 1803.22C1533.87 1799.42 1565.81 1795.88 1601.63 1794.04C1699.88 1789.02 1813.24 1792.74 1923.8 1796.34" stroke="url(#paint42_linear_1752_5797)" stroke-miterlimit="10"/>
<path d="M-202.209 1490.1C-164.816 1491.1 -100.572 1494.79 -27.4581 1505.79C37.1208 1515.51 106.095 1528.92 170.236 1541.85C209.386 1549.81 246.86 1557.72 282.5 1565.12C304.204 1569.63 325.333 1573.96 346.025 1578.23C446.194 1598.89 537.783 1616.24 629.968 1639.96C664.26 1648.79 698.979 1658.96 733.758 1669.85C794.806 1688.88 856.2 1711.62 924.409 1735.69C947.469 1743.83 971.393 1752.12 995.171 1760.57C1035.4 1774.9 1073.74 1789.32 1113.27 1800.01C1128.3 1804.08 1143.43 1807.63 1158.48 1810.37C1187.15 1815.59 1214.1 1818.28 1240.34 1819.74C1285.51 1822.27 1328.92 1821.49 1368.92 1818.32C1415.89 1814.59 1457.64 1806.41 1503.9 1799.98C1534.06 1795.79 1565.87 1791.92 1601.77 1789.86C1699.72 1784.24 1813.68 1788.01 1924.74 1791.7" stroke="url(#paint43_linear_1752_5797)" stroke-miterlimit="10"/>
<path d="M-201.234 1486.13C-164.486 1486.06 -100.003 1489.01 -26.4072 1499.8C38.3638 1509.3 107.601 1522.84 171.822 1536.09C211.049 1544.25 248.541 1552.4 284.2 1560.11C305.907 1564.81 327.034 1569.34 347.725 1573.82C447.942 1595.51 539.492 1614.07 631.262 1638.89C665.485 1648.14 700.073 1658.73 734.671 1669.99C795.407 1689.69 856.432 1712.99 924.84 1737.4C947.881 1745.62 971.869 1753.97 995.77 1762.42C1036.12 1776.75 1074.77 1791.04 1114.51 1801.52C1129.64 1805.51 1144.85 1808.96 1159.95 1811.59C1188.8 1816.62 1215.8 1819.01 1242 1820.18C1287.29 1822.2 1330.62 1820.88 1370.33 1817.13C1417.07 1812.72 1458.31 1803.79 1504.33 1796.77C1534.25 1792.19 1565.95 1787.99 1601.94 1785.69C1699.58 1779.47 1814.14 1783.3 1925.69 1787.1" stroke="url(#paint44_linear_1752_5797)" stroke-miterlimit="10"/>
<path d="M-200.264 1482.17C-164.156 1481.01 -99.453 1483.23 -25.3751 1493.82C39.5859 1503.1 109.085 1516.78 173.391 1530.33C212.696 1538.68 250.218 1547.1 285.884 1555.11C307.609 1559.99 328.734 1564.73 349.406 1569.41C449.659 1592.13 541.165 1611.92 632.539 1637.81C666.706 1647.5 701.138 1658.48 735.582 1670.13C796.023 1690.48 856.647 1714.37 925.284 1739.12C948.322 1747.42 972.375 1755.81 996.382 1764.28C1036.86 1778.59 1075.84 1792.77 1115.74 1803.03C1130.97 1806.94 1146.25 1810.29 1161.41 1812.81C1190.45 1817.64 1217.48 1819.74 1243.66 1820.63C1289.07 1822.16 1332.31 1820.28 1371.73 1815.96C1418.24 1810.87 1458.94 1801.2 1504.73 1793.56C1534.44 1788.6 1566 1784.07 1602.07 1781.54C1699.42 1774.73 1814.56 1778.62 1926.62 1782.51" stroke="url(#paint45_linear_1752_5797)" stroke-miterlimit="10"/>
<path d="M-199.278 1478.21C-163.799 1475.98 -98.8878 1477.45 -24.3277 1487.84C40.8234 1496.91 110.588 1510.72 174.989 1524.58C214.373 1533.12 251.91 1541.8 287.596 1550.12C309.323 1555.19 330.448 1560.12 351.117 1565.01C451.421 1588.75 542.882 1609.78 633.846 1636.75C667.957 1646.86 702.246 1658.25 736.508 1670.27C796.638 1691.28 856.89 1715.75 925.729 1740.83C948.748 1749.21 972.865 1757.66 996.979 1766.13C1037.58 1780.43 1076.87 1794.49 1116.97 1804.52C1132.29 1808.35 1147.66 1811.62 1162.85 1814.02C1192.08 1818.64 1219.17 1820.45 1245.3 1821.05C1290.81 1822.07 1333.96 1819.65 1373.11 1814.77C1419.4 1808.98 1459.58 1798.58 1505.12 1790.34C1534.61 1785 1566.05 1780.13 1602.19 1777.37C1699.23 1769.96 1814.97 1773.9 1927.54 1777.89" stroke="url(#paint46_linear_1752_5797)" stroke-miterlimit="10"/>
<path d="M-198.304 1474.24C-163.467 1470.93 -98.3366 1471.67 -23.2923 1481.85C42.0489 1490.71 112.061 1504.64 176.562 1518.8C216.025 1527.54 253.594 1536.47 289.285 1545.09C311.015 1550.35 332.153 1555.48 352.805 1560.58C453.16 1585.35 544.562 1607.6 635.13 1635.65C669.17 1646.19 703.331 1657.99 737.412 1670.38C797.232 1692.04 857.113 1717.1 926.166 1742.51C949.179 1750.98 973.346 1759.49 997.584 1767.96C1038.32 1782.25 1077.92 1796.18 1118.2 1806C1133.6 1809.75 1149.05 1812.92 1164.31 1815.2C1193.73 1819.62 1220.87 1821.15 1246.95 1821.45C1292.59 1821.97 1335.65 1819 1374.51 1813.55C1420.58 1807.09 1460.24 1795.94 1505.52 1787.09C1534.79 1781.37 1566.09 1776.17 1602.32 1773.17C1699.07 1765.18 1815.4 1769.16 1928.47 1773.24" stroke="url(#paint47_linear_1752_5797)" stroke-miterlimit="10"/>
<path d="M-197.318 1470.29C-163.107 1465.88 -97.7566 1465.89 -22.2449 1475.87C43.3012 1484.52 113.564 1498.58 178.146 1513.05C217.685 1521.98 255.272 1531.17 290.983 1540.1C312.731 1545.54 333.853 1550.87 354.501 1556.18C454.89 1581.98 546.251 1605.45 636.423 1634.58C670.406 1645.55 704.409 1657.76 738.339 1670.53C797.863 1692.84 857.358 1718.48 926.611 1744.22C949.605 1752.78 973.853 1761.33 998.197 1769.81C1039.05 1784.1 1078.97 1797.9 1119.44 1807.49C1134.94 1811.17 1150.47 1814.24 1165.77 1816.42C1195.39 1820.64 1222.56 1821.88 1248.62 1821.89C1294.37 1821.89 1337.35 1818.39 1375.93 1812.37C1421.77 1805.21 1460.9 1793.33 1505.94 1783.87C1534.98 1777.78 1566.17 1772.24 1602.49 1769.01C1698.92 1760.43 1815.85 1764.45 1929.42 1768.63" stroke="url(#paint48_linear_1752_5797)" stroke-miterlimit="10"/>
<path d="M-196.346 1466.33C-162.779 1460.85 -97.2072 1460.12 -21.1964 1469.89C44.5376 1478.34 115.065 1492.52 179.745 1507.3C219.363 1516.42 256.98 1525.87 292.698 1535.1C314.449 1540.72 335.569 1546.26 356.213 1551.78C456.653 1578.61 547.967 1603.31 637.731 1633.51C671.658 1644.92 705.52 1657.52 739.266 1670.67C798.479 1693.65 857.605 1719.86 927.072 1745.94C950.061 1754.57 974.359 1763.18 998.81 1771.67C1039.79 1785.94 1080.03 1799.63 1120.68 1809C1136.27 1812.6 1151.88 1815.58 1167.23 1817.64C1197.04 1821.64 1224.26 1822.61 1250.28 1822.32C1296.16 1821.82 1339.03 1817.76 1377.34 1811.18C1422.96 1803.34 1461.57 1790.72 1506.37 1780.65C1535.18 1774.17 1566.25 1768.31 1602.65 1764.83C1698.78 1755.66 1816.3 1759.73 1930.37 1764.01" stroke="url(#paint49_linear_1752_5797)" stroke-miterlimit="10"/>
<path d="M-195.358 1462.37C-162.433 1455.8 -96.6402 1454.35 -20.1451 1463.9C45.779 1472.14 116.571 1486.44 181.332 1501.53C221.029 1510.85 258.676 1520.57 294.386 1530.09C316.14 1535.89 337.273 1541.64 357.9 1547.35C458.388 1575.22 549.644 1601.15 639.014 1632.42C672.87 1644.26 706.589 1657.26 740.184 1670.79C799.086 1694.42 857.843 1721.21 927.508 1747.63C950.478 1756.35 974.841 1765.01 999.413 1773.5C1040.52 1787.77 1081.07 1801.33 1121.91 1810.49C1137.6 1814 1153.29 1816.89 1168.68 1818.84C1198.68 1822.65 1225.94 1823.31 1251.94 1822.74C1297.91 1821.73 1340.71 1817.14 1378.74 1809.98C1424.14 1801.45 1462.22 1788.1 1506.77 1777.42C1535.36 1770.56 1566.29 1764.36 1602.77 1760.65C1698.61 1750.89 1816.72 1755.01 1931.29 1759.38" stroke="url(#paint50_linear_1752_5797)" stroke-miterlimit="10"/>
<path d="M-194.384 1458.4C-162.087 1450.76 -96.0739 1448.57 -19.1094 1457.91C47.0048 1465.93 118.059 1480.37 182.904 1495.77C222.677 1505.28 260.344 1515.24 296.071 1525.08C317.827 1531.07 338.961 1537.01 359.585 1542.94C460.107 1571.84 551.316 1599.01 640.31 1631.34C674.107 1643.62 707.685 1657.02 741.099 1670.92C799.689 1695.21 858.077 1722.57 927.956 1749.34C950.922 1758.13 975.334 1766.85 1000.03 1775.35C1041.27 1789.6 1082.14 1803.04 1123.15 1811.98C1138.94 1815.42 1154.7 1818.2 1170.15 1820.04C1200.34 1823.64 1227.65 1824.01 1253.59 1823.15C1299.69 1821.63 1342.39 1816.49 1380.14 1808.78C1425.31 1799.56 1462.89 1785.49 1507.18 1774.19C1535.55 1766.95 1566.36 1760.42 1602.91 1756.47C1698.47 1746.15 1817.15 1750.29 1932.22 1754.76" stroke="url(#paint51_linear_1752_5797)" stroke-miterlimit="10"/>
<path d="M-193.41 1454.44C-161.754 1445.71 -95.5225 1442.8 -18.0737 1451.93C48.2433 1459.75 119.55 1474.31 184.49 1490.01C224.343 1499.71 262.039 1509.94 297.774 1520.08C319.547 1526.26 340.664 1532.4 361.284 1538.54C461.855 1568.47 553.006 1596.87 641.605 1630.27C675.332 1642.98 708.766 1656.79 742.028 1671.07C800.324 1696.01 858.325 1723.95 928.404 1751.05C951.352 1759.93 975.844 1768.69 1000.63 1777.2C1041.99 1791.44 1083.17 1804.76 1124.38 1813.48C1140.26 1816.84 1156.11 1819.53 1171.6 1821.26C1201.98 1824.64 1229.32 1824.73 1255.24 1823.58C1301.45 1821.55 1344.06 1815.86 1381.54 1807.6C1426.48 1797.68 1463.55 1782.88 1507.59 1770.97C1535.74 1763.35 1566.43 1756.49 1603.07 1752.3C1698.33 1741.4 1817.59 1745.58 1933.18 1750.15" stroke="url(#paint52_linear_1752_5797)" stroke-miterlimit="10"/>
<path d="M-192.424 1450.48C-161.397 1440.68 -94.9594 1437.03 -17.0262 1445.95C49.4808 1453.56 121.035 1468.24 186.074 1484.25C226.005 1494.15 263.717 1504.64 299.471 1515.08C321.247 1521.45 342.377 1527.79 362.98 1534.13C463.587 1565.09 554.689 1594.74 642.897 1629.2C676.566 1642.35 709.861 1656.55 742.94 1671.21C800.926 1696.8 858.558 1725.32 928.849 1752.76C951.792 1761.72 976.334 1770.54 1001.24 1779.05C1042.73 1793.29 1084.24 1806.47 1125.63 1814.97C1141.62 1818.25 1157.53 1820.85 1173.08 1822.47C1203.65 1825.65 1231.03 1825.44 1256.92 1824.02C1303.23 1821.47 1345.76 1815.24 1382.96 1806.41C1427.65 1795.8 1464.22 1780.28 1508.01 1767.75C1535.94 1759.76 1566.5 1752.57 1603.22 1748.14C1698.2 1736.67 1818.04 1740.87 1934.12 1745.53" stroke="url(#paint53_linear_1752_5797)" stroke-miterlimit="10"/>
<path d="M-191.45 1446.51C-161.065 1435.63 -94.3934 1431.25 -15.976 1439.96C50.719 1447.37 122.541 1462.17 187.662 1478.48C227.672 1488.57 265.414 1499.32 301.175 1510.06C322.953 1516.62 344.082 1523.16 364.698 1529.71C465.354 1561.7 556.38 1592.58 644.211 1628.1C677.809 1641.68 710.961 1656.29 743.888 1671.32C801.562 1697.58 858.825 1726.67 929.333 1754.45C952.259 1763.47 976.864 1772.36 1001.9 1780.88C1043.51 1795.1 1085.33 1808.16 1126.91 1816.45C1142.99 1819.65 1158.97 1822.15 1174.58 1823.66C1205.34 1826.62 1232.77 1826.13 1258.62 1824.42C1305.04 1821.36 1347.48 1814.59 1384.41 1805.19C1428.88 1793.88 1464.93 1777.64 1508.46 1764.5C1536.17 1756.13 1566.61 1748.62 1603.39 1743.94C1698.08 1731.89 1818.5 1736.13 1935.08 1740.9" stroke="url(#paint54_linear_1752_5797)" stroke-miterlimit="10"/>
<path d="M-190.464 1442.55C-160.72 1430.58 -93.8302 1425.49 -14.9286 1433.98C51.9692 1441.19 124.041 1456.11 189.26 1472.73C229.347 1483.02 267.106 1494.02 302.887 1505.07C324.683 1511.81 345.812 1518.55 366.409 1525.31C467.098 1558.33 558.077 1590.46 645.519 1627.03C679.043 1641.06 712.069 1656.06 744.815 1671.47C802.194 1698.38 859.072 1728.04 929.778 1756.16C952.7 1765.27 977.369 1774.21 1002.51 1782.74C1044.25 1796.95 1086.34 1810.1 1128.15 1817.95C1144.33 1821 1160.39 1823.48 1176.04 1824.87C1206.99 1827.64 1234.46 1826.85 1260.29 1824.86C1306.82 1821.27 1349.16 1813.96 1385.82 1804.01C1430.06 1792 1465.61 1775.04 1508.88 1761.28C1536.38 1752.54 1566.68 1744.69 1603.54 1739.77C1697.94 1727.16 1818.95 1731.42 1936.04 1736.29" stroke="url(#paint55_linear_1752_5797)" stroke-miterlimit="10"/>
<path d="M-189.492 1438.59C-160.377 1425.55 -93.2661 1419.72 -13.895 1428C53.1908 1435 125.529 1450.04 190.83 1466.97C231.01 1477.45 268.787 1488.71 304.572 1500.07C326.37 1506.99 347.498 1513.94 368.092 1520.9C468.829 1554.96 559.732 1588.32 646.797 1625.96C680.263 1640.42 713.148 1655.83 745.727 1671.61C802.794 1699.18 859.306 1729.41 930.224 1757.87C953.127 1767.06 977.861 1776.05 1003.11 1784.59C1044.98 1798.79 1087.42 1811.6 1129.38 1819.45C1145.63 1822.49 1161.78 1824.8 1177.49 1826.09C1208.62 1828.64 1236.14 1827.56 1261.92 1825.29C1308.56 1821.17 1350.81 1813.33 1387.21 1802.82C1431.2 1790.11 1466.26 1772.44 1509.27 1758.05C1536.56 1748.94 1566.73 1740.76 1603.68 1735.59C1697.8 1722.42 1819.38 1726.71 1936.97 1731.66" stroke="url(#paint56_linear_1752_5797)" stroke-miterlimit="10"/>
<path d="M-188.516 1434.62C-160.042 1420.49 -92.7147 1413.95 -12.8572 1422.01C54.4187 1428.8 127.02 1443.97 192.403 1461.21C232.662 1471.88 270.454 1483.4 306.245 1495.06C328.046 1502.17 349.171 1509.32 369.764 1516.49C470.533 1551.59 561.374 1586.18 648.065 1624.87C681.457 1639.78 714.204 1655.57 746.614 1671.73C803.371 1699.95 859.512 1730.77 930.629 1759.57C953.529 1768.84 978.311 1777.89 1003.68 1786.43C1045.67 1800.62 1088.45 1813.3 1130.58 1820.94C1146.93 1823.89 1163.16 1826.11 1178.91 1827.29C1210.24 1829.63 1237.79 1828.26 1263.54 1825.7C1310.29 1821.06 1352.46 1812.69 1388.58 1801.62C1432.32 1788.21 1466.89 1769.82 1509.65 1754.83C1536.72 1745.33 1566.79 1736.83 1603.79 1731.42C1697.64 1717.69 1819.77 1721.99 1937.88 1727.04" stroke="url(#paint57_linear_1752_5797)" stroke-miterlimit="10"/>
<path d="M-187.532 1430.66C-159.702 1415.46 -92.1391 1408.18 -11.7973 1416.03C55.6813 1422.62 128.52 1437.91 194.014 1455.46C234.351 1466.32 272.174 1478.1 307.971 1490.06C329.791 1497.35 350.913 1504.71 371.489 1512.08C472.292 1548.21 563.071 1584.06 649.386 1623.8C682.706 1639.14 715.326 1655.34 747.555 1671.87C804.003 1700.74 859.774 1732.13 931.104 1761.28C953.984 1770.63 978.847 1779.73 1004.32 1788.28C1046.44 1802.46 1089.53 1815.02 1131.85 1822.43C1148.29 1825.31 1164.6 1827.43 1180.41 1828.49C1211.92 1830.62 1239.51 1828.96 1265.24 1826.12C1312.08 1820.96 1354.16 1812.05 1390.02 1800.42C1433.53 1786.32 1467.61 1767.21 1510.09 1751.6C1536.95 1741.73 1566.88 1732.9 1603.96 1727.23C1697.52 1712.93 1820.24 1717.26 1938.84 1722.4" stroke="url(#paint58_linear_1752_5797)" stroke-miterlimit="10"/>
<path d="M-186.56 1426.7C-159.356 1410.42 -91.5916 1402.42 -10.7613 1410.04C56.9053 1416.43 130.009 1431.84 195.586 1449.69C236 1460.75 273.855 1472.79 309.659 1485.05C331.482 1492.52 352.604 1500.07 373.176 1507.66C474.028 1544.83 564.728 1581.91 650.682 1622.72C683.928 1638.5 716.407 1655.09 748.485 1672C804.635 1701.54 860.024 1733.5 931.552 1762.98C954.428 1772.42 979.34 1781.57 1004.92 1790.12C1047.17 1804.3 1090.58 1816.73 1133.07 1823.93C1149.62 1826.73 1165.99 1828.75 1181.86 1829.71C1213.56 1831.62 1241.19 1829.68 1266.89 1826.56C1313.84 1820.86 1355.83 1811.42 1391.42 1799.24C1434.69 1784.43 1468.27 1764.61 1510.5 1748.38C1537.14 1738.13 1566.94 1728.98 1604.1 1723.06C1697.39 1708.21 1820.66 1712.55 1939.78 1717.8" stroke="url(#paint59_linear_1752_5797)" stroke-miterlimit="10"/>
<path d="M-185.572 1422.74C-159.01 1405.37 -91.0115 1396.66 -9.71177 1404.06C58.1555 1410.25 131.513 1425.77 197.172 1443.93C237.664 1455.19 275.536 1467.48 311.358 1480.06C333.183 1487.72 354.304 1495.47 374.872 1503.26C475.756 1541.47 566.378 1579.8 651.975 1621.66C685.147 1637.88 717.5 1654.87 749.397 1672.15C805.237 1702.34 860.272 1734.87 931.997 1764.7C954.871 1774.21 979.832 1783.42 1005.53 1791.99C1047.91 1806.15 1091.63 1818.46 1134.31 1825.44C1150.95 1828.16 1167.41 1830.08 1183.32 1830.93C1215.2 1832.63 1242.86 1830.39 1268.55 1827C1315.6 1820.78 1357.49 1810.8 1392.83 1798.06C1435.85 1782.55 1468.95 1762.02 1510.92 1745.17C1537.35 1734.55 1567.03 1725.08 1604.27 1718.91C1697.28 1703.51 1821.13 1707.85 1940.73 1713.2" stroke="url(#paint60_linear_1752_5797)" stroke-miterlimit="10"/>
<path d="M-184.598 1418.77C-158.664 1400.33 -90.4624 1390.88 -8.67633 1398.07C59.3789 1404.06 133.001 1419.7 198.76 1438.16C239.331 1449.6 277.234 1462.16 313.062 1475.04C334.89 1482.88 356.009 1490.84 376.575 1498.84C477.493 1538.08 568.037 1577.64 653.274 1620.56C686.357 1637.22 718.588 1654.6 750.33 1672.27C805.859 1703.12 860.526 1736.22 932.449 1766.39C955.305 1775.98 980.344 1785.25 1006.15 1793.82C1048.66 1807.97 1092.7 1820.15 1135.56 1826.91C1152.29 1829.56 1168.83 1831.37 1184.79 1832.12C1216.86 1833.61 1244.56 1831.08 1270.21 1827.4C1317.35 1820.66 1359.16 1810.13 1394.22 1796.84C1436.99 1780.62 1469.62 1759.39 1511.31 1741.92C1537.53 1730.93 1567.09 1721.13 1604.38 1714.71C1697.13 1698.75 1821.53 1703.11 1941.64 1708.55" stroke="url(#paint61_linear_1752_5797)" stroke-miterlimit="10"/>
<path d="M-183.625 1414.81C-158.333 1395.28 -89.8998 1385.13 -7.64215 1392.09C60.6159 1397.88 134.49 1413.63 200.328 1432.41C240.978 1444.05 278.896 1456.87 314.744 1470.05C336.589 1478.08 357.706 1486.24 378.256 1494.44C479.208 1534.71 569.672 1575.53 654.551 1619.5C687.56 1636.6 719.665 1654.37 751.227 1672.41C806.46 1703.92 860.744 1737.59 932.878 1768.11C955.73 1777.78 980.818 1787.11 1006.74 1795.68C1049.36 1809.82 1093.71 1821.88 1136.78 1828.42C1153.6 1830.98 1170.21 1832.72 1186.23 1833.35C1218.49 1834.62 1246.23 1831.8 1271.86 1827.85C1319.09 1820.57 1360.82 1809.52 1395.62 1795.68C1438.13 1778.76 1470.28 1756.81 1511.71 1738.72C1537.71 1727.36 1567.15 1717.24 1604.52 1710.56C1696.98 1694.06 1821.96 1698.42 1942.57 1703.96" stroke="url(#paint62_linear_1752_5797)" stroke-miterlimit="10"/>
<path d="M-182.638 1410.86C-157.989 1390.25 -89.3224 1379.37 -6.57839 1386.11C61.8676 1391.7 136.007 1407.58 201.93 1426.65C242.656 1438.48 280.606 1451.56 316.462 1465.04C338.309 1473.26 359.404 1481.64 379.973 1490.02C480.867 1531.45 571.343 1573.4 655.864 1618.41C688.8 1635.95 720.779 1654.13 752.174 1672.54C807.097 1704.7 861.028 1738.94 933.344 1769.81C956.191 1779.56 981.33 1788.93 1007.37 1797.52C1050.12 1811.65 1094.78 1823.58 1138.04 1829.91C1154.96 1832.38 1171.66 1834.02 1187.72 1834.54C1220.17 1835.6 1247.93 1832.48 1273.54 1828.26C1320.87 1820.45 1362.51 1808.87 1397.05 1794.47C1439.32 1776.85 1470.99 1754.2 1512.16 1735.48C1537.95 1723.75 1567.26 1713.29 1604.69 1706.37C1696.9 1689.32 1822.41 1693.7 1943.53 1699.32" stroke="url(#paint63_linear_1752_5797)" stroke-miterlimit="10"/>
<path d="M-181.663 1406.89C-157.641 1385.2 -88.7728 1373.6 -5.54236 1380.12C63.1064 1385.51 137.483 1401.5 203.517 1420.89C244.322 1432.91 282.289 1446.24 318.147 1460.03C339.997 1468.44 361.092 1477.02 381.656 1485.62C482.586 1528.07 572.981 1571.26 657.142 1617.34C689.989 1635.32 721.843 1653.89 753.072 1672.68C807.684 1705.49 861.247 1740.3 933.775 1771.52C956.606 1781.34 981.807 1790.78 1007.97 1799.37C1050.85 1813.49 1095.83 1825.29 1139.27 1831.41C1156.28 1833.8 1173.05 1835.34 1189.17 1835.76C1221.79 1836.61 1249.61 1833.2 1275.19 1828.7C1322.6 1820.35 1364.17 1808.24 1398.45 1793.29C1440.46 1774.97 1471.67 1751.61 1512.57 1732.26C1538.16 1720.15 1567.34 1709.38 1604.84 1702.21C1696.8 1684.61 1822.87 1688.99 1944.49 1694.72" stroke="url(#paint64_linear_1752_5797)" stroke-miterlimit="10"/>
<path d="M-180.68 1402.93C-157.299 1380.15 -88.199 1367.84 -4.49705 1374.15C64.3376 1379.33 138.981 1395.44 205.098 1415.13C245.982 1427.35 283.979 1440.94 319.845 1455.03C341.712 1463.62 362.805 1472.41 383.352 1481.21C484.316 1524.69 574.616 1569.13 658.435 1616.26C691.208 1634.68 722.938 1653.64 753.998 1672.81C808.3 1706.28 861.495 1741.66 934.22 1773.22C957.047 1783.13 982.313 1792.62 1008.57 1801.22C1051.57 1815.32 1096.87 1827 1140.49 1832.9C1157.6 1835.22 1174.44 1836.66 1190.61 1836.97C1223.43 1837.6 1251.27 1833.9 1276.84 1829.12C1324.35 1820.24 1365.8 1807.59 1399.85 1792.09C1441.61 1773.06 1472.34 1749 1512.96 1729.03C1538.34 1716.55 1567.4 1705.46 1604.96 1698.03C1696.66 1679.89 1823.27 1684.26 1945.4 1690.09" stroke="url(#paint65_linear_1752_5797)" stroke-miterlimit="10"/>
<path d="M-179.708 1398.97C-156.97 1375.12 -87.637 1362.08 -3.46346 1368.16C65.574 1373.15 140.47 1389.37 206.667 1409.38C247.63 1421.78 285.658 1435.64 321.528 1450.03C343.398 1458.81 364.491 1467.79 385.034 1476.8C486.049 1521.31 576.238 1567.01 659.713 1615.18C692.396 1634.05 724.002 1653.4 754.896 1672.95C808.901 1707.08 861.73 1743.02 934.651 1774.93C957.474 1784.92 982.789 1794.46 1009.16 1803.07C1052.3 1817.17 1097.91 1828.66 1141.72 1834.4C1158.93 1836.62 1175.83 1837.97 1192.06 1838.17C1225.05 1838.58 1252.93 1834.6 1278.48 1829.54C1326.06 1820.13 1367.44 1806.95 1401.23 1790.89C1442.73 1771.16 1473 1746.39 1513.35 1725.8C1538.53 1712.95 1567.46 1701.53 1605.09 1693.85C1696.53 1675.17 1823.69 1679.55 1946.31 1685.47" stroke="url(#paint66_linear_1752_5797)" stroke-miterlimit="10"/>
<path d="M-178.736 1395.01C-156.625 1370.07 -87.0897 1356.32 -2.41501 1362.18C66.8231 1366.98 141.971 1383.31 208.267 1403.62C249.306 1416.23 287.351 1430.34 323.243 1445.03C345.115 1454 366.207 1463.18 386.748 1472.39C487.799 1517.92 577.891 1564.88 661.038 1614.11C693.648 1633.42 725.128 1653.17 755.855 1673.09C809.55 1707.87 862.011 1744.39 935.144 1776.64C957.95 1786.7 983.328 1796.31 1009.83 1804.92C1053.09 1819.01 1099.01 1830.37 1143 1835.9C1160.3 1838.03 1177.29 1839.29 1193.57 1839.39C1226.75 1839.58 1254.66 1835.3 1280.19 1829.97C1327.86 1820.02 1369.16 1806.32 1402.69 1789.7C1443.94 1769.26 1473.74 1743.79 1513.82 1722.58C1538.8 1709.36 1567.6 1697.62 1605.29 1689.68C1696.47 1670.46 1824.18 1674.83 1947.32 1680.85" stroke="url(#paint67_linear_1752_5797)" stroke-miterlimit="10"/>
<path d="M-177.744 1391.04C-156.277 1365.03 -86.4871 1350.66 -1.36005 1356.19C68.0768 1360.86 143.481 1377.23 209.86 1397.84C250.978 1410.64 289.053 1425.02 324.952 1440.01C346.841 1449.16 367.931 1458.54 388.454 1467.96C489.539 1514.53 579.534 1562.74 662.34 1613.01C694.86 1632.76 726.218 1652.9 756.777 1673.2C810.162 1708.63 862.348 1745.65 935.584 1778.33C958.406 1788.44 983.828 1798.13 1010.42 1806.74C1053.81 1820.82 1100.05 1832.07 1144.22 1837.36C1161.61 1839.42 1178.69 1840.58 1195.02 1840.56C1228.37 1840.54 1256.33 1835.98 1281.83 1830.37C1329.58 1819.88 1370.8 1805.64 1404.07 1788.48C1445.05 1767.34 1474.42 1741.17 1514.21 1719.33C1538.98 1705.73 1567.67 1693.68 1605.42 1685.47C1696.35 1665.72 1824.61 1670.09 1948.24 1676.2" stroke="url(#paint68_linear_1752_5797)" stroke-miterlimit="10"/>
<path d="M-176.774 1387.08C-155.933 1359.99 -85.9372 1344.88 -0.327965 1350.21C69.3138 1354.67 144.951 1371.16 211.428 1392.08C252.624 1405.07 290.717 1419.7 326.633 1435.01C348.528 1444.34 369.616 1453.92 390.15 1463.56C491.285 1511.15 581.168 1560.62 663.632 1611.94C696.063 1632.13 727.31 1652.67 757.688 1673.34C810.776 1709.44 862.578 1747.03 936.028 1780.04C958.847 1790.24 984.319 1799.97 1011.03 1808.6C1054.55 1822.66 1101.1 1833.79 1145.46 1838.87C1162.95 1840.84 1180.09 1841.9 1196.48 1841.79C1230.02 1841.55 1258 1836.69 1283.49 1830.81C1331.33 1819.78 1372.46 1805.02 1405.48 1787.3C1446.21 1765.45 1475.11 1738.57 1514.62 1716.12C1539.17 1702.16 1567.74 1689.78 1605.56 1681.31C1696.24 1661.02 1825.03 1665.39 1949.17 1671.6" stroke="url(#paint69_linear_1752_5797)" stroke-miterlimit="10"/>
<path d="M-175.788 1383.12C-155.591 1354.95 -85.3592 1339.12 0.719468 1344.23C70.5513 1348.48 146.453 1365.1 213.026 1386.33C254.301 1399.51 292.424 1414.4 328.347 1430.01C350.244 1439.52 371.331 1449.31 391.863 1459.15C493.034 1507.77 582.805 1558.49 664.941 1610.87C697.283 1631.5 728.405 1652.43 758.631 1673.48C811.409 1710.23 862.84 1748.4 936.49 1781.75C959.29 1792.03 984.825 1801.82 1011.66 1810.45C1055.3 1824.51 1102.17 1835.5 1146.72 1840.37C1164.3 1842.27 1181.51 1843.22 1197.96 1843C1231.68 1842.54 1259.69 1837.4 1285.17 1831.25C1333.09 1819.68 1374.13 1804.39 1406.91 1786.12C1447.37 1763.57 1475.9 1736.04 1515.05 1712.9C1539.46 1698.6 1567.86 1685.88 1605.72 1677.15C1696.17 1656.32 1825.49 1660.68 1950.13 1666.99" stroke="url(#paint70_linear_1752_5797)" stroke-miterlimit="10"/>
<path d="M-174.812 1379.15C-155.256 1349.9 -84.8039 1333.33 1.75699 1338.24C71.7789 1342.27 147.944 1359.03 214.599 1380.56C255.951 1393.94 294.092 1409.09 330.02 1425C351.919 1434.7 373.019 1444.7 393.534 1454.73C494.74 1504.38 584.293 1556.41 666.209 1609.78C698.424 1630.88 729.474 1652.18 759.518 1673.61C811.984 1711.01 863.046 1749.76 936.91 1783.44C959.706 1793.81 985.307 1803.65 1012.23 1812.29C1056 1826.34 1103.19 1837.21 1147.93 1841.85C1165.61 1843.67 1182.88 1844.51 1199.39 1844.2C1233.3 1843.49 1261.33 1838.07 1286.8 1831.65C1334.78 1819.54 1375.71 1803.7 1408.28 1784.91C1448.41 1761.61 1476.54 1733.4 1515.44 1709.66C1539.64 1694.97 1567.92 1681.95 1605.84 1672.96C1696.04 1651.59 1825.89 1655.95 1951.03 1662.35" stroke="url(#paint71_linear_1752_5797)" stroke-miterlimit="10"/>
<path d="M-173.826 1375.19C-154.897 1344.86 -84.2386 1327.55 2.81924 1332.26C73.046 1336.09 149.461 1352.97 216.198 1374.81C257.643 1388.38 295.799 1403.79 331.734 1420C353.65 1429.89 374.736 1440.08 395.245 1450.34C496.486 1501.01 585.981 1554.26 667.516 1608.71C699.66 1630.24 730.583 1651.94 760.459 1673.75C812.616 1711.81 863.306 1751.14 937.37 1785.16C960.145 1795.61 985.812 1805.5 1012.86 1814.15C1056.77 1828.19 1104.25 1838.94 1149.19 1843.36C1166.94 1845.1 1184.32 1845.85 1200.87 1845.42C1234.95 1844.51 1263.01 1838.78 1288.48 1832.1C1336.5 1819.42 1377.4 1803.1 1409.71 1783.73C1449.59 1759.75 1477.22 1730.8 1515.86 1706.44C1539.84 1691.37 1568.05 1678.07 1606 1668.8C1696.02 1646.96 1826.36 1651.24 1952 1657.75" stroke="url(#paint72_linear_1752_5797)" stroke-miterlimit="10"/>
<path d="M-172.853 1371.23C-154.568 1339.82 -83.6742 1321.78 3.85316 1326.28C74.27 1329.89 150.947 1346.9 217.782 1369.06C284.617 1391.21 342.82 1418.31 396.943 1445.93C538.253 1518.06 656.492 1595.6 761.385 1673.9C813.247 1712.62 863.55 1752.53 937.829 1786.88C1012.11 1821.24 1117.86 1849.4 1202.35 1846.64C1236.62 1845.53 1264.71 1839.5 1290.16 1832.53C1338.28 1819.35 1379.1 1802.49 1411.14 1782.56C1475.34 1742.62 1506.69 1689.51 1606.17 1664.64C1695.91 1642.21 1826.81 1646.55 1952.95 1653.14" stroke="url(#paint73_linear_1752_5797)" stroke-miterlimit="10"/>
</g>
<defs>
<filter id="filter0_f_1752_5797" x="-207" y="-1.29102" width="2445" height="1397" filterUnits="userSpaceOnUse" color-interpolation-filters="sRGB">
<feFlood flood-opacity="0" result="BackgroundImageFix"/>
<feBlend mode="normal" in="SourceGraphic" in2="BackgroundImageFix" result="shape"/>
<feGaussianBlur stdDeviation="10" result="effect1_foregroundBlur_1752_5797"/>
</filter>
<linearGradient id="paint0_linear_1752_5797" x1="-130.451" y1="1072.25" x2="2099.27" y2="997.582" gradientUnits="userSpaceOnUse">
<stop stop-color="#2D2422"/>
<stop offset="0.5" stop-color="#2D2422"/>
<stop offset="1" stop-color="#2D2320"/>
</linearGradient>
<linearGradient id="paint1_linear_1752_5797" x1="-139.444" y1="1109.42" x2="2108.27" y2="951.56" gradientUnits="userSpaceOnUse">
<stop stop-color="#3B3433"/>
<stop offset="0.5" stop-color="#3B3635"/>
<stop offset="1" stop-color="#3B322F"/>
</linearGradient>
<linearGradient id="paint2_linear_1752_5797" x1="-143.883" y1="1149.06" x2="2109.12" y2="899.856" gradientUnits="userSpaceOnUse">
<stop stop-color="#474040"/>
<stop offset="0.5" stop-color="#474342"/>
<stop offset="1" stop-color="#473C39"/>
</linearGradient>
<linearGradient id="paint3_linear_1752_5797" x1="-128.073" y1="1279.47" x2="2113.75" y2="931.37" gradientUnits="userSpaceOnUse">
<stop stop-color="#524B4C"/>
<stop offset="0.5" stop-color="#52504F"/>
<stop offset="1" stop-color="#524541"/>
</linearGradient>
<linearGradient id="paint4_linear_1752_5797" x1="-102.762" y1="1396.34" x2="2134.7" y2="938.116" gradientUnits="userSpaceOnUse">
<stop stop-color="#5D5556"/>
<stop offset="0.5" stop-color="#5E5C5B"/>
<stop offset="1" stop-color="#5D4D48"/>
</linearGradient>
<linearGradient id="paint5_linear_1752_5797" x1="-66.5282" y1="1487.82" x2="2142.69" y2="912.802" gradientUnits="userSpaceOnUse">
<stop stop-color="#685E60"/>
<stop offset="0.5" stop-color="#686767"/>
<stop offset="1" stop-color="#67534D"/>
</linearGradient>
<linearGradient id="paint6_linear_1752_5797" x1="-16.9122" y1="1586.61" x2="2163.89" y2="882.964" gradientUnits="userSpaceOnUse">
<stop stop-color="#726669"/>
<stop offset="0.5" stop-color="#737171"/>
<stop offset="1" stop-color="#715951"/>
</linearGradient>
<linearGradient id="paint7_linear_1752_5797" x1="42.5245" y1="1654.24" x2="2161.6" y2="820.864" gradientUnits="userSpaceOnUse">
<stop stop-color="#7B6E71"/>
<stop offset="0.5" stop-color="#7D7C7C"/>
<stop offset="1" stop-color="#7A5D54"/>
</linearGradient>
<linearGradient id="paint8_linear_1752_5797" x1="116.587" y1="1702.1" x2="2136.28" y2="744.416" gradientUnits="userSpaceOnUse">
<stop stop-color="#857579"/>
<stop offset="0.5" stop-color="#878686"/>
<stop offset="1" stop-color="#836057"/>
</linearGradient>
<linearGradient id="paint9_linear_1752_5797" x1="201.53" y1="1744.31" x2="2109.47" y2="661.917" gradientUnits="userSpaceOnUse">
<stop stop-color="#8E7C80"/>
<stop offset="0.5" stop-color="#919090"/>
<stop offset="1" stop-color="#8C6358"/>
</linearGradient>
<linearGradient id="paint10_linear_1752_5797" x1="295.509" y1="1776.71" x2="2075.7" y2="573.299" gradientUnits="userSpaceOnUse">
<stop stop-color="#988287"/>
<stop offset="0.5" stop-color="#9A9999"/>
<stop offset="1" stop-color="#946558"/>
</linearGradient>
<linearGradient id="paint11_linear_1752_5797" x1="395.554" y1="1775.07" x2="2006.71" y2="478.852" gradientUnits="userSpaceOnUse">
<stop stop-color="#A1888E"/>
<stop offset="0.5" stop-color="#A4A3A3"/>
<stop offset="1" stop-color="#9D6658"/>
</linearGradient>
<linearGradient id="paint12_linear_1752_5797" x1="495.831" y1="1738.98" x2="1906.05" y2="387.06" gradientUnits="userSpaceOnUse">
<stop stop-color="#A98D94"/>
<stop offset="0.5" stop-color="#ADACAC"/>
<stop offset="1" stop-color="#A56657"/>
</linearGradient>
<linearGradient id="paint13_linear_1752_5797" x1="592.567" y1="1689.94" x2="1808.98" y2="294.762" gradientUnits="userSpaceOnUse">
<stop stop-color="#B29299"/>
<stop offset="0.5" stop-color="#B6B5B5"/>
<stop offset="1" stop-color="#AD6555"/>
</linearGradient>
<linearGradient id="paint14_linear_1752_5797" x1="683.137" y1="1629.13" x2="1711.65" y2="206.805" gradientUnits="userSpaceOnUse">
<stop stop-color="#BA969E"/>
<stop offset="0.5" stop-color="#BFBEBD"/>
<stop offset="1" stop-color="#B46352"/>
</linearGradient>
<linearGradient id="paint15_linear_1752_5797" x1="762.575" y1="1543.89" x2="1599.75" y2="132.751" gradientUnits="userSpaceOnUse">
<stop stop-color="#C29AA3"/>
<stop offset="0.5" stop-color="#C8C6C6"/>
<stop offset="1" stop-color="#BB614F"/>
</linearGradient>
<linearGradient id="paint16_linear_1752_5797" x1="829.282" y1="1441.79" x2="1482.18" y2="77.5693" gradientUnits="userSpaceOnUse">
<stop stop-color="#CA9DA7"/>
<stop offset="0.5" stop-color="#D0CECD"/>
<stop offset="1" stop-color="#C25E4C"/>
</linearGradient>
<linearGradient id="paint17_linear_1752_5797" x1="885.622" y1="1340.7" x2="1376.36" y2="37.4684" gradientUnits="userSpaceOnUse">
<stop stop-color="#D1A0AB"/>
<stop offset="0.5" stop-color="#D9D6D5"/>
<stop offset="1" stop-color="#C95A48"/>
</linearGradient>
<linearGradient id="paint18_linear_1752_5797" x1="929.22" y1="1233.24" x2="1276.78" y2="15.9019" gradientUnits="userSpaceOnUse">
<stop stop-color="#D9A2AE"/>
<stop offset="0.5" stop-color="#E1DEDD"/>
<stop offset="1" stop-color="#D05545"/>
</linearGradient>
<linearGradient id="paint19_linear_1752_5797" x1="963.875" y1="1133.08" x2="1193.64" y2="3.37106" gradientUnits="userSpaceOnUse">
<stop stop-color="#E0A4B1"/>
<stop offset="0.5" stop-color="#E9E5E4"/>
<stop offset="1" stop-color="#D64F41"/>
</linearGradient>
<linearGradient id="paint20_linear_1752_5797" x1="983.886" y1="1100.05" x2="1125.61" y2="2.57182" gradientUnits="userSpaceOnUse">
<stop stop-color="#E6A5B3"/>
<stop offset="0.5" stop-color="#F1EDEB"/>
<stop offset="1" stop-color="#DD483C"/>
</linearGradient>
<linearGradient id="paint21_linear_1752_5797" x1="998.56" y1="1135.29" x2="1067.94" y2="8.60607" gradientUnits="userSpaceOnUse">
<stop stop-color="#EDA6B5"/>
<stop offset="0.5" stop-color="#F8F4F2"/>
<stop offset="1" stop-color="#E33F38"/>
</linearGradient>
<linearGradient id="paint22_linear_1752_5797" x1="1015.5" y1="1167.73" x2="1015.5" y2="18.7091" gradientUnits="userSpaceOnUse">
<stop stop-color="#F2A5B6"/>
<stop offset="0.5" stop-color="#FFF9F7"/>
<stop offset="1" stop-color="#E83434"/>
</linearGradient>
<linearGradient id="paint23_linear_1752_5797" x1="-216.982" y1="1544.38" x2="1887.32" y2="1970.64" gradientUnits="userSpaceOnUse">
<stop stop-color="white"/>
<stop offset="0.11" stop-color="#FFFEFE"/>
<stop offset="0.6" stop-color="#FFFDFD"/>
<stop offset="1" stop-color="#FFFCFC"/>
</linearGradient>
<linearGradient id="paint24_linear_1752_5797" x1="-218.409" y1="1549.51" x2="1899.61" y2="1902.79" gradientUnits="userSpaceOnUse">
<stop stop-color="white"/>
<stop offset="0.11" stop-color="#FFFDFD"/>
<stop offset="0.6" stop-color="#FFFBFB"/>
<stop offset="1" stop-color="#FFF9F9"/>
</linearGradient>
<linearGradient id="paint25_linear_1752_5797" x1="-219.61" y1="1558.1" x2="1906.37" y2="1834.39" gradientUnits="userSpaceOnUse">
<stop stop-color="white"/>
<stop offset="0.11" stop-color="#FFFBFB"/>
<stop offset="0.6" stop-color="#FFFAFA"/>
<stop offset="1" stop-color="#FFF7F6"/>
</linearGradient>
<linearGradient id="paint26_linear_1752_5797" x1="-220.653" y1="1574.71" x2="1906.66" y2="1771.19" gradientUnits="userSpaceOnUse">
<stop stop-color="white"/>
<stop offset="0.11" stop-color="#FFFAFA"/>
<stop offset="0.6" stop-color="#FFF8F8"/>
<stop offset="1" stop-color="#FFF4F3"/>
</linearGradient>
<linearGradient id="paint27_linear_1752_5797" x1="-220.343" y1="1593.86" x2="1924.6" y2="1708.44" gradientUnits="userSpaceOnUse">
<stop stop-color="white"/>
<stop offset="0.11" stop-color="#FFF9F9"/>
<stop offset="0.6" stop-color="#FFF6F6"/>
<stop offset="1" stop-color="#FFF1F1"/>
</linearGradient>
<linearGradient id="paint28_linear_1752_5797" x1="-217.909" y1="1604.96" x2="1913.38" y2="1633.56" gradientUnits="userSpaceOnUse">
<stop stop-color="white"/>
<stop offset="0.11" stop-color="#FFF8F8"/>
<stop offset="0.6" stop-color="#FFF4F4"/>
<stop offset="1" stop-color="#FFEEEE"/>
</linearGradient>
<linearGradient id="paint29_linear_1752_5797" x1="-214.25" y1="1614.14" x2="1894.53" y2="1555.26" gradientUnits="userSpaceOnUse">
<stop stop-color="white"/>
<stop offset="0.11" stop-color="#FFF7F7"/>
<stop offset="0.6" stop-color="#FFF3F2"/>
<stop offset="1" stop-color="#FFEBEB"/>
</linearGradient>
<linearGradient id="paint30_linear_1752_5797" x1="-209.256" y1="1625.37" x2="1892.16" y2="1477.54" gradientUnits="userSpaceOnUse">
<stop stop-color="white"/>
<stop offset="0.11" stop-color="#FFF6F5"/>
<stop offset="0.6" stop-color="#FFF1F0"/>
<stop offset="1" stop-color="#FFE9E8"/>
</linearGradient>
<linearGradient id="paint31_linear_1752_5797" x1="-203.139" y1="1635.46" x2="1857.04" y2="1400.85" gradientUnits="userSpaceOnUse">
<stop stop-color="white"/>
<stop offset="0.11" stop-color="#FFF4F4"/>
<stop offset="0.6" stop-color="#FFEFEF"/>
<stop offset="1" stop-color="#FFE6E5"/>
</linearGradient>
<linearGradient id="paint32_linear_1752_5797" x1="-195.03" y1="1647.17" x2="1838.29" y2="1323.63" gradientUnits="userSpaceOnUse">
<stop stop-color="white"/>
<stop offset="0.11" stop-color="#FFF3F3"/>
<stop offset="0.6" stop-color="#FFEDED"/>
<stop offset="1" stop-color="#FFE3E2"/>
</linearGradient>
<linearGradient id="paint33_linear_1752_5797" x1="-186.095" y1="1658.17" x2="1786.1" y2="1252.78" gradientUnits="userSpaceOnUse">
<stop stop-color="white"/>
<stop offset="0.11" stop-color="#FFF2F2"/>
<stop offset="0.6" stop-color="#FFEBEB"/>
<stop offset="1" stop-color="#FFE0DF"/>
</linearGradient>
<linearGradient id="paint34_linear_1752_5797" x1="-174.641" y1="1670.3" x2="1751.25" y2="1182.58" gradientUnits="userSpaceOnUse">
<stop stop-color="white"/>
<stop offset="0.11" stop-color="#FFF1F1"/>
<stop offset="0.6" stop-color="#FFEAE9"/>
<stop offset="1" stop-color="#FFDDDC"/>
</linearGradient>
<linearGradient id="paint35_linear_1752_5797" x1="-160.474" y1="1685.03" x2="1709.14" y2="1118.84" gradientUnits="userSpaceOnUse">
<stop stop-color="white"/>
<stop offset="0.11" stop-color="#FFF0EF"/>
<stop offset="0.6" stop-color="#FFE8E7"/>
<stop offset="1" stop-color="#FFDBDA"/>
</linearGradient>
<linearGradient id="paint36_linear_1752_5797" x1="-143.674" y1="1701.03" x2="1660.77" y2="1062.51" gradientUnits="userSpaceOnUse">
<stop stop-color="white"/>
<stop offset="0.11" stop-color="#FFEFEE"/>
<stop offset="0.6" stop-color="#FFE6E5"/>
<stop offset="1" stop-color="#FFD8D7"/>
</linearGradient>
<linearGradient id="paint37_linear_1752_5797" x1="-126.789" y1="1717.13" x2="1581.89" y2="1022.67" gradientUnits="userSpaceOnUse">
<stop stop-color="white"/>
<stop offset="0.11" stop-color="#FFEDED"/>
<stop offset="0.6" stop-color="#FFE4E4"/>
<stop offset="0.63" stop-color="#FFE2E2"/>
<stop offset="1" stop-color="#FFD5D4"/>
</linearGradient>
<linearGradient id="paint38_linear_1752_5797" x1="-105.637" y1="1733.39" x2="1523.1" y2="982.586" gradientUnits="userSpaceOnUse">
<stop stop-color="white"/>
<stop offset="0.11" stop-color="#FFECEC"/>
<stop offset="0.6" stop-color="#FFE2E2"/>
<stop offset="0.65" stop-color="#FFDFDF"/>
<stop offset="1" stop-color="#FFD2D1"/>
</linearGradient>
<linearGradient id="paint39_linear_1752_5797" x1="-78.9488" y1="1749.07" x2="1484.84" y2="940.043" gradientUnits="userSpaceOnUse">
<stop stop-color="white"/>
<stop offset="0.11" stop-color="#FFEBEB"/>
<stop offset="0.6" stop-color="#FFE1E0"/>
<stop offset="0.67" stop-color="#FFDDDC"/>
<stop offset="1" stop-color="#FFCFCE"/>
</linearGradient>
<linearGradient id="paint40_linear_1752_5797" x1="-52.8912" y1="1764.74" x2="1419.84" y2="917.222" gradientUnits="userSpaceOnUse">
<stop stop-color="white"/>
<stop offset="0.11" stop-color="#FFEAE9"/>
<stop offset="0.6" stop-color="#FFDFDE"/>
<stop offset="0.68" stop-color="#FFDAD9"/>
<stop offset="1" stop-color="#FFCDCB"/>
</linearGradient>
<linearGradient id="paint41_linear_1752_5797" x1="-24.9276" y1="1780" x2="1353.35" y2="903.653" gradientUnits="userSpaceOnUse">
<stop stop-color="white"/>
<stop offset="0.11" stop-color="#FFE9E8"/>
<stop offset="0.6" stop-color="#FFDDDC"/>
<stop offset="0.69" stop-color="#FFD7D6"/>
<stop offset="1" stop-color="#FFCAC8"/>
</linearGradient>
<linearGradient id="paint42_linear_1752_5797" x1="4.64426" y1="1794.76" x2="1286.7" y2="899.407" gradientUnits="userSpaceOnUse">
<stop stop-color="white"/>
<stop offset="0.11" stop-color="#FFE7E7"/>
<stop offset="0.6" stop-color="#FFDBDB"/>
<stop offset="0.72" stop-color="#FFD4D3"/>
<stop offset="1" stop-color="#FFC7C5"/>
</linearGradient>
<linearGradient id="paint43_linear_1752_5797" x1="41.1686" y1="1807.51" x2="1243.44" y2="890.101" gradientUnits="userSpaceOnUse">
<stop stop-color="white"/>
<stop offset="0.11" stop-color="#FFE6E6"/>
<stop offset="0.6" stop-color="#FFDAD9"/>
<stop offset="0.73" stop-color="#FFD1D0"/>
<stop offset="1" stop-color="#FFC4C2"/>
</linearGradient>
<linearGradient id="paint44_linear_1752_5797" x1="73.4706" y1="1820.67" x2="1179.01" y2="902.856" gradientUnits="userSpaceOnUse">
<stop stop-color="white"/>
<stop offset="0.11" stop-color="#FFE5E5"/>
<stop offset="0.6" stop-color="#FFD8D7"/>
<stop offset="0.73" stop-color="#FFCFCE"/>
<stop offset="1" stop-color="#FFC1C0"/>
</linearGradient>
<linearGradient id="paint45_linear_1752_5797" x1="113.13" y1="1831.02" x2="1138.26" y2="908.302" gradientUnits="userSpaceOnUse">
<stop stop-color="white"/>
<stop offset="0.11" stop-color="#FFE4E3"/>
<stop offset="0.6" stop-color="#FFD6D5"/>
<stop offset="0.74" stop-color="#FFCCCB"/>
<stop offset="1" stop-color="#FFBFBD"/>
</linearGradient>
<linearGradient id="paint46_linear_1752_5797" x1="154.022" y1="1839.93" x2="1099.74" y2="920.239" gradientUnits="userSpaceOnUse">
<stop stop-color="white"/>
<stop offset="0.11" stop-color="#FFE3E2"/>
<stop offset="0.6" stop-color="#FFD4D3"/>
<stop offset="0.75" stop-color="#FFC9C8"/>
<stop offset="1" stop-color="#FFBCBA"/>
</linearGradient>
<linearGradient id="paint47_linear_1752_5797" x1="195.512" y1="1847.24" x2="1063.34" y2="937.725" gradientUnits="userSpaceOnUse">
<stop stop-color="white"/>
<stop offset="0.11" stop-color="#FFE2E1"/>
<stop offset="0.6" stop-color="#FFD2D1"/>
<stop offset="0.75" stop-color="#FFC6C5"/>
<stop offset="1" stop-color="#FFB9B7"/>
</linearGradient>
<linearGradient id="paint48_linear_1752_5797" x1="237.159" y1="1853.1" x2="1029.87" y2="960.348" gradientUnits="userSpaceOnUse">
<stop stop-color="white"/>
<stop offset="0.11" stop-color="#FFE0E0"/>
<stop offset="0.6" stop-color="#FFD1D0"/>
<stop offset="0.77" stop-color="#FFC3C2"/>
<stop offset="1" stop-color="#FFB6B4"/>
</linearGradient>
<linearGradient id="paint49_linear_1752_5797" x1="278.145" y1="1857.33" x2="998.6" y2="986.98" gradientUnits="userSpaceOnUse">
<stop stop-color="white"/>
<stop offset="0.11" stop-color="#FFDFDF"/>
<stop offset="0.6" stop-color="#FFCFCE"/>
<stop offset="0.78" stop-color="#FFC1BF"/>
<stop offset="1" stop-color="#FFB3B1"/>
</linearGradient>
<linearGradient id="paint50_linear_1752_5797" x1="318.048" y1="1860.18" x2="970.03" y2="1017.18" gradientUnits="userSpaceOnUse">
<stop stop-color="white"/>
<stop offset="0.11" stop-color="#FFDEDE"/>
<stop offset="0.6" stop-color="#FFCDCC"/>
<stop offset="0.78" stop-color="#FFBEBC"/>
<stop offset="1" stop-color="#FFB0AE"/>
</linearGradient>
<linearGradient id="paint51_linear_1752_5797" x1="356.15" y1="1861.63" x2="943.486" y2="1050.03" gradientUnits="userSpaceOnUse">
<stop stop-color="white"/>
<stop offset="0.11" stop-color="#FFDDDC"/>
<stop offset="0.6" stop-color="#FFCBCA"/>
<stop offset="0.79" stop-color="#FFBBB9"/>
<stop offset="1" stop-color="#FFAEAB"/>
</linearGradient>
<linearGradient id="paint52_linear_1752_5797" x1="404.116" y1="1857.34" x2="938.509" y2="1069.48" gradientUnits="userSpaceOnUse">
<stop stop-color="white"/>
<stop offset="0.11" stop-color="#FFDCDB"/>
<stop offset="0.6" stop-color="#FFC9C8"/>
<stop offset="0.79" stop-color="#FFB9B7"/>
<stop offset="1" stop-color="#FFABA9"/>
</linearGradient>
<linearGradient id="paint53_linear_1752_5797" x1="437.917" y1="1856.27" x2="915.444" y2="1106.13" gradientUnits="userSpaceOnUse">
<stop stop-color="white"/>
<stop offset="0.11" stop-color="#FFDBDA"/>
<stop offset="0.6" stop-color="#FFC8C6"/>
<stop offset="0.79" stop-color="#FFB6B4"/>
<stop offset="1" stop-color="#FFA8A6"/>
</linearGradient>
<linearGradient id="paint54_linear_1752_5797" x1="481.74" y1="1848.83" x2="912.612" y2="1128.36" gradientUnits="userSpaceOnUse">
<stop stop-color="white"/>
<stop offset="0.11" stop-color="#FFD9D9"/>
<stop offset="0.6" stop-color="#FFC6C5"/>
<stop offset="0.8" stop-color="#FFB3B1"/>
<stop offset="1" stop-color="#FFA5A3"/>
</linearGradient>
<linearGradient id="paint55_linear_1752_5797" x1="523.133" y1="1839.94" x2="910.34" y2="1151.46" gradientUnits="userSpaceOnUse">
<stop stop-color="white"/>
<stop offset="0.11" stop-color="#FFD8D8"/>
<stop offset="0.6" stop-color="#FFC4C3"/>
<stop offset="0.81" stop-color="#FFB0AE"/>
<stop offset="1" stop-color="#FFA2A0"/>
</linearGradient>
<linearGradient id="paint56_linear_1752_5797" x1="561.836" y1="1829.91" x2="908.474" y2="1175.19" gradientUnits="userSpaceOnUse">
<stop stop-color="white"/>
<stop offset="0.11" stop-color="#FFD7D6"/>
<stop offset="0.6" stop-color="#FFC2C1"/>
<stop offset="0.81" stop-color="#FFADAB"/>
<stop offset="1" stop-color="#FFA09D"/>
</linearGradient>
<linearGradient id="paint57_linear_1752_5797" x1="582.65" y1="1825.79" x2="887.607" y2="1214.24" gradientUnits="userSpaceOnUse">
<stop stop-color="white"/>
<stop offset="0.11" stop-color="#FFD6D5"/>
<stop offset="0.6" stop-color="#FFC1BF"/>
<stop offset="0.82" stop-color="#FFABA8"/>
<stop offset="1" stop-color="#FF9D9A"/>
</linearGradient>
<linearGradient id="paint58_linear_1752_5797" x1="614.443" y1="1814.47" x2="885.277" y2="1238.16" gradientUnits="userSpaceOnUse">
<stop stop-color="white"/>
<stop offset="0.11" stop-color="#FFD5D4"/>
<stop offset="0.6" stop-color="#FFBFBD"/>
<stop offset="0.82" stop-color="#FFA8A5"/>
<stop offset="1" stop-color="#FF9A97"/>
</linearGradient>
<linearGradient id="paint59_linear_1752_5797" x1="658.362" y1="1794.88" x2="901.084" y2="1247.23" gradientUnits="userSpaceOnUse">
<stop stop-color="#FFFEFE"/>
<stop offset="0.11" stop-color="#FFD3D3"/>
<stop offset="0.6" stop-color="#FFBDBC"/>
<stop offset="0.83" stop-color="#FFA4A2"/>
<stop offset="1" stop-color="#FF9794"/>
</linearGradient>
<linearGradient id="paint60_linear_1752_5797" x1="683.663" y1="1782.48" x2="897.461" y2="1271.1" gradientUnits="userSpaceOnUse">
<stop stop-color="#FFFDFD"/>
<stop offset="0.11" stop-color="#FFD2D2"/>
<stop offset="0.6" stop-color="#FFBBBA"/>
<stop offset="0.83" stop-color="#FFA19F"/>
<stop offset="1" stop-color="#FF9491"/>
</linearGradient>
<linearGradient id="paint61_linear_1752_5797" x1="705.338" y1="1770" x2="892.819" y2="1294.67" gradientUnits="userSpaceOnUse">
<stop stop-color="#FFFBFB"/>
<stop offset="0.11" stop-color="#FFD1D0"/>
<stop offset="0.6" stop-color="#FFB9B8"/>
<stop offset="0.83" stop-color="#FF9F9D"/>
<stop offset="1" stop-color="#FF928F"/>
</linearGradient>
<linearGradient id="paint62_linear_1752_5797" x1="723.934" y1="1758" x2="887.677" y2="1318.22" gradientUnits="userSpaceOnUse">
<stop stop-color="white"/>
<stop offset="0.01" stop-color="#FFFAFA"/>
<stop offset="0.11" stop-color="#FFD0CF"/>
<stop offset="0.6" stop-color="#FFB8B6"/>
<stop offset="0.83" stop-color="#FF9D9A"/>
<stop offset="1" stop-color="#FF8F8C"/>
</linearGradient>
<linearGradient id="paint63_linear_1752_5797" x1="755.162" y1="1736.64" x2="899.197" y2="1326.78" gradientUnits="userSpaceOnUse">
<stop stop-color="white"/>
<stop offset="0.01" stop-color="#FFF9F9"/>
<stop offset="0.11" stop-color="#FFCFCE"/>
<stop offset="0.6" stop-color="#FFB6B4"/>
<stop offset="0.84" stop-color="#FF9A97"/>
<stop offset="1" stop-color="#FF8C89"/>
</linearGradient>
<linearGradient id="paint64_linear_1752_5797" x1="767.039" y1="1725.02" x2="891.522" y2="1349.62" gradientUnits="userSpaceOnUse">
<stop stop-color="white"/>
<stop offset="0.01" stop-color="#FFF8F8"/>
<stop offset="0.11" stop-color="#FFCECD"/>
<stop offset="0.6" stop-color="#FFB4B2"/>
<stop offset="0.84" stop-color="#FF9794"/>
<stop offset="1" stop-color="#FF8986"/>
</linearGradient>
<linearGradient id="paint65_linear_1752_5797" x1="779.378" y1="1726.35" x2="895.236" y2="1356.23" gradientUnits="userSpaceOnUse">
<stop stop-color="white"/>
<stop offset="0.02" stop-color="#FFF7F7"/>
<stop offset="0.11" stop-color="#FFCCCC"/>
<stop offset="0.6" stop-color="#FFB2B1"/>
<stop offset="0.85" stop-color="#FF9391"/>
<stop offset="1" stop-color="#FF8683"/>
</linearGradient>
<linearGradient id="paint66_linear_1752_5797" x1="774.202" y1="1739.87" x2="881.229" y2="1377.51" gradientUnits="userSpaceOnUse">
<stop stop-color="white"/>
<stop offset="0.02" stop-color="#FFF5F5"/>
<stop offset="0.11" stop-color="#FFCBCA"/>
<stop offset="0.6" stop-color="#FFB0AF"/>
<stop offset="0.85" stop-color="#FF918E"/>
<stop offset="1" stop-color="#FF8480"/>
</linearGradient>
<linearGradient id="paint67_linear_1752_5797" x1="784.509" y1="1743.62" x2="884.509" y2="1384.62" gradientUnits="userSpaceOnUse">
<stop stop-color="white"/>
<stop offset="0.02" stop-color="#FFF4F4"/>
<stop offset="0.11" stop-color="#FFCAC9"/>
<stop offset="0.6" stop-color="#FFAFAD"/>
<stop offset="0.85" stop-color="#FF8E8B"/>
<stop offset="1" stop-color="#FF817D"/>
</linearGradient>
<linearGradient id="paint68_linear_1752_5797" x1="794.63" y1="1747.92" x2="888.074" y2="1392.17" gradientUnits="userSpaceOnUse">
<stop stop-color="white"/>
<stop offset="0.02" stop-color="#FFF3F3"/>
<stop offset="0.11" stop-color="#FFC9C8"/>
<stop offset="0.6" stop-color="#FFADAB"/>
<stop offset="0.85" stop-color="#FF8B88"/>
<stop offset="1" stop-color="#FF7E7A"/>
</linearGradient>
<linearGradient id="paint69_linear_1752_5797" x1="788.724" y1="1763.04" x2="875.073" y2="1414.21" gradientUnits="userSpaceOnUse">
<stop stop-color="white"/>
<stop offset="0.02" stop-color="#FFF2F2"/>
<stop offset="0.11" stop-color="#FFC8C7"/>
<stop offset="0.6" stop-color="#FFABA9"/>
<stop offset="0.85" stop-color="#FF8986"/>
<stop offset="1" stop-color="#FF7B78"/>
</linearGradient>
<linearGradient id="paint70_linear_1752_5797" x1="798.484" y1="1768.25" x2="879.173" y2="1422.3" gradientUnits="userSpaceOnUse">
<stop stop-color="white"/>
<stop offset="0.03" stop-color="#FFF1F1"/>
<stop offset="0.11" stop-color="#FFC7C6"/>
<stop offset="0.6" stop-color="#FFA9A7"/>
<stop offset="0.86" stop-color="#FF8683"/>
<stop offset="1" stop-color="#FF7875"/>
</linearGradient>
<linearGradient id="paint71_linear_1752_5797" x1="807.627" y1="1773.59" x2="882.968" y2="1430.36" gradientUnits="userSpaceOnUse">
<stop stop-color="white"/>
<stop offset="0.03" stop-color="#FFEFEF"/>
<stop offset="0.11" stop-color="#FFC5C4"/>
<stop offset="0.6" stop-color="#FFA8A6"/>
<stop offset="0.86" stop-color="#FF8380"/>
<stop offset="1" stop-color="#FF7672"/>
</linearGradient>
<linearGradient id="paint72_linear_1752_5797" x1="816.543" y1="1779.21" x2="886.866" y2="1438.55" gradientUnits="userSpaceOnUse">
<stop stop-color="white"/>
<stop offset="0.03" stop-color="#FFEEEE"/>
<stop offset="0.11" stop-color="#FFC4C3"/>
<stop offset="0.6" stop-color="#FFA5A3"/>
<stop offset="0.86" stop-color="#FF807D"/>
<stop offset="1" stop-color="#FF736F"/>
</linearGradient>
<linearGradient id="paint73_linear_1752_5797" x1="824.947" y1="1784.95" x2="890.529" y2="1446.7" gradientUnits="userSpaceOnUse">
<stop stop-color="white"/>
<stop offset="0.03" stop-color="#FFEDED"/>
<stop offset="0.11" stop-color="#FFC3C2"/>
<stop offset="0.6" stop-color="#FFA4A2"/>
<stop offset="0.61" stop-color="#FFA2A0"/>
<stop offset="0.87" stop-color="#FF7E7A"/>
<stop offset="1" stop-color="#FF706C"/>
</linearGradient>
<clipPath id="clip0_1752_5797">
<rect width="2145.42" height="362.233" fill="white" transform="matrix(0.981719 0.190337 -0.231139 0.972921 -145.273 1245.87)"/>
</clipPath>
</defs>
</svg>
