<svg width="540" height="240" viewBox="0 0 540 240" fill="none"
    xmlns="http://www.w3.org/2000/svg">
    <g clip-path="url(#clip0_2665_7786)">
        <g opacity="0.8" style="filter: blur(1px);">
            <g filter="url(#filter0_d_2665_7786)">
                <path d="M155 139C155 132.925 159.925 128 166 128H489C495.075 128 500 132.925 500 139V189C500 195.075 495.075 200 489 200H155V139Z" fill="white"/>
            </g>
            <path d="M188 148.328V147.272H198.64V148.328H196.416V153.32H198.608V154.392H188.032V153.32H190.224V148.328H188ZM191.536 148.328V153.32H195.104V148.328H191.536ZM199.856 158.344H186.848V157.256H199.856V158.344ZM213.791 158.408H200.751V157.336H206.591V154.632H202.383V150.2H210.895V147.96H202.351V146.888H212.175V151.256H203.679V153.576H212.511V154.632H207.919V157.336H213.791V158.408ZM226.798 154.616H225.533V145.848H226.798V154.616ZM222.766 146.152H224.014V154.504H222.766V150.6H220.605V149.528H222.766V146.152ZM221.069 153.928C219.726 153.352 218.813 152.344 218.317 151.064C217.821 152.472 216.845 153.64 215.437 154.264L214.749 153.256C216.589 152.44 217.661 150.6 217.661 148.888V148.072H215.021V147H221.39V148.072H218.925V148.872C218.925 150.456 219.933 152.152 221.726 152.92L221.069 153.928ZM226.798 155.256V160.2H225.486V156.312H217.149V155.256H226.798ZM230.268 154.632V147.08H239.98V148.136H231.596V150.264H239.66V151.304H231.596V153.576H240.124V154.632H230.268ZM241.612 158.328H228.588V157.256H241.612V158.328ZM244.267 151.224V146.36H245.579V150.152H254.027V151.224H244.267ZM255.515 154.2H242.507V153.144H255.515V154.2ZM254.107 158.76V159.832H244.171V155.64H245.483V158.76H254.107ZM271.044 160.216H269.732V152.376H266.612C266.484 155.192 265.06 156.952 263.06 156.952C260.964 156.952 259.476 155 259.476 151.944C259.476 148.888 260.964 146.936 263.06 146.936C264.996 146.936 266.404 148.616 266.612 151.304H269.732V145.832H271.044V160.216ZM263.06 155.784C264.42 155.784 265.38 154.28 265.38 151.944C265.38 149.624 264.42 148.12 263.06 148.12C261.684 148.12 260.724 149.624 260.724 151.944C260.724 154.28 261.684 155.784 263.06 155.784ZM283.779 145.848H285.107V156.296H283.779V150.856H281.203V149.784H283.779V145.848ZM282.547 153.656C281.267 153.96 280.227 153.976 278.643 153.976H277.907V147.032H281.891V148.088H279.203V152.904C280.419 152.888 281.331 152.84 282.419 152.584L282.547 153.656ZM277.427 153.672C276.131 153.976 275.075 153.976 274.163 153.976H273.523V147.032H277.139V148.088H274.819V152.904C275.523 152.856 276.355 152.808 277.315 152.6L277.427 153.672ZM285.459 159.864H275.507V155.416H276.819V158.792H285.459V159.864ZM303.1 150.536H300.972V154.472H299.66V145.832H300.972V149.448H303.1V150.536ZM290.428 153.352V146.744H291.724V148.904H295.788V146.744H297.068V153.352H290.428ZM291.724 149.928V152.296H295.788V149.928H291.724ZM296.412 154.84C299.308 154.84 301.132 155.8 301.132 157.512C301.132 159.224 299.308 160.184 296.412 160.184C293.484 160.184 291.676 159.224 291.676 157.512C291.676 155.8 293.484 154.84 296.412 154.84ZM296.412 159.144C298.54 159.144 299.82 158.536 299.82 157.512C299.82 156.488 298.54 155.896 296.412 155.896C294.22 155.896 292.988 156.488 292.988 157.512C292.988 158.536 294.22 159.144 296.412 159.144ZM315.53 154.472H314.218V145.848H315.53V154.472ZM311.754 153.624C310.09 153.032 308.81 151.816 308.17 150.216C307.546 151.944 306.234 153.24 304.554 153.88L303.882 152.84C306.042 152.072 307.498 150.024 307.498 147.912V146.504H308.81V147.912C308.81 149.976 310.282 151.864 312.41 152.584L311.754 153.624ZM315.53 155.208V160.2H314.218V156.264H305.93V155.208H315.53ZM324.153 146.728C327.129 146.728 329.369 148.328 329.369 150.696C329.369 153.096 327.129 154.664 324.153 154.664C321.177 154.664 318.937 153.096 318.937 150.696C318.937 148.328 321.177 146.728 324.153 146.728ZM324.153 147.8C321.897 147.8 320.185 148.968 320.185 150.696C320.185 152.44 321.897 153.592 324.153 153.592C326.409 153.592 328.121 152.44 328.121 150.696C328.121 148.968 326.409 147.8 324.153 147.8ZM330.697 158.28H317.657V157.192H330.697V158.28ZM344.616 158.408H331.576V157.336H337.416V154.632H333.208V150.2H341.72V147.96H333.176V146.888H343V151.256H334.504V153.576H343.336V154.632H338.744V157.336H344.616V158.408ZM358.753 156.344V145.848H360.065V156.344H358.753ZM356.417 154.296C354.753 153.72 353.457 152.568 352.801 151.032C352.177 152.696 350.897 153.944 349.169 154.568L348.481 153.544C350.657 152.776 352.113 150.936 352.113 148.872V148.088H348.833V147.032H356.705V148.088H353.457V148.872C353.457 150.792 354.945 152.568 357.057 153.256L356.417 154.296ZM360.497 159.864H350.833V155.352H352.145V158.792H360.497V159.864ZM369.983 154.408V146.12H371.231V149.736H373.055V145.832H374.319V154.92H373.055V150.808H371.231V154.408H369.983ZM362.127 148.584V147.544H365.135V145.944H366.431V147.544H369.423V148.584H362.127ZM368.847 151.784C368.847 153.272 367.599 154.248 365.791 154.248C363.983 154.248 362.719 153.272 362.719 151.784C362.719 150.312 363.983 149.336 365.791 149.336C367.599 149.336 368.847 150.312 368.847 151.784ZM363.903 151.784C363.903 152.68 364.639 153.272 365.791 153.272C366.943 153.272 367.679 152.68 367.679 151.784C367.679 150.888 366.943 150.312 365.791 150.312C364.639 150.312 363.903 150.888 363.903 151.784ZM369.599 155.16C372.591 155.16 374.399 156.072 374.399 157.672C374.399 159.272 372.591 160.168 369.599 160.168C366.607 160.168 364.799 159.272 364.799 157.672C364.799 156.072 366.607 155.16 369.599 155.16ZM369.599 159.16C371.791 159.16 373.087 158.632 373.087 157.672C373.087 156.712 371.791 156.168 369.599 156.168C367.407 156.168 366.095 156.712 366.095 157.672C366.095 158.632 367.407 159.16 369.599 159.16ZM387.822 160.216H386.51V145.816H387.822V160.216ZM381.518 155.896C382.926 155.832 384.286 155.768 385.566 155.592L385.678 156.552C382.526 157.016 379.118 157.096 376.382 157.096L376.222 155.992C377.454 155.992 378.798 155.992 380.206 155.944V153.096H377.278V147.176H384.542V148.264H378.574V152.024H384.606V153.096H381.518V155.896ZM391.421 148.344V147.272H401.485V148.696C401.485 150.488 401.501 152.44 400.941 155.336L399.629 155.192C400.189 152.456 400.173 150.408 400.173 148.696V148.344H391.421ZM403.037 158.168H390.061V157.096H395.101V151.96H396.413V157.096H403.037V158.168ZM198.624 182.184H197.312V167.832H198.624V182.184ZM194.416 169.384C194.416 173.528 192.528 177.16 187.744 179.512L187.04 178.44C190.896 176.6 192.816 173.848 193.088 170.44H187.696V169.384H194.416ZM214.031 173.288H211.903V178.328H210.591V167.848H211.903V172.2H214.031V173.288ZM208.063 168.952C208.063 172.664 205.471 175.4 201.327 176.68L200.799 175.64C204.159 174.584 206.399 172.552 206.655 170.024H201.375V168.952H208.063ZM212.527 180.792V181.864H202.959V177.256H204.271V180.792H212.527ZM221.166 174.04C218.093 174.04 216.125 172.984 216.125 171.192C216.125 169.4 218.093 168.328 221.166 168.328C224.238 168.328 226.206 169.4 226.206 171.192C226.206 172.984 224.238 174.04 221.166 174.04ZM221.166 169.384C218.909 169.384 217.469 170.04 217.469 171.192C217.469 172.344 218.909 172.984 221.166 172.984C223.422 172.984 224.861 172.344 224.861 171.192C224.861 170.04 223.422 169.384 221.166 169.384ZM227.646 176.44H214.669V175.384H227.646V176.44ZM226.222 180.792V181.864H216.349V177.704H217.661V180.792H226.222ZM243.206 182.216H241.894V174.376H238.774C238.646 177.192 237.222 178.952 235.222 178.952C233.126 178.952 231.638 177 231.638 173.944C231.638 170.888 233.126 168.936 235.222 168.936C237.158 168.936 238.566 170.616 238.774 173.304H241.894V167.832H243.206V182.216ZM235.222 177.784C236.582 177.784 237.542 176.28 237.542 173.944C237.542 171.624 236.582 170.12 235.222 170.12C233.846 170.12 232.886 171.624 232.886 173.944C232.886 176.28 233.846 177.784 235.222 177.784ZM246.885 175.4V169.096H248.197V174.328H256.821V175.4H246.885ZM258.309 180.216H245.285V179.128H258.309V180.216ZM272.494 167.848H273.822V176.392H272.494V172.632H269.662V171.56H272.494V167.848ZM269.806 175.848C268.206 175.272 266.974 174.088 266.35 172.616C265.726 174.28 264.414 175.624 262.734 176.264L262.046 175.224C264.174 174.456 265.662 172.488 265.662 170.44V169.944H262.462V168.888H270.126V169.944H266.974V170.44C266.974 172.28 268.382 174.104 270.462 174.824L269.806 175.848ZM269.086 176.84C272.03 176.84 273.854 177.8 273.854 179.512C273.854 181.224 272.03 182.184 269.086 182.184C266.142 182.184 264.302 181.224 264.302 179.512C264.302 177.8 266.142 176.84 269.086 176.84ZM269.086 181.16C271.278 181.16 272.558 180.552 272.558 179.512C272.558 178.472 271.278 177.848 269.086 177.848C266.894 177.848 265.614 178.472 265.614 179.512C265.614 180.552 266.894 181.16 269.086 181.16ZM288.941 180.376H275.901V179.288H281.741V175.608H277.565V168.984H287.293V170.056H278.877V174.552H287.437V175.608H283.069V179.288H288.941V180.376ZM302.86 180.408H289.82V179.336H295.66V176.632H291.452V172.2H299.964V169.96H291.42V168.888H301.244V173.256H292.748V175.576H301.58V176.632H296.988V179.336H302.86V180.408ZM318.724 182.184H317.476V167.832H318.724V182.184ZM315.908 168.152V181.48H314.66V176.76H312.436C311.924 178.232 311.044 179.032 309.764 179.032C307.908 179.032 306.708 177.096 306.708 174.024C306.708 170.968 307.908 169.032 309.764 169.032C311.044 169.032 311.94 169.832 312.436 171.304H314.66V168.152H315.908ZM309.764 177.816C310.916 177.816 311.636 176.408 311.636 174.024C311.636 171.704 310.916 170.248 309.764 170.248C308.612 170.248 307.892 171.704 307.892 174.024C307.892 176.408 308.612 177.816 309.764 177.816ZM314.66 172.376H312.708C312.788 172.888 312.836 173.4 312.836 174.024C312.836 174.648 312.788 175.16 312.708 175.672H314.66V172.376ZM333.715 172.632H331.587V176.536H330.275V167.848H331.587V171.544H333.715V172.632ZM328.051 175.608C326.499 175.032 325.267 173.848 324.627 172.376C324.035 174.056 322.755 175.368 321.075 176.008L320.387 174.968C322.563 174.2 323.955 172.2 323.955 170.04V168.568H325.267V170.152C325.267 172.072 326.691 173.896 328.739 174.584L328.051 175.608ZM327.027 176.936C329.923 176.936 331.747 177.896 331.747 179.56C331.747 181.224 329.923 182.168 327.027 182.168C324.099 182.168 322.291 181.224 322.291 179.56C322.291 177.896 324.099 176.936 327.027 176.936ZM327.027 181.144C329.155 181.144 330.435 180.584 330.435 179.56C330.435 178.536 329.155 177.96 327.027 177.96C324.899 177.96 323.603 178.536 323.603 179.56C323.603 180.584 324.899 181.144 327.027 181.144ZM345.426 174.84V182.184H344.114V167.848H345.426V173.736H347.778V174.84H345.426ZM342.754 170.136V171.192H334.29V170.136H337.906V168.008H339.218V170.136H342.754ZM338.578 172.376C340.626 172.376 342.082 173.768 342.082 175.688C342.082 177.656 340.626 178.984 338.578 178.984C336.562 178.984 335.106 177.656 335.106 175.688C335.106 173.768 336.562 172.376 338.578 172.376ZM338.578 177.896C339.906 177.896 340.834 176.968 340.834 175.688C340.834 174.408 339.906 173.464 338.578 173.464C337.282 173.464 336.338 174.408 336.338 175.688C336.338 176.968 337.282 177.896 338.578 177.896ZM349.665 170.344V169.272H359.729V170.696C359.729 172.488 359.745 174.44 359.185 177.336L357.873 177.192C358.433 174.456 358.417 172.408 358.417 170.696V170.344H349.665ZM361.281 180.168H348.305V179.096H353.345V173.96H354.657V179.096H361.281V180.168ZM375.449 176.04V167.848H376.761V176.04H375.449ZM369.049 175.368C366.889 175.368 365.321 174.008 365.321 172.024C365.321 170.04 366.889 168.68 369.049 168.68C371.225 168.68 372.809 170.04 372.809 172.024C372.809 174.008 371.225 175.368 369.049 175.368ZM369.049 169.768C367.625 169.768 366.601 170.696 366.601 172.024C366.601 173.352 367.625 174.28 369.049 174.28C370.473 174.28 371.529 173.352 371.529 172.024C371.529 170.696 370.473 169.768 369.049 169.768ZM375.161 177.432C375.161 178.92 376.201 180.408 378.041 181L377.385 181.992C375.977 181.48 375.001 180.504 374.505 179.288C374.057 180.456 373.193 181.544 371.849 182.12C370.441 181.56 369.609 180.552 369.177 179.336C368.665 180.488 367.689 181.48 366.345 181.992L365.689 181C367.497 180.36 368.569 178.824 368.569 177.432V176.664H369.833V177.432C369.833 178.712 370.473 180.056 371.817 180.84C373.193 179.976 373.881 178.552 373.881 177.432V176.664H375.161V177.432ZM380.648 173.224V168.36H381.96V172.152H390.408V173.224H380.648ZM391.896 176.2H378.888V175.144H391.896V176.2ZM390.488 180.76V181.832H380.552V177.64H381.864V180.76H390.488ZM404.567 182.184H403.255V167.848H404.567V182.184ZM397.943 172.216C397.943 174.648 399.671 177.128 401.783 178.024L401.047 179.08C399.383 178.312 397.975 176.664 397.287 174.696C396.647 176.776 395.191 178.632 393.591 179.432L392.823 178.376C394.887 177.384 396.631 174.696 396.631 172.216V170.392H393.303V169.304H401.319V170.392H397.943V172.216ZM416.672 176.888C419.408 177.016 420.96 177.912 420.96 179.512C420.96 181.224 419.088 182.168 416.016 182.168C412.832 182.168 411.024 181.24 411.024 179.512C411.024 177.912 412.576 177.016 415.344 176.888V174.632H409.52V173.576H419.168C419.568 171.848 419.568 170.6 419.568 169.512H411.184V168.44H420.864V169.48C420.864 170.568 420.864 171.848 420.496 173.576H422.528V174.632H416.672V176.888ZM419.648 179.512C419.648 178.488 418.272 177.928 416.016 177.928C413.696 177.928 412.336 178.488 412.336 179.512C412.336 180.536 413.696 181.112 416.016 181.112C418.272 181.112 419.648 180.536 419.648 179.512ZM436.463 174.936H423.423V173.88H433.071C433.471 172.088 433.487 170.792 433.487 169.656H425.087V168.6H434.783V169.656C434.783 170.792 434.783 172.072 434.399 173.88H436.463V174.936ZM434.831 176.888V181.992H425.039V176.888H434.831ZM433.535 180.936V177.944H426.319V180.936H433.535ZM449.517 182.168H448.253V174.952H446.413V181.48H445.181V168.152H446.413V173.88H448.253V167.816H449.517V182.168ZM444.461 170.28V171.352H437.341V170.28H440.253V168.248H441.549V170.28H444.461ZM440.909 172.312C442.685 172.312 443.981 173.656 443.981 175.576C443.981 177.528 442.685 178.856 440.909 178.856C439.133 178.856 437.837 177.528 437.837 175.576C437.837 173.656 439.133 172.312 440.909 172.312ZM440.909 177.768C442.013 177.768 442.813 176.856 442.813 175.576C442.813 174.328 442.013 173.416 440.909 173.416C439.757 173.416 439.005 174.296 439.005 175.576C439.005 176.856 439.805 177.768 440.909 177.768ZM464.3 180.344H451.26V179.256H454.46V175.384C453.244 174.76 452.54 173.72 452.54 172.424C452.54 170.2 454.716 168.744 457.756 168.744C460.812 168.744 462.972 170.2 462.972 172.424C462.972 173.72 462.3 174.744 461.084 175.368V179.256H464.3V180.344ZM457.756 169.768C455.452 169.768 453.804 170.824 453.804 172.424C453.804 174.024 455.452 175.08 457.756 175.08C460.06 175.08 461.724 174.024 461.724 172.424C461.724 170.824 460.06 169.768 457.756 169.768ZM459.772 179.256V175.88C459.084 176.024 458.412 176.104 457.756 176.104C457.052 176.104 456.396 176.024 455.772 175.88V179.256H459.772ZM467.387 170.68L467.195 178.136H466.187L465.995 170.68L465.947 169.016H467.435L467.387 170.68ZM465.963 181.208V179.704H467.419V181.208H465.963Z" fill="#212121"/>
            <circle cx="495" cy="131" r="10" fill="#FF706C"/>
        </g>
        <g filter="url(#filter1_d_2665_7786)">
            <path d="M385 51C385 44.9249 380.075 40 374 40H51C44.9249 40 40 44.9249 40 51V101C40 107.075 44.9249 112 51 112H385V51Z" fill="white"/>
        </g>
        <circle cx="10" cy="10" r="10" transform="matrix(-1 0 0 1 55 33)" fill="#FF706C"/>
        <path d="M79.856 70.392H66.848V69.32H72.656V66.024H68.032V64.968H70.224V60.264H68V59.208H78.64V60.264H76.416V64.968H78.608V66.024H73.984V69.32H79.856V70.392ZM75.104 64.968V60.264H71.536V64.968H75.104ZM82.4307 66.632V59.08H92.1428V60.136H83.7587V62.264H91.8228V63.304H83.7587V65.576H92.2868V66.632H82.4307ZM93.7748 70.328H80.7507V69.256H93.7748V70.328ZM107.646 65.4H94.6695V64.344H100.51V62.968H95.9335V61.96H98.0615V59.224H95.8855V58.216H106.413V59.224H104.253V61.96H106.366V62.968H101.821V64.344H107.646V65.4ZM102.941 61.96V59.224H99.3735V61.96H102.941ZM106.43 71.032V72.024H96.2855V68.696H104.701V67.512H96.2375V66.536H105.998V69.624H97.5655V71.032H106.43ZM120.38 72.2H119.068V57.816H120.38V72.2ZM110.748 67.64C113.1 67.64 115.228 67.512 117.724 67.128L117.852 68.2C115.244 68.632 113.1 68.728 110.62 68.728H109.436V63.224H114.716V60.232H109.388V59.16H116.044V64.296H110.748V67.64ZM135.547 70.344H122.507V69.256H128.347V66.264C125.675 66.088 123.787 64.632 123.787 62.536C123.787 60.248 125.995 58.776 129.019 58.776C132.043 58.776 134.219 60.248 134.219 62.536C134.219 64.632 132.347 66.088 129.675 66.264V69.256H135.547V70.344ZM125.051 62.536C125.051 64.184 126.715 65.256 129.019 65.256C131.307 65.256 132.971 64.184 132.971 62.536C132.971 60.888 131.307 59.816 129.019 59.816C126.715 59.816 125.051 60.888 125.051 62.536ZM152.196 66.168H139.204V65.112H145.06V63.288H140.884V58.424H150.532V63.288H146.372V65.112H152.196V66.168ZM149.236 62.248V59.464H142.164V62.248H149.236ZM150.596 67.656V72.2H149.284V68.712H140.66V67.656H150.596ZM164.947 66.424H163.635V62.648H160.835V61.576H163.635V57.832H164.947V66.424ZM160.947 65.864C159.347 65.288 158.115 64.104 157.475 62.616C156.851 64.28 155.555 65.576 153.875 66.2L153.187 65.16C155.315 64.392 156.803 62.504 156.803 60.456V59.88H153.603V58.808H161.267V59.88H158.115V60.456C158.115 62.296 159.523 64.12 161.603 64.84L160.947 65.864ZM164.947 67.208V72.2H163.635V68.264H155.363V67.208H164.947ZM177.521 68.328V57.848H178.833V68.328H177.521ZM174.881 62.36C174.881 64.44 173.249 65.912 171.121 65.912C168.993 65.912 167.393 64.44 167.393 62.36C167.393 60.296 168.993 58.84 171.121 58.84C173.249 58.84 174.881 60.296 174.881 62.36ZM168.673 62.36C168.673 63.784 169.713 64.776 171.121 64.776C172.545 64.776 173.601 63.784 173.601 62.36C173.601 60.968 172.545 59.976 171.121 59.976C169.713 59.976 168.673 60.968 168.673 62.36ZM179.265 71.864H169.601V67.256H170.913V70.792H179.265V71.864ZM192.016 64.744V72.184H190.704V57.832H192.016V63.656H194.32V64.744H192.016ZM188.304 59.368C188.304 63.448 186.432 67.16 181.792 69.464L181.072 68.44C184.8 66.568 186.704 63.912 187.008 60.456H181.744V59.368H188.304ZM207.919 70.344H194.879V69.256H198.079V65.384C196.863 64.76 196.159 63.72 196.159 62.424C196.159 60.2 198.335 58.744 201.375 58.744C204.431 58.744 206.591 60.2 206.591 62.424C206.591 63.72 205.919 64.744 204.703 65.368V69.256H207.919V70.344ZM201.375 59.768C199.071 59.768 197.423 60.824 197.423 62.424C197.423 64.024 199.071 65.08 201.375 65.08C203.679 65.08 205.343 64.024 205.343 62.424C205.343 60.824 203.679 59.768 201.375 59.768ZM203.391 69.256V65.88C202.703 66.024 202.031 66.104 201.375 66.104C200.671 66.104 200.015 66.024 199.391 65.88V69.256H203.391ZM211.006 71.208V69.704H212.462V71.208H211.006ZM211.166 68.216C210.798 64.216 213.566 64.76 213.566 62.088C213.566 61 212.91 60.056 211.774 60.056C210.958 60.056 209.966 60.552 209.838 62.344H208.606C208.782 59.496 210.606 58.824 211.934 58.824C213.742 58.824 214.862 60.248 214.862 61.992C214.862 65.144 211.966 64.776 212.366 68.216H211.166ZM77.888 86.664V94.184H76.576V79.848H77.888V85.56H80.256V86.664H77.888ZM70.672 80.936C72.784 80.936 74.272 82.888 74.272 85.944C74.272 89 72.784 90.952 70.672 90.952C68.544 90.952 67.056 89 67.056 85.944C67.056 82.888 68.544 80.936 70.672 80.936ZM70.672 89.784C72.032 89.784 73.024 88.28 73.024 85.944C73.024 83.624 72.032 82.12 70.672 82.12C69.28 82.12 68.304 83.624 68.304 85.944C68.304 88.28 69.28 89.784 70.672 89.784ZM92.5268 94.168H91.2148V79.832H92.5268V94.168ZM82.9748 89.352C85.1667 89.352 87.3588 89.176 89.7428 88.68L89.8868 89.8C87.3748 90.312 85.1508 90.472 82.8468 90.472H81.6627V81.224H82.9748V89.352ZM95.3415 87.784V81.096H101.885V82.36H105.182V79.848H106.51V90.312H105.182V86.504H101.885V87.784H95.3415ZM96.6375 82.136V86.744H100.605V82.136H96.6375ZM101.885 85.432H105.182V83.432H101.885V85.432ZM106.845 93.864H97.2775V89.384H98.5895V92.792H106.845V93.864ZM121.83 87.272V79.848H123.142V87.272H121.83ZM119.414 86.856C117.75 86.28 116.454 85.096 115.798 83.56C115.174 85.224 113.878 86.504 112.15 87.128L111.478 86.104C113.654 85.336 115.126 83.464 115.126 81.352V80.264H116.438V81.352C116.438 83.32 117.958 85.144 120.07 85.832L119.414 86.856ZM123.638 94.024H113.894V90.456H121.862V89.032H113.862V87.992H123.158V91.448H115.19V92.984H123.638V94.024ZM137.493 94.168H136.229V79.816H137.493V94.168ZM134.597 80.152V93.432H133.349V86.056H130.981V84.984H133.349V80.152H134.597ZM129.509 83.88C129.509 86.376 130.581 88.872 132.565 89.992L131.765 90.952C130.357 90.12 129.381 88.632 128.885 86.76C128.389 88.76 127.349 90.408 125.925 91.304L125.125 90.328C127.141 89.128 128.245 86.52 128.245 83.88V82.584H125.525V81.512H132.069V82.584H129.509V83.88ZM149.134 88.008V94.2H147.806V88.008H142.014V86.936H151.534C151.982 84.872 151.982 83.352 151.982 82.008V81.816H143.63V80.76H153.262V82.008C153.262 83.352 153.262 84.872 152.862 86.936H154.99V88.008H149.134ZM155.949 82.648V81.592H159.373V79.832H160.685V81.592H163.981V82.648H155.949ZM166.413 79.848H167.741V90.776H166.413V87.736H163.981V86.664H166.413V84.728H163.981V83.656H166.413V79.848ZM163.261 86.168C163.261 87.816 161.917 88.92 160.013 88.92C158.109 88.92 156.765 87.816 156.765 86.168C156.765 84.536 158.109 83.448 160.013 83.448C161.917 83.448 163.261 84.536 163.261 86.168ZM158.013 86.168C158.013 87.192 158.797 87.896 160.013 87.896C161.229 87.896 162.013 87.192 162.013 86.168C162.013 85.144 161.229 84.472 160.013 84.472C158.797 84.472 158.013 85.144 158.013 86.168ZM168.077 93.864H158.509V89.848H159.821V92.792H168.077V93.864ZM181.116 86.84V94.184H179.804V79.832H181.116V85.752H183.244V86.84H181.116ZM174.14 81.384C174.14 84.824 173.42 88.216 170.812 90.952L169.788 90.216C171.916 87.976 172.748 85.4 172.892 82.472H170.252V81.384H174.14ZM178.06 81.384C178.06 84.84 177.564 88.792 174.924 91.912L173.868 91.192C176.124 88.648 176.7 85.528 176.828 82.472H174.62V81.384H178.06ZM195.498 94.184H194.186V79.848H195.498V94.184ZM188.874 84.216C188.874 86.648 190.602 89.128 192.714 90.024L191.978 91.08C190.314 90.312 188.906 88.664 188.218 86.696C187.578 88.776 186.122 90.632 184.522 91.432L183.754 90.376C185.818 89.384 187.562 86.696 187.562 84.216V82.392H184.234V81.304H192.25V82.392H188.874V84.216ZM211.507 86.84V94.184H210.195V79.848H211.507V85.736H213.859V86.84H211.507ZM208.835 82.136V83.192H200.371V82.136H203.987V80.008H205.299V82.136H208.835ZM204.659 84.376C206.707 84.376 208.163 85.768 208.163 87.688C208.163 89.656 206.707 90.984 204.659 90.984C202.643 90.984 201.187 89.656 201.187 87.688C201.187 85.768 202.643 84.376 204.659 84.376ZM204.659 89.896C205.987 89.896 206.915 88.968 206.915 87.688C206.915 86.408 205.987 85.464 204.659 85.464C203.363 85.464 202.419 86.408 202.419 87.688C202.419 88.968 203.363 89.896 204.659 89.896ZM216.114 85.224V80.36H217.426V84.152H225.874V85.224H216.114ZM227.362 88.2H214.354V87.144H227.362V88.2ZM225.954 92.76V93.832H216.018V89.64H217.33V92.76H225.954ZM238.475 84.952V83.88H241.563V79.848H242.891V89.544H241.563V84.952H238.475ZM238.427 80.968C238.427 84.664 235.979 87.304 231.883 88.632L231.307 87.592C234.763 86.504 236.763 84.616 237.019 82.04H231.995V80.968H238.427ZM238.907 88.952C238.907 91.016 241.131 92.6 243.659 93.08L243.131 94.104C241.035 93.672 239.099 92.552 238.251 90.904C237.387 92.584 235.467 93.704 233.323 94.136L232.795 93.096C235.355 92.664 237.595 91.032 237.595 88.952V88.296H238.907V88.952ZM251.465 85.048C248.313 85.048 246.425 84.184 246.425 82.568C246.425 80.952 248.313 80.072 251.465 80.072C254.617 80.072 256.505 80.952 256.505 82.568C256.505 84.184 254.617 85.048 251.465 85.048ZM251.465 81.064C249.081 81.064 247.769 81.608 247.769 82.568C247.769 83.528 249.081 84.072 251.465 84.072C253.849 84.072 255.161 83.528 255.161 82.568C255.161 81.608 253.849 81.064 251.465 81.064ZM257.961 87.08H244.969V86.024H257.961V87.08ZM256.729 93V94.024H246.585V90.584H255.001V89.304H246.537V88.312H256.297V91.544H247.865V93H256.729ZM274.658 88.168H261.666V87.112H267.522V85.288H263.346V80.424H272.994V85.288H268.834V87.112H274.658V88.168ZM271.698 84.248V81.464H264.626V84.248H271.698ZM273.058 89.656V94.2H271.746V90.712H263.122V89.656H273.058ZM288.609 92.44H275.585V91.368H279.201V87.96H276.785V86.904H278.977V82.216H276.753V81.16H287.393V82.216H285.169V86.904H287.377V87.96H284.945V91.368H288.609V92.44ZM283.857 86.904V82.216H280.289V86.904H283.857ZM283.633 91.368V87.96H280.513V91.368H283.633ZM302.544 92.408H289.504V91.336H295.344V88.632H291.136V84.2H299.648V81.96H291.104V80.888H300.928V85.256H292.432V87.576H301.264V88.632H296.672V91.336H302.544V92.408ZM317.273 86.84V94.184H315.961V79.848H317.273V85.736H319.625V86.84H317.273ZM314.601 82.136V83.192H306.137V82.136H309.753V80.008H311.065V82.136H314.601ZM310.425 84.376C312.473 84.376 313.929 85.768 313.929 87.688C313.929 89.656 312.473 90.984 310.425 90.984C308.409 90.984 306.953 89.656 306.953 87.688C306.953 85.768 308.409 84.376 310.425 84.376ZM310.425 89.896C311.753 89.896 312.681 88.968 312.681 87.688C312.681 86.408 311.753 85.464 310.425 85.464C309.129 85.464 308.185 86.408 308.185 87.688C308.185 88.968 309.129 89.896 310.425 89.896ZM331.176 86.648V94.184H329.864V79.832H331.176V85.56H333.48V86.648H331.176ZM322.008 89.448C324.072 89.448 326.2 89.272 328.52 88.808L328.68 89.896C326.232 90.392 324.04 90.552 321.848 90.552H320.712V81.224H322.008V89.448ZM347.078 92.344H334.038V91.256H337.238V87.384C336.022 86.76 335.318 85.72 335.318 84.424C335.318 82.2 337.494 80.744 340.534 80.744C343.59 80.744 345.75 82.2 345.75 84.424C345.75 85.72 345.078 86.744 343.862 87.368V91.256H347.078V92.344ZM340.534 81.768C338.23 81.768 336.582 82.824 336.582 84.424C336.582 86.024 338.23 87.08 340.534 87.08C342.838 87.08 344.502 86.024 344.502 84.424C344.502 82.824 342.838 81.768 340.534 81.768ZM342.55 91.256V87.88C341.862 88.024 341.19 88.104 340.534 88.104C339.83 88.104 339.174 88.024 338.55 87.88V91.256H342.55ZM350.165 93.208V91.704H351.621V93.208H350.165ZM350.325 90.216C349.957 86.216 352.725 86.76 352.725 84.088C352.725 83 352.069 82.056 350.933 82.056C350.117 82.056 349.125 82.552 348.997 84.344H347.765C347.941 81.496 349.765 80.824 351.093 80.824C352.901 80.824 354.021 82.248 354.021 83.992C354.021 87.144 351.125 86.776 351.525 90.216H350.325Z" fill="#212121"/>
    </g>
    <defs>
        <filter id="filter0_d_2665_7786" x="115" y="88" width="425" height="152" filterUnits="userSpaceOnUse" color-interpolation-filters="sRGB">
            <feFlood flood-opacity="0" result="BackgroundImageFix"/>
            <feColorMatrix in="SourceAlpha" type="matrix" values="0 0 0 0 0 0 0 0 0 0 0 0 0 0 0 0 0 0 127 0" result="hardAlpha"/>
            <feOffset/>
            <feGaussianBlur stdDeviation="20"/>
            <feComposite in2="hardAlpha" operator="out"/>
            <feColorMatrix type="matrix" values="0 0 0 0 0 0 0 0 0 0 0 0 0 0 0 0 0 0 0.08 0"/>
            <feBlend mode="normal" in2="BackgroundImageFix" result="effect1_dropShadow_2665_7786"/>
            <feBlend mode="normal" in="SourceGraphic" in2="effect1_dropShadow_2665_7786" result="shape"/>
        </filter>
        <filter id="filter1_d_2665_7786" x="0" y="0" width="425" height="152" filterUnits="userSpaceOnUse" color-interpolation-filters="sRGB">
            <feFlood flood-opacity="0" result="BackgroundImageFix"/>
            <feColorMatrix in="SourceAlpha" type="matrix" values="0 0 0 0 0 0 0 0 0 0 0 0 0 0 0 0 0 0 127 0" result="hardAlpha"/>
            <feOffset/>
            <feGaussianBlur stdDeviation="20"/>
            <feComposite in2="hardAlpha" operator="out"/>
            <feColorMatrix type="matrix" values="0 0 0 0 0 0 0 0 0 0 0 0 0 0 0 0 0 0 0.08 0"/>
            <feBlend mode="normal" in2="BackgroundImageFix" result="effect1_dropShadow_2665_7786"/>
            <feBlend mode="normal" in="SourceGraphic" in2="effect1_dropShadow_2665_7786" result="shape"/>
        </filter>
        <clipPath id="clip0_2665_7786">
            <rect width="540" height="240" fill="white"/>
        </clipPath>
    </defs>
</svg>
