<svg width="425" height="152" viewBox="0 0 425 152" fill="none" xmlns="http://www.w3.org/2000/svg">
<g filter="url(#filter0_d_2543_11542)">
<path d="M385 51C385 44.9249 380.075 40 374 40H51C44.9249 40 40 44.9249 40 51V101C40 107.075 44.9249 112 51 112H385V51Z" fill="white"/>
</g>
<circle cx="10" cy="10" r="10" transform="matrix(-1 0 0 1 55 33)" fill="#FF706C"/>
<path d="M79.856 70.392H66.848V69.32H72.656V66.024H68.032V64.968H70.224V60.264H68V59.208H78.64V60.264H76.416V64.968H78.608V66.024H73.984V69.32H79.856V70.392ZM75.104 64.968V60.264H71.536V64.968H75.104ZM82.4307 66.632V59.08H92.1428V60.136H83.7587V62.264H91.8228V63.304H83.7587V65.576H92.2868V66.632H82.4307ZM93.7748 70.328H80.7507V69.256H93.7748V70.328ZM107.646 65.4H94.6695V64.344H100.51V62.968H95.9335V61.96H98.0615V59.224H95.8855V58.216H106.413V59.224H104.253V61.96H106.366V62.968H101.821V64.344H107.646V65.4ZM102.941 61.96V59.224H99.3735V61.96H102.941ZM106.43 71.032V72.024H96.2855V68.696H104.701V67.512H96.2375V66.536H105.998V69.624H97.5655V71.032H106.43ZM120.38 72.2H119.068V57.816H120.38V72.2ZM110.748 67.64C113.1 67.64 115.228 67.512 117.724 67.128L117.852 68.2C115.244 68.632 113.1 68.728 110.62 68.728H109.436V63.224H114.716V60.232H109.388V59.16H116.044V64.296H110.748V67.64ZM135.547 70.344H122.507V69.256H128.347V66.264C125.675 66.088 123.787 64.632 123.787 62.536C123.787 60.248 125.995 58.776 129.019 58.776C132.043 58.776 134.219 60.248 134.219 62.536C134.219 64.632 132.347 66.088 129.675 66.264V69.256H135.547V70.344ZM125.051 62.536C125.051 64.184 126.715 65.256 129.019 65.256C131.307 65.256 132.971 64.184 132.971 62.536C132.971 60.888 131.307 59.816 129.019 59.816C126.715 59.816 125.051 60.888 125.051 62.536ZM152.196 66.168H139.204V65.112H145.06V63.288H140.884V58.424H150.532V63.288H146.372V65.112H152.196V66.168ZM149.236 62.248V59.464H142.164V62.248H149.236ZM150.596 67.656V72.2H149.284V68.712H140.66V67.656H150.596ZM164.947 66.424H163.635V62.648H160.835V61.576H163.635V57.832H164.947V66.424ZM160.947 65.864C159.347 65.288 158.115 64.104 157.475 62.616C156.851 64.28 155.555 65.576 153.875 66.2L153.187 65.16C155.315 64.392 156.803 62.504 156.803 60.456V59.88H153.603V58.808H161.267V59.88H158.115V60.456C158.115 62.296 159.523 64.12 161.603 64.84L160.947 65.864ZM164.947 67.208V72.2H163.635V68.264H155.363V67.208H164.947ZM177.521 68.328V57.848H178.833V68.328H177.521ZM174.881 62.36C174.881 64.44 173.249 65.912 171.121 65.912C168.993 65.912 167.393 64.44 167.393 62.36C167.393 60.296 168.993 58.84 171.121 58.84C173.249 58.84 174.881 60.296 174.881 62.36ZM168.673 62.36C168.673 63.784 169.713 64.776 171.121 64.776C172.545 64.776 173.601 63.784 173.601 62.36C173.601 60.968 172.545 59.976 171.121 59.976C169.713 59.976 168.673 60.968 168.673 62.36ZM179.265 71.864H169.601V67.256H170.913V70.792H179.265V71.864ZM192.016 64.744V72.184H190.704V57.832H192.016V63.656H194.32V64.744H192.016ZM188.304 59.368C188.304 63.448 186.432 67.16 181.792 69.464L181.072 68.44C184.8 66.568 186.704 63.912 187.008 60.456H181.744V59.368H188.304ZM207.919 70.344H194.879V69.256H198.079V65.384C196.863 64.76 196.159 63.72 196.159 62.424C196.159 60.2 198.335 58.744 201.375 58.744C204.431 58.744 206.591 60.2 206.591 62.424C206.591 63.72 205.919 64.744 204.703 65.368V69.256H207.919V70.344ZM201.375 59.768C199.071 59.768 197.423 60.824 197.423 62.424C197.423 64.024 199.071 65.08 201.375 65.08C203.679 65.08 205.343 64.024 205.343 62.424C205.343 60.824 203.679 59.768 201.375 59.768ZM203.391 69.256V65.88C202.703 66.024 202.031 66.104 201.375 66.104C200.671 66.104 200.015 66.024 199.391 65.88V69.256H203.391ZM211.006 71.208V69.704H212.462V71.208H211.006ZM211.166 68.216C210.798 64.216 213.566 64.76 213.566 62.088C213.566 61 212.91 60.056 211.774 60.056C210.958 60.056 209.966 60.552 209.838 62.344H208.606C208.782 59.496 210.606 58.824 211.934 58.824C213.742 58.824 214.862 60.248 214.862 61.992C214.862 65.144 211.966 64.776 212.366 68.216H211.166ZM77.888 86.664V94.184H76.576V79.848H77.888V85.56H80.256V86.664H77.888ZM70.672 80.936C72.784 80.936 74.272 82.888 74.272 85.944C74.272 89 72.784 90.952 70.672 90.952C68.544 90.952 67.056 89 67.056 85.944C67.056 82.888 68.544 80.936 70.672 80.936ZM70.672 89.784C72.032 89.784 73.024 88.28 73.024 85.944C73.024 83.624 72.032 82.12 70.672 82.12C69.28 82.12 68.304 83.624 68.304 85.944C68.304 88.28 69.28 89.784 70.672 89.784ZM92.5268 94.168H91.2148V79.832H92.5268V94.168ZM82.9748 89.352C85.1667 89.352 87.3588 89.176 89.7428 88.68L89.8868 89.8C87.3748 90.312 85.1508 90.472 82.8468 90.472H81.6627V81.224H82.9748V89.352ZM95.3415 87.784V81.096H101.885V82.36H105.182V79.848H106.51V90.312H105.182V86.504H101.885V87.784H95.3415ZM96.6375 82.136V86.744H100.605V82.136H96.6375ZM101.885 85.432H105.182V83.432H101.885V85.432ZM106.845 93.864H97.2775V89.384H98.5895V92.792H106.845V93.864ZM121.83 87.272V79.848H123.142V87.272H121.83ZM119.414 86.856C117.75 86.28 116.454 85.096 115.798 83.56C115.174 85.224 113.878 86.504 112.15 87.128L111.478 86.104C113.654 85.336 115.126 83.464 115.126 81.352V80.264H116.438V81.352C116.438 83.32 117.958 85.144 120.07 85.832L119.414 86.856ZM123.638 94.024H113.894V90.456H121.862V89.032H113.862V87.992H123.158V91.448H115.19V92.984H123.638V94.024ZM137.493 94.168H136.229V79.816H137.493V94.168ZM134.597 80.152V93.432H133.349V86.056H130.981V84.984H133.349V80.152H134.597ZM129.509 83.88C129.509 86.376 130.581 88.872 132.565 89.992L131.765 90.952C130.357 90.12 129.381 88.632 128.885 86.76C128.389 88.76 127.349 90.408 125.925 91.304L125.125 90.328C127.141 89.128 128.245 86.52 128.245 83.88V82.584H125.525V81.512H132.069V82.584H129.509V83.88ZM149.134 88.008V94.2H147.806V88.008H142.014V86.936H151.534C151.982 84.872 151.982 83.352 151.982 82.008V81.816H143.63V80.76H153.262V82.008C153.262 83.352 153.262 84.872 152.862 86.936H154.99V88.008H149.134ZM155.949 82.648V81.592H159.373V79.832H160.685V81.592H163.981V82.648H155.949ZM166.413 79.848H167.741V90.776H166.413V87.736H163.981V86.664H166.413V84.728H163.981V83.656H166.413V79.848ZM163.261 86.168C163.261 87.816 161.917 88.92 160.013 88.92C158.109 88.92 156.765 87.816 156.765 86.168C156.765 84.536 158.109 83.448 160.013 83.448C161.917 83.448 163.261 84.536 163.261 86.168ZM158.013 86.168C158.013 87.192 158.797 87.896 160.013 87.896C161.229 87.896 162.013 87.192 162.013 86.168C162.013 85.144 161.229 84.472 160.013 84.472C158.797 84.472 158.013 85.144 158.013 86.168ZM168.077 93.864H158.509V89.848H159.821V92.792H168.077V93.864ZM181.116 86.84V94.184H179.804V79.832H181.116V85.752H183.244V86.84H181.116ZM174.14 81.384C174.14 84.824 173.42 88.216 170.812 90.952L169.788 90.216C171.916 87.976 172.748 85.4 172.892 82.472H170.252V81.384H174.14ZM178.06 81.384C178.06 84.84 177.564 88.792 174.924 91.912L173.868 91.192C176.124 88.648 176.7 85.528 176.828 82.472H174.62V81.384H178.06ZM195.498 94.184H194.186V79.848H195.498V94.184ZM188.874 84.216C188.874 86.648 190.602 89.128 192.714 90.024L191.978 91.08C190.314 90.312 188.906 88.664 188.218 86.696C187.578 88.776 186.122 90.632 184.522 91.432L183.754 90.376C185.818 89.384 187.562 86.696 187.562 84.216V82.392H184.234V81.304H192.25V82.392H188.874V84.216ZM211.507 86.84V94.184H210.195V79.848H211.507V85.736H213.859V86.84H211.507ZM208.835 82.136V83.192H200.371V82.136H203.987V80.008H205.299V82.136H208.835ZM204.659 84.376C206.707 84.376 208.163 85.768 208.163 87.688C208.163 89.656 206.707 90.984 204.659 90.984C202.643 90.984 201.187 89.656 201.187 87.688C201.187 85.768 202.643 84.376 204.659 84.376ZM204.659 89.896C205.987 89.896 206.915 88.968 206.915 87.688C206.915 86.408 205.987 85.464 204.659 85.464C203.363 85.464 202.419 86.408 202.419 87.688C202.419 88.968 203.363 89.896 204.659 89.896ZM216.114 85.224V80.36H217.426V84.152H225.874V85.224H216.114ZM227.362 88.2H214.354V87.144H227.362V88.2ZM225.954 92.76V93.832H216.018V89.64H217.33V92.76H225.954ZM238.475 84.952V83.88H241.563V79.848H242.891V89.544H241.563V84.952H238.475ZM238.427 80.968C238.427 84.664 235.979 87.304 231.883 88.632L231.307 87.592C234.763 86.504 236.763 84.616 237.019 82.04H231.995V80.968H238.427ZM238.907 88.952C238.907 91.016 241.131 92.6 243.659 93.08L243.131 94.104C241.035 93.672 239.099 92.552 238.251 90.904C237.387 92.584 235.467 93.704 233.323 94.136L232.795 93.096C235.355 92.664 237.595 91.032 237.595 88.952V88.296H238.907V88.952ZM251.465 85.048C248.313 85.048 246.425 84.184 246.425 82.568C246.425 80.952 248.313 80.072 251.465 80.072C254.617 80.072 256.505 80.952 256.505 82.568C256.505 84.184 254.617 85.048 251.465 85.048ZM251.465 81.064C249.081 81.064 247.769 81.608 247.769 82.568C247.769 83.528 249.081 84.072 251.465 84.072C253.849 84.072 255.161 83.528 255.161 82.568C255.161 81.608 253.849 81.064 251.465 81.064ZM257.961 87.08H244.969V86.024H257.961V87.08ZM256.729 93V94.024H246.585V90.584H255.001V89.304H246.537V88.312H256.297V91.544H247.865V93H256.729ZM274.658 88.168H261.666V87.112H267.522V85.288H263.346V80.424H272.994V85.288H268.834V87.112H274.658V88.168ZM271.698 84.248V81.464H264.626V84.248H271.698ZM273.058 89.656V94.2H271.746V90.712H263.122V89.656H273.058ZM288.609 92.44H275.585V91.368H279.201V87.96H276.785V86.904H278.977V82.216H276.753V81.16H287.393V82.216H285.169V86.904H287.377V87.96H284.945V91.368H288.609V92.44ZM283.857 86.904V82.216H280.289V86.904H283.857ZM283.633 91.368V87.96H280.513V91.368H283.633ZM302.544 92.408H289.504V91.336H295.344V88.632H291.136V84.2H299.648V81.96H291.104V80.888H300.928V85.256H292.432V87.576H301.264V88.632H296.672V91.336H302.544V92.408ZM317.273 86.84V94.184H315.961V79.848H317.273V85.736H319.625V86.84H317.273ZM314.601 82.136V83.192H306.137V82.136H309.753V80.008H311.065V82.136H314.601ZM310.425 84.376C312.473 84.376 313.929 85.768 313.929 87.688C313.929 89.656 312.473 90.984 310.425 90.984C308.409 90.984 306.953 89.656 306.953 87.688C306.953 85.768 308.409 84.376 310.425 84.376ZM310.425 89.896C311.753 89.896 312.681 88.968 312.681 87.688C312.681 86.408 311.753 85.464 310.425 85.464C309.129 85.464 308.185 86.408 308.185 87.688C308.185 88.968 309.129 89.896 310.425 89.896ZM331.176 86.648V94.184H329.864V79.832H331.176V85.56H333.48V86.648H331.176ZM322.008 89.448C324.072 89.448 326.2 89.272 328.52 88.808L328.68 89.896C326.232 90.392 324.04 90.552 321.848 90.552H320.712V81.224H322.008V89.448ZM347.078 92.344H334.038V91.256H337.238V87.384C336.022 86.76 335.318 85.72 335.318 84.424C335.318 82.2 337.494 80.744 340.534 80.744C343.59 80.744 345.75 82.2 345.75 84.424C345.75 85.72 345.078 86.744 343.862 87.368V91.256H347.078V92.344ZM340.534 81.768C338.23 81.768 336.582 82.824 336.582 84.424C336.582 86.024 338.23 87.08 340.534 87.08C342.838 87.08 344.502 86.024 344.502 84.424C344.502 82.824 342.838 81.768 340.534 81.768ZM342.55 91.256V87.88C341.862 88.024 341.19 88.104 340.534 88.104C339.83 88.104 339.174 88.024 338.55 87.88V91.256H342.55ZM350.165 93.208V91.704H351.621V93.208H350.165ZM350.325 90.216C349.957 86.216 352.725 86.76 352.725 84.088C352.725 83 352.069 82.056 350.933 82.056C350.117 82.056 349.125 82.552 348.997 84.344H347.765C347.941 81.496 349.765 80.824 351.093 80.824C352.901 80.824 354.021 82.248 354.021 83.992C354.021 87.144 351.125 86.776 351.525 90.216H350.325Z" fill="#212121"/>
<defs>
<filter id="filter0_d_2543_11542" x="0" y="0" width="425" height="152" filterUnits="userSpaceOnUse" color-interpolation-filters="sRGB">
<feFlood flood-opacity="0" result="BackgroundImageFix"/>
<feColorMatrix in="SourceAlpha" type="matrix" values="0 0 0 0 0 0 0 0 0 0 0 0 0 0 0 0 0 0 127 0" result="hardAlpha"/>
<feOffset/>
<feGaussianBlur stdDeviation="20"/>
<feComposite in2="hardAlpha" operator="out"/>
<feColorMatrix type="matrix" values="0 0 0 0 0 0 0 0 0 0 0 0 0 0 0 0 0 0 0.08 0"/>
<feBlend mode="normal" in2="BackgroundImageFix" result="effect1_dropShadow_2543_11542"/>
<feBlend mode="normal" in="SourceGraphic" in2="effect1_dropShadow_2543_11542" result="shape"/>
</filter>
</defs>
</svg>
