<svg width="425" height="152" viewBox="0 0 425 152" fill="none" xmlns="http://www.w3.org/2000/svg">
<g opacity="0.8" filter="url(#filter0_f_2543_11272)">
<g filter="url(#filter1_d_2543_11272)">
<path d="M40 51C40 44.9249 44.9249 40 51 40H374C380.075 40 385 44.9249 385 51V101C385 107.075 380.075 112 374 112H40V51Z" fill="white"/>
</g>
<path d="M73 60.328V59.272H83.64V60.328H81.416V65.32H83.608V66.392H73.032V65.32H75.224V60.328H73ZM76.536 60.328V65.32H80.104V60.328H76.536ZM84.856 70.344H71.848V69.256H84.856V70.344ZM98.7908 70.408H85.7507V69.336H91.5908V66.632H87.3828V62.2H95.8948V59.96H87.3507V58.888H97.1748V63.256H88.6788V65.576H97.5108V66.632H92.9187V69.336H98.7908V70.408ZM111.798 66.616H110.533V57.848H111.798V66.616ZM107.766 58.152H109.014V66.504H107.766V62.6H105.605V61.528H107.766V58.152ZM106.069 65.928C104.726 65.352 103.813 64.344 103.317 63.064C102.821 64.472 101.845 65.64 100.437 66.264L99.7495 65.256C101.589 64.44 102.661 62.6 102.661 60.888V60.072H100.021V59H106.39V60.072H103.925V60.872C103.925 62.456 104.933 64.152 106.726 64.92L106.069 65.928ZM111.798 67.256V72.2H110.486V68.312H102.149V67.256H111.798ZM115.268 66.632V59.08H124.98V60.136H116.596V62.264H124.66V63.304H116.596V65.576H125.124V66.632H115.268ZM126.612 70.328H113.588V69.256H126.612V70.328ZM129.267 63.224V58.36H130.579V62.152H139.027V63.224H129.267ZM140.515 66.2H127.507V65.144H140.515V66.2ZM139.107 70.76V71.832H129.171V67.64H130.483V70.76H139.107ZM156.044 72.216H154.732V64.376H151.612C151.484 67.192 150.06 68.952 148.06 68.952C145.964 68.952 144.476 67 144.476 63.944C144.476 60.888 145.964 58.936 148.06 58.936C149.996 58.936 151.404 60.616 151.612 63.304H154.732V57.832H156.044V72.216ZM148.06 67.784C149.42 67.784 150.38 66.28 150.38 63.944C150.38 61.624 149.42 60.12 148.06 60.12C146.684 60.12 145.724 61.624 145.724 63.944C145.724 66.28 146.684 67.784 148.06 67.784ZM168.779 57.848H170.107V68.296H168.779V62.856H166.203V61.784H168.779V57.848ZM167.547 65.656C166.267 65.96 165.227 65.976 163.643 65.976H162.907V59.032H166.891V60.088H164.203V64.904C165.419 64.888 166.331 64.84 167.419 64.584L167.547 65.656ZM162.427 65.672C161.131 65.976 160.075 65.976 159.163 65.976H158.523V59.032H162.139V60.088H159.819V64.904C160.523 64.856 161.355 64.808 162.315 64.6L162.427 65.672ZM170.459 71.864H160.507V67.416H161.819V70.792H170.459V71.864ZM188.1 62.536H185.972V66.472H184.66V57.832H185.972V61.448H188.1V62.536ZM175.428 65.352V58.744H176.724V60.904H180.788V58.744H182.068V65.352H175.428ZM176.724 61.928V64.296H180.788V61.928H176.724ZM181.412 66.84C184.308 66.84 186.132 67.8 186.132 69.512C186.132 71.224 184.308 72.184 181.412 72.184C178.484 72.184 176.676 71.224 176.676 69.512C176.676 67.8 178.484 66.84 181.412 66.84ZM181.412 71.144C183.54 71.144 184.82 70.536 184.82 69.512C184.82 68.488 183.54 67.896 181.412 67.896C179.22 67.896 177.988 68.488 177.988 69.512C177.988 70.536 179.22 71.144 181.412 71.144ZM200.53 66.472H199.218V57.848H200.53V66.472ZM196.754 65.624C195.09 65.032 193.81 63.816 193.17 62.216C192.546 63.944 191.234 65.24 189.554 65.88L188.882 64.84C191.042 64.072 192.498 62.024 192.498 59.912V58.504H193.81V59.912C193.81 61.976 195.282 63.864 197.41 64.584L196.754 65.624ZM200.53 67.208V72.2H199.218V68.264H190.93V67.208H200.53ZM209.153 58.728C212.129 58.728 214.369 60.328 214.369 62.696C214.369 65.096 212.129 66.664 209.153 66.664C206.177 66.664 203.937 65.096 203.937 62.696C203.937 60.328 206.177 58.728 209.153 58.728ZM209.153 59.8C206.897 59.8 205.185 60.968 205.185 62.696C205.185 64.44 206.897 65.592 209.153 65.592C211.409 65.592 213.121 64.44 213.121 62.696C213.121 60.968 211.409 59.8 209.153 59.8ZM215.697 70.28H202.657V69.192H215.697V70.28ZM229.616 70.408H216.576V69.336H222.416V66.632H218.208V62.2H226.72V59.96H218.176V58.888H228V63.256H219.504V65.576H228.336V66.632H223.744V69.336H229.616V70.408ZM243.753 68.344V57.848H245.065V68.344H243.753ZM241.417 66.296C239.753 65.72 238.457 64.568 237.801 63.032C237.177 64.696 235.897 65.944 234.169 66.568L233.481 65.544C235.657 64.776 237.113 62.936 237.113 60.872V60.088H233.833V59.032H241.705V60.088H238.457V60.872C238.457 62.792 239.945 64.568 242.057 65.256L241.417 66.296ZM245.497 71.864H235.833V67.352H237.145V70.792H245.497V71.864ZM254.983 66.408V58.12H256.231V61.736H258.055V57.832H259.319V66.92H258.055V62.808H256.231V66.408H254.983ZM247.127 60.584V59.544H250.135V57.944H251.431V59.544H254.423V60.584H247.127ZM253.847 63.784C253.847 65.272 252.599 66.248 250.791 66.248C248.983 66.248 247.719 65.272 247.719 63.784C247.719 62.312 248.983 61.336 250.791 61.336C252.599 61.336 253.847 62.312 253.847 63.784ZM248.903 63.784C248.903 64.68 249.639 65.272 250.791 65.272C251.943 65.272 252.679 64.68 252.679 63.784C252.679 62.888 251.943 62.312 250.791 62.312C249.639 62.312 248.903 62.888 248.903 63.784ZM254.599 67.16C257.591 67.16 259.399 68.072 259.399 69.672C259.399 71.272 257.591 72.168 254.599 72.168C251.607 72.168 249.799 71.272 249.799 69.672C249.799 68.072 251.607 67.16 254.599 67.16ZM254.599 71.16C256.791 71.16 258.087 70.632 258.087 69.672C258.087 68.712 256.791 68.168 254.599 68.168C252.407 68.168 251.095 68.712 251.095 69.672C251.095 70.632 252.407 71.16 254.599 71.16ZM272.822 72.216H271.51V57.816H272.822V72.216ZM266.518 67.896C267.926 67.832 269.286 67.768 270.566 67.592L270.678 68.552C267.526 69.016 264.118 69.096 261.382 69.096L261.222 67.992C262.454 67.992 263.798 67.992 265.206 67.944V65.096H262.278V59.176H269.542V60.264H263.574V64.024H269.606V65.096H266.518V67.896ZM276.421 60.344V59.272H286.485V60.696C286.485 62.488 286.501 64.44 285.941 67.336L284.629 67.192C285.189 64.456 285.173 62.408 285.173 60.696V60.344H276.421ZM288.037 70.168H275.061V69.096H280.101V63.96H281.413V69.096H288.037V70.168ZM83.624 94.184H82.312V79.832H83.624V94.184ZM79.416 81.384C79.416 85.528 77.528 89.16 72.744 91.512L72.04 90.44C75.896 88.6 77.816 85.848 78.088 82.44H72.696V81.384H79.416ZM99.0308 85.288H96.9028V90.328H95.5908V79.848H96.9028V84.2H99.0308V85.288ZM93.0627 80.952C93.0627 84.664 90.4707 87.4 86.3267 88.68L85.7987 87.64C89.1588 86.584 91.3988 84.552 91.6548 82.024H86.3747V80.952H93.0627ZM97.5268 92.792V93.864H87.9588V89.256H89.2708V92.792H97.5268ZM106.166 86.04C103.093 86.04 101.125 84.984 101.125 83.192C101.125 81.4 103.093 80.328 106.166 80.328C109.238 80.328 111.206 81.4 111.206 83.192C111.206 84.984 109.238 86.04 106.166 86.04ZM106.166 81.384C103.909 81.384 102.469 82.04 102.469 83.192C102.469 84.344 103.909 84.984 106.166 84.984C108.422 84.984 109.861 84.344 109.861 83.192C109.861 82.04 108.422 81.384 106.166 81.384ZM112.646 88.44H99.6695V87.384H112.646V88.44ZM111.222 92.792V93.864H101.349V89.704H102.661V92.792H111.222ZM128.206 94.216H126.894V86.376H123.774C123.646 89.192 122.222 90.952 120.222 90.952C118.126 90.952 116.638 89 116.638 85.944C116.638 82.888 118.126 80.936 120.222 80.936C122.158 80.936 123.566 82.616 123.774 85.304H126.894V79.832H128.206V94.216ZM120.222 89.784C121.582 89.784 122.542 88.28 122.542 85.944C122.542 83.624 121.582 82.12 120.222 82.12C118.846 82.12 117.886 83.624 117.886 85.944C117.886 88.28 118.846 89.784 120.222 89.784ZM131.885 87.4V81.096H133.197V86.328H141.821V87.4H131.885ZM143.309 92.216H130.285V91.128H143.309V92.216ZM157.494 79.848H158.822V88.392H157.494V84.632H154.662V83.56H157.494V79.848ZM154.806 87.848C153.206 87.272 151.974 86.088 151.35 84.616C150.726 86.28 149.414 87.624 147.734 88.264L147.046 87.224C149.174 86.456 150.662 84.488 150.662 82.44V81.944H147.462V80.888H155.126V81.944H151.974V82.44C151.974 84.28 153.382 86.104 155.462 86.824L154.806 87.848ZM154.086 88.84C157.03 88.84 158.854 89.8 158.854 91.512C158.854 93.224 157.03 94.184 154.086 94.184C151.142 94.184 149.302 93.224 149.302 91.512C149.302 89.8 151.142 88.84 154.086 88.84ZM154.086 93.16C156.278 93.16 157.558 92.552 157.558 91.512C157.558 90.472 156.278 89.848 154.086 89.848C151.894 89.848 150.614 90.472 150.614 91.512C150.614 92.552 151.894 93.16 154.086 93.16ZM173.941 92.376H160.901V91.288H166.741V87.608H162.565V80.984H172.293V82.056H163.877V86.552H172.437V87.608H168.069V91.288H173.941V92.376ZM187.86 92.408H174.82V91.336H180.66V88.632H176.452V84.2H184.964V81.96H176.42V80.888H186.244V85.256H177.748V87.576H186.58V88.632H181.988V91.336H187.86V92.408ZM203.724 94.184H202.476V79.832H203.724V94.184ZM200.908 80.152V93.48H199.66V88.76H197.436C196.924 90.232 196.044 91.032 194.764 91.032C192.908 91.032 191.708 89.096 191.708 86.024C191.708 82.968 192.908 81.032 194.764 81.032C196.044 81.032 196.94 81.832 197.436 83.304H199.66V80.152H200.908ZM194.764 89.816C195.916 89.816 196.636 88.408 196.636 86.024C196.636 83.704 195.916 82.248 194.764 82.248C193.612 82.248 192.892 83.704 192.892 86.024C192.892 88.408 193.612 89.816 194.764 89.816ZM199.66 84.376H197.708C197.788 84.888 197.836 85.4 197.836 86.024C197.836 86.648 197.788 87.16 197.708 87.672H199.66V84.376ZM218.715 84.632H216.587V88.536H215.275V79.848H216.587V83.544H218.715V84.632ZM213.051 87.608C211.499 87.032 210.267 85.848 209.627 84.376C209.035 86.056 207.755 87.368 206.075 88.008L205.387 86.968C207.563 86.2 208.955 84.2 208.955 82.04V80.568H210.267V82.152C210.267 84.072 211.691 85.896 213.739 86.584L213.051 87.608ZM212.027 88.936C214.923 88.936 216.747 89.896 216.747 91.56C216.747 93.224 214.923 94.168 212.027 94.168C209.099 94.168 207.291 93.224 207.291 91.56C207.291 89.896 209.099 88.936 212.027 88.936ZM212.027 93.144C214.155 93.144 215.435 92.584 215.435 91.56C215.435 90.536 214.155 89.96 212.027 89.96C209.899 89.96 208.603 90.536 208.603 91.56C208.603 92.584 209.899 93.144 212.027 93.144ZM230.426 86.84V94.184H229.114V79.848H230.426V85.736H232.778V86.84H230.426ZM227.754 82.136V83.192H219.29V82.136H222.906V80.008H224.218V82.136H227.754ZM223.578 84.376C225.626 84.376 227.082 85.768 227.082 87.688C227.082 89.656 225.626 90.984 223.578 90.984C221.562 90.984 220.106 89.656 220.106 87.688C220.106 85.768 221.562 84.376 223.578 84.376ZM223.578 89.896C224.906 89.896 225.834 88.968 225.834 87.688C225.834 86.408 224.906 85.464 223.578 85.464C222.282 85.464 221.338 86.408 221.338 87.688C221.338 88.968 222.282 89.896 223.578 89.896ZM234.665 82.344V81.272H244.729V82.696C244.729 84.488 244.745 86.44 244.185 89.336L242.873 89.192C243.433 86.456 243.417 84.408 243.417 82.696V82.344H234.665ZM246.281 92.168H233.305V91.096H238.345V85.96H239.657V91.096H246.281V92.168ZM260.449 88.04V79.848H261.761V88.04H260.449ZM254.049 87.368C251.889 87.368 250.321 86.008 250.321 84.024C250.321 82.04 251.889 80.68 254.049 80.68C256.225 80.68 257.809 82.04 257.809 84.024C257.809 86.008 256.225 87.368 254.049 87.368ZM254.049 81.768C252.625 81.768 251.601 82.696 251.601 84.024C251.601 85.352 252.625 86.28 254.049 86.28C255.473 86.28 256.529 85.352 256.529 84.024C256.529 82.696 255.473 81.768 254.049 81.768ZM260.161 89.432C260.161 90.92 261.201 92.408 263.041 93L262.385 93.992C260.977 93.48 260.001 92.504 259.505 91.288C259.057 92.456 258.193 93.544 256.849 94.12C255.441 93.56 254.609 92.552 254.177 91.336C253.665 92.488 252.689 93.48 251.345 93.992L250.689 93C252.497 92.36 253.569 90.824 253.569 89.432V88.664H254.833V89.432C254.833 90.712 255.473 92.056 256.817 92.84C258.193 91.976 258.881 90.552 258.881 89.432V88.664H260.161V89.432ZM265.648 85.224V80.36H266.96V84.152H275.408V85.224H265.648ZM276.896 88.2H263.888V87.144H276.896V88.2ZM275.488 92.76V93.832H265.552V89.64H266.864V92.76H275.488ZM289.567 94.184H288.255V79.848H289.567V94.184ZM282.943 84.216C282.943 86.648 284.671 89.128 286.783 90.024L286.047 91.08C284.383 90.312 282.975 88.664 282.287 86.696C281.647 88.776 280.191 90.632 278.591 91.432L277.823 90.376C279.887 89.384 281.631 86.696 281.631 84.216V82.392H278.303V81.304H286.319V82.392H282.943V84.216ZM301.672 88.888C304.408 89.016 305.96 89.912 305.96 91.512C305.96 93.224 304.088 94.168 301.016 94.168C297.832 94.168 296.024 93.24 296.024 91.512C296.024 89.912 297.576 89.016 300.344 88.888V86.632H294.52V85.576H304.168C304.568 83.848 304.568 82.6 304.568 81.512H296.184V80.44H305.864V81.48C305.864 82.568 305.864 83.848 305.496 85.576H307.528V86.632H301.672V88.888ZM304.648 91.512C304.648 90.488 303.272 89.928 301.016 89.928C298.696 89.928 297.336 90.488 297.336 91.512C297.336 92.536 298.696 93.112 301.016 93.112C303.272 93.112 304.648 92.536 304.648 91.512ZM321.463 86.936H308.423V85.88H318.071C318.471 84.088 318.487 82.792 318.487 81.656H310.087V80.6H319.783V81.656C319.783 82.792 319.783 84.072 319.399 85.88H321.463V86.936ZM319.831 88.888V93.992H310.039V88.888H319.831ZM318.535 92.936V89.944H311.319V92.936H318.535ZM334.517 94.168H333.253V86.952H331.413V93.48H330.181V80.152H331.413V85.88H333.253V79.816H334.517V94.168ZM329.461 82.28V83.352H322.341V82.28H325.253V80.248H326.549V82.28H329.461ZM325.909 84.312C327.685 84.312 328.981 85.656 328.981 87.576C328.981 89.528 327.685 90.856 325.909 90.856C324.133 90.856 322.837 89.528 322.837 87.576C322.837 85.656 324.133 84.312 325.909 84.312ZM325.909 89.768C327.013 89.768 327.813 88.856 327.813 87.576C327.813 86.328 327.013 85.416 325.909 85.416C324.757 85.416 324.005 86.296 324.005 87.576C324.005 88.856 324.805 89.768 325.909 89.768ZM349.3 92.344H336.26V91.256H339.46V87.384C338.244 86.76 337.54 85.72 337.54 84.424C337.54 82.2 339.716 80.744 342.756 80.744C345.812 80.744 347.972 82.2 347.972 84.424C347.972 85.72 347.3 86.744 346.084 87.368V91.256H349.3V92.344ZM342.756 81.768C340.452 81.768 338.804 82.824 338.804 84.424C338.804 86.024 340.452 87.08 342.756 87.08C345.06 87.08 346.724 86.024 346.724 84.424C346.724 82.824 345.06 81.768 342.756 81.768ZM344.772 91.256V87.88C344.084 88.024 343.412 88.104 342.756 88.104C342.052 88.104 341.396 88.024 340.772 87.88V91.256H344.772ZM352.387 82.68L352.195 90.136H351.187L350.995 82.68L350.947 81.016H352.435L352.387 82.68ZM350.963 93.208V91.704H352.419V93.208H350.963Z" fill="#212121"/>
<circle cx="380" cy="43" r="10" fill="#FF706C"/>
</g>
<defs>
<filter id="filter0_f_2543_11272" x="37" y="30" width="356" height="85" filterUnits="userSpaceOnUse" color-interpolation-filters="sRGB">
<feFlood flood-opacity="0" result="BackgroundImageFix"/>
<feBlend mode="normal" in="SourceGraphic" in2="BackgroundImageFix" result="shape"/>
<feGaussianBlur stdDeviation="1.5" result="effect1_foregroundBlur_2543_11272"/>
</filter>
<filter id="filter1_d_2543_11272" x="0" y="0" width="425" height="152" filterUnits="userSpaceOnUse" color-interpolation-filters="sRGB">
<feFlood flood-opacity="0" result="BackgroundImageFix"/>
<feColorMatrix in="SourceAlpha" type="matrix" values="0 0 0 0 0 0 0 0 0 0 0 0 0 0 0 0 0 0 127 0" result="hardAlpha"/>
<feOffset/>
<feGaussianBlur stdDeviation="20"/>
<feComposite in2="hardAlpha" operator="out"/>
<feColorMatrix type="matrix" values="0 0 0 0 0 0 0 0 0 0 0 0 0 0 0 0 0 0 0.08 0"/>
<feBlend mode="normal" in2="BackgroundImageFix" result="effect1_dropShadow_2543_11272"/>
<feBlend mode="normal" in="SourceGraphic" in2="effect1_dropShadow_2543_11272" result="shape"/>
</filter>
</defs>
</svg>
