<svg width="current" height="current" viewBox="0 0 118 38" fill="none"
    xmlns="http://www.w3.org/2000/svg">
    <path fill-rule="evenodd" clip-rule="evenodd" d="M1.789 1.8091C-0.596338 4.22125 -0.59633 8.1321 1.78901 10.5442L17.1305 26.0581C19.5158 28.4702 23.3832 28.4702 25.7685 26.0581C28.1539 23.646 28.1539 19.7351 25.7685 17.323L10.4271 1.80911C8.04173 -0.603035 4.17434 -0.603035 1.789 1.8091ZM7.61643 9.69731C8.70617 9.69731 9.58957 8.80398 9.58957 7.702C9.58957 6.60001 8.70617 5.70668 7.61643 5.70668C6.52669 5.70668 5.64329 6.60001 5.64329 7.702C5.64329 8.80398 6.52669 9.69731 7.61643 9.69731Z" fill="#FF5B56"/>
    <path d="M0.0898438 12.0584V32.4134C0.0898438 35.4989 2.5634 38.0003 5.61465 38.0003H7.98242C11.0337 38.0003 13.5072 35.4989 13.5072 32.4134V25.6265L0.0898438 12.0584Z" fill="#FF5B56"/>
    <path d="M24.5529 13.6575H30.4762C33.5275 13.6575 36.001 11.1561 36.001 8.07062V5.67624C36.001 2.59071 33.5275 0.0893555 30.4762 0.0893555H11.1355L24.5529 13.6575Z" fill="#FF5B56"/>
    <path d="M40 17H53.4193V20.9852H44.5677V25.8512H52.1239V29.8363H44.5677V38H40V17Z" fill="#FF706C"/>
    <path d="M60.1289 26.2402H74.387V28.7602H60.1289V26.2402Z" fill="#FF706C"/>
    <path d="M79.418 34.0149H84.5022V20.9852H79.418V17H94.5147V20.9852H89.4305V34.0149H94.5147V38H79.418V34.0149Z" fill="#FF706C"/>
    <path d="M106.78 20.9852H100.387V17H118V20.9852H111.607V38H106.78V20.9852Z" fill="#FF706C"/>
</svg>
